<svg width="295" height="122" fill="none" xmlns="http://www.w3.org/2000/svg"><g filter="url(#a)"><rect x="12" y="2" width="270.149" height="97.949" rx="14.655" fill="#fff" fill-opacity=".05"/><rect x="28" y="18" width="65.949" height="65.949" rx="9.77" fill="#D9D9D9" fill-opacity=".1"/><rect x="28.611" y="18.611" width="64.728" height="64.728" rx="9.16" stroke="#fff" stroke-opacity=".1" stroke-width="1.221"/><g filter="url(#b)"><path fill-rule="evenodd" clip-rule="evenodd" d="M65.125 42.792a4.625 4.625 0 1 1-9.25 0 4.625 4.625 0 0 1 9.25 0Zm3.084 0a7.708 7.708 0 1 1-15.417 0 7.708 7.708 0 0 1 15.416 0ZM60.5 56.667a12.334 12.334 0 0 0-11.941 9.25h-3.164a15.423 15.423 0 0 1 9.205-11.16 15.416 15.416 0 0 1 21.005 11.16h-3.163a12.322 12.322 0 0 0-3.22-5.638 12.334 12.334 0 0 0-8.722-3.612Z" fill="#fff" fill-opacity=".4"/></g><rect x="102.498" y="55.859" width="163.651" height="21.983" rx="9.77" fill="#D9D9D9" fill-opacity=".1"/><rect x="103.109" y="56.47" width="162.43" height="20.762" rx="9.16" stroke="#fff" stroke-opacity=".1" stroke-width="1.221"/><rect x="102.498" y="24.106" width="65.949" height="21.983" rx="9.77" fill="#D9D9D9" fill-opacity=".1"/><rect x="103.109" y="24.717" width="64.728" height="20.762" rx="9.16" stroke="#fff" stroke-opacity=".1" stroke-width="1.221"/><rect x="12.611" y="2.611" width="268.928" height="96.728" rx="14.045" stroke="#fff" stroke-opacity=".1" stroke-width="1.221"/></g><defs><filter id="a" x="0" y="0" width="294.149" height="121.949" filterUnits="userSpaceOnUse" color-interpolation-filters="sRGB"><feFlood flood-opacity="0" result="BackgroundImageFix"/><feColorMatrix in="SourceAlpha" values="0 0 0 0 0 0 0 0 0 0 0 0 0 0 0 0 0 0 127 0" result="hardAlpha"/><feMorphology radius="2" in="SourceAlpha" result="effect1_dropShadow_647_12090"/><feOffset dy="4"/><feGaussianBlur stdDeviation="3"/><feColorMatrix values="0 0 0 0 0 0 0 0 0 0 0 0 0 0 0 0 0 0 0.05 0"/><feBlend in2="BackgroundImageFix" result="effect1_dropShadow_647_12090"/><feColorMatrix in="SourceAlpha" values="0 0 0 0 0 0 0 0 0 0 0 0 0 0 0 0 0 0 127 0" result="hardAlpha"/><feMorphology radius="3" in="SourceAlpha" result="effect2_dropShadow_647_12090"/><feOffset dy="10"/><feGaussianBlur stdDeviation="7.5"/><feColorMatrix values="0 0 0 0 0 0 0 0 0 0 0 0 0 0 0 0 0 0 0.1 0"/><feBlend in2="effect1_dropShadow_647_12090" result="effect2_dropShadow_647_12090"/><feBlend in="SourceGraphic" in2="effect2_dropShadow_647_12090" result="shape"/></filter><filter id="b" x="33.395" y="33.083" width="54.21" height="54.833" filterUnits="userSpaceOnUse" color-interpolation-filters="sRGB"><feFlood flood-opacity="0" result="BackgroundImageFix"/><feColorMatrix in="SourceAlpha" values="0 0 0 0 0 0 0 0 0 0 0 0 0 0 0 0 0 0 127 0" result="hardAlpha"/><feMorphology radius="2" in="SourceAlpha" result="effect1_dropShadow_647_12090"/><feOffset dy="4"/><feGaussianBlur stdDeviation="3"/><feColorMatrix values="0 0 0 0 0 0 0 0 0 0 0 0 0 0 0 0 0 0 0.05 0"/><feBlend in2="BackgroundImageFix" result="effect1_dropShadow_647_12090"/><feColorMatrix in="SourceAlpha" values="0 0 0 0 0 0 0 0 0 0 0 0 0 0 0 0 0 0 127 0" result="hardAlpha"/><feMorphology radius="3" in="SourceAlpha" result="effect2_dropShadow_647_12090"/><feOffset dy="10"/><feGaussianBlur stdDeviation="7.5"/><feColorMatrix values="0 0 0 0 0 0 0 0 0 0 0 0 0 0 0 0 0 0 0.1 0"/><feBlend in2="effect1_dropShadow_647_12090" result="effect2_dropShadow_647_12090"/><feBlend in="SourceGraphic" in2="effect2_dropShadow_647_12090" result="shape"/></filter></defs></svg>