<svg width="464" height="253" fill="none" xmlns="http://www.w3.org/2000/svg"><g filter="url(#a)"><rect x="264.63" y="103.352" width="96.025" height="80.661" rx="22.505" fill="url(#b)" fill-opacity=".6"/><g clip-path="url(#c)" filter="url(#d)"><g clip-path="url(#e)"><rect x="282.005" y="113.045" width="61.276" height="61.276" rx="15.319" fill="#fff"/><g clip-path="url(#f)"><path fill="#EF95C2" d="M282.005 113.045h61.276v61.276h-61.276z"/><g filter="url(#g)"><path d="M269.239 177.51 356.046 129v48.51h-86.807Z" fill="url(#h)"/></g><g filter="url(#i)"><path d="M356.046 178.786 270.516 129v49.786h85.53Z" fill="url(#j)" shape-rendering="crispEdges"/></g><g filter="url(#k)" shape-rendering="crispEdges"><path d="m312.643 145.598-30.638-18.683v-25.359c0-.353.286-.639.638-.639h57.934a2.554 2.554 0 0 1 2.553 2.518l.151 10.887-.186 12.593-30.452 18.683Z" fill="url(#l)"/><path d="M282.643 101.077h57.934a2.393 2.393 0 0 1 2.393 2.36l.151 10.885-.185 12.502-30.293 18.587-30.478-18.586v-25.269c0-.265.214-.479.478-.479Z" stroke="#fff" stroke-opacity=".3" stroke-width=".319"/></g></g></g></g><rect x="264.912" y="103.633" width="95.463" height="80.099" rx="22.224" stroke="url(#m)" stroke-width=".563"/></g><g filter="url(#n)"><rect x="104" y="103.561" width="90.367" height="80.315" rx="22.505" fill="url(#o)" fill-opacity=".6"/><g clip-path="url(#p)"><path d="M125.16 164.582h8.851v-21.495l-12.644-9.483v27.184c0 2.099 1.7 3.794 3.793 3.794Z" fill="#4285F4"/><path d="M164.356 164.582h8.851a3.792 3.792 0 0 0 3.793-3.794v-27.184l-12.644 9.483" fill="#34A853"/><path d="M164.356 126.65v16.437L177 133.604v-5.058c0-4.691-5.354-7.365-9.103-4.552" fill="#FBBC04"/><path d="M134.011 143.088V126.65l15.173 11.38 15.172-11.38v16.438l-15.172 11.379" fill="#EA4335"/><path d="M121.367 128.546v5.058l12.644 9.483V126.65l-3.541-2.656c-3.755-2.813-9.103-.139-9.103 4.552" fill="#C5221F"/></g><rect x="104.281" y="103.842" width="89.804" height="79.752" rx="22.224" stroke="url(#q)" stroke-width=".563"/></g><path d="m235.358 70.379-.223-1.138.223 1.138Zm56.009 13.633-5.551-12.179-7.771 10.897 13.322 1.282Zm-130.162 21.053c17.089-6.64 26.897-13.363 36.783-19.216 9.848-5.832 19.879-10.874 37.592-14.333l-.445-2.275c-18.038 3.522-28.317 8.685-38.329 14.613-9.974 5.906-19.576 12.497-36.44 19.05l.839 2.161Zm74.375-33.549c21.408-4.179 37.606 2.146 46.713 7.441l1.165-2.004c-9.445-5.491-26.216-12.028-48.323-7.712l.445 2.275Z" fill="url(#r)"/><defs><linearGradient id="b" x1="277.249" y1="93.897" x2="336.525" y2="152.027" gradientUnits="userSpaceOnUse"><stop stop-color="#FFBDDE" stop-opacity=".31"/><stop offset="1" stop-color="#FFBFDF"/></linearGradient><linearGradient id="h" x1="312.237" y1="146.383" x2="312.64" y2="177.51" gradientUnits="userSpaceOnUse"><stop stop-color="#fff" stop-opacity=".6"/><stop offset="1" stop-color="#fff" stop-opacity="0"/></linearGradient><linearGradient id="j" x1="313.281" y1="129" x2="313.281" y2="178.786" gradientUnits="userSpaceOnUse"><stop stop-color="#fff" stop-opacity=".6"/><stop offset=".922" stop-color="#fff" stop-opacity=".4"/></linearGradient><linearGradient id="l" x1="312.144" y1="114.133" x2="312.144" y2="145.598" gradientUnits="userSpaceOnUse"><stop stop-color="#fff" stop-opacity=".4"/><stop offset="1" stop-color="#fff" stop-opacity=".2"/></linearGradient><linearGradient id="m" x1="290.428" y1="99.596" x2="375.333" y2="132.89" gradientUnits="userSpaceOnUse"><stop stop-color="#fff" stop-opacity=".4"/><stop offset="1" stop-color="#F4B0FF" stop-opacity=".76"/></linearGradient><linearGradient id="o" x1="115.875" y1="94.147" x2="174.738" y2="148.704" gradientUnits="userSpaceOnUse"><stop stop-color="#fff" stop-opacity=".13"/><stop offset="1" stop-color="#555454" stop-opacity=".71"/></linearGradient><linearGradient id="q" x1="128.278" y1="99.821" x2="209.333" y2="129.862" gradientUnits="userSpaceOnUse"><stop stop-color="#BBB" stop-opacity=".4"/><stop offset="1" stop-opacity=".76"/></linearGradient><linearGradient id="r" x1="170.402" y1="138.647" x2="289.29" y2="129.242" gradientUnits="userSpaceOnUse"><stop offset=".109" stop-color="#6B6B6B" stop-opacity="0"/><stop offset="1" stop-color="#6B6B6B"/></linearGradient><filter id="a" x="201.616" y="40.337" width="222.055" height="206.692" filterUnits="userSpaceOnUse" color-interpolation-filters="sRGB"><feFlood flood-opacity="0" result="BackgroundImageFix"/><feGaussianBlur in="BackgroundImageFix" stdDeviation="31.507"/><feComposite in2="SourceAlpha" operator="in" result="effect1_backgroundBlur_1468_96847"/><feBlend in="SourceGraphic" in2="effect1_backgroundBlur_1468_96847" result="shape"/></filter><filter id="d" x="272.611" y="107.677" width="80.063" height="80.063" filterUnits="userSpaceOnUse" color-interpolation-filters="sRGB"><feFlood flood-opacity="0" result="BackgroundImageFix"/><feColorMatrix in="SourceAlpha" values="0 0 0 0 0 0 0 0 0 0 0 0 0 0 0 0 0 0 127 0" result="hardAlpha"/><feOffset dy="1.342"/><feGaussianBlur stdDeviation=".671"/><feColorMatrix values="0 0 0 0 0 0 0 0 0 0 0 0 0 0 0 0 0 0 0.17 0"/><feBlend in2="BackgroundImageFix" result="effect1_dropShadow_1468_96847"/><feColorMatrix in="SourceAlpha" values="0 0 0 0 0 0 0 0 0 0 0 0 0 0 0 0 0 0 127 0" result="hardAlpha"/><feOffset dy="4.026"/><feGaussianBlur stdDeviation="4.697"/><feColorMatrix values="0 0 0 0 0 0 0 0 0 0 0 0 0 0 0 0 0 0 0.1 0"/><feBlend in2="effect1_dropShadow_1468_96847" result="effect2_dropShadow_1468_96847"/><feBlend in="SourceGraphic" in2="effect2_dropShadow_1468_96847" result="shape"/></filter><filter id="g" x="251.596" y="111.357" width="122.093" height="83.796" filterUnits="userSpaceOnUse" color-interpolation-filters="sRGB"><feFlood flood-opacity="0" result="BackgroundImageFix"/><feGaussianBlur in="BackgroundImageFix" stdDeviation="8.821"/><feComposite in2="SourceAlpha" operator="in" result="effect1_backgroundBlur_1468_96847"/><feBlend in="SourceGraphic" in2="effect1_backgroundBlur_1468_96847" result="shape"/></filter><filter id="i" x="266.506" y="124.532" width="100.391" height="58.723" filterUnits="userSpaceOnUse" color-interpolation-filters="sRGB"><feFlood flood-opacity="0" result="BackgroundImageFix"/><feGaussianBlur in="BackgroundImageFix" stdDeviation="2.005"/><feComposite in2="SourceAlpha" operator="in" result="effect1_backgroundBlur_1468_96847"/><feColorMatrix in="SourceAlpha" values="0 0 0 0 0 0 0 0 0 0 0 0 0 0 0 0 0 0 127 0" result="hardAlpha"/><feOffset dx="6.383"/><feGaussianBlur stdDeviation="2.234"/><feComposite in2="hardAlpha" operator="out"/><feColorMatrix values="0 0 0 0 0 0 0 0 0 0 0 0 0 0 0 0 0 0 0.05 0"/><feBlend in2="effect1_backgroundBlur_1468_96847" result="effect2_dropShadow_1468_96847"/><feBlend in="SourceGraphic" in2="effect2_dropShadow_1468_96847" result="shape"/><feColorMatrix in="SourceAlpha" values="0 0 0 0 0 0 0 0 0 0 0 0 0 0 0 0 0 0 127 0" result="hardAlpha"/><feOffset dy=".638"/><feGaussianBlur stdDeviation=".638"/><feComposite in2="hardAlpha" operator="arithmetic" k2="-1" k3="1"/><feColorMatrix values="0 0 0 0 1 0 0 0 0 1 0 0 0 0 1 0 0 0 0.25 0"/><feBlend in2="shape" result="effect3_innerShadow_1468_96847"/></filter><filter id="k" x="275.622" y="94.535" width="74.041" height="57.445" filterUnits="userSpaceOnUse" color-interpolation-filters="sRGB"><feFlood flood-opacity="0" result="BackgroundImageFix"/><feGaussianBlur in="BackgroundImageFix" stdDeviation="3.191"/><feComposite in2="SourceAlpha" operator="in" result="effect1_backgroundBlur_1468_96847"/><feColorMatrix in="SourceAlpha" values="0 0 0 0 0 0 0 0 0 0 0 0 0 0 0 0 0 0 127 0" result="hardAlpha"/><feOffset dy="1.915"/><feGaussianBlur stdDeviation="1.277"/><feComposite in2="hardAlpha" operator="out"/><feColorMatrix values="0 0 0 0 0 0 0 0 0 0 0 0 0 0 0 0 0 0 0.25 0"/><feBlend in2="effect1_backgroundBlur_1468_96847" result="effect2_dropShadow_1468_96847"/><feBlend in="SourceGraphic" in2="effect2_dropShadow_1468_96847" result="shape"/><feColorMatrix in="SourceAlpha" values="0 0 0 0 0 0 0 0 0 0 0 0 0 0 0 0 0 0 127 0" result="hardAlpha"/><feOffset dy="-.638"/><feGaussianBlur stdDeviation=".307"/><feComposite in2="hardAlpha" operator="arithmetic" k2="-1" k3="1"/><feColorMatrix values="0 0 0 0 1 0 0 0 0 1 0 0 0 0 1 0 0 0 0.25 0"/><feBlend in2="shape" result="effect3_innerShadow_1468_96847"/></filter><filter id="n" x="40.985" y="40.546" width="216.396" height="206.344" filterUnits="userSpaceOnUse" color-interpolation-filters="sRGB"><feFlood flood-opacity="0" result="BackgroundImageFix"/><feGaussianBlur in="BackgroundImageFix" stdDeviation="31.507"/><feComposite in2="SourceAlpha" operator="in" result="effect1_backgroundBlur_1468_96847"/><feBlend in="SourceGraphic" in2="effect1_backgroundBlur_1468_96847" result="shape"/></filter><clipPath id="c"><path fill="#fff" transform="translate(282.005 113.045)" d="M0 0h61.276v61.276H0z"/></clipPath><clipPath id="e"><rect x="282.005" y="113.045" width="61.276" height="61.276" rx="15.319" fill="#fff"/></clipPath><clipPath id="f"><path fill="#fff" transform="translate(282.005 113.045)" d="M0 0h61.276v61.276H0z"/></clipPath><clipPath id="p"><path fill="#fff" transform="translate(121.367 122.855)" d="M0 0h55.634v41.725H0z"/></clipPath></defs></svg>