<svg width="155" height="155" viewBox="0 0 155 155" fill="none" xmlns="http://www.w3.org/2000/svg">
<path d="M111 58.9224C111 60.5792 109.657 61.9224 108 61.9224C106.343 61.9224 105 60.5792 105 58.9224C105 57.2655 106.343 55.9224 108 55.9224C109.657 55.9224 111 57.2655 111 58.9224Z" fill="var(--bg-overlay-tertiary)"/>
<path fill-rule="evenodd" clip-rule="evenodd" d="M108 60.9224C109.105 60.9224 110 60.0269 110 58.9224C110 57.8178 109.105 56.9224 108 56.9224C106.895 56.9224 106 57.8178 106 58.9224C106 60.0269 106.895 60.9224 108 60.9224ZM108 61.9224C109.657 61.9224 111 60.5792 111 58.9224C111 57.2655 109.657 55.9224 108 55.9224C106.343 55.9224 105 57.2655 105 58.9224C105 60.5792 106.343 61.9224 108 61.9224Z" fill="var(--border-secondary)"/>
<path d="M61 4.92236C61 6.57922 59.6569 7.92236 58 7.92236C56.3431 7.92236 55 6.57922 55 4.92236C55 3.26551 56.3431 1.92236 58 1.92236C59.6569 1.92236 61 3.26551 61 4.92236Z" fill="var(--bg-overlay-tertiary)"/>
<path fill-rule="evenodd" clip-rule="evenodd" d="M58 6.92236C59.1046 6.92236 60 6.02693 60 4.92236C60 3.81779 59.1046 2.92236 58 2.92236C56.8954 2.92236 56 3.81779 56 4.92236C56 6.02693 56.8954 6.92236 58 6.92236ZM58 7.92236C59.6569 7.92236 61 6.57922 61 4.92236C61 3.26551 59.6569 1.92236 58 1.92236C56.3431 1.92236 55 3.26551 55 4.92236C55 6.57922 56.3431 7.92236 58 7.92236Z" fill="var(--border-secondary)"/>
<path d="M42 43.9224C42 45.5792 40.6569 46.9224 39 46.9224C37.3431 46.9224 36 45.5792 36 43.9224C36 42.2655 37.3431 40.9224 39 40.9224C40.6569 40.9224 42 42.2655 42 43.9224Z" fill="var(--bg-overlay-tertiary)"/>
<path fill-rule="evenodd" clip-rule="evenodd" d="M39 45.9224C40.1046 45.9224 41 45.0269 41 43.9224C41 42.8178 40.1046 41.9224 39 41.9224C37.8954 41.9224 37 42.8178 37 43.9224C37 45.0269 37.8954 45.9224 39 45.9224ZM39 46.9224C40.6569 46.9224 42 45.5792 42 43.9224C42 42.2655 40.6569 40.9224 39 40.9224C37.3431 40.9224 36 42.2655 36 43.9224C36 45.5792 37.3431 46.9224 39 46.9224Z" fill="var(--border-secondary)"/>
<path fill-rule="evenodd" clip-rule="evenodd" d="M118.583 83.9224H36.418L65 127.212V149.072C65 152.134 68.2995 154.06 70.966 152.555L87.966 142.961C89.2227 142.252 90 140.921 90 139.478V127.214L118.583 83.9224Z" fill="var(--bg-overlay-tertiary)"/>
<path fill-rule="evenodd" clip-rule="evenodd" d="M66 126.912V149.072C66 151.368 68.4746 152.813 70.4745 151.685L87.4745 142.09C88.417 141.558 89 140.56 89 139.478V126.914L116.724 84.9224H38.2765L66 126.912ZM65 127.212V149.072C65 152.134 68.2995 154.06 70.966 152.555L87.966 142.961C89.2227 142.252 90 140.921 90 139.478V127.214L118.583 83.9224H36.418L65 127.212Z" fill="var(--bg-overlay-tertiary)"/>
<path d="M33 72.9224C33 70.7132 34.7909 68.9224 37 68.9224H118C120.209 68.9224 122 70.7132 122 72.9224V80.9224C122 83.1315 120.209 84.9224 118 84.9224H37C34.7909 84.9224 33 83.1315 33 80.9224V72.9224Z" fill="var(--bg-l3-solid)"/>
<path d="M33 72.9224C33 70.7132 34.7909 68.9224 37 68.9224H118C120.209 68.9224 122 70.7132 122 72.9224V80.9224C122 83.1315 120.209 84.9224 118 84.9224H37C34.7909 84.9224 33 83.1315 33 80.9224V72.9224Z" fill="var(--bg-overlay-tertiary)" fill-opacity="0.4"/>
<path fill-rule="evenodd" clip-rule="evenodd" d="M118 69.9224H37C35.3431 69.9224 34 71.2655 34 72.9224V80.9224C34 82.5792 35.3431 83.9224 37 83.9224H118C119.657 83.9224 121 82.5792 121 80.9224V72.9224C121 71.2655 119.657 69.9224 118 69.9224ZM37 68.9224C34.7909 68.9224 33 70.7132 33 72.9224V80.9224C33 83.1315 34.7909 84.9224 37 84.9224H118C120.209 84.9224 122 83.1315 122 80.9224V72.9224C122 70.7132 120.209 68.9224 118 68.9224H37Z" fill="var(--border-secondary)"/>
<path d="M45.0354 26.3979C44.4636 24.264 45.7299 22.0707 47.8638 21.4989L98.3993 7.95797C100.533 7.3862 102.726 8.65253 103.298 10.7864L111.933 43.0107C112.504 45.1445 111.238 47.3379 109.104 47.9097L58.5688 61.4506C56.435 62.0224 54.2416 60.756 53.6698 58.6222L45.0354 26.3979Z" fill="var(--bg-overlay-tertiary)"/>
<path fill-rule="evenodd" clip-rule="evenodd" d="M98.6581 8.92389L48.1226 22.4648C46.5222 22.8937 45.5725 24.5387 46.0013 26.1391L54.6358 58.3633C55.0646 59.9637 56.7096 60.9135 58.31 60.4847L108.845 46.9437C110.446 46.5149 111.396 44.8699 110.967 43.2695L102.332 11.0452C101.903 9.44481 100.258 8.49507 98.6581 8.92389ZM47.8638 21.4989C45.7299 22.0707 44.4636 24.264 45.0354 26.3979L53.6698 58.6222C54.2416 60.756 56.435 62.0224 58.5688 61.4506L109.104 47.9097C111.238 47.3379 112.504 45.1445 111.933 43.0107L103.298 10.7864C102.726 8.65253 100.533 7.3862 98.3993 7.95797L47.8638 21.4989Z" fill="var(--bg-overlay-tertiary)"/>
<path fill-rule="evenodd" clip-rule="evenodd" d="M111.837 44.5009L75.9239 28.8479L75.5243 29.7646L111.437 45.4176L111.837 44.5009Z" fill="var(--border-tertiary)"/>
<path fill-rule="evenodd" clip-rule="evenodd" d="M77.7746 28.3524L54.4997 59.8646L53.6953 59.2705L76.9702 27.7583L77.7746 28.3524Z" fill="var(--border-tertiary)"/>
<path fill-rule="evenodd" clip-rule="evenodd" d="M102.833 9.45738L84.5169 37.043C82.2863 40.4023 77.9043 41.5765 74.2929 39.7825L44.7772 25.1198C44.7075 23.5399 45.7387 22.0679 47.3294 21.6417L98.9337 7.81434C100.489 7.39762 102.081 8.11399 102.833 9.45738Z" fill="var(--bg-l3-solid)"/>
<path fill-rule="evenodd" clip-rule="evenodd" d="M102.833 9.45738L84.5169 37.043C82.2863 40.4023 77.9043 41.5765 74.2929 39.7825L44.7772 25.1198C44.7075 23.5399 45.7387 22.0679 47.3294 21.6417L98.9337 7.81434C100.489 7.39762 102.081 8.11399 102.833 9.45738Z" fill="var(--bg-overlay-tertiary)" fill-opacity="0.4"/>
<path fill-rule="evenodd" clip-rule="evenodd" d="M102.833 9.45726C102.081 8.11396 100.489 7.39765 98.9338 7.81431C98.9338 7.81432 98.9338 7.8143 98.9338 7.81431L47.3295 21.6416C45.7388 22.0679 44.7075 23.5399 44.7772 25.1198C44.7772 25.1198 44.7772 25.1198 44.7772 25.1198L74.293 39.7825C74.293 39.7825 74.2929 39.7825 74.293 39.7825C77.9043 41.5765 82.2864 40.4023 84.5169 37.043L102.833 9.45726C102.833 9.45722 102.833 9.4573 102.833 9.45726ZM101.619 9.47776C101.022 8.8359 100.098 8.53777 99.1926 8.78023L47.5883 22.6076C46.6502 22.8589 45.9849 23.6238 45.816 24.5192L74.7379 38.8869C77.8979 40.4567 81.7322 39.4293 83.6839 36.4898L101.619 9.47776Z" fill="var(--border-secondary)"/>
</svg>
