<svg width="180" height="130" fill="none" xmlns="http://www.w3.org/2000/svg"><path fill-rule="evenodd" clip-rule="evenodd" d="m35.087 65.913 6.839-14.279 10.226 6.251-17.065 8.028Z" fill="#5290E4" stroke="#0B1E37" stroke-width=".549" stroke-linejoin="round"/><path fill-rule="evenodd" clip-rule="evenodd" d="m41.926 51.634 11.575-4.489-1.35 10.74-10.225-6.251Z" fill="#6BAAF2" stroke="#0B1E37" stroke-width=".549" stroke-linejoin="round"/><path fill-rule="evenodd" clip-rule="evenodd" d="m52.151 57.885 1.35-10.74 14.546 5.87-11.008 8.01-4.888-3.14Z" fill="#4A94F0" stroke="#0B1E37" stroke-width=".549" stroke-linejoin="round"/><path fill-rule="evenodd" clip-rule="evenodd" d="m52.152 57.885 4.888 3.14-6.092 10.732-15.861-5.844 17.065-8.028Z" fill="#264781" stroke="#0B1E37" stroke-width=".549" stroke-linejoin="round"/><path fill-rule="evenodd" clip-rule="evenodd" d="m50.948 71.757 6.091-10.733 11.008-8.01-6.747 12.73-10.352 6.013Z" fill="#041423" stroke="#0B1E37" stroke-width=".549" stroke-linejoin="round"/><path fill-rule="evenodd" clip-rule="evenodd" d="m16.549 90.179 6.553-10.267 19.165-2.068.297 10.271L16.55 90.18Z" fill="#0D2D55" stroke="#0B1E37" stroke-width=".549" stroke-linecap="round" stroke-linejoin="round"/><path fill-rule="evenodd" clip-rule="evenodd" d="m7.901 79.598-.983-18.236 17.018 3.309L7.901 79.598Z" fill="#2663BB" stroke="#0B1E37" stroke-width=".549" stroke-linejoin="round"/><path fill-rule="evenodd" clip-rule="evenodd" d="m6.918 61.362 10.109-16.5 6.91 19.809-17.019-3.309Z" fill="#4A94F0" stroke="#0B1E37" stroke-width=".549" stroke-linejoin="round"/><path fill-rule="evenodd" clip-rule="evenodd" d="m17.027 44.862 17.729 9.348L23.99 64.665l-6.964-19.803Z" fill="#6BAAF2" stroke="#0B1E37" stroke-width=".549" stroke-linejoin="round"/><path fill-rule="evenodd" clip-rule="evenodd" d="M34.756 54.21 31.42 74.647l-7.484-9.977 10.82-10.46Z" fill="#608AD2" stroke="#0B1E37" stroke-width=".549" stroke-linejoin="round"/><path fill-rule="evenodd" clip-rule="evenodd" d="M7.901 79.597 23.936 64.67l7.484 9.977-23.519 4.95Z" fill="#0D2D55" stroke="#0B1E37" stroke-width=".549" stroke-linejoin="round"/><path fill-rule="evenodd" clip-rule="evenodd" d="M7.901 79.597.376 71.239l1.452-11.556 5.09 1.68.983 18.235Z" fill="#0B1324" stroke="#0B1E37" stroke-width=".549" stroke-linejoin="round"/><path fill-rule="evenodd" clip-rule="evenodd" d="m1.828 59.682 15.199-14.82-10.109 16.5-5.09-1.68Z" fill="#2663BB" stroke="#0B1E37" stroke-width=".549" stroke-linejoin="round"/><path fill-rule="evenodd" clip-rule="evenodd" d="m14.036 75.774 18.187-8.57-9.198 12.539-8.99-3.969Z" fill="#2663BB" stroke="#0B1E37" stroke-width=".549" stroke-linecap="round" stroke-linejoin="round"/><path fill-rule="evenodd" clip-rule="evenodd" d="m47.427 69.473 1.167 10.788-6.086 7.861-.267-10.334" fill="#4A94F0"/><path d="m47.427 69.473 1.167 10.788-6.086 7.861-.267-10.334" stroke="#0B1E37" stroke-width=".549" stroke-linecap="round" stroke-linejoin="round"/><path fill-rule="evenodd" clip-rule="evenodd" d="m32.39 67.302 4.222-2.525 10.812 4.726-5.255 8.353" fill="#6BAAF2"/><path d="m32.39 67.302 4.222-2.525 10.812 4.726-5.255 8.353" stroke="#0B1E37" stroke-width=".549" stroke-linecap="round" stroke-linejoin="round"/><path fill-rule="evenodd" clip-rule="evenodd" d="m23.084 79.737 9.192-12.538 9.98 10.47-19.172 2.068Z" fill="#4A94F0" stroke="#0B1E37" stroke-width=".549" stroke-linecap="round" stroke-linejoin="round"/><path fill-rule="evenodd" clip-rule="evenodd" d="m16.465 90.22-3.597-5.155 1.15-9.147 9.047 3.971-6.6 10.331Z" fill="#041423" stroke="#0B1E37" stroke-width=".549" stroke-linecap="round" stroke-linejoin="round"/><path fill-rule="evenodd" clip-rule="evenodd" d="m56.52 75.55-2.569-10.69 14.965 9.918-2.253 5.41L56.52 75.55Z" fill="#041423" stroke="#0B1E37" stroke-width=".549" stroke-linejoin="round"/><path fill-rule="evenodd" clip-rule="evenodd" d="m53.953 64.849 6.768-11.554 16.546 13.787-8.346 7.71-14.968-9.943Z" fill="#6BAAF2" stroke="#0B1E37" stroke-width=".549" stroke-linejoin="round"/><path fill-rule="evenodd" clip-rule="evenodd" d="m66.482 80.4 2.284-5.423 8.48-7.721-3.549 8.492-7.215 4.652Z" fill="#564664" stroke="#0B1E37" stroke-width=".549" stroke-linejoin="round"/><path fill-rule="evenodd" clip-rule="evenodd" d="m86.91 57.972-.725-44.11 10.661 41.184-9.936 2.926Z" fill="#4A94F0" stroke="#0B1E37" stroke-width=".549"/><path fill-rule="evenodd" clip-rule="evenodd" d="M100.868 70.723 86.904 57.877l10.03-2.893 3.934 15.74Z" fill="#121915" stroke="#0B1E37" stroke-width=".549"/><path fill-rule="evenodd" clip-rule="evenodd" d="m86.248 14.057 15.273 57.139 46.016-14.86L134.218.606l-47.97 13.451Z" fill="#DAEBEF" stroke="#0B1E37" stroke-width=".549"/><path d="M137.479 90.988c.269.118.581.134.937.046l8.41-2.133c.372-.097.657-.247.854-.45.198-.202.266-.413.202-.633l-.218-3.406 7.264-1.27c.342-.067.624-.192.846-.376.223-.183.316-.387.278-.611l-.278-4.321c3.513.24 6.845-.247 9.842-.915 3.014-.653 5.586-1.629 7.731-2.904 1.411-.805 2.475-1.63 3.19-2.481.367-.44.576-.866.558-1.677-.019-.81-.112-1.74-.211-3.275-.787-.743-2.452-1.233-4.036-1.825-1.6-.61-3.392-1.068-5.373-1.365a36.584 36.584 0 0 0-6.14-.417 31.114 31.114 0 0 0-6.027.662c-1.907.423-3.579 1.045-5.01 1.87-1.414.842-3.718 1.712-4.299 2.757l.208 3.225c.266 1.085 1.59 2.17 2.652 3.108l-13.103 9.195a1.326 1.326 0 0 0-.307.528.994.994 0 0 0 .032.587l1.495 5.61c.065.195.233.352.503.471Zm25.882-21.91c-.864-.29-1.336-.695-1.414-1.21-.077-.516.29-.986 1.107-1.404.809-.408 1.82-.642 3.029-.706 1.208-.063 2.251.055 3.125.351.881.296 1.333.683 1.359 1.166.026.482-.36.921-1.155 1.32-.814.417-1.803.676-2.973.774-1.169.098-2.194.003-3.078-.29Z" fill="#F9B047" stroke="#0B1E37" stroke-width=".549"/><path d="M136.735 88.485c.269.119.581.134.937.047l8.934-2.175c.372-.097.657-.247.854-.45.198-.202.266-.413.202-.634l-.828-3.373 7.872-1.537c.342-.066.624-.192.847-.375.223-.183.315-.387.277-.612l-.705-4.298c3.514.24 6.75.006 9.747-.661 3.013-.654 5.586-1.63 7.731-2.905 1.411-.805 2.475-1.63 3.189-2.48.722-.84 1.077-1.66 1.058-2.47-.018-.81-.414-1.577-1.193-2.308-.787-.742-1.97-1.407-3.553-2-1.6-.61-3.392-1.067-5.373-1.364a36.598 36.598 0 0 0-6.14-.418 31.114 31.114 0 0 0-6.027.663c-1.907.423-3.58 1.044-5.011 1.869-1.413.842-2.409 1.789-2.99 2.834-.568 1.056-.714 2.132-.447 3.218.266 1.085.936 2.1 1.999 3.038l-12.767 11.458a1.323 1.323 0 0 0-.306.528c-.049.182-.039.377.031.587l1.159 3.346c.065.196.233.353.503.472Zm25.882-21.91c-.864-.29-1.336-.694-1.414-1.21-.078-.516.29-.985 1.106-1.404.809-.407 1.82-.641 3.03-.705 1.208-.064 2.25.054 3.124.35.882.296 1.334.683 1.36 1.166.026.482-.36.922-1.155 1.321-.814.417-1.804.676-2.973.774-1.169.098-2.194.002-3.078-.291Z" fill="#FED27F" stroke="#0B1E37" stroke-width=".549"/><path fill-rule="evenodd" clip-rule="evenodd" d="M41.874 113.918v-5.162l75.032 16.165 38.843-26.916v4.473l-38.843 26.916-75.032-15.476Z" fill="#BFC4BF"/><path d="M41.874 108.756v5.162l75.032 15.476 38.843-26.916v-4.473M41.874 108.756l37.953-26.163m-37.953 26.163 75.032 16.165m-75.032-16.165 40.46-11.061m-2.507-15.102 75.922 15.412M79.827 82.593l2.683 16.16 1.66 10.003 71.579-10.75m0 0-38.843 26.915m0 0-3.852-20.503" stroke="#0B1E37" stroke-width=".549"/><path fill-rule="evenodd" clip-rule="evenodd" d="m41.874 108.756 75.032 16.165 38.843-26.916-42.695 6.413-28.883 4.338-1.661-10.004-.176-1.057-2.507-15.102-37.953 26.163Z" fill="#F9F8F7"/><path d="M41.874 108.756v5.162l75.032 15.476 38.843-26.916v-4.473M41.874 108.756l37.953-26.163m-37.953 26.163 75.032 16.165m-75.032-16.165 40.46-11.061m-2.507-15.102 75.922 15.412M79.827 82.593l2.683 16.16m-2.683-16.16 2.507 15.102m73.415.31-38.843 26.916m38.843-26.916-71.578 10.751m71.578-10.75-42.695 6.412m3.852 20.503-3.852-20.503m0 0-28.883 4.338m-1.837-11.061.176 1.057m1.66 10.004-1.66-10.004" stroke="#0B1E37" stroke-width=".549"/><path d="M155.749 98.005 79.827 82.593l2.507 15.102.176 1.057 1.66 10.004 28.884-4.338 42.695-6.413Z" fill="#fff"/><path d="M41.874 108.756v5.162l75.032 15.476 38.843-26.916v-4.473M41.874 108.756l37.953-26.163m-37.953 26.163 75.032 16.165m-75.032-16.165 40.46-11.061m-2.507-15.102 75.922 15.412M79.827 82.593l2.683 16.16m-2.683-16.16 2.507 15.102m73.415.31-38.843 26.916m38.843-26.916-71.578 10.751m71.578-10.75-42.695 6.412m3.852 20.503-3.852-20.503m0 0-28.883 4.338m-1.837-11.061.176 1.057m1.66 10.004-1.66-10.004" stroke="#0B1E37" stroke-width=".549"/><path d="m104.066 26.838-2.509.672.48 1.788c.124.465.101.844-.01 1.172-.134.335-.399.555-.771.655l-2.555.684.585 2.183 2.672-.716c.441-.118.771-.281.966-.483l2.944 10.983 2.556-.684-4.358-16.254ZM118.536 43.14l-4.824 6.99.554 2.067 11.524-3.086-.604-2.252-7.853 2.103 3.356-4.757c.884-1.256 1.507-2.369 1.863-3.36.334-.985.381-2.018.082-3.133-.405-1.509-1.24-2.58-2.481-3.218-1.265-.631-2.784-.722-4.596-.237-1.138.305-2.075.804-2.787 1.493a5.273 5.273 0 0 0-1.488 2.439c-.246.937-.236 1.905.038 2.926l.118.441 2.579-.69-.081-.302c-.261-.975-.194-1.84.202-2.592.395-.753 1.081-1.26 2.01-1.51.953-.254 1.788-.204 2.483.157.694.362 1.166 1.007 1.409 1.912.193.72.135 1.432-.122 2.148-.256.716-.732 1.54-1.382 2.46ZM133.614 27.332c-.848-.47-1.803-.687-2.858-.629.897-.463 1.551-1.087 1.941-1.863.389-.776.473-1.67.212-2.645-.224-.836-.662-1.54-1.301-2.066-.639-.525-1.426-.862-2.385-1.003-.953-.118-2.025-.03-3.187.28-1.719.461-2.949 1.263-3.74 2.396-.786 1.156-1.003 2.483-.605 3.97l2.533-.679c-.224-.836-.097-1.567.377-2.216.473-.65 1.171-1.11 2.101-1.359.882-.236 1.665-.197 2.334.072.67.268 1.105.774 1.298 1.494.211.79.071 1.474-.362 2.088-.433.613-1.184 1.063-2.253 1.35l-1.324.354.573 2.136 1.487-.398c1.115-.299 2.06-.303 2.782-.024.722.28 1.21.796 1.415 1.563.224.835.073 1.573-.423 2.228-.491.68-1.218 1.123-2.171 1.378-1.092.292-2.049.25-2.856-.156-.823-.377-1.383-1.073-1.65-2.072l-2.579.691c.448 1.672 1.331 2.829 2.678 3.489 1.347.66 2.959.725 4.817.228 1.208-.324 2.227-.796 3.051-1.44.829-.62 1.377-1.364 1.701-2.197.325-.834.356-1.738.107-2.667-.286-1.068-.865-1.834-1.713-2.303Z" fill="#2663BB"/></svg>