<svg width="600" height="261" fill="none" xmlns="http://www.w3.org/2000/svg"><mask id="a" style="mask-type:alpha" maskUnits="userSpaceOnUse" x="0" y="-55" width="600" height="372"><rect x="215" y="-55" width="40" height="20" rx="8" fill="#D9D9D9" fill-opacity=".1" shape-rendering="crispEdges"/><rect x="215.608" y="-54.392" width="38.783" height="18.784" rx="7.392" stroke="#fff" stroke-opacity=".2" stroke-width="1.217" shape-rendering="crispEdges"/><rect x="239" y="-23" width="77" height="20" rx="8" fill="#D9D9D9" fill-opacity=".1" shape-rendering="crispEdges"/><rect x="239.608" y="-22.392" width="75.784" height="18.784" rx="7.392" stroke="#fff" stroke-opacity=".2" stroke-width="1.217" shape-rendering="crispEdges"/><rect y="9" width="77" height="20" rx="8" fill="#D9D9D9" fill-opacity=".1"/><rect x=".608" y="9.608" width="75.784" height="18.784" rx="7.392" stroke="#fff" stroke-opacity=".1" stroke-width="1.217"/><rect x="89" y="9" width="76" height="20" rx="8" fill="#D9D9D9" fill-opacity=".1"/><rect x="89.608" y="9.608" width="74.784" height="18.784" rx="7.392" stroke="#fff" stroke-opacity=".1" stroke-width="1.217"/><rect x="177" y="9" width="77" height="20" rx="8" fill="#D9D9D9" fill-opacity=".1" shape-rendering="crispEdges"/><rect x="177.608" y="9.608" width="75.784" height="18.784" rx="7.392" stroke="#fff" stroke-opacity=".2" stroke-width="1.217" shape-rendering="crispEdges"/><rect x="266" y="9" width="87" height="20" rx="8" fill="#D9D9D9" fill-opacity=".1"/><rect x="266.608" y="9.608" width="85.784" height="18.784" rx="7.392" stroke="#fff" stroke-opacity=".3" stroke-width="1.217"/><rect x="365" y="9" width="40" height="20" rx="8" fill="#D9D9D9" fill-opacity=".1"/><rect x="365.608" y="9.608" width="38.783" height="18.784" rx="7.392" stroke="#fff" stroke-opacity=".2" stroke-width="1.217"/><rect x="417" y="9" width="77" height="20" rx="8" fill="#D9D9D9" fill-opacity=".1"/><rect x="417.608" y="9.608" width="75.784" height="18.784" rx="7.392" stroke="#fff" stroke-opacity=".1" stroke-width="1.217"/><rect x="506" y="9" width="77" height="20" rx="8" fill="#D9D9D9" fill-opacity=".1"/><rect x="506.608" y="9.608" width="75.784" height="18.784" rx="7.392" stroke="#fff" stroke-opacity=".1" stroke-width="1.217"/><rect x="38" y="41" width="77" height="20" rx="8" fill="#D9D9D9" fill-opacity=".1"/><rect x="38.608" y="41.608" width="75.784" height="18.784" rx="7.392" stroke="#fff" stroke-opacity=".1" stroke-width="1.217"/><rect x="127" y="41" width="76" height="20" rx="8" fill="#D9D9D9" fill-opacity=".1"/><rect x="127.608" y="41.608" width="74.784" height="18.784" rx="7.392" stroke="#fff" stroke-opacity=".1" stroke-width="1.217"/><rect x="215" y="41" width="66" height="20" rx="8" fill="#D9D9D9" fill-opacity=".1" shape-rendering="crispEdges"/><rect x="215.608" y="41.608" width="64.784" height="18.784" rx="7.392" stroke="#fff" stroke-opacity=".2" stroke-width="1.217" shape-rendering="crispEdges"/><rect x="293" y="41" width="106" height="20" rx="8" fill="#D9D9D9" fill-opacity=".1"/><rect x="293.608" y="41.608" width="104.783" height="18.784" rx="7.392" stroke="#fff" stroke-opacity=".2" stroke-width="1.217"/><rect x="411" y="41" width="100" height="20" rx="8" fill="#D9D9D9" fill-opacity=".1"/><rect x="411.608" y="41.608" width="98.784" height="18.784" rx="7.392" stroke="#fff" stroke-opacity=".1" stroke-width="1.217"/><rect x="523" y="41" width="77" height="20" rx="8" fill="#D9D9D9" fill-opacity=".1"/><rect x="523.608" y="41.608" width="75.784" height="18.784" rx="7.392" stroke="#fff" stroke-opacity=".1" stroke-width="1.217"/><rect y="73" width="77" height="20" rx="8" fill="#D9D9D9" fill-opacity=".1"/><rect x=".608" y="73.608" width="75.784" height="18.784" rx="7.392" stroke="#fff" stroke-opacity=".1" stroke-width="1.217"/><rect x="89" y="73" width="76" height="20" rx="8" fill="#D9D9D9" fill-opacity=".1"/><rect x="89.608" y="73.608" width="74.784" height="18.784" rx="7.392" stroke="#fff" stroke-opacity=".1" stroke-width="1.217"/><rect x="177" y="73" width="61" height="20" rx="8" fill="#D9D9D9" fill-opacity=".1"/><rect x="177.608" y="73.608" width="59.783" height="18.784" rx="7.392" stroke="#fff" stroke-opacity=".2" stroke-width="1.217"/><rect x="250" y="73" width="76" height="20" rx="8" fill="#D9D9D9" fill-opacity=".1"/><rect x="250.608" y="73.608" width="74.784" height="18.784" rx="7.392" stroke="#fff" stroke-opacity=".3" stroke-width="1.217"/><rect x="338" y="73" width="40" height="20" rx="8" fill="#D9D9D9" fill-opacity=".1"/><rect x="338.608" y="73.608" width="38.783" height="18.784" rx="7.392" stroke="#fff" stroke-opacity=".2" stroke-width="1.217"/><rect x="390" y="73" width="100" height="20" rx="8" fill="#D9D9D9" fill-opacity=".1"/><rect x="390.608" y="73.608" width="98.784" height="18.784" rx="7.392" stroke="#fff" stroke-opacity=".1" stroke-width="1.217"/><rect x="502" y="73" width="77" height="20" rx="8" fill="#D9D9D9" fill-opacity=".1"/><rect x="502.608" y="73.608" width="75.784" height="18.784" rx="7.392" stroke="#fff" stroke-opacity=".1" stroke-width="1.217"/><rect x="38" y="105" width="77" height="20" rx="8" fill="#D9D9D9" fill-opacity=".1"/><rect x="38.608" y="105.608" width="75.784" height="18.784" rx="7.392" stroke="#fff" stroke-opacity=".1" stroke-width="1.217"/><rect x="127" y="105" width="40" height="20" rx="8" fill="#D9D9D9" fill-opacity=".1"/><rect x="127.608" y="105.608" width="38.783" height="18.784" rx="7.392" stroke="#fff" stroke-opacity=".1" stroke-width="1.217"/><rect x="179" y="105" width="40" height="20" rx="8" fill="#D9D9D9" fill-opacity=".1"/><rect x="179.608" y="105.608" width="38.783" height="18.784" rx="7.392" stroke="#fff" stroke-opacity=".2" stroke-width="1.217"/><rect x="231" y="105" width="76" height="20" rx="8" fill="#D9D9D9" fill-opacity=".1"/><rect x="231.608" y="105.608" width="74.784" height="18.784" rx="7.392" stroke="#fff" stroke-opacity=".2" stroke-width="1.217"/><rect x="319" y="105" width="77" height="20" rx="8" fill="#D9D9D9" fill-opacity=".1"/><rect x="319.608" y="105.608" width="75.784" height="18.784" rx="7.392" stroke="#fff" stroke-opacity=".1" stroke-width="1.217"/><rect x="408" y="105" width="77" height="20" rx="8" fill="#D9D9D9" fill-opacity=".1"/><rect x="408.608" y="105.608" width="75.784" height="18.784" rx="7.392" stroke="#fff" stroke-opacity=".1" stroke-width="1.217"/><rect x="38" y="137" width="77" height="20" rx="8" fill="#D9D9D9" fill-opacity=".1"/><rect x="38.608" y="137.608" width="75.784" height="18.784" rx="7.392" stroke="#fff" stroke-opacity=".1" stroke-width="1.217"/><rect x="127" y="137" width="76" height="20" rx="8" fill="#D9D9D9" fill-opacity=".1"/><rect x="127.608" y="137.608" width="74.784" height="18.784" rx="7.392" stroke="#fff" stroke-opacity=".1" stroke-width="1.217"/><rect x="215" y="137" width="40" height="20" rx="8" fill="#D9D9D9" fill-opacity=".1"/><rect x="215.608" y="137.608" width="38.783" height="18.784" rx="7.392" stroke="#fff" stroke-opacity=".2" stroke-width="1.217"/><rect x="267" y="137" width="76" height="20" rx="8" fill="#D9D9D9" fill-opacity=".1"/><rect x="267.608" y="137.608" width="74.784" height="18.784" rx="7.392" stroke="#fff" stroke-opacity=".2" stroke-width="1.217"/><rect x="355" y="137" width="100" height="20" rx="8" fill="#D9D9D9" fill-opacity=".1"/><rect x="355.608" y="137.608" width="98.784" height="18.784" rx="7.392" stroke="#fff" stroke-opacity=".1" stroke-width="1.217"/><rect x="467" y="137" width="77" height="20" rx="8" fill="#D9D9D9" fill-opacity=".1"/><rect x="467.608" y="137.608" width="75.784" height="18.784" rx="7.392" stroke="#fff" stroke-opacity=".1" stroke-width="1.217"/><rect x="38" y="169" width="77" height="20" rx="8" fill="#D9D9D9" fill-opacity=".1"/><rect x="38.608" y="169.608" width="75.784" height="18.784" rx="7.392" stroke="#fff" stroke-opacity=".1" stroke-width="1.217"/><rect x="127" y="169" width="100" height="20" rx="8" fill="#D9D9D9" fill-opacity=".1"/><rect x="127.608" y="169.608" width="98.784" height="18.784" rx="7.392" stroke="#fff" stroke-opacity=".1" stroke-width="1.217"/><rect x="239" y="169" width="77" height="20" rx="8" fill="#D9D9D9" fill-opacity=".1"/><rect x="239.608" y="169.608" width="75.784" height="18.784" rx="7.392" stroke="#fff" stroke-opacity=".2" stroke-width="1.217"/><rect x="328" y="169" width="76" height="20" rx="8" fill="#D9D9D9" fill-opacity=".1"/><rect x="328.608" y="169.608" width="74.784" height="18.784" rx="7.392" stroke="#fff" stroke-opacity=".2" stroke-width="1.217"/><rect x="416" y="169" width="77" height="20" rx="8" fill="#D9D9D9" fill-opacity=".1"/><rect x="416.608" y="169.608" width="75.784" height="18.784" rx="7.392" stroke="#fff" stroke-opacity=".1" stroke-width="1.217"/><rect x="505" y="169" width="77" height="20" rx="8" fill="#D9D9D9" fill-opacity=".1"/><rect x="505.608" y="169.608" width="75.784" height="18.784" rx="7.392" stroke="#fff" stroke-opacity=".1" stroke-width="1.217"/><rect y="201" width="77" height="20" rx="8" fill="#D9D9D9" fill-opacity=".1"/><rect x=".608" y="201.608" width="75.784" height="18.784" rx="7.392" stroke="#fff" stroke-opacity=".1" stroke-width="1.217"/><rect x="89" y="201" width="76" height="20" rx="8" fill="#D9D9D9" fill-opacity=".1"/><rect x="89.608" y="201.608" width="74.784" height="18.784" rx="7.392" stroke="#fff" stroke-opacity=".1" stroke-width="1.217"/><rect x="177" y="201" width="77" height="20" rx="8" fill="#D9D9D9" fill-opacity=".1"/><rect x="177.608" y="201.608" width="75.784" height="18.784" rx="7.392" stroke="#fff" stroke-opacity=".2" stroke-width="1.217"/><rect x="266" y="201" width="87" height="20" rx="8" fill="#D9D9D9" fill-opacity=".1"/><rect x="266.608" y="201.608" width="85.784" height="18.784" rx="7.392" stroke="#fff" stroke-opacity=".3" stroke-width="1.217"/><rect x="365" y="201" width="40" height="20" rx="8" fill="#D9D9D9" fill-opacity=".1"/><rect x="365.608" y="201.608" width="38.783" height="18.784" rx="7.392" stroke="#fff" stroke-opacity=".2" stroke-width="1.217"/><rect x="417" y="201" width="77" height="20" rx="8" fill="#D9D9D9" fill-opacity=".1"/><rect x="417.608" y="201.608" width="75.784" height="18.784" rx="7.392" stroke="#fff" stroke-opacity=".1" stroke-width="1.217"/><rect x="506" y="201" width="77" height="20" rx="8" fill="#D9D9D9" fill-opacity=".1"/><rect x="506.608" y="201.608" width="75.784" height="18.784" rx="7.392" stroke="#fff" stroke-opacity=".1" stroke-width="1.217"/><rect x="38" y="233" width="77" height="20" rx="8" fill="#D9D9D9" fill-opacity=".1"/><rect x="38.608" y="233.608" width="75.784" height="18.784" rx="7.392" stroke="#fff" stroke-opacity=".1" stroke-width="1.217"/><rect x="127" y="233" width="76" height="20" rx="8" fill="#D9D9D9" fill-opacity=".1"/><rect x="127.608" y="233.608" width="74.784" height="18.784" rx="7.392" stroke="#fff" stroke-opacity=".1" stroke-width="1.217"/><rect x="215" y="233" width="66" height="20" rx="8" fill="#D9D9D9" fill-opacity=".1" shape-rendering="crispEdges"/><rect x="215.608" y="233.608" width="64.784" height="18.784" rx="7.392" stroke="#fff" stroke-opacity=".2" stroke-width="1.217" shape-rendering="crispEdges"/><rect x="293" y="233" width="106" height="20" rx="8" fill="#D9D9D9" fill-opacity=".1"/><rect x="293.608" y="233.608" width="104.783" height="18.784" rx="7.392" stroke="#fff" stroke-opacity=".2" stroke-width="1.217"/><rect x="411" y="233" width="100" height="20" rx="8" fill="#D9D9D9" fill-opacity=".1"/><rect x="411.608" y="233.608" width="98.784" height="18.784" rx="7.392" stroke="#fff" stroke-opacity=".1" stroke-width="1.217"/><rect x="523" y="233" width="77" height="20" rx="8" fill="#D9D9D9" fill-opacity=".1"/><rect x="523.608" y="233.608" width="75.784" height="18.784" rx="7.392" stroke="#fff" stroke-opacity=".1" stroke-width="1.217"/><rect x="177" y="265" width="61" height="20" rx="8" fill="#D9D9D9" fill-opacity=".1" shape-rendering="crispEdges"/><rect x="177.608" y="265.608" width="59.783" height="18.784" rx="7.392" stroke="#fff" stroke-opacity=".2" stroke-width="1.217" shape-rendering="crispEdges"/><rect x="179" y="297" width="40" height="20" rx="8" fill="#D9D9D9" fill-opacity=".1" shape-rendering="crispEdges"/><rect x="179.608" y="297.608" width="38.783" height="18.784" rx="7.392" stroke="#fff" stroke-opacity=".2" stroke-width="1.217" shape-rendering="crispEdges"/></mask><g mask="url(#a)"><path fill="url(#b)" d="M64 .4h481v260.2H64z"/></g><defs><radialGradient id="b" cx="0" cy="0" r="1" gradientUnits="userSpaceOnUse" gradientTransform="matrix(0 130.1 -240.5 0 304.5 130.5)"><stop stop-color="#D9D9D9"/><stop offset="1" stop-color="#D9D9D9" stop-opacity="0"/></radialGradient></defs></svg>