<svg width="101" height="38" fill="none" xmlns="http://www.w3.org/2000/svg"><g filter="url(#a)" fill="#fff" fill-opacity=".1"><path d="M53.144 29.854c-2.958 0-5.235-.622-6.832-1.864a6.655 6.655 0 0 1-2.528-5.315h4.303a3.809 3.809 0 0 0 1.39 2.802 5.958 5.958 0 0 0 3.482.835 7.922 7.922 0 0 0 1.604-.155c.47-.087.92-.25 1.338-.48a2.73 2.73 0 0 0 .924-.866c.24-.385.36-.832.348-1.286a2.174 2.174 0 0 0-.377-1.309 2.957 2.957 0 0 0-1.08-.857 8.46 8.46 0 0 0-1.678-.607 73.375 73.375 0 0 0-2.218-.532 45.631 45.631 0 0 1-2.81-.74 8.478 8.478 0 0 1-2.358-1.108 5.27 5.27 0 0 1-1.634-1.79 5.575 5.575 0 0 1-.62-2.787c-.02-.975.192-1.94.62-2.816a5.685 5.685 0 0 1 1.723-2.026c.79-.57 1.68-.987 2.625-1.227a12.651 12.651 0 0 1 3.327-.414c2.11-.11 4.196.5 5.914 1.73a6.656 6.656 0 0 1 2.47 5.027H56.87a3.312 3.312 0 0 0-1.338-2.455 4.813 4.813 0 0 0-2.847-.813 5.116 5.116 0 0 0-2.846.695 2.114 2.114 0 0 0-1.057 1.848c-.016.388.084.772.288 1.102.224.325.523.592.872.776.469.25.965.443 1.479.577.584.163 1.286.333 2.092.51 1.11.244 2.152.51 3.135.806.91.262 1.777.655 2.573 1.168a5.28 5.28 0 0 1 1.745 1.848 5.81 5.81 0 0 1 .635 2.876c.017 1.01-.2 2.01-.635 2.92a6.01 6.01 0 0 1-1.76 2.152 8.022 8.022 0 0 1-2.662 1.323 11.901 11.901 0 0 1-3.4.451Zm15.304-7.571-1.782 1.848v5.235H62.57V7.71h4.096v11.992l5.508-5.915h4.916l-5.722 5.915 6.425 9.61h-5.006l-4.34-7.03ZM78.155 7.71h4.11v3.697h-4.118l.008-3.697Zm0 6.114h4.11v15.526h-4.118l.008-15.526Zm20.05-1.146v-1.811h2.787V7.74a11.37 11.37 0 0 0-2.757 0 5.748 5.748 0 0 0-2.218.74c-.61.372-1.107.9-1.442 1.53a5.12 5.12 0 0 0-.48 2.41v1.39h-4.636v-2.957h2.632v-3.01a10.979 10.979 0 0 0-2.662 0 5.623 5.623 0 0 0-2.151.74c-.606.371-1.1.9-1.427 1.53a5.076 5.076 0 0 0-.51 2.389v1.271h-2.122v2.854h2.122v12.687h4.118V16.679h4.635v12.687h4.118V16.678H101v-2.854h-2.788l-.007-1.146Zm-84.985.096-.414-.037v.037c.32 0 .639.022.954.067l-.54-.067Z"/><path d="M23.842 1.638c1.142-.02 2.28.133 3.377.454l.105.033A18.717 18.717 0 0 0 21.757.26a19.146 19.146 0 0 0-5.224-.148c-.634.08-1.313.18-1.933.32-.39.085-.889.213-1.264.325-.173.042-.45.137-.622.195-.114.035-.356.12-.463.154-.291.111-.78.297-1.06.424s-.616.267-.885.412c-.68.334-1.34.72-1.974 1.134-.164.101-.63.438-.8.557-.238.175-.532.418-.768.6-.15.127-.578.5-.736.639-.174.176-.536.509-.701.676-.114.118-.332.356-.445.473-.206.212-.552.63-.745.857C.492 11.356-.831 17.298.515 22.902c.069.258.16.606.23.862l.27.85c.04.106.132.347.17.455.038.097.132.36.175.454.05.125.268.616.32.745.095.189.33.689.43.873.147.258.318.598.475.849.116.174.393.657.52.823.091.13.276.404.368.535.14.197.444.58.59.776.132.155.494.592.629.744.158.166.397.427.555.594.114.13.232.226.342.338l.116.112c.039.036.08.07.12.105l.241.21.06.054.064.049.126.099c.192.16.44.33.643.475.155.102.38.249.542.341.064.035.212.123.278.16.603.332 1.255.61 1.913.82l.076.026.076.021c.147.036.317.095.465.129.172.038.453.11.628.136.629.122 1.267.183 1.905.188a10.967 10.967 0 0 0 3.915-.855c3.99-1.675 6.548-5.667 6.546-9.887l-.195-.012c-.229-.003-.46-.006-.678-.026a9.732 9.732 0 0 1-1.01-.133c-.448-.076-.89-.189-1.325-.323-.12-.044-.371-.123-.486-.166l-.479-.19c-.108-.052-.365-.164-.469-.213-.238-.12-.53-.268-.758-.408a10.485 10.485 0 0 1-.585-.366c-2.892-1.944-4.697-5.164-4.885-8.642-.339-6.737 5.121-12.009 11.41-11.866ZM9.212 29.244a9.833 9.833 0 0 1-1.18-1.049c-.263-.253-.553-.585-.797-.855a16.298 16.298 0 0 1-2.953-5.041C.956 13.093 6.352 2.886 15.996.83a15.342 15.342 0 0 1 2.641-.304l-.371.072a17.265 17.265 0 0 0-5.409 1.982c-.14.083-.412.248-.555.331-.13.088-.405.266-.54.355l-.6.429c-.276.217-.592.458-.856.695-.085.074-.196.165-.276.241-.163.158-.38.343-.534.503-.243.24-.53.54-.754.798-.161.16-.554.653-.706.838-.093.125-.461.621-.536.737-.06.086-.241.362-.304.454-2.789 4.313-3.329 9.815-1.453 14.592a16.33 16.33 0 0 0 1.8 3.354c.142.198.342.462.486.66.156.187.364.45.52.636.224.242.505.57.74.8 2.637 2.64 6.748 3.411 10.165 1.896-3.122 1.957-7.348 1.568-10.242-.655Zm.286-11.157c.571 2.338 1.796 4.506 3.476 6.228 1.995 2.01 5.12 2.894 7.85 2.018-2.32 1.206-5.26.86-7.441-.519a8.422 8.422 0 0 1-1.547-1.24 13.513 13.513 0 0 1-3.594-6.163c-1.042-3.816-.347-8.077 1.903-11.338 2.203-3.232 5.79-5.436 9.693-5.777.412-.033.852-.05 1.265-.045-.224.04-.718.124-.927.176-.293.062-.622.145-.91.227-7.158 2.01-11.549 9.167-9.768 16.433Z"/><path d="M20.15 36.949c.635-.08 1.315-.18 1.933-.32.391-.084.89-.213 1.264-.325.173-.042.45-.137.622-.195.114-.034.356-.12.464-.154.291-.11.779-.297 1.059-.423.28-.128.616-.268.885-.412.679-.335 1.34-.72 1.974-1.134.164-.103.63-.44.8-.558.238-.175.532-.418.768-.6.15-.127.578-.5.736-.639.174-.176.536-.509.701-.676.114-.118.332-.356.445-.473.205-.212.552-.63.745-.857 3.644-4.476 4.967-10.417 3.621-16.022-.069-.258-.16-.606-.23-.862l-.27-.85c-.04-.106-.132-.347-.17-.455-.038-.097-.132-.36-.175-.454-.05-.125-.268-.616-.32-.745-.096-.19-.33-.69-.43-.873-.147-.258-.319-.598-.475-.85-.116-.174-.393-.656-.52-.822-.091-.13-.276-.404-.368-.535-.14-.197-.444-.581-.59-.776-.133-.155-.494-.592-.63-.745-.157-.165-.396-.426-.554-.593-.126-.14-.327-.318-.457-.45-.14-.123-.34-.302-.485-.418-.117-.09-.258-.207-.378-.295l-.391-.278c-.156-.102-.381-.25-.542-.341-.065-.035-.212-.123-.278-.16a10.693 10.693 0 0 0-1.913-.82l-.076-.025-.077-.021c-.147-.037-.316-.095-.464-.13-.172-.037-.453-.11-.628-.136a10.388 10.388 0 0 0-1.905-.187 10.964 10.964 0 0 0-3.915.854c-3.991 1.676-6.55 5.67-6.547 9.891.295 0 .593.01.874.034.336.024.677.074 1.01.133.449.077.892.19 1.326.324.12.044.372.123.487.166l.478.19c.109.052.365.164.47.213.237.12.53.268.757.408.169.095.422.256.585.366 2.892 1.944 4.697 5.164 4.886 8.642.337 6.737-5.123 12.008-11.41 11.864-1.143.02-2.281-.132-3.378-.453l-.104-.032a18.719 18.719 0 0 0 5.566 1.864c1.721.288 3.49.331 5.224.145Zm7.321-29.132c.415.308.82.676 1.18 1.049.263.253.555.585.798.856a16.297 16.297 0 0 1 2.954 5.04c3.326 9.206-2.072 19.413-11.715 21.469a15.34 15.34 0 0 1-2.64.304l.37-.072a17.262 17.262 0 0 0 5.409-1.982c.141-.083.413-.248.556-.331.129-.088.405-.265.54-.355l.6-.429c.192-.152.386-.301.577-.455.139-.116.353-.306.488-.418.188-.173.422-.387.602-.565.242-.24.53-.54.754-.798.16-.16.553-.653.705-.838.094-.125.462-.621.537-.737.06-.086.241-.362.305-.454 2.788-4.313 3.328-9.815 1.452-14.592a16.357 16.357 0 0 0-1.8-3.355c-.142-.198-.342-.462-.486-.66-.155-.187-.363-.45-.52-.636-.224-.242-.505-.57-.74-.8-2.637-2.639-6.748-3.411-10.164-1.895 3.118-1.958 7.344-1.569 10.238.654ZM16.508 35.634c.294-.062.622-.145.91-.227 7.158-2.01 11.548-9.167 9.767-16.433-.57-2.339-1.796-4.507-3.476-6.229-1.995-2.01-5.12-2.894-7.848-2.017 2.32-1.207 5.258-.861 7.44.518a8.412 8.412 0 0 1 1.546 1.24 13.523 13.523 0 0 1 3.594 6.163c1.043 3.816.347 8.078-1.902 11.338-2.204 3.232-5.791 5.436-9.693 5.778-.412.032-.853.05-1.265.045.224-.04.718-.124.927-.176Z"/></g><defs><filter id="a" x="0" y="0" width="101" height="37.061" filterUnits="userSpaceOnUse" color-interpolation-filters="sRGB"><feFlood flood-opacity="0" result="BackgroundImageFix"/><feBlend in="SourceGraphic" in2="BackgroundImageFix" result="shape"/><feColorMatrix in="SourceAlpha" values="0 0 0 0 0 0 0 0 0 0 0 0 0 0 0 0 0 0 127 0" result="hardAlpha"/><feOffset dy="-1"/><feComposite in2="hardAlpha" operator="arithmetic" k2="-1" k3="1"/><feColorMatrix values="0 0 0 0 1 0 0 0 0 1 0 0 0 0 1 0 0 0 0.1 0"/><feBlend in2="shape" result="effect1_innerShadow_685_11425"/></filter></defs></svg>