<svg width="24" height="24" viewBox="0 0 24 24" fill="var(--icon-primary)" xmlns="http://www.w3.org/2000/svg">
<path fill-rule="evenodd" clip-rule="evenodd" d="M22 2.95238C20.0952 2.95238 19.619 2.95238 18.1905 2C16.7619 2.95238 16.2857 2.95238 14.381 2.95238V7.71429C14.381 10.0952 18.1905 11.5238 18.1905 11.5238C18.1905 11.5238 22 10.0952 22 7.71429V2.95238ZM20 4.87547C19.8255 4.85282 19.6531 4.82354 19.4828 4.78571C19.0166 4.68212 18.5977 4.52452 18.1905 4.32196C17.7832 4.52452 17.3643 4.68212 16.8981 4.78571C16.7279 4.82354 16.5554 4.85282 16.381 4.87547V7.71429C16.381 7.82536 16.5313 8.25367 17.4188 8.86382C17.6811 9.04417 17.9503 9.19944 18.1905 9.32503C18.4307 9.19944 18.6999 9.04417 18.9622 8.86382C19.8497 8.25367 20 7.82536 20 7.71429V4.87547ZM12.4762 2.95239H2V22H21.0476V11.5238H19.1429V13.9192L16.2857 11.062L12.9522 14.3955L7.71422 9.15747L3.90476 12.9669V4.85715H12.4762V2.95239ZM3.90476 15.7954V20.0952H15.8236L7.71422 11.9859L3.90476 15.7954ZM18.652 20.0952H19.1429V16.7476L16.2857 13.8904L14.3664 15.8097L18.652 20.0952Z" fill="var(--icon-primary)"/>
</svg>
