<svg width="20" height="20" fill="none" xmlns="http://www.w3.org/2000/svg"><path d="M3.053 15.098c.464 0 .727-.228.893-.768l.657-1.895H8.33l.657 1.91c.16.532.43.753.913.753.52 0 .893-.339.893-.823 0-.16-.035-.318-.118-.547L7.771 5.843c-.25-.671-.65-.962-1.308-.962-.65 0-1.051.305-1.293.969l-2.898 7.878a1.588 1.588 0 0 0-.118.547c0 .505.353.823.9.823Zm1.972-4.074 1.404-4.261h.048l1.418 4.26h-2.87Zm8.837 4.074c.947 0 1.867-.491 2.29-1.287h.034v.512c.027.512.353.796.823.796.484 0 .837-.312.837-.865V9.931c0-1.474-1.183-2.435-3.002-2.435-1.404 0-2.539.54-2.912 1.39-.076.16-.118.312-.118.47 0 .416.304.692.726.692.29 0 .52-.11.7-.345.428-.63.864-.858 1.535-.858.85 0 1.37.443 1.37 1.21v.526l-1.944.11c-1.785.111-2.788.893-2.788 2.193 0 1.322 1.03 2.214 2.449 2.214Zm.525-1.3c-.747 0-1.252-.38-1.252-.983 0-.58.478-.954 1.308-1.01l1.701-.103v.56c0 .885-.788 1.536-1.757 1.536Z" fill="#5D6165"/></svg>