<svg width="48" height="24" fill="none" xmlns="http://www.w3.org/2000/svg"><path d="M3.664 18.118c.556 0 .871-.274 1.07-.922l.79-2.274h4.473l.789 2.29c.19.64.514.906 1.096.906.622 0 1.07-.407 1.07-.988 0-.191-.041-.382-.14-.656L9.324 7.011c-.299-.805-.78-1.154-1.569-1.154-.78 0-1.262.366-1.552 1.163l-3.478 9.454c-.1.257-.141.49-.141.656 0 .606.423.988 1.079.988Zm2.366-4.89 1.685-5.113h.058l1.701 5.114H6.03Zm10.604 4.89c1.137 0 2.241-.59 2.747-1.544h.042v.614c.033.614.423.955.988.955.58 0 1.004-.374 1.004-1.038v-5.188c0-1.768-1.42-2.922-3.602-2.922-1.685 0-3.047.648-3.495 1.669a1.29 1.29 0 0 0-.141.564c0 .498.365.83.872.83a.994.994 0 0 0 .838-.415c.514-.755 1.037-1.03 1.843-1.03 1.02 0 1.643.532 1.643 1.453v.631l-2.332.133c-2.142.133-3.346 1.07-3.346 2.631 0 1.586 1.237 2.657 2.939 2.657Zm.63-1.56c-.896 0-1.502-.457-1.502-1.18 0-.697.573-1.145 1.57-1.212l2.041-.124v.672c0 1.063-.946 1.843-2.108 1.843Z" fill="#fff"/><path d="M41 9.17a1 1 0 0 0-1.41 0L36 12.71l-3.54-3.54a1 1 0 1 0-1.41 1.42l4.24 4.24a.998.998 0 0 0 1.42 0L41 10.59a.997.997 0 0 0 .219-1.095.998.998 0 0 0-.22-.325Z" fill="#9A9EA2"/></svg>