<svg viewBox="0 0 24 24" height="100%" width="100%" fill="none" xmlns="http://www.w3.org/2000/svg"><path d="M8.875 8h12.25a.823.823 0 0 0 .619-.293C21.908 7.52 22 7.265 22 7c0-.265-.092-.52-.256-.707A.823.823 0 0 0 21.125 6H8.875a.824.824 0 0 0-.619.293A1.077 1.077 0 0 0 8 7c0 .265.092.52.256.707A.824.824 0 0 0 8.875 8Zm12.25 3H8.875a.824.824 0 0 0-.619.293A1.077 1.077 0 0 0 8 12c0 .265.092.52.256.707a.824.824 0 0 0 .619.293h12.25a.824.824 0 0 0 .619-.293c.164-.187.256-.442.256-.707 0-.265-.092-.52-.256-.707a.824.824 0 0 0-.619-.293Zm0 5H8.875a.824.824 0 0 0-.619.293A1.077 1.077 0 0 0 8 17c0 .265.092.52.256.707a.824.824 0 0 0 .619.293h12.25a.824.824 0 0 0 .619-.293c.164-.187.256-.442.256-.707 0-.265-.092-.52-.256-.707a.824.824 0 0 0-.619-.293ZM5.919 6.178a.727.727 0 0 0-.428-.357.727.727 0 0 0-.775.23l-.655.786-.655-.786a.727.727 0 0 0-1.287.466.73.73 0 0 0 .175.465L3.5 8.437a.727.727 0 0 0 1.12 0l1.207-1.455a.727.727 0 0 0 .09-.804Zm-2.941 3.904a.728.728 0 0 0-.357.426.728.728 0 0 0 .23.776l.786.655-.786.655a.727.727 0 1 0 .931 1.112L5.237 12.5a.727.727 0 0 0 0-1.12l-1.455-1.207a.725.725 0 0 0-.804-.09Zm0 5.099a.726.726 0 0 0-.387.71.727.727 0 0 0 .26.493l.786.655-.786.655a.727.727 0 1 0 .931 1.112L5.237 17.6a.727.727 0 0 0 0-1.12l-1.455-1.207a.729.729 0 0 0-.804-.09Z" fill="var(--icon-primary)"/></svg>
