<svg width="128" height="128" viewBox="0 0 128 128" fill="none" xmlns="http://www.w3.org/2000/svg">
<mask id="path-1-inside-1_845_102986" fill="white">
<path fill-rule="evenodd" clip-rule="evenodd" d="M81.6927 13.0001L104 35.1086V109.649C104 112.916 101.352 115.564 98.0847 115.564H29.9153C26.6484 115.564 24 112.916 24 109.649V18.9153C24 15.6484 26.6484 13.0001 29.9153 13.0001H81.6927Z"/>
</mask>
<path fill-rule="evenodd" clip-rule="evenodd" d="M81.6927 13.0001L104 35.1086V109.649C104 112.916 101.352 115.564 98.0847 115.564H29.9153C26.6484 115.564 24 112.916 24 109.649V18.9153C24 15.6484 26.6484 13.0001 29.9153 13.0001H81.6927Z" fill="white" fill-opacity="0.1"/>
<path d="M81.6927 13.0001L82.2692 12.4184L82.0298 12.1811H81.6927V13.0001ZM104 35.1086H104.819V34.7672L104.577 34.5269L104 35.1086ZM81.1161 13.5818L103.423 35.6903L104.577 34.5269L82.2692 12.4184L81.1161 13.5818ZM103.181 35.1086V109.649H104.819V35.1086H103.181ZM103.181 109.649C103.181 112.463 100.899 114.745 98.0847 114.745V116.383C101.804 116.383 104.819 113.368 104.819 109.649H103.181ZM98.0847 114.745H29.9153V116.383H98.0847V114.745ZM29.9153 114.745C27.1007 114.745 24.819 112.463 24.819 109.649H23.181C23.181 113.368 26.196 116.383 29.9153 116.383V114.745ZM24.819 109.649V18.9153H23.181V109.649H24.819ZM24.819 18.9153C24.819 16.1007 27.1007 13.8191 29.9153 13.8191V12.1811C26.196 12.1811 23.181 15.1961 23.181 18.9153H24.819ZM29.9153 13.8191H81.6927V12.1811H29.9153V13.8191Z" fill="white" fill-opacity="0.08" mask="url(#path-1-inside-1_845_102986)"/>
<path d="M103.434 35.4358L81.812 14.0683V29.5206C81.812 32.7875 84.4604 35.4358 87.7273 35.4358H103.434Z" fill="white" fill-opacity="0.04" stroke="white" stroke-opacity="0.08" stroke-width="0.739407"/>
<path fill-rule="evenodd" clip-rule="evenodd" d="M64.6704 47.3091C61.3118 47.3091 57.8557 48.3239 55.1912 50.4727C52.5106 52.6345 50.6696 55.9151 50.5277 60.3446L50.5068 60.9948L56.9671 61.4759L56.9878 60.7662C57.0644 58.1371 58.0277 56.2268 59.4064 54.9705C60.7939 53.7064 62.6471 53.0641 64.5618 53.0641C68.4035 53.0641 70.9954 55.6185 70.9954 59.0633C70.9954 61.7324 69.4724 63.5626 67.0365 65.8368L65.0882 67.5686L65.083 67.5732C62.08 70.2982 60.3229 73.1036 60.7385 76.7844L60.8065 77.3869H66.272V76.7083C66.272 74.2288 67.4558 72.4997 69.728 70.4904L71.73 68.8133L71.7416 68.8032C74.8615 66.0664 77.5105 63.0687 77.5105 58.5747C77.5105 51.6272 71.5461 47.3091 64.6704 47.3091ZM63.5846 80.3187C61.3565 80.3187 59.6484 82.0958 59.6484 84.2549C59.6484 86.4756 61.3638 88.191 63.5846 88.191C65.8053 88.191 67.5207 86.4756 67.5207 84.2549C67.5207 82.0958 65.8127 80.3187 63.5846 80.3187Z" fill="white" fill-opacity="0.27"/>
<path d="M56.5703 61.0357L50.9287 60.6156L50.937 60.3577C51.0752 56.0457 52.8618 52.8773 55.4482 50.7915C58.0283 48.7108 61.3891 47.7186 64.6704 47.7186C71.3953 47.7186 77.101 51.922 77.101 58.5747C77.101 62.8795 74.5762 65.7719 71.4715 68.4953L71.4634 68.5025L69.465 70.1765L69.4649 70.1764L69.4567 70.1837C67.1492 72.2242 65.8625 74.0559 65.8625 76.7083V76.9774H61.1724L61.1454 76.7385C60.7513 73.2477 62.398 70.5627 65.3582 67.8765L65.3582 67.8765L65.3602 67.8746L65.3634 67.8718L67.3086 66.1428L67.3087 66.1429L67.316 66.1361C69.7542 63.8598 71.4049 61.9223 71.4049 59.0633C71.4049 57.2343 70.7149 55.6251 69.501 54.4747C68.288 53.3251 66.5748 52.6546 64.5618 52.6546C62.5575 52.6546 60.6023 53.327 59.1307 54.6678C57.6625 56.0055 56.658 58.0243 56.5785 60.7542L56.5703 61.0357ZM60.0579 84.2549C60.0579 82.3173 61.5873 80.7282 63.5846 80.7282C65.5818 80.7282 67.1112 82.3173 67.1112 84.2549C67.1112 86.2494 65.5791 87.7815 63.5846 87.7815C61.59 87.7815 60.0579 86.2494 60.0579 84.2549Z" stroke="black" stroke-opacity="0.08" stroke-width="0.819"/>
</svg>
