<svg viewBox="0 0 24 24" fill="none" xmlns="http://www.w3.org/2000/svg"><path fill-rule="evenodd" clip-rule="evenodd" d="M4 5h9v9h2v-2h5v4h-.764c-.55-.614-1.348-1-2.236-1-.889 0-1.687.386-2.236 1H9.236c-.55-.614-1.348-1-2.236-1-.888 0-1.687.386-2.236 1H2v2h2a3 3 0 1 0 6 0h4a3 3 0 1 0 6 0h2v-7.414L17.414 6H15V5a2 2 0 0 0-2-2H4a2 2 0 0 0-2 2v9h2V5Zm11 3h1.586l2 2H15V8Zm1 10a1 1 0 1 0 2 0 1 1 0 0 0-2 0Zm-9 1a1 1 0 1 1 0-2 1 1 0 0 1 0 2Zm.5-12v2h-2v2h2v2h2v-2h2V9h-2V7h-2Z" fill="var(--icon-primary)"/></svg>