<svg width="24" height="24" viewBox="0 0 24 24" fill="none" xmlns="http://www.w3.org/2000/svg">
<path d="M19.665 8.77605C19.5497 8.86549 17.5143 10.0124 17.5143 12.5626C17.5143 15.5123 20.1043 16.5559 20.1818 16.5817C20.1699 16.6453 19.7704 18.0109 18.8163 19.4023C17.9655 20.6267 17.077 21.8491 15.7254 21.8491C14.3738 21.8491 14.0259 21.064 12.4656 21.064C10.945 21.064 10.4043 21.8749 9.168 21.8749C7.93166 21.8749 7.069 20.742 6.07714 19.3506C4.92825 17.7167 4 15.1784 4 12.7693C4 8.90525 6.51244 6.85594 8.98513 6.85594C10.299 6.85594 11.3942 7.71859 12.2191 7.71859C13.0043 7.71859 14.2287 6.80426 15.7234 6.80426C16.2899 6.80426 18.3253 6.85594 19.665 8.77605ZM15.0138 5.16838C15.632 4.43492 16.0693 3.41723 16.0693 2.39953C16.0693 2.2584 16.0573 2.11529 16.0315 2C15.0257 2.03777 13.8291 2.66985 13.1076 3.50667C12.5411 4.15068 12.0124 5.16838 12.0124 6.2C12.0124 6.35504 12.0382 6.51008 12.0502 6.55977C12.1138 6.57169 12.2171 6.58561 12.3205 6.58561C13.2229 6.58561 14.3579 5.98135 15.0138 5.16838Z" fill="var(--icon-primary)"/>
</svg>
