<svg viewBox="0 0 24 24" fill="none" xmlns="http://www.w3.org/2000/svg"><path d="M12.178 21.325c2.115 0 4.275-.563 5.805-1.395l-.788-1.8c-1.305.697-3.105 1.192-4.972 1.192-4.298 0-7.538-3.217-7.538-7.492s3.128-7.47 7.38-7.47c4.163 0 7.268 2.835 7.268 6.637 0 2.16-1.17 3.803-2.7 3.803h-.338c-.022-.45-.045-.945-.045-1.418V10.57c0-2.318-1.732-3.938-4.14-3.938-2.272 0-4.005 1.53-4.185 3.6l2.475.113c.068-.968.743-1.62 1.665-1.62.968 0 1.62.675 1.62 1.687v.383l-1.89.18c-2.565.202-4.162 1.395-4.162 3.105 0 1.485 1.26 2.52 3.037 2.52 1.508 0 2.588-.788 3.128-2.048 0 .743.045 1.373.112 1.845h1.62c3.488 0 5.94-2.362 5.94-5.85 0-4.612-4.05-8.19-9.337-8.19-5.445 0-9.608 4.163-9.608 9.473 0 5.422 4.118 9.495 9.653 9.495Zm-1.98-7.515c0-.81.72-1.373 1.912-1.508l1.62-.157v.337c0 1.328-.9 2.475-2.182 2.475-.788 0-1.35-.45-1.35-1.147Z" fill="var(--icon-primary)"/></svg>