<svg viewBox="0 0 24 24" fill="none" xmlns="http://www.w3.org/2000/svg"><path fill-rule="evenodd" clip-rule="evenodd" d="M11 5.18 1.804 7.02l.392 1.96 3.01-.601L2 13.819v.272c0 .518.105 1.03.309 1.506.203.476.5.907.874 1.269.372.361.813.646 1.296.84a4.082 4.082 0 0 0 3.042 0c.483-.194.924-.479 1.296-.84.373-.362.67-.793.874-1.269.204-.476.309-.988.309-1.506v-.273L6.627 8.094 11 7.22V20H7v2h10v-2h-4V6.82l4.139-.828L14 11.318v.273c0 .518.105 1.03.309 1.506.203.476.5.907.873 1.269.373.361.814.646 1.297.84a4.082 4.082 0 0 0 3.042 0c.483-.194.924-.479 1.296-.84.373-.362.67-.793.874-1.269.204-.476.309-.988.309-1.506v-.273l-3.32-5.634 3.516-.703-.392-1.962L13 4.78V2h-2v3.18Zm-5 5.79-1.983 3.366c.022.162.066.322.131.475.098.23.243.44.427.619s.405.322.65.42a2.081 2.081 0 0 0 1.55 0c.245-.098.466-.241.65-.42s.329-.39.427-.619a1.84 1.84 0 0 0 .131-.475L6 10.97Zm10.017.866L18 8.47l1.983 3.366a1.842 1.842 0 0 1-.131.475c-.098.23-.242.44-.427.619a2.007 2.007 0 0 1-.65.42 2.081 2.081 0 0 1-1.55 0 2.007 2.007 0 0 1-.65-.42 1.905 1.905 0 0 1-.427-.619 1.842 1.842 0 0 1-.131-.475Z" fill="var(--icon-primary)"/></svg>