<svg viewBox="0 0 24 24" fill="none" xmlns="http://www.w3.org/2000/svg"><path d="M12 2a10 10 0 1 0 0 20 10 10 0 0 0 0-20Zm0 2a7.94 7.94 0 0 1 5.51 2.22 24.93 24.93 0 0 1-4.83 2.18 29.067 29.067 0 0 0-2.87-4.09A7.94 7.94 0 0 1 12 4ZM7.89 5.15A27.16 27.16 0 0 1 10.7 9a25.11 25.11 0 0 1-6 .74h-.36a8 8 0 0 1 3.55-4.59ZM6 17.31A7.9 7.9 0 0 1 4 12v-.29h.68a26.673 26.673 0 0 0 7-1c.32.61.62 1.24.91 1.89a14.3 14.3 0 0 0-4.29 2.41l-.3.24a20.995 20.995 0 0 0-2 2.06ZM12 20a7.92 7.92 0 0 1-4.47-1.37 17.92 17.92 0 0 1 1.56-1.58l.32-.27a12.631 12.631 0 0 1 4-2.27 32.01 32.01 0 0 1 1.4 5A8.08 8.08 0 0 1 12 20Zm4.63-1.49a34.88 34.88 0 0 0-1.28-4.46h.34c.04-.01.08-.01.12 0h.69a9.43 9.43 0 0 1 3.09.53 7.94 7.94 0 0 1-2.96 3.93ZM16.5 12h-.62a1.561 1.561 0 0 0-.39 0c-.272.017-.542.05-.81.1h-.1c-.29-.67-.59-1.32-.92-2a26.57 26.57 0 0 0 5.13-2.4A8 8 0 0 1 20 12v.51a11.48 11.48 0 0 0-3.5-.51Z" fill="var(--icon-primary)"/></svg>