<svg width="23" height="25" viewBox="0 0 23 25" fill="none" xmlns="http://www.w3.org/2000/svg">
<path d="M11.7071 6C10.6634 6 9.713 6.39975 9.00076 7.0545L7.58571 5.63945C8.43113 4.84012 9.5089 4.28398 10.7071 4.08296V2H12.7071V4.08296C15.5448 4.55904 17.7071 7.027 17.7071 10V12H15.7071V10C15.7071 7.79086 13.9162 6 11.7071 6Z" fill="var(--icon-primary)"/>
<path fill-rule="evenodd" clip-rule="evenodd" d="M5.73288 9.44C5.71582 9.62438 5.70709 9.81117 5.70709 10V12H7.70709V11.4142L10.2929 14H5.70709C4.60252 14 3.70709 14.8954 3.70709 16V20H9.70709C9.70709 21.1046 10.6025 22 11.7071 22C12.8117 22 13.7071 21.1046 13.7071 20H16.2929L18.5 22.2071L19.9142 20.7929L4.41421 5.29291L3 6.70712L5.73288 9.44ZM14.2929 18L12.2929 16H5.70709V18H14.2929Z" fill="var(--icon-primary)"/>
<path d="M15.9463 14L19.7071 17.7608V16C19.7071 14.8954 18.8117 14 17.7071 14H15.9463Z" fill="var(--icon-primary)"/>
</svg>
