<svg viewBox="0 0 24 24" viewBox="0 0 24 24" fill="none" xmlns="http://www.w3.org/2000/svg"><circle cx="12" cy="12" r="10" fill="#7524F9"/><path fill-rule="evenodd" clip-rule="evenodd" d="M18.39 8.932v.7a.377.377 0 0 1-.194.334l-2.268 1.311 2.026 1.166a.87.87 0 0 1 .436.754v1.876c0 .31-.165.6-.436.755l-5.324 3.056a.874.874 0 0 1-.87 0l-1.746-1.006a.191.191 0 0 1 0-.334l5.755-3.312a.1.1 0 0 0 0-.17L13.63 12.83a.394.394 0 0 0-.387 0L7.398 16.2a.284.284 0 0 1-.29 0l-.663-.377a.874.874 0 0 1-.44-.755V14.3a.29.29 0 0 1 .145-.252l8.38-4.817a.1.1 0 0 0 0-.169l-2.142-1.238a.394.394 0 0 0-.387 0l-5.71 3.284a.194.194 0 0 1-.291-.17V8.927c0-.31.164-.6.435-.755l5.325-3.056c.27-.155.6-.155.87 0l5.315 3.066c.28.15.445.44.445.75Z" fill="#fff"/></svg>
