<svg viewBox="0 0 24 24" fill="none" xmlns="http://www.w3.org/2000/svg"><path fill-rule="evenodd" clip-rule="evenodd" d="M12.847 4.75h-6.31v14.5h6.73c1.318 0 2.455-.39 3.266-1.088.814-.701 1.284-1.701 1.284-2.882 0-.99-.341-1.857-.954-2.502a3.64 3.64 0 0 0-1.51-.941c1.23-.553 2.024-1.727 2.024-3.177 0-2.292-1.908-3.91-4.53-3.91Zm-3.87 6.2v-4.2h3.65c.717 0 1.304.228 1.71.595.403.366.64.883.64 1.495 0 .623-.237 1.145-.64 1.513-.406.37-.993.597-1.71.597h-3.65Zm0 6.28v-4.32h4.09c.695 0 1.271.226 1.672.602.398.375.638.912.638 1.568 0 1.247-.933 2.15-2.31 2.15h-4.09Z" fill="var(--icon-primary)"/></svg>