<svg viewBox="0 0 24 24" fill="none" xmlns="http://www.w3.org/2000/svg"><path fill-rule="evenodd" clip-rule="evenodd" d="M12 18a14.466 14.466 0 0 0-1-.611c-2.155-1.197-4.366-1.655-7-1.556-.64.023-1.305.08-2 .167V2c.695 0 1.36 0 2 .01 3.043.047 5.521.317 8 1.872 2.479-1.555 4.957-1.825 8-1.872C20.64 2 21.305 2 22 2v14a23.036 23.036 0 0 0-2-.167c-2.634-.099-4.845.36-7 1.556-.334.186-.667.39-1 .611Zm8-4.168c-2.535-.086-4.803.295-7 1.314v-9.53l.063-.04C15.075 4.314 17.066 4.062 20 4.012v9.82Zm-9.063-8.256.063.04v9.53c-2.197-1.019-4.464-1.4-7-1.314v-9.82c2.934.05 4.925.302 6.937 1.564ZM2 18.186v2.011c3.735-.424 6.826-.111 9.445 1.635l.555.37.555-.37c2.62-1.746 5.71-2.059 9.445-1.635v-2.012c-3.63-.387-7.01-.134-10 1.634-2.99-1.768-6.37-2.021-10-1.634Z" fill="var(--icon-primary)"/></svg>