<svg viewBox="0 0 24 24" fill="none" xmlns="http://www.w3.org/2000/svg"><path fill-rule="evenodd" clip-rule="evenodd" d="m20.37 6.798.495-1.152s-.63-.64-1.395-1.364c-.765-.725-2.385-.299-2.385-.299L15.24 2H8.76L6.915 3.983s-1.62-.426-2.385.299c-.765.725-1.395 1.364-1.395 1.364l.495 1.152L3 8.503s1.853 6.65 2.07 7.463c.427 1.599.72 2.217 1.935 3.027s3.42 2.217 3.78 2.43c.36.214.81.577 1.215.577s.855-.363 1.215-.576c.36-.214 2.565-1.62 3.78-2.43 1.215-.811 1.508-1.43 1.935-3.028.217-.813 2.07-7.463 2.07-7.463l-.63-1.705Z" fill="url(#brave-a)"/><path fill-rule="evenodd" clip-rule="evenodd" d="M12 14.446c.123 0 .914.265 1.548.576.634.31 1.094.53 1.24.618.147.087.058.251-.076.34-.134.09-1.932 1.41-2.107 1.556-.174.145-.43.386-.605.386-.174 0-.43-.24-.605-.386a108.356 108.356 0 0 0-2.107-1.555c-.134-.09-.223-.254-.077-.341.147-.088.607-.307 1.241-.618.634-.311 1.425-.576 1.548-.576Zm.01-9.398c.06.002.401.018.89.172.54.17 1.125.384 1.395.384s2.272-.363 2.272-.363 2.374 2.719 2.374 3.3c0 .58-.299.734-.6 1.036l-1.779 1.79c-.168.17-.518.427-.312.889.206.462.51 1.05.172 1.647s-.918.995-1.289.93c-.371-.067-1.243-.498-1.564-.696-.32-.197-1.337-.991-1.337-1.295 0-.304 1.051-.85 1.245-.973.194-.124 1.08-.604 1.097-.792.018-.188.012-.244-.25-.71-.26-.464-.731-1.085-.653-1.498.078-.414.837-.628 1.379-.822.54-.194 1.583-.56 1.713-.617.13-.057.097-.11-.297-.146-.395-.036-1.514-.176-2.019-.043-.505.133-1.367.336-1.437.443-.07.108-.131.112-.06.483.072.37.442 2.15.477 2.467.036.316.106.525-.253.603-.36.078-.966.213-1.174.213-.208 0-.814-.135-1.174-.213-.36-.078-.29-.287-.254-.603.036-.316.406-2.096.477-2.467.072-.371.01-.375-.06-.483-.07-.107-.931-.31-1.436-.443-.505-.133-1.624.007-2.019.043-.394.035-.428.09-.298.146.13.057 1.173.423 1.714.617.542.194 1.3.408 1.379.822.078.413-.392 1.034-.653 1.499-.262.465-.269.52-.25.709.018.188.903.668 1.097.792.194.124 1.244.67 1.244.973 0 .304-1.016 1.098-1.336 1.295-.321.197-1.193.63-1.564.695-.371.066-.95-.332-1.289-.929-.338-.597-.034-1.185.172-1.647.206-.462-.144-.72-.313-.889l-1.779-1.79c-.3-.302-.599-.455-.599-1.036s2.373-3.3 2.373-3.3 2.003.363 2.273.363.855-.213 1.395-.384c.489-.154.83-.17.89-.172h.02Z" fill="#fff"/><path d="M17.085 3.983 15.24 2H8.76L6.915 3.983s-1.62-.426-2.385.299c0 0 2.16-.185 2.902.96 0 0 2.003.362 2.273.362s.855-.213 1.395-.384c.54-.17.9-.172.9-.172s.36.001.9.172c.54.17 1.125.384 1.395.384s2.272-.363 2.272-.363c.743-1.144 2.903-.96 2.903-.96-.765-.724-2.385-.298-2.385-.298Z" fill="#fff"/><path d="M17.085 3.983 15.24 2H8.76L6.915 3.983s-1.62-.426-2.385.299c0 0 2.16-.185 2.902.96 0 0 2.003.362 2.273.362s.855-.213 1.395-.384c.54-.17.9-.172.9-.172s.36.001.9.172c.54.17 1.125.384 1.395.384s2.272-.363 2.272-.363c.743-1.144 2.903-.96 2.903-.96-.765-.724-2.385-.298-2.385-.298Z" fill="url(#brave-b)"/><defs><linearGradient id="brave-a" x1="3" y1="12.141" x2="21" y2="12.141" gradientUnits="userSpaceOnUse"><stop stop-color="#F50"/><stop offset=".41" stop-color="#F50"/><stop offset=".582" stop-color="#FF2000"/><stop offset="1" stop-color="#FF2000"/></linearGradient><linearGradient id="brave-b" x1="4.851" y1="3.827" x2="19.47" y2="3.827" gradientUnits="userSpaceOnUse"><stop stop-color="#FF452A"/><stop offset="1" stop-color="#FF2000"/></linearGradient></defs></svg>
