<svg viewBox="0 0 24 24" fill="none" xmlns="http://www.w3.org/2000/svg"><path fill-rule="evenodd" clip-rule="evenodd" d="M12 4a2 2 0 0 0-2 2h4a2 2 0 0 0-2-2ZM8 6v.416a5.016 5.016 0 0 0-1.895 1.448A3.001 3.001 0 0 1 4 5H2c0 2.12 1.32 3.932 3.182 4.66A5.005 5.005 0 0 0 5 11v1.5H2v2h3v.5c0 .794.132 1.558.376 2.27A5.002 5.002 0 0 0 2 22h2c0-1.42.986-2.61 2.311-2.92A7.03 7.03 0 0 0 9 21.325V19a4.992 4.992 0 0 1-2-4v-4a3 3 0 0 1 3-3h1v13.93a7.062 7.062 0 0 0 2 0V8h1a3 3 0 0 1 3 3v4a4.993 4.993 0 0 1-2 4v2.326a7.029 7.029 0 0 0 2.689-2.247A3.001 3.001 0 0 1 20 22h2a5.002 5.002 0 0 0-3.376-4.73A6.99 6.99 0 0 0 19 15v-.5h3v-2h-3V11c0-.464-.063-.914-.182-1.34A5.002 5.002 0 0 0 22 5h-2a3.001 3.001 0 0 1-2.105 2.864A5.017 5.017 0 0 0 16 6.416V6a4 4 0 0 0-8 0Z" fill="var(--icon-primary)"/></svg>