<svg width="24" height="24" viewBox="0 0 24 24" fill="none" xmlns="http://www.w3.org/2000/svg">
<path fill-rule="evenodd" clip-rule="evenodd" d="M3.54062 2.94432L22.1339 20.7228L22.1345 20.7221L22.1974 20.7832L20.8027 22.2167L18.2915 19.7733C16.5731 21.1658 14.384 22 12 22C6.47715 22 2 17.5228 2 12C2 9.71441 2.76679 7.6079 4.05714 5.92371L2.30267 4.21666L3.54062 2.94432ZM6.90458 3.39372C8.39681 2.50834 10.139 2 12 2C17.5228 2 22 6.47715 22 12C22 13.701 21.5753 15.3028 20.8261 16.7052L19.3099 15.2554C19.7534 14.2609 20 13.1592 20 12C20 7.58172 16.4183 4 12 4C10.7134 4 9.49767 4.30374 8.42071 4.84342L6.90458 3.39372ZM12.3432 8.594L13.0622 6.65259L14.9377 7.34722L13.9182 10.1L12.3432 8.594ZM12 20C13.8214 20 15.5006 19.3913 16.8453 18.3663L11.9773 13.6298L8.06729 16.3234L6.93268 14.6764L10.5159 12.2079L5.50326 7.33074C4.55724 8.6447 4 10.2573 4 12C4 16.4183 7.58172 20 12 20Z" fill="black"/>
</svg>
