<svg viewBox="0 0 24 24" fill="none" xmlns="http://www.w3.org/2000/svg"><path fill-rule="evenodd" clip-rule="evenodd" d="M18 11h1.938A8.004 8.004 0 0 0 13 4.062V6h-2V4.062A8.004 8.004 0 0 0 4.062 11H6v2H4.062A8.004 8.004 0 0 0 11 19.938V18h2v1.938A8.004 8.004 0 0 0 19.938 13H18v-2Zm-5-8.95A10.003 10.003 0 0 1 21.95 11H22v2h-.05A10.003 10.003 0 0 1 13 21.95V22h-2v-.05A10.003 10.003 0 0 1 2.05 13H2v-2h.05A10.003 10.003 0 0 1 11 2.05V2h2v.05Zm2.949 7.266.632-1.897-1.897.632-4.5 1.5-.475.158-.158.475-1.5 4.5-.632 1.897 1.897-.632 4.5-1.5.475-.158.158-.475 1.5-4.5Zm-4.658 1.975 2.128-.71-.71 2.128-2.128.71.71-2.128Z" fill="var(--icon-primary)"/></svg>