<svg viewBox="0 0 24 24" fill="none" xmlns="http://www.w3.org/2000/svg"><path fill-rule="evenodd" clip-rule="evenodd" d="M13 4.062V2h-2v2.062A8.004 8.004 0 0 0 4.062 11H2v2h2.062A8.004 8.004 0 0 0 11 19.938V22h2v-2.062A8.004 8.004 0 0 0 19.938 13H22v-2h-2.062A8.004 8.004 0 0 0 13 4.062ZM8 13H6.083A6.005 6.005 0 0 0 11 17.917V16h2v1.917A6.005 6.005 0 0 0 17.917 13H16v-2h1.917A6.005 6.005 0 0 0 13 6.083V8h-2V6.083A6.005 6.005 0 0 0 6.083 11H8v2Zm4 0a1 1 0 1 0 0-2 1 1 0 0 0 0 2Z" fill="var(--icon-primary)"/></svg>