<svg viewBox="0 0 24 24" fill="none" xmlns="http://www.w3.org/2000/svg"><path fill-rule="evenodd" clip-rule="evenodd" d="M7.563 2.63c-.86 0-1.596.26-2.12.753-.524.494-.81 1.198-.81 2.037v4.1c0 .459-.12.796-.304 1.014-.18.212-.442.336-.786.336h-.45v2.06h.45c.344 0 .606.123.786.336.184.218.304.555.304 1.014v4.1c0 .839.286 1.543.81 2.037.524.492 1.26.753 2.12.753h.95v-1.82h-.85c-.312 0-.542-.104-.696-.267-.155-.164-.254-.413-.254-.743v-4.26c0-.658-.19-1.232-.545-1.662a2.076 2.076 0 0 0-.64-.518c.246-.13.462-.304.64-.518.356-.43.545-1.004.545-1.662V5.46c0-.33.099-.579.254-.744.154-.162.384-.266.696-.266h.85V2.63h-.95Zm8.869 0h-.95v1.82h.85c.311 0 .542.104.695.266.156.165.255.414.255.744v4.26c0 .658.189 1.232.545 1.662.177.214.393.389.64.518-.247.13-.463.303-.64.518-.356.43-.545 1.004-.545 1.662v4.26c0 .33-.1.579-.255.743-.153.163-.384.267-.695.267h-.85v1.82h.95c.86 0 1.596-.26 2.119-.753.524-.494.81-1.198.81-2.037v-4.1c0-.46.12-.796.304-1.014.18-.213.442-.336.787-.336h.45v-2.06h-.45c-.345 0-.607-.124-.787-.336-.184-.218-.303-.555-.303-1.014v-4.1c0-.839-.287-1.543-.811-2.037-.523-.492-1.259-.753-2.12-.753Z" fill="var(--icon-primary)"/></svg>