<svg viewBox="0 0 24 24" fill="none" xmlns="http://www.w3.org/2000/svg"><path fill-rule="evenodd" clip-rule="evenodd" d="M13.073 2.75h-1.98v1.702c-1.224.136-2.272.577-3.03 1.277-.807.746-1.27 1.773-1.27 2.991 0 1.094.385 2.024 1.118 2.743.727.715 1.782 1.206 3.103 1.462l.08.017v4.466c-1.37-.364-2.289-1.446-2.34-2.937l-.01-.26-2.412.177.002.234c.02 2.643 1.979 4.536 4.76 4.9v1.928h1.98v-1.923c2.7-.297 4.6-1.96 4.6-4.327 0-1.161-.384-2.106-1.166-2.829-.773-.714-1.915-1.192-3.397-1.477l-.038-.006V6.667c1.03.413 1.71 1.39 1.76 2.703l.01.255 2.438-.15-.008-.243c-.082-2.46-1.784-4.278-4.2-4.724V2.75Zm-3.82 5.83c0-1.02.713-1.8 1.84-2.043v3.968c-.572-.155-1.015-.386-1.321-.68a1.654 1.654 0 0 1-.519-1.245Zm3.82 8.864v-4.122c.745.188 1.265.42 1.604.714.36.314.537.716.537 1.284 0 1.052-.798 1.853-2.14 2.124Z" fill="var(--icon-primary)"/></svg>