<svg viewBox="0 0 24 24" fill="none" xmlns="http://www.w3.org/2000/svg"><path fill-rule="evenodd" clip-rule="evenodd" d="M4 2c0 3.45.937 5.764 2.442 7.448.983 1.1 2.178 1.89 3.379 2.552-1.2.662-2.396 1.453-3.38 2.552C4.938 16.236 4 18.551 4 22h2c0-3.05.813-4.861 1.933-6.115C9 14.693 10.404 13.923 12 13.12c1.164.586 2.226 1.154 3.129 1.881H11v2h5.877c.327.564.599 1.22.793 2H8v2h9.969c.02.318.031.65.031 1h2c0-3.45-.937-5.764-2.442-7.448-.983-1.1-2.178-1.89-3.379-2.552 1.2-.662 2.396-1.453 3.38-2.552C19.062 7.764 20 5.449 20 2h-2c0 3.05-.813 4.861-1.933 6.115C15 9.307 13.596 10.077 12 10.88 10.836 10.295 9.774 9.727 8.871 9H13V7H7.124a7.628 7.628 0 0 1-.794-2H16V3H6.031C6.011 2.682 6 2.35 6 2H4Z" fill="var(--icon-primary)"/></svg>