<svg width="24" height="24" viewBox="0 0 24 24" fill="none" xmlns="http://www.w3.org/2000/svg">
<path fill-rule="evenodd" clip-rule="evenodd" d="M18 8C18.1791 8 18.3527 7.97645 18.5179 7.93228L16.0677 5.48205C16.0235 5.64725 16 5.82088 16 6C16 7.10457 16.8954 8 18 8ZM17.4819 4.06777L19.9322 6.51814C19.9764 6.35288 20 6.17919 20 6C20 4.89543 19.1046 4 18 4C17.8208 4 17.6471 4.02357 17.4819 4.06777ZM18 10C20.2091 10 22 8.20914 22 6C22 3.79086 20.2091 2 18 2C15.7909 2 14 3.79086 14 6C14 8.20914 15.7909 10 18 10ZM22 10.4722C21.4229 10.9887 20.7452 11.3952 20 11.6586V17.95H4V10.2098L2 8.87347V17.95C2 19.0545 2.89543 19.95 4 19.95H20C21.1046 19.95 22 19.0545 22 17.95V10.4722ZM4 3.94995H12.3594C12.1322 4.57476 12.0059 5.24799 12.0002 5.94995H4.80275L12 10.7481L13.3798 9.82826C13.8243 10.3641 14.3602 10.8213 14.9636 11.1761L12 13.1518L2.4453 6.78202L2.45286 6.77068L2 6.46808V5.94995V3.94995H4Z" fill="black"/>
</svg>
