<svg viewBox="0 0 24 24" fill="none" xmlns="http://www.w3.org/2000/svg"><path fill-rule="evenodd" clip-rule="evenodd" d="M7 4h10a5 5 0 0 1 5 5v5.5a5 5 0 0 1-5 5H7a5 5 0 0 1-5-5V9a5 5 0 0 1 5-5Zm12.121 12.621A3 3 0 0 0 20 14.5V9a3 3 0 0 0-3-3H7a3 3 0 0 0-3 3v5.5a3 3 0 0 0 3 3h10a3 3 0 0 0 2.121-.879Zm-7.087-5.301c.607.178 1.03.39 1.268.637s.357.576.357.988c0 .953-.617 1.43-1.852 1.43-.394 0-.752-.065-1.073-.195a.485.485 0 0 1-.24-.208.65.65 0 0 1-.085-.325v-.332c0-.082.035-.143.104-.181a.222.222 0 0 1 .215-.007c.342.16.68.24 1.014.24.39 0 .585-.13.585-.39 0-.12-.03-.214-.091-.279-.06-.065-.171-.123-.332-.175-.576-.178-.992-.4-1.248-.663a1.4 1.4 0 0 1-.377-.995c0-.425.152-.758.455-1.001.308-.243.752-.364 1.333-.364.416 0 .786.046 1.111.136.104.03.189.094.254.189a.513.513 0 0 1 .097.306v.318a.242.242 0 0 1-.11.208.247.247 0 0 1-.234.026 3.428 3.428 0 0 0-1.053-.188c-.355 0-.533.123-.533.37 0 .217.145.368.435.455ZM9.25 9.565c.1 0 .187.037.26.11.074.074.111.16.111.26v.3c0 .1-.037.186-.11.26a.356.356 0 0 1-.26.11H7.858c-.04 0-.059.017-.059.052v.67c0 .039.02.058.059.058h1.26c.1 0 .187.037.26.11.074.074.111.16.111.26v.234c0 .1-.037.187-.11.26a.356.356 0 0 1-.26.111h-1.26c-.04 0-.059.017-.059.052v.8c0 .039.02.058.059.058h1.39c.1 0 .187.037.26.11.074.074.111.16.111.26v.3c0 .1-.037.186-.11.26a.356.356 0 0 1-.26.11H6.87a.356.356 0 0 1-.26-.11.356.356 0 0 1-.11-.26V9.934c0-.1.037-.186.11-.26a.356.356 0 0 1 .26-.11h2.38Zm8.372 3.712a.25.25 0 0 0-.234-.04 2.84 2.84 0 0 1-.793.111c-.356 0-.64-.121-.852-.364-.212-.247-.318-.596-.318-1.046 0-.46.097-.806.292-1.04.195-.239.466-.358.813-.358.26 0 .524.039.793.117a.25.25 0 0 0 .234-.039.265.265 0 0 0 .11-.221v-.364a.465.465 0 0 0-.104-.299.39.39 0 0 0-.26-.156 5.384 5.384 0 0 0-.936-.078c-.719 0-1.278.212-1.677.637-.398.425-.598 1.025-.598 1.8 0 .793.206 1.398.618 1.814.412.416.986.624 1.722.624.33 0 .642-.026.936-.078a.39.39 0 0 0 .26-.156.465.465 0 0 0 .104-.299v-.351a.248.248 0 0 0-.11-.214Z" fill="var(--icon-primary)"/></svg>