<svg viewBox="0 0 24 24" fill="none" xmlns="http://www.w3.org/2000/svg"><path fill-rule="evenodd" clip-rule="evenodd" d="M13.067 4.35c-3.392 0-5.952 2.266-6.7 5.616H4v1.56h2.191l-.025.264-.009.2v.016c0 .068 0 .135.002.204l.026.264H4v1.56h2.366c.749 3.35 3.309 5.616 6.701 5.616 3.4 0 6.16-2.39 6.39-5.692l.017-.25-2.429-.175-.026.24c-.246 2.214-1.88 3.617-3.952 3.617-1.956 0-3.502-1.29-4.106-3.356h4.25v-1.56h-4.49l-.034-.264-.01-.215c0-.074 0-.14.002-.205l.037-.264h4.495v-1.56h-4.25c.601-2.07 2.133-3.376 4.106-3.376 2.148 0 3.744 1.46 3.972 3.656l.025.243 2.428-.2-.015-.245c-.21-3.283-2.91-5.694-6.41-5.694Z" fill="var(--icon-primary)"/></svg>