<svg viewBox="0 0 24 24" fill="none" xmlns="http://www.w3.org/2000/svg"><path fill-rule="evenodd" clip-rule="evenodd" d="M12 20c-7 0-10-8-10-8s3-8 10-8 10 8 10 8-3 8-10 8Zm-7.648-7.674c-.06-.116-.116-.226-.165-.326.05-.1.104-.21.165-.326.346-.665.87-1.544 1.575-2.413C7.357 7.501 9.344 6 12 6c2.656 0 4.643 1.501 6.073 3.261A14.493 14.493 0 0 1 19.813 12c-.05.1-.104.21-.165.326-.346.665-.87 1.544-1.575 2.413C16.643 16.499 14.656 18 12 18c-2.656 0-4.643-1.501-6.073-3.261a14.493 14.493 0 0 1-1.575-2.413ZM14 12a2 2 0 1 1-4 0 2 2 0 0 1 4 0Zm2 0a4 4 0 1 1-8 0 4 4 0 0 1 8 0Z" fill="var(--icon-primary)"/></svg>