<svg width="24" height="24" viewBox="0 0 24 24" fill="none" xmlns="http://www.w3.org/2000/svg">
<path fill-rule="evenodd" clip-rule="evenodd" d="M3.99999 6.36693V18H5.99999V8.31137L9.79401 12H8V14H11.8512L13.9083 16H7.99999V18H15.9654L18.0226 20H18H5.99999H3.99999V22H5.99999H18H20V21.9225L20.3029 22.217L21.6971 20.783L3.69707 3.283L2.30292 4.717L3.99999 6.36693ZM5.99999 2C5.55412 2 5.14233 2.1459 4.80976 2.39256L6.46312 4H12V8C12 9.10457 12.8954 10 14 10H18V15.2164L20 17.1608V10V9L19 8L14 3L13 2H12H5.99999ZM14 5.82843L16.1716 8H14V5.82843Z" fill="var(--icon-primary)"/>
</svg>
