<svg viewBox="0 0 24 24" fill="none" xmlns="http://www.w3.org/2000/svg"><path d="M13.039 18.89H5.817a2.708 2.708 0 0 1-2.709-2.709V7.153a.903.903 0 0 0-1.805 0v9.028a4.514 4.514 0 0 0 4.514 4.514h7.222a.903.903 0 0 0 0-1.805Zm4.514-9.985a1.183 1.183 0 0 0-.054-.244V8.58a.966.966 0 0 0-.172-.253L11.91 2.91a.964.964 0 0 0-.252-.171h-.082l-.288-.1H7.622a2.708 2.708 0 0 0-2.708 2.709v9.028a2.709 2.709 0 0 0 2.708 2.708h7.223a2.709 2.709 0 0 0 2.708-2.708V8.905Zm-5.417-3.187 2.338 2.338H13.04a.903.903 0 0 1-.903-.903V5.718Zm3.611 8.658a.903.903 0 0 1-.902.902H7.622a.903.903 0 0 1-.902-.902V5.348a.903.903 0 0 1 .902-.903h2.709v2.708a2.708 2.708 0 0 0 2.708 2.709h2.708v4.514Zm4.242 4.47h1.805a.903.903 0 0 1 0 1.806H19.99v1.806a.903.903 0 0 1-1.806 0v-1.806h-1.805a.903.903 0 0 1 0-1.806h1.805v-1.805a.903.903 0 1 1 1.806 0v1.805Z" fill="var(--icon-primary)"/></svg>