<svg viewBox="0 0 24 24" fill="none" xmlns="http://www.w3.org/2000/svg"><path d="m8.468 8.395-.002.002-.003.002.005-.004Zm9.954-.187a1.238 1.238 0 0 0-.23-.175 1 1 0 0 0-1.4.412 5.782 5.782 0 0 1-1.398 1.777 8.714 8.714 0 0 0-4.267-9.092 1 1 0 0 0-1.49.806 7.017 7.017 0 0 1-2.472 4.942l-.23.188a8.513 8.513 0 0 0-1.988 1.862 8.983 8.983 0 0 0 3.656 13.908 1 1 0 0 0 1.327-1.238 6.977 6.977 0 0 1-.19-2.581 9.004 9.004 0 0 0 4.313 4.016c.225.101.48.115.715.038a8.995 8.995 0 0 0 3.654-14.863ZM14.517 21.04a6.962 6.962 0 0 1-3.576-4.402 8.882 8.882 0 0 1-.18-.964 1 1 0 0 0-1.858-.362 8.959 8.959 0 0 0-1.205 4.718 6.986 6.986 0 0 1-1.176-9.869 6.555 6.555 0 0 1 1.562-1.458.745.745 0 0 0 .075-.054s.296-.246.307-.251a8.968 8.968 0 0 0 2.898-4.633 6.736 6.736 0 0 1 1.386 8.088 1 1 0 0 0 1.184 1.418 7.856 7.856 0 0 0 3.862-2.688 7.002 7.002 0 0 1-3.279 10.457Z" fill="var(--icon-primary)"/></svg>