<svg viewBox="0 0 24 24" fill="none" xmlns="http://www.w3.org/2000/svg"><path d="M19.68 6.88a4.4 4.4 0 0 0-3.31-.32 4.37 4.37 0 0 0-8.73 0 4.48 4.48 0 0 0-3.31.29 4.37 4.37 0 0 0 .61 8 4.4 4.4 0 0 0-.8 2.5c.004.251.028.502.07.75a4.34 4.34 0 0 0 4.29 3.63c.213.014.427.014.64 0A4.42 4.42 0 0 0 12 20a4.42 4.42 0 0 0 2.86 1.69c.213.014.427.014.64 0a4.36 4.36 0 0 0 3.56-6.87 4.36 4.36 0 0 0 .62-8v.06Zm-9.34-1.94a2.4 2.4 0 0 1 3.32 0 2.43 2.43 0 0 1 .52 2.66l-.26.59-.66.58A4.07 4.07 0 0 0 12 8.55a4 4 0 0 0-1.61.34L9.83 7.6a2.39 2.39 0 0 1 .51-2.66Zm-6.1 6.84A2.37 2.37 0 0 1 7.94 9l.49.43.35.8A3.92 3.92 0 0 0 8 12.55c-.012.15-.012.3 0 .45h-.55l-.84.08a2.37 2.37 0 0 1-2.37-1.3Zm6.6 6.08a2.38 2.38 0 0 1-4.66-.08c-.01-.14-.01-.28 0-.42a2.33 2.33 0 0 1 1.17-2l.51-.36.91-.1a4 4 0 0 0 2.38 1.57l-.31 1.39ZM12 14.55a2 2 0 1 1 0-4.001 2 2 0 0 1 0 4Zm5.82 3.22a2.36 2.36 0 0 1-2.68 1.94 2.39 2.39 0 0 1-2-1.85l-.14-.6.21-.92a4 4 0 0 0 2.2-1.76l.5.3H16l.66.39a2.38 2.38 0 0 1 1.16 2.5Zm1.94-6a2.39 2.39 0 0 1-2.13 1.33h-.24l-.64-.1-.75-.41a4 4 0 0 0-1-2.64l.43-.37.63-.58a2.37 2.37 0 0 1 3.7 2.82v-.05Z" fill="var(--icon-primary)"/></svg>