<svg viewBox="0 0 24 24" fill="none" xmlns="http://www.w3.org/2000/svg"><path fill-rule="evenodd" clip-rule="evenodd" d="M3.19 19.396c.173.688.325 1.09.325 1.09s.4.151 1.09.324c2.426.608 8.425 1.473 13.052-3.153C22.284 13.03 21.419 7.03 20.81 4.604c-.172-.689-.325-1.09-.325-1.09s-.4-.151-1.09-.324C16.97 2.58 10.97 1.716 6.344 6.343 1.717 10.97 2.582 16.969 3.19 19.396Zm3.108-.28c.608.098 1.316.173 2.086.183 2.438.03 5.384-.581 7.859-3.056 2.475-2.476 3.087-5.42 3.056-7.86a14.37 14.37 0 0 0-.182-2.086l-4.289 4.289L16.243 12l-1.415 1.414L13.414 12 12 13.414l1.414 1.414L12 16.243l-1.414-1.415-4.288 4.289ZM12 10.587 10.586 12l-1.414-1.414L7.757 12l1.415 1.414-4.289 4.288a14.37 14.37 0 0 1-.181-2.086c-.031-2.438.58-5.384 3.056-7.859 2.475-2.475 5.42-3.087 7.858-3.056.77.01 1.479.085 2.087.182l-4.289 4.289L12 7.757l-1.414 1.415L12 10.586Z" fill="var(--icon-primary)"/></svg>