<svg viewBox="0 0 24 24" fill="none" xmlns="http://www.w3.org/2000/svg"><path fill-rule="evenodd" clip-rule="evenodd" d="M14.636 10.37C14.353 8.33 13.535 6.235 12.138 4a8.122 8.122 0 0 0-.276 0c-1.397 2.235-2.215 4.33-2.498 6.368-.643-.062-1.3-.147-1.984-.255.258-1.878.9-3.746 1.901-5.64a8.021 8.021 0 0 0-4.895 5.064 80.677 80.677 0 0 1-1.952-.46 10.01 10.01 0 0 1 10.84-6.998 10.01 10.01 0 0 1 8.292 6.997c-.68.17-1.329.322-1.952.46a8.021 8.021 0 0 0-4.895-5.063c1.002 1.894 1.643 3.762 1.901 5.64-.683.108-1.341.193-1.984.255ZM12 12.5c3.043 0 6.06-.496 9.955-1.458a10.118 10.118 0 0 1-.009 2.002A10.004 10.004 0 0 1 6.73 20.5a10.051 10.051 0 0 1-3.23-3.23A9.938 9.938 0 0 1 2 12c0-.323.015-.643.045-.958C5.94 12.004 8.957 12.5 12 12.5Zm2.719 7.026a8.013 8.013 0 0 0 5.134-5.993 49.177 49.177 0 0 1-3.27.61c-.28 1.79-.908 3.575-1.864 5.383ZM12.138 20c1.224-1.958 2.004-3.81 2.369-5.61-.846.074-1.676.111-2.507.111-.831 0-1.66-.037-2.507-.11.365 1.8 1.145 3.65 2.369 5.609a7.919 7.919 0 0 0 .276 0Zm-2.857-.472c-.956-1.808-1.584-3.593-1.863-5.384a49.26 49.26 0 0 1-3.272-.61c.188.968.55 1.873 1.053 2.682a8.052 8.052 0 0 0 4.082 3.312Z" fill="var(--icon-primary)"/></svg>