<svg viewBox="0 0 24 24" fill="none" fill="none" xmlns="http://www.w3.org/2000/svg">
<path d="M3.51203 18.2714L4.39404 19.7948C4.57732 20.1156 4.84078 20.3676 5.15005 20.5508L8.30011 15.0984H2C2 15.4535 2.09164 15.8086 2.27491 16.1293L3.51203 18.2714Z" fill="#0066DA"/>
<path d="M12 8.6839L8.84994 3.23145C8.54066 3.41472 8.2772 3.66673 8.09392 3.98746L2.27491 14.0676C2.09501 14.3814 2.00024 14.7368 2 15.0986H8.30011L12 8.6839Z" fill="#00AC47"/>
<path d="M18.85 20.5508C19.1593 20.3676 19.4227 20.1156 19.606 19.7948L19.9725 19.1648L21.7251 16.1293C21.9084 15.8086 22 15.4535 22 15.0984H15.6995L17.0401 17.733L18.85 20.5508Z" fill="#EA4335"/>
<path d="M11.9999 8.68391L15.15 3.23146C14.8407 3.04818 14.4856 2.95654 14.119 2.95654H9.88078C9.51423 2.95654 9.15913 3.05964 8.84985 3.23146L11.9999 8.68391Z" fill="#00832D"/>
<path d="M15.7 15.0984H8.3002L5.15015 20.5508C5.45942 20.7341 5.81452 20.8258 6.18107 20.8258H17.8191C18.1856 20.8258 18.5407 20.7227 18.85 20.5508L15.7 15.0984Z" fill="#2684FC"/>
<path d="M18.8156 9.02755L15.9061 3.98746C15.7228 3.66673 15.4593 3.41472 15.1501 3.23145L12 8.6839L15.6999 15.0986H21.9885C21.9885 14.7435 21.8969 14.3884 21.7136 14.0676L18.8156 9.02755Z" fill="#FFBA00"/>
</svg>
