<svg viewBox="0 0 24 24" fill="none" xmlns="http://www.w3.org/2000/svg"><path fill-rule="evenodd" clip-rule="evenodd" d="M4.324 4.75h-2.48v14.5h2.48v-6.3h6.66v6.3h2.48V4.75h-2.48v6.1h-6.66v-6.1Zm15.055 4.64c-1.079 0-1.983.369-2.619 1.004-.635.635-.985 1.52-.985 2.522v.246l2.151.034v-.254c0-.502.154-.908.399-1.184.243-.275.59-.438 1.015-.438.403 0 .727.138.95.362.222.224.36.551.36.961 0 .55-.244 1.078-.98 1.84-.738.766-1.935 1.73-3.772 3.15l-.097.074v1.543h6.987v-1.8H19.05c2.636-1.807 3.778-3.262 3.778-4.885 0-.928-.34-1.728-.953-2.294-.61-.565-1.475-.881-2.495-.881Z" fill="var(--icon-primary)"/></svg>