<svg viewBox="0 0 24 24" fill="none" xmlns="http://www.w3.org/2000/svg"><path fill-rule="evenodd" clip-rule="evenodd" d="M4.324 4.75h-2.48v14.5h2.48v-6.3h6.66v6.3h2.48V4.75h-2.48v6.1h-6.66v-6.1Zm15.133 4.64c-1.094 0-2.003.35-2.65.955-.647.604-1.016 1.448-1.057 2.404l-.011.253 2.161.068v-.258c0-.481.15-.868.399-1.132.247-.262.614-.425 1.093-.425.41 0 .742.127.967.327.223.198.356.48.356.827 0 .364-.149.664-.435.88-.293.22-.748.365-1.369.365h-.25v1.605h.25c.63 0 1.084.142 1.375.36.283.211.43.506.43.872 0 .65-.53 1.154-1.363 1.154-.476 0-.84-.155-1.084-.41-.245-.254-.395-.633-.395-1.121v-.256l-2.177.05v.245c0 .993.363 1.84 1.014 2.435.65.594 1.565.922 2.642.922 1.97 0 3.513-1.169 3.513-2.876 0-1.021-.556-1.816-1.417-2.206a2.42 2.42 0 0 0 1.417-2.24c0-.85-.36-1.56-.976-2.05-.612-.486-1.46-.748-2.433-.748Z" fill="var(--icon-primary)"/></svg>