<svg viewBox="0 0 24 24" fill="none" xmlns="http://www.w3.org/2000/svg"><path fill-rule="evenodd" clip-rule="evenodd" d="M5.17 7a1 1 0 1 0-2 0v10a1 1 0 1 0 2 0v-4h5v4a1 1 0 1 0 2 0V7a1 1 0 0 0-2 0v4h-5V7Zm15.66 7.903c0 1.955-1.454 3.275-3.542 3.275-1.454 0-2.724-.68-3.18-1.65a1.433 1.433 0 0 1-.153-.629c0-.488.305-.78.8-.78.38 0 .622.133.838.476.33.66.87 1.06 1.695 1.06.996 0 1.713-.718 1.713-1.708 0-.965-.71-1.65-1.707-1.65a1.91 1.91 0 0 0-1.327.546c-.374.349-.565.444-.99.444-.629 0-.927-.438-.901-.952 0-.026 0-.045.006-.076l.266-3.358c.064-.775.464-1.086 1.207-1.086h4.018c.476 0 .787.299.787.762s-.305.762-.787.762h-3.619l-.215 2.545h.038c.374-.59 1.123-.958 2.056-.958 1.752 0 2.997 1.231 2.997 2.977Z" fill="var(--icon-primary)"/></svg>