<svg viewBox="0 0 24 24" fill="none" xmlns="http://www.w3.org/2000/svg"><path fill-rule="evenodd" clip-rule="evenodd" d="M3.917 6a1 1 0 0 1 1 1v4h5V7a1 1 0 0 1 2 0v10a1 1 0 1 1-2 0v-4h-5v4a1 1 0 1 1-2 0V7a1 1 0 0 1 1-1Zm17.166 8.995c0 1.898-1.486 3.25-3.53 3.25-1.453 0-2.608-.679-3.281-2.025-.35-.71-.54-1.618-.54-2.685 0-3.034 1.447-4.862 3.828-4.862 1.517 0 2.609.641 3.04 1.498.09.178.134.343.134.514 0 .425-.299.755-.8.755-.381 0-.61-.165-.889-.488-.419-.527-.863-.762-1.492-.762-1.307 0-1.974 1.244-1.986 3.2v.094h.038c.355-.85 1.257-1.472 2.494-1.472 1.771 0 2.984 1.263 2.984 2.983Zm-5.23.045a1.66 1.66 0 0 0 1.675 1.682c.94 0 1.682-.724 1.689-1.644 0-.965-.705-1.65-1.67-1.65-.971 0-1.695.678-1.695 1.612Z" fill="var(--icon-primary)"/></svg>