<svg viewBox="0 0 24 24" fill="none" xmlns="http://www.w3.org/2000/svg"><path fill-rule="evenodd" clip-rule="evenodd" d="M8 3c1.537 0 2.938.578 4 1.528A5.978 5.978 0 0 1 16 3c3.314 0 6.5 3 6 7-.36 2.887-3.846 5.773-6.886 8.284l-1.562-1.304.26-.214c.946-.782 1.894-1.566 2.78-2.37.99-.9 1.834-1.768 2.447-2.6.623-.842.91-1.519.976-2.044C20.357 7.024 18.191 5 16 5a3.978 3.978 0 0 0-2.666 1.018L12 7.212l-1.334-1.194A3.978 3.978 0 0 0 8 5C5.809 5 3.644 7.024 3.985 9.752c.065.525.354 1.202.976 2.045.613.831 1.457 1.698 2.447 2.598.762.693 1.57 1.37 2.384 2.043l-.003.003 3.764 3.146A27.38 27.38 0 0 0 12 21c-.829-.828-1.924-1.733-3.086-2.693C5.867 15.79 2.362 12.895 2 10c-.5-4 2.686-7 6-7Z" fill="var(--icon-primary)"/></svg>