<svg viewBox="0 0 24 24" fill="none" xmlns="http://www.w3.org/2000/svg"><path fill-rule="evenodd" clip-rule="evenodd" d="M9.96 10.615V7.938l4.18-1.582v4.259H9.96ZM8.237 7.299a.91.91 0 0 1 .571-.856l5.905-2.233c.561-.213 1.153.226 1.153.855v5.917c.391.086.685.452.685.89V13c0 .498.386.892.844 1.018 1.478.41 2.568 1.829 2.568 3.515v1.402c0 .502-.386.909-.862.909a.863.863 0 0 1-.863-.864v-.045h.001v-1.402c0-.84-.543-1.552-1.283-1.757-.96-.267-2.13-1.204-2.13-2.776v-.221h-5.65V13c0 1.573-1.17 2.51-2.13 2.777-.74.205-1.283.916-1.283 1.757v.018H5.76v1.432a.86.86 0 0 1-.86.86c-.476 0-.862-.406-.862-.908v-1.402c0-1.686 1.09-3.105 2.568-3.515.457-.126.844-.52.844-1.018v-1.13c0-.474.346-.864.786-.905V7.3Z" fill="var(--icon-primary)"/></svg>