<svg viewBox="0 0 24 24" fill="none" xmlns="http://www.w3.org/2000/svg"><path fill-rule="evenodd" clip-rule="evenodd" d="M20.474 7.396v-.08l-.06-.15a.712.712 0 0 0-.07-.09.948.948 0 0 0-.09-.12l-.09-.07-.16-.08-7.5-4.63a1 1 0 0 0-1.06 0l-7.44 4.63-.09.08-.09.07a.94.94 0 0 0-.09.12.71.71 0 0 0-.07.09l-.06.15v.08a1.15 1.15 0 0 0 0 .26v8.74a1 1 0 0 0 .47.85l7.5 4.63a.47.47 0 0 0 .15.06h.08a.86.86 0 0 0 .52 0h.08a.472.472 0 0 0 .15-.06l7.45-4.63a1 1 0 0 0 .47-.85v-8.74a1.13 1.13 0 0 0 0-.26Zm-14.97 7.112a2.304 2.304 0 0 1 1.43 2.201v.01l4.07 2.517v-5.274a2.2 2.2 0 0 1-1.202-1.857l-4.298-2.65v5.053Zm7.5-.55v5.278l4.062-2.511v-.016a2.3 2.3 0 0 1 1.438-2.205V9.456l-4.307 2.655a2.2 2.2 0 0 1-1.193 1.847Zm.361-3.683 4.24-2.62-3.963-2.44-.016.016a2.3 2.3 0 0 1-3.252 0l-.013-.013-3.957 2.438 4.234 2.616A2.19 2.19 0 0 1 12 9.8c.516 0 .99.178 1.365.475Z" fill="var(--icon-primary)"/></svg>