<svg viewBox="0 0 24 24" fill="none" xmlns="http://www.w3.org/2000/svg"><path fill-rule="evenodd" clip-rule="evenodd" d="M19.071 4.929a3 3 0 0 0-4.243 0L10.587 9.17 9.172 7.757l4.242-4.242a5 5 0 1 1 7.071 7.07l-4.242 4.243-1.414-1.414 4.242-4.243a3 3 0 0 0 0-4.242ZM4.93 19.07a3 3 0 0 1 0-4.243l4.243-4.242-1.415-1.414-4.242 4.242a5 5 0 1 0 7.07 7.071l4.243-4.242-1.414-1.415-4.242 4.243a3 3 0 0 1-4.243 0Zm10.607-12.02L7.05 15.535l1.414 1.414 8.486-8.486-1.414-1.414Z" fill="var(--icon-primary)"/></svg>