<svg viewBox="0 0 24 24" fill="none" xmlns="http://www.w3.org/2000/svg"><path fill-rule="evenodd" clip-rule="evenodd" d="M12 10a3 3 0 1 0 0-6 3 3 0 0 0 0 6Zm5-3a5.002 5.002 0 0 1-4 4.9V18h-2v-6.1A5.002 5.002 0 0 1 12 2a5 5 0 0 1 5 5ZM4 18c0-1.679 2.068-3.116 5-3.71v2.049a8.353 8.353 0 0 0-1.762.621c-.558.279-.9.559-1.082.775a.852.852 0 0 0-.142.216A.213.213 0 0 0 6 18l.001.01a.215.215 0 0 0 .013.039c.016.04.054.113.142.216.182.216.524.496 1.082.775 1.115.557 2.796.96 4.762.96 1.966 0 3.647-.403 4.762-.96.558-.279.9-.56 1.082-.775a.853.853 0 0 0 .142-.216A.211.211 0 0 0 18 18a.209.209 0 0 0-.014-.049.853.853 0 0 0-.142-.216c-.182-.216-.524-.496-1.082-.775A8.352 8.352 0 0 0 15 16.34V14.29c2.932.593 5 2.03 5 3.709 0 2.21-3.582 4-8 4s-8-1.79-8-4Z" fill="var(--icon-primary)"/></svg>