<svg viewBox="0 0 24 24" fill="none" xmlns="http://www.w3.org/2000/svg"><path fill-rule="evenodd" clip-rule="evenodd" d="M6 4h6v4a2 2 0 0 0 2 2h4v8h2V9l-1-1-5-5-1-1H6a2 2 0 0 0-2 2v14h2V4ZM4 20v2h16v-2H4ZM14 5.828 16.172 8H14V5.828ZM8.948 12.75H7.18v4.3h1.205l-.063-2.526.7 2.526h1.21l.706-2.529-.063 2.529h1.205v-4.3h-1.757l-.687 2.837-.687-2.837Zm5.63 0h-1.76v4.3h1.76c.686 0 1.261-.213 1.666-.59.404-.379.634-.918.634-1.56s-.23-1.181-.634-1.56c-.405-.377-.98-.59-1.666-.59Zm-.532 3.3v-2.3h.502c.327 0 .595.115.782.314.187.2.296.486.296.836s-.109.637-.296.836c-.187.199-.455.314-.782.314h-.502Z" fill="var(--icon-primary)"/></svg>