<svg width="20" height="20" viewBox="0 0 20 20" fill="none" xmlns="http://www.w3.org/2000/svg">
<path fill-rule="evenodd" clip-rule="evenodd" d="M6.11002 11.6667H7.71L8.90047 15.8334H7.3005L6.11002 11.6667ZM3.33854 11.6667H4.37666L6.04333 17.5001H11.11L9.47483 11.7769L13.8608 13.3718L16.9108 16.4226L18.0957 15.2377L5.59245 2.74748L4.41406 3.92261L5.49126 5.00008H3.33854C2.41807 5.00008 1.67188 5.74627 1.67188 6.66675V10.0001C1.67188 10.9206 2.41807 11.6667 3.33854 11.6667ZM11.0751 10.5854L9.4655 10.0001H8.96716H3.90047H3.33854L3.33854 6.66675H7.15749L11.0751 10.5854ZM18.3385 1.66675V13.2483L16.6719 11.5833V4.04625V2.27281L18.3385 1.66675ZM15.0052 4.65231L11.1405 6.05767L9.83895 4.75751L15.0052 2.87887V4.65231Z" fill="var(--icon-primary)"/>
</svg>
