<svg viewBox="0 0 24 24" fill="none" xmlns="http://www.w3.org/2000/svg"><path fill-rule="evenodd" clip-rule="evenodd" d="m14.382 6.272 4.738-1.85.509 1.377-1.247 5.66a1.69 1.69 0 0 0 .018.8l.95 3.57-.695 2.737-2.322-.711v-.525a1.5 1.5 0 0 0-.909-1.379l-3-1.286a1.5 1.5 0 0 0-1.181 0l-3 1.286a1.5 1.5 0 0 0-.91 1.379v.512l-2.447.742-.834-2.754 1.115-3.509a1.71 1.71 0 0 0 .044-.855L4.03 5.76l.374-1.297 4.508 1.805c.168.067.346.102.526.102h4.43c.175 0 .35-.033.514-.098ZM9.333 18.378l1.585 1.209h1.831l1.584-1.23v-.698l-2.5-1.071-2.5 1.071v.719ZM20.901 2.916c-.298-.806-1.144-1.211-1.906-.914l-5.248 2.05H9.562l-5.069-2.03c-.807-.323-1.702.146-1.955 1.025L1.9 5.262a1.697 1.697 0 0 0-.03.812l1.178 5.694-1.126 3.545a1.696 1.696 0 0 0-.007 1.002l1.104 3.646c.247.817 1.057 1.279 1.832 1.044l3-.91 1.98 1.512c.254.194.558.298.87.298h2.27c.316 0 .624-.107.88-.305l1.935-1.501 2.932.898c.803.246 1.639-.257 1.857-1.116l.924-3.64c.071-.28.07-.574-.005-.853l-.954-3.581 1.255-5.698c.07-.316.047-.647-.065-.949l-.828-2.244Zm-14.589 8.47 1.823-1.26a.567.567 0 0 1 .82.194l1.09 1.988a.574.574 0 0 1-.64.834l-2.912-.73a.573.573 0 0 1-.181-1.027Zm9.04-1.26 1.823 1.26a.573.573 0 0 1-.18 1.027l-2.913.73a.574.574 0 0 1-.64-.835l1.09-1.988a.567.567 0 0 1 .82-.193Z" fill="var(--icon-primary)"/></svg>