<svg viewBox="0 0 24 24" fill="none" xmlns="http://www.w3.org/2000/svg"><path fill-rule="evenodd" clip-rule="evenodd" d="m7.731 19.5 2.6.697v-.911l.213-.215h1.486v1.822h-1.592l-1.964-.857-.743-.536Z" fill="#CDBDB2"/><path fill-rule="evenodd" clip-rule="evenodd" d="m16.222 19.5-2.547.697v-.911l-.213-.215h-1.486v1.822h1.592l1.964-.857.69-.536Z" fill="#CDBDB2"/><path fill-rule="evenodd" clip-rule="evenodd" d="m10.544 17.518-.213 1.768.266-.215h2.76l.318.215-.213-1.768-.424-.268-2.123.054-.371.214Z" fill="#393939"/><path fill-rule="evenodd" clip-rule="evenodd" d="m9.11 5.571 1.274 3 .584 8.733h2.07l.637-8.733 1.167-3H9.111Z" fill="#F89C35"/><path fill-rule="evenodd" clip-rule="evenodd" d="M3.54 12.16 2.052 16.5l3.715-.214h2.388V14.41l-.106-3.857-.531.428-3.98 1.179Z" fill="#F89D35"/><path fill-rule="evenodd" clip-rule="evenodd" d="m6.352 12.643 4.351.107-.478 2.25-2.07-.536-1.803-1.821Z" fill="#D87C30"/><path fill-rule="evenodd" clip-rule="evenodd" d="m6.352 12.697 1.804 1.714v1.714l-1.804-3.428Z" fill="#EA8D3A"/><path fill-rule="evenodd" clip-rule="evenodd" d="m8.156 14.464 2.122.536.69 2.304-.477.268-2.335-1.393v-1.715Z" fill="#F89D35"/><path fill-rule="evenodd" clip-rule="evenodd" d="M8.156 16.179 7.73 19.5l2.813-1.982-2.388-1.34Z" fill="#EB8F35"/><path fill-rule="evenodd" clip-rule="evenodd" d="m10.703 12.75.265 4.554-.796-2.33.531-2.224Z" fill="#EA8E3A"/><path fill-rule="evenodd" clip-rule="evenodd" d="m5.715 16.232 2.44-.053-.424 3.321-2.016-3.268Z" fill="#D87C30"/><path fill-rule="evenodd" clip-rule="evenodd" d="M3.22 20.947 7.732 19.5l-2.016-3.268-3.662.268 1.168 4.447Z" fill="#EB8F35"/><path fill-rule="evenodd" clip-rule="evenodd" d="M10.384 8.571 8.103 10.5l-1.751 2.143 4.351.16-.319-4.232Z" fill="#E8821E"/><path fill-rule="evenodd" clip-rule="evenodd" d="m7.731 19.5 2.813-1.982-.213 1.714v.965l-1.91-.376-.69-.32Zm8.491 0-2.76-1.982.213 1.714v.965l1.91-.376.637-.32Z" fill="#DFCEC3"/><path fill-rule="evenodd" clip-rule="evenodd" d="m9.535 13.714.584 1.232-2.07-.535 1.486-.697Z" fill="#393939"/><path fill-rule="evenodd" clip-rule="evenodd" d="m3.168 3.054 7.216 5.517-1.22-3-5.996-2.517Z" fill="#E88F35"/><path fill-rule="evenodd" clip-rule="evenodd" d="M3.168 3.054 2.212 6l.531 3.214-.371.215.53.482-.424.375.583.535-.371.322.849 1.071 3.98-1.232c1.946-1.571 2.9-2.375 2.865-2.41-.035-.036-2.44-1.876-7.216-5.518Z" fill="#8E5A30"/><path fill-rule="evenodd" clip-rule="evenodd" d="M20.414 12.16 21.9 16.5l-3.715-.214h-2.388V14.41l.106-3.857.531.428 3.98 1.179Z" fill="#F89D35"/><path fill-rule="evenodd" clip-rule="evenodd" d="m17.602 12.643-4.352.107.478 2.25 2.07-.536 1.804-1.821Z" fill="#D87C30"/><path fill-rule="evenodd" clip-rule="evenodd" d="m17.602 12.697-1.805 1.714v1.714l1.805-3.428Z" fill="#EA8D3A"/><path fill-rule="evenodd" clip-rule="evenodd" d="M15.797 14.464 13.675 15l-.69 2.304.477.268 2.335-1.393v-1.715Z" fill="#F89D35"/><path fill-rule="evenodd" clip-rule="evenodd" d="m15.797 16.179.425 3.321-2.76-1.928 2.335-1.393Z" fill="#EB8F35"/><path fill-rule="evenodd" clip-rule="evenodd" d="m13.25 12.75-.265 4.554.796-2.33-.53-2.224Z" fill="#EA8E3A"/><path fill-rule="evenodd" clip-rule="evenodd" d="m18.238 16.232-2.44-.053.424 3.321 2.016-3.268Z" fill="#D87C30"/><path fill-rule="evenodd" clip-rule="evenodd" d="m20.732 20.947-4.51-1.447 2.016-3.268 3.662.268-1.168 4.447Z" fill="#EB8F35"/><path fill-rule="evenodd" clip-rule="evenodd" d="M13.569 8.571 15.85 10.5l1.752 2.143-4.352.16.319-4.232Z" fill="#E8821E"/><path fill-rule="evenodd" clip-rule="evenodd" d="m14.418 13.714-.584 1.232 2.07-.535-1.486-.697Z" fill="#393939"/><path fill-rule="evenodd" clip-rule="evenodd" d="M20.785 3.054 13.57 8.57l1.22-3 5.996-2.517Z" fill="#E88F35"/><path fill-rule="evenodd" clip-rule="evenodd" d="M20.785 3.054 21.741 6l-.531 3.214.371.215-.53.482.424.375-.583.535.371.322-.849 1.071-3.98-1.232c-1.946-1.571-2.9-2.375-2.866-2.41.036-.036 2.441-1.876 7.217-5.518Z" fill="#8E5A30"/></svg>