<svg viewBox="0 0 24 24" fill="none" xmlns="http://www.w3.org/2000/svg"><path fill-rule="evenodd" clip-rule="evenodd" d="M12.998 19.938a8.078 8.078 0 0 1-1.996 0 1 1 0 0 1 1.996 0Zm1.95-.498a8.008 8.008 0 0 0 4.99-6.44H18v-2h1.938a7.96 7.96 0 0 0-1.618-3.906l-1.37 1.37-1.415-1.413 1.37-1.37A7.96 7.96 0 0 0 13 4.06V6h-2V4.062A7.96 7.96 0 0 0 7.094 5.68l1.37 1.37-1.413 1.415-1.37-1.37A7.96 7.96 0 0 0 4.06 11H6v2H4.062a8.009 8.009 0 0 0 4.99 6.44A3.002 3.002 0 0 1 11 17.172V10h2v7.172a3 3 0 0 1 1.947 2.268ZM21.95 13c-.502 5.053-4.766 9-9.951 9-5.185 0-9.449-3.947-9.95-9H2v-2h.05C2.55 5.947 6.814 2 12 2s9.449 3.947 9.95 9H22v2h-.05Z" fill="var(--icon-primary)"/></svg>