<svg viewBox="0 0 24 24" fill="none" xmlns="http://www.w3.org/2000/svg"><path fill-rule="evenodd" clip-rule="evenodd" d="M19.93 11.5H17L14.5 14H10l-3-2.5H4v6h8v2H3.5A1.5 1.5 0 0 1 2 18v-6.5l.533-2h5.191l.556.464L10.724 12h2.948l1.914-1.914.586-.586h5.295l.533 2V15h-2v-3.5h-.07ZM3.604 5.485 3.067 7.5h2.07l.4-1.5h12.926l.4 1.5h2.07l-.537-2.015A2 2 0 0 0 18.463 4H5.537a2 2 0 0 0-1.933 1.485Zm14.603 14.808L16.914 19H22v-2h-5.086l1.293-1.293-1.414-1.414L13.086 18l3.707 3.707 1.414-1.414Z" fill="var(--icon-primary)"/></svg>