<svg viewBox="0 0 24 24" fill="none" xmlns="http://www.w3.org/2000/svg"><path fill-rule="evenodd" clip-rule="evenodd" d="M2.34 11h4.59V9.725H5.485V5.008H4.083c-.102.688-.714 1.147-1.53 1.147v1.36c.688 0 1.249-.22 1.402-.552v2.762H2.34V11ZM9 9h13V7H9v2Zm0 8h13v-2H9v2Zm-6.668 2v-1.105c2.516-1.827 3.017-2.405 3.017-2.975 0-.416-.272-.68-.688-.68-.468 0-.765.34-.765.867l-1.564-.034c0-1.258.9-2.193 2.363-2.193 1.385 0 2.244.79 2.244 1.955 0 .893-.544 1.87-2.516 2.933h2.473V19H2.332Z" fill="var(--icon-primary)"/></svg>