<svg viewBox="0 0 24 24" fill="none" xmlns="http://www.w3.org/2000/svg"><path fill-rule="evenodd" clip-rule="evenodd" d="M4 13h7v7H4v-7Zm0-2h7V4H4v7Zm16 0V4h-7v7h7Zm2 1V2H2v20h20V12ZM4.97 15.03l1.47 1.47-1.033 1.032-.32.32-.05.05-.01.011-.003.003-.003.002-.004.005-.005.004-.004.005-.008.007-.023.023-.005.006-.002.001.53.531.53.53h.001l.001-.002.006-.005.002-.002.001-.002h.001l.006-.006L6.06 19l.007-.008.01-.009.02-.02.05-.05.03-.03.016-.016.008-.008.004-.004.004-.005.01-.008.004-.005.004-.004.005-.005.004-.004.01-.01.038-.039.042-.041.022-.022.022-.023.006-.005.006-.006.006-.006.005-.006.012-.012.012-.012.012-.012.007-.006.006-.006.025-.025L7.5 17.56l1.47 1.47 1.06-1.061-1.47-1.47 1.47-1.47-1.06-1.06-1.47 1.47-1.47-1.47-1.06 1.06Zm1.78-8.28V5h1.5v1.75H10v1.5H8.25V10h-1.5V8.25H5v-1.5h1.75Zm9.75 0H14v1.5h5v-1.5h-2.5ZM14 16v-1.5h5V16h-5Zm6 4h-7v-7h7v7Zm-1-1.5V17h-5v1.5h5Z" fill="var(--icon-primary)"/></svg>