<svg width="24" height="24" viewBox="0 0 24 24" fill="none" xmlns="http://www.w3.org/2000/svg">
<path d="M22 12.4651C22.001 12.3087 21.9202 12.1632 21.7869 12.0814H21.7846L21.7762 12.0768L14.846 7.97443C14.8161 7.95422 14.785 7.93573 14.753 7.91909C14.4854 7.78104 14.1675 7.78104 13.8999 7.91909C13.8679 7.93575 13.8368 7.95422 13.8069 7.97443L6.87671 12.0768L6.86835 12.0814C6.65654 12.2131 6.5916 12.4916 6.72332 12.7034C6.76212 12.7658 6.81558 12.8178 6.87904 12.8549L13.8093 16.9572C13.8393 16.9773 13.8703 16.9957 13.9023 17.0126C14.1699 17.1506 14.4877 17.1506 14.7553 17.0126C14.7873 16.9957 14.8183 16.9773 14.8483 16.9572L21.7786 12.8549C21.917 12.7742 22.0015 12.6254 22 12.4651Z" fill="#0A2767"/>
<path d="M7.68466 9.726H12.2326V13.8948H7.68466V9.726ZM21.0698 5.48833V3.58135C21.0807 3.10456 20.7033 2.70906 20.2265 2.69763H8.42467C7.94788 2.70906 7.57049 3.10456 7.58141 3.58135V5.48833L14.5581 7.34879L21.0698 5.48833Z" fill="#0364B8"/>
<path d="M7.58142 5.48828H12.2326V9.67432H7.58142V5.48828Z" fill="#0078D4"/>
<path d="M16.8837 5.48828H12.2325V9.67432L16.8837 13.8604H21.0698V9.67432L16.8837 5.48828Z" fill="#28A8EA"/>
<path d="M12.2325 9.67432H16.8837V13.8604H12.2325V9.67432Z" fill="#0078D4"/>
<path d="M12.2325 13.8605H16.8837V18.0465H12.2325V13.8605Z" fill="#0364B8"/>
<path d="M7.68457 13.8948H12.2325V17.6845H7.68457V13.8948Z" fill="#14447D"/>
<path d="M16.8838 13.8605H21.0698V18.0465H16.8838V13.8605Z" fill="#0078D4"/>
<path d="M21.7869 12.8293L21.7781 12.8339L14.8479 16.7316C14.8176 16.7502 14.7869 16.7679 14.7548 16.7837C14.6371 16.8397 14.5093 16.8714 14.379 16.8767L14.0004 16.6553C13.9684 16.6393 13.9374 16.6214 13.9074 16.6018L6.88414 12.5935H6.88089L6.65112 12.4651V20.3553C6.65471 20.8817 7.08423 21.3056 7.61065 21.3023H21.0553C21.0632 21.3023 21.0702 21.2986 21.0785 21.2986C21.1897 21.2915 21.2994 21.2686 21.4041 21.2307C21.4494 21.2115 21.4931 21.1888 21.5348 21.1628C21.566 21.1451 21.6195 21.1065 21.6195 21.1065C21.8577 20.9302 21.9988 20.6517 21.9999 20.3553V12.4651C21.9998 12.616 21.9184 12.7552 21.7869 12.8293Z" fill="url(#paint0_linear_5505_16402)"/>
<path opacity="0.5" d="M21.6279 12.4339V12.9176L14.3814 17.9069L6.87906 12.5967C6.87906 12.5941 6.87697 12.592 6.8744 12.592L6.18604 12.1781V11.8292L6.46976 11.8246L7.06975 12.1688L7.0837 12.1734L7.13486 12.206C7.13486 12.206 14.186 16.2292 14.2046 16.2385L14.4744 16.3967C14.4976 16.3874 14.5209 16.3781 14.5488 16.3688C14.5628 16.3595 21.5488 12.4292 21.5488 12.4292L21.6279 12.4339Z" fill="#0A2767"/>
<path d="M21.7869 12.8293L21.7781 12.8344L14.8478 16.7321C14.8176 16.7507 14.7869 16.7683 14.7548 16.7841C14.4857 16.9156 14.1709 16.9156 13.9018 16.7841C13.8699 16.7684 13.8389 16.751 13.8088 16.7321L6.87856 12.8344L6.8702 12.8293C6.73639 12.7567 6.65251 12.6173 6.65112 12.4651V20.3553C6.65445 20.8816 7.08383 21.3056 7.61015 21.3023C7.61016 21.3023 7.61017 21.3023 7.61019 21.3023H21.0409C21.5672 21.3056 21.9966 20.8817 21.9999 20.3554C21.9999 20.3553 21.9999 20.3553 21.9999 20.3553V12.4651C21.9998 12.616 21.9184 12.7552 21.7869 12.8293Z" fill="#1490DF"/>
<path opacity="0.1" d="M14.9488 16.6743L14.8451 16.7325C14.815 16.7516 14.784 16.7691 14.752 16.785C14.6378 16.8411 14.5135 16.874 14.3865 16.8818L17.0232 19.9999L21.6228 21.1083C21.7488 21.0131 21.849 20.8879 21.9144 20.7441L14.9488 16.6743Z" fill="black"/>
<path opacity="0.05" d="M15.4186 16.4102L14.8451 16.7325C14.815 16.7516 14.784 16.7692 14.752 16.785C14.6378 16.8411 14.5135 16.874 14.3865 16.8818L15.6218 20.2878L21.6241 21.1069C21.8606 20.9294 21.9998 20.651 21.9999 20.3553V20.2534L15.4186 16.4102Z" fill="black"/>
<path d="M7.62321 21.3023H21.0395C21.2459 21.3033 21.4473 21.2381 21.6139 21.1162L13.9999 16.6563C13.968 16.6402 13.9369 16.6223 13.9069 16.6028L6.88367 12.5944H6.88042L6.65112 12.4651V20.3283C6.6506 20.8657 7.08582 21.3018 7.62321 21.3023C7.6232 21.3023 7.6232 21.3023 7.62321 21.3023Z" fill="#28A8EA"/>
<path opacity="0.1" d="M13.1627 7.27113V17.1921C13.1619 17.5399 12.9504 17.8526 12.6279 17.9828C12.5279 18.0257 12.4203 18.0479 12.3116 18.0479H6.65112V6.88369H7.58136V6.41858H12.3116C12.7815 6.42036 13.1617 6.80125 13.1627 7.27113Z" fill="black"/>
<path opacity="0.2" d="M12.6976 7.73626V17.6572C12.6988 17.7695 12.675 17.8807 12.6279 17.9828C12.4987 18.3011 12.1901 18.51 11.8465 18.5116H6.65112V6.88371H11.8465C11.9814 6.88235 12.1144 6.91601 12.2325 6.98139C12.5176 7.12503 12.6975 7.41701 12.6976 7.73626Z" fill="black"/>
<path opacity="0.2" d="M12.6976 7.73626V16.727C12.6954 17.1966 12.3161 17.5773 11.8465 17.5814H6.65112V6.88371H11.8465C11.9814 6.88235 12.1144 6.91601 12.2325 6.98139C12.5176 7.12503 12.6975 7.41701 12.6976 7.73626Z" fill="black"/>
<path opacity="0.2" d="M12.2325 7.73622V16.7269C12.232 17.1973 11.8517 17.579 11.3814 17.5813H6.65112V6.88367H11.3813C11.8517 6.88392 12.2328 7.26542 12.2325 7.73576C12.2325 7.73592 12.2325 7.73607 12.2325 7.73622Z" fill="black"/>
<path d="M2.85255 6.88367H11.38C11.8508 6.88367 12.2325 7.26538 12.2325 7.73622V16.2637C12.2325 16.7345 11.8508 17.1162 11.38 17.1162H2.85255C2.3817 17.1162 2 16.7345 2 16.2637V7.73622C2 7.26538 2.38171 6.88367 2.85255 6.88367Z" fill="url(#paint1_linear_5505_16402)"/>
<path d="M4.66462 10.4594C4.87475 10.0118 5.21392 9.6371 5.63858 9.38363C6.10887 9.11438 6.64434 8.98016 7.18602 8.99572C7.68808 8.98483 8.18348 9.1121 8.61812 9.36362C9.02677 9.60733 9.3559 9.96441 9.56555 10.3915C9.79388 10.8622 9.90767 11.3801 9.89765 11.9032C9.90872 12.4498 9.79164 12.9913 9.55579 13.4845C9.34114 13.9269 9.00157 14.2967 8.57905 14.5483C8.12765 14.8075 7.61386 14.9381 7.09347 14.9259C6.58069 14.9383 6.07437 14.8096 5.62975 14.5538C5.21755 14.3098 4.8843 13.9523 4.66975 13.5241C4.44007 13.0602 4.32492 12.5481 4.33393 12.0306C4.32437 11.4886 4.43741 10.9516 4.66462 10.4594ZM5.70276 12.985C5.81479 13.268 6.00478 13.5135 6.25067 13.6929C6.50112 13.868 6.80102 13.9583 7.10648 13.9506C7.43178 13.9635 7.75243 13.8701 8.01997 13.6845C8.26274 13.5057 8.44774 13.2596 8.55206 12.9766C8.66868 12.6607 8.72623 12.326 8.72182 11.9892C8.72543 11.6492 8.67133 11.3111 8.56182 10.9892C8.4651 10.6986 8.28607 10.4423 8.04648 10.2515C7.78565 10.0572 7.46586 9.95867 7.14089 9.97247C6.82882 9.96438 6.5222 10.0554 6.26508 10.2325C6.01504 10.4126 5.82145 10.6603 5.70695 10.9464C5.45294 11.6023 5.45162 12.3291 5.70322 12.9859L5.70276 12.985Z" fill="white"/>
<path d="M16.8838 5.48828H21.0698V9.67432H16.8838V5.48828Z" fill="#50D9FF"/>
<defs>
<linearGradient id="paint0_linear_5505_16402" x1="14.3255" y1="12.4651" x2="14.3255" y2="21.3023" gradientUnits="userSpaceOnUse">
<stop stop-color="#35B8F1"/>
<stop offset="1" stop-color="#28A8EA"/>
</linearGradient>
<linearGradient id="paint1_linear_5505_16402" x1="3.7776" y1="6.2175" x2="10.4549" y2="17.7824" gradientUnits="userSpaceOnUse">
<stop stop-color="#1784D9"/>
<stop offset="0.5" stop-color="#107AD5"/>
<stop offset="1" stop-color="#0A63C9"/>
</linearGradient>
</defs>
</svg>
