<svg viewBox="0 0 24 24" fill="none" xmlns="http://www.w3.org/2000/svg"><path fill-rule="evenodd" clip-rule="evenodd" d="M18.152 2.662A11 11 0 0 1 22.21 7.1v-.02a4 4 0 0 1 .22 3.11 3.84 3.84 0 0 1-2.06 2.25 5 5 0 0 0-3 4.56c.004.336.037.67.1 1a4.199 4.199 0 0 1-.61 3.19 3.868 3.868 0 0 1-2.5 1.65 11 11 0 1 1 3.792-20.178Zm1.968 7.524a1.9 1.9 0 0 0 .39-.646v-.02A2 2 0 0 0 20.42 8a9 9 0 0 0-8.06-5h-.51a9.05 9.05 0 0 0-8.48 8.72 9 9 0 0 0 10.62 9.13 1.79 1.79 0 0 0 1.21-.8 2.161 2.161 0 0 0 .31-1.65 7.304 7.304 0 0 1-.14-1.4 7 7 0 0 1 4.14-6.37 1.9 1.9 0 0 0 .61-.444Zm-11.999 2.56a2 2 0 1 0 0-4 2 2 0 0 0 0 4Zm5.147 4.07a2 2 0 1 1-4 0 2 2 0 0 1 4 0Zm1.317-7.631a2 2 0 1 0 0-4 2 2 0 0 0 0 4Z" fill="var(--icon-primary)"/></svg>