<svg viewBox="0 0 24 24" fill="none" xmlns="http://www.w3.org/2000/svg"><path fill-rule="evenodd" clip-rule="evenodd" d="M12 4H6v14H4V4a2 2 0 0 1 2-2h7l1 1 5 5 1 1v9h-2v-8h-4a2 2 0 0 1-2-2V4ZM4 22v-2h16v2H4ZM16.172 8 14 5.828V8h2.172Zm-7.534 4.734H6.9V17h1.231v-1.2h.49c1.053 0 1.566-.694 1.566-1.522 0-.812-.497-1.544-1.55-1.544Zm.303 1.544c0 .416-.26.625-.767.625h-.048v-1.25h.187c.381 0 .628.219.628.625Zm1.674-1.544V17h1.453c1.35 0 1.953-.856 1.953-2.156 0-1.281-.58-2.11-1.953-2.11h-1.453Zm1.235.957c.756 0 .906.575.906 1.187 0 1.025-.425 1.166-.906 1.166V13.69Zm3.866 1.8V17H14.48v-4.266h2.885v.972h-1.65v.847h1.487v.938h-1.487Z" fill="var(--icon-primary)"/></svg>