<svg viewBox="0 0 24 24" fill="none" xmlns="http://www.w3.org/2000/svg"><path d="M12 22c5.523 0 10-4.477 10-10S17.523 2 12 2 2 6.477 2 12s4.477 10 10 10Z" fill="url(#phantom-a)"/><path d="M19.279 12.143H17.49c0-3.617-2.964-6.55-6.62-6.55-3.611 0-6.547 2.861-6.62 6.416-.074 3.675 3.412 6.866 7.127 6.866h.467c3.276 0 7.666-2.537 8.352-5.627.126-.57-.329-1.105-.918-1.105Zm-11.065.161c0 .484-.4.88-.889.88a.887.887 0 0 1-.889-.88v-1.422c0-.484.4-.88.889-.88s.889.396.889.88v1.422Zm3.086 0c0 .484-.4.88-.889.88a.887.887 0 0 1-.888-.88v-1.422c0-.484.4-.88.889-.88.488 0 .888.396.888.88v1.422Z" fill="url(#phantom-b)"/><defs><linearGradient id="phantom-a" x1="12" y1="2" x2="12" y2="22" gradientUnits="userSpaceOnUse"><stop stop-color="#534BB1"/><stop offset="1" stop-color="#551BF9"/></linearGradient><linearGradient id="phantom-b" x1="12.234" y1="5.594" x2="12.234" y2="18.875" gradientUnits="userSpaceOnUse"><stop stop-color="#fff"/><stop offset="1" stop-color="#fff" stop-opacity=".82"/></linearGradient></defs></svg>
