<svg viewBox="0 0 24 24" fill="none" xmlns="http://www.w3.org/2000/svg"><path fill-rule="evenodd" clip-rule="evenodd" d="M9 2.458C4.943 3.732 2 7.522 2 12c0 5.523 4.477 10 10 10a9.966 9.966 0 0 0 4.83-1.241l.015-.01c.293-.161.576-.338.849-.527l-3.186-5.757L13.697 13h6.241a7.96 7.96 0 0 1-1.721 4.036l1.028 1.857A9.965 9.965 0 0 0 22 12a10.003 10.003 0 0 0-11-9.95V12.257l.125.226 3.847 6.946c-.917.368-1.92.57-2.972.57A8 8 0 0 1 9 4.582V2.458Zm4 1.604A8.004 8.004 0 0 1 19.938 11H13V4.062Z" fill="var(--icon-primary)"/></svg>