<svg viewBox="0 0 24 24" fill="none" xmlns="http://www.w3.org/2000/svg"><g clip-path="url(#a)"><path fill-rule="evenodd" clip-rule="evenodd" d="m16.718 8.698 3.349-3.349a1 1 0 0 0-1.414-1.414l-3.35 3.35L7.88 4.808l-.787.787 6.364 3.535-5.575 5.576-3.248-.75 5.411 5.412-.749-3.248 5.576-5.575 3.535 6.364.787-.787-2.475-7.425Zm1.227 11.5-3.535-6.363-2.917 2.916.796 3.448-2.122 2.121-8.485-8.485 2.121-2.122 3.447.796 2.917-2.917-6.364-3.535 2.662-2.662a2 2 0 0 1 2.046-.483l6.253 2.084 2.474-2.475a3 3 0 0 1 4.243 4.243l-2.475 2.475 2.084 6.252a2 2 0 0 1-.483 2.046L17.945 20.2Z" fill="var(--icon-primary)"/></g><defs><clipPath id="a"><path fill="#fff" d="M0 0h24v24H0z"/></clipPath></defs></svg>