<svg viewBox="0 0 24 24" fill="none" xmlns="http://www.w3.org/2000/svg"><path fill-rule="evenodd" clip-rule="evenodd" d="M13.08 4.09c-1.593 0-2.945.432-3.903 1.233C8.214 6.13 7.67 7.29 7.67 8.7c0 .807.288 1.607.593 2.37H8.12l-1.73.093v1.647h2.513c.102.372.167.74.167 1.11 0 1.549-.892 2.894-2.53 3.78l-.13.07v1.48h11.42v-2.04H9.872c.36-.39.667-.788.898-1.236.297-.578.46-1.228.46-2.034a5.5 5.5 0 0 0-.122-1.13h4.822v-1.74h-5.372l-.006-.015c-.307-.816-.582-1.546-.582-2.315 0-.775.284-1.423.813-1.881.534-.46 1.34-.75 2.417-.75 1.387 0 2.356.489 3.128 1.411l.174.208 1.394-1.368-.14-.176c-1.01-1.262-2.543-2.094-4.676-2.094Z" fill="var(--icon-primary)"/></svg>