<svg viewBox="0 0 24 24" fill="none" xmlns="http://www.w3.org/2000/svg">
<path fill-rule="evenodd" clip-rule="evenodd" d="M5.5 1.99878H6.5H17.5H18.5V2.99878V8.33252H19C20.6569 8.33252 22 9.67567 22 11.3325V16.6407V17.6407H21H20V15.6407V13.7174V11.3325C20 10.7802 19.5523 10.3325 19 10.3325H18V10.3326H7V10.3325H6.5H5C4.44771 10.3325 4 10.7802 4 11.3325V13.7174V15.6407V17.6407H3H2V16.6407V11.3325C2 9.67566 3.34315 8.33252 5 8.33252H5.5V2.99878V1.99878ZM7.5 8.33261H16.5V3.99878H7.5V8.33261ZM6.5 12.7174H5.5V13.7174V21.0256V22.0256H6.5H17.5H18.5V21.0256V13.7174V12.7174H17.5H6.5ZM7.5 20.0256V14.7174H16.5V20.0256H7.5Z" fill="var(--icon-primary)"/>
</svg>
