<svg viewBox="0 0 24 24" fill="none" xmlns="http://www.w3.org/2000/svg"><path d="M2.832 8A9.966 9.966 0 0 0 2 12a9.97 9.97 0 0 0 .832 4H5v-2h-.748A8.019 8.019 0 0 1 4 12c0-.692.087-1.362.252-2H13V7a2 2 0 0 0-2-2H9v-.42A7.972 7.972 0 0 1 12 4c1.064 0 2.076.207 3 .58V11H9a2 2 0 0 0-2 2v7.662A9.962 9.962 0 0 0 12 22a9.96 9.96 0 0 0 5-1.338V17h-4v-1h8.168A9.966 9.966 0 0 0 22 12a9.966 9.966 0 0 0-.832-4H19v2h.748c.165.638.252 1.308.252 2a8.02 8.02 0 0 1-.252 2H11v3a2 2 0 0 0 2 2h2v.42a7.973 7.973 0 0 1-3 .58 7.974 7.974 0 0 1-3-.58V13h6a2 2 0 0 0 2-2V3.338A9.96 9.96 0 0 0 12 2a9.96 9.96 0 0 0-5 1.338V7h4v1H2.832Z" fill="var(--icon-primary)"/></svg>