<svg viewBox="0 0 24 24" fill="none" xmlns="http://www.w3.org/2000/svg"><path fill-rule="evenodd" clip-rule="evenodd" d="M20 12a8 8 0 1 1-16 0 8 8 0 0 1 16 0Zm2 0c0 5.523-4.477 10-10 10S2 17.523 2 12 6.477 2 12 2s10 4.477 10 10Zm-9.813-5.166c-.872 0-1.773.257-2.47.798-.7.543-1.191 1.368-1.242 2.49l-.004.097 1.934.14.006-.101c.034-.572.248-1.002.56-1.289a1.715 1.715 0 0 1 1.174-.437c.85 0 1.44.551 1.44 1.314 0 .595-.357 1.002-.974 1.55l-.504.447c-.404.355-.702.709-.88 1.086-.179.38-.234.778-.16 1.217l.014.084h1.598v-.1c0-.603.27-1.025.846-1.505l.518-.434c.86-.691 1.478-1.431 1.478-2.513 0-.893-.393-1.608-1.009-2.096-.614-.487-1.445-.748-2.325-.748Zm-1.416 9.284c0-.628.478-1.122 1.122-1.122.618 0 1.094.495 1.094 1.122 0 .628-.478 1.108-1.094 1.108-.642 0-1.122-.478-1.122-1.108Z" fill="var(--icon-primary)"/></svg>