<svg viewBox="0 0 24 24" fill="none" xmlns="http://www.w3.org/2000/svg"><path fill-rule="evenodd" clip-rule="evenodd" d="M12.247 4.37c-1.238 0-2.51.374-3.492 1.166-.988.796-1.666 2.004-1.718 3.636l-.008.24 2.38.177.007-.262c.029-.968.384-1.672.891-2.135.512-.465 1.194-.702 1.9-.702 1.415 0 2.37.941 2.37 2.21 0 .983-.562 1.658-1.459 2.495l-.718.638-.001.002c-1.107 1.004-1.754 2.037-1.6 3.393l.024.222h2.014v-.25c0-.913.436-1.55 1.273-2.29l.737-.618.005-.004C16 11.28 16.977 10.176 16.977 8.52c0-2.56-2.198-4.15-4.73-4.15Zm-.4 12.16c-.821 0-1.45.655-1.45 1.45 0 .818.631 1.45 1.45 1.45.818 0 1.45-.632 1.45-1.45 0-.795-.63-1.45-1.45-1.45Z" fill="var(--icon-primary)"/></svg>