<svg viewBox="0 0 24 24" fill="none" xmlns="http://www.w3.org/2000/svg"><path fill-rule="evenodd" clip-rule="evenodd" d="m13.318 4.889 2.828-2.828 1.414 1.414-2.828 2.828a1 1 0 0 0 0 1.414l3.535-3.535 1.415 1.414-3.536 3.536a1 1 0 0 0 1.414 0l2.829-2.829 1.414 1.414-2.828 2.829a3 3 0 0 1-4.243 0L3.611 21.667l-1.414-1.414 5.464-5.465-2.131-2.131a7 7 0 0 1-2.05-4.95V2.12l8.424 8.425 1.414-1.414a3 3 0 0 1 0-4.243Zm-2.828 7.07L5.48 6.95v.758a5 5 0 0 0 1.464 3.535l2.131 2.132 1.415-1.414Zm11 8.172-6.758-6.757-1.414 1.414 6.758 6.758 1.414-1.415Z" fill="var(--icon-primary)"/></svg>