<svg viewBox="0 0 24 24" fill="none" xmlns="http://www.w3.org/2000/svg"><path d="M9 15a1 1 0 1 0 0 2 1 1 0 0 0 0-2Zm-7-1a1 1 0 0 0-1 1v2a1 1 0 1 0 2 0v-2a1 1 0 0 0-1-1Zm20 0a1 1 0 0 0-1 1v2a1 1 0 0 0 2 0v-2a1 1 0 0 0-1-1Zm-5-7h-4V5.72A2 2 0 0 0 14 4a2 2 0 1 0-4 0 2 2 0 0 0 1 1.72V7H7a3 3 0 0 0-3 3v9a3 3 0 0 0 3 3h10a3 3 0 0 0 3-3v-9a3 3 0 0 0-3-3Zm-3.28 2-.5 2h-2.44l-.5-2h3.44ZM18 19a1 1 0 0 1-1 1H7a1 1 0 0 1-1-1v-9a1 1 0 0 1 1-1h1.22L9 12.24a1 1 0 0 0 1 .76h4a1 1 0 0 0 1-.76L15.78 9H17a1 1 0 0 1 1 1v9Zm-3-4a1 1 0 1 0 0 2 1 1 0 0 0 0-2Z" fill="var(--icon-primary)"/></svg>