<svg viewBox="0 0 24 24" fill="none" xmlns="http://www.w3.org/2000/svg"><path d="M22.601 2.062a1.001 1.001 0 0 0-.713-.713A11.252 11.252 0 0 0 10.47 4.972L9.354 6.296 6.75 5.668a2.777 2.777 0 0 0-3.386 1.357l-2.2 3.9a1 1 0 0 0 .661 1.469l3.073.659c-.26.792-.446 1.607-.555 2.434a1 1 0 0 0 .284.836l3.1 3.1a1 1 0 0 0 .794.29c.846-.077 1.68-.24 2.492-.49l.644 3.003a1 1 0 0 0 1.469.661l3.905-2.202a3.035 3.035 0 0 0 1.375-3.304l-.669-2.76 1.238-1.137A11.204 11.204 0 0 0 22.6 2.062ZM3.572 10.723l1.556-2.76a.826.826 0 0 1 1.07-.375l1.718.416-.65.772a13.095 13.095 0 0 0-1.59 2.398l-2.104-.45Zm12.47 8.222-2.715 1.532-.43-2.005c.87-.434 1.682-.978 2.413-1.62l.744-.683.404 1.665a1.041 1.041 0 0 1-.416 1.111Zm1.615-6.965-3.685 3.386a9.773 9.773 0 0 1-5.17 2.305l-2.405-2.405a10.932 10.932 0 0 1 2.401-5.206l1.679-1.992a.965.965 0 0 0 .078-.093L11.99 6.27a9.278 9.278 0 0 1 8.81-3.12 9.218 9.218 0 0 1-3.143 8.829Zm-.923-6.164a1.5 1.5 0 1 0 0 3 1.5 1.5 0 0 0 0-3Z" fill="var(--icon-primary)"/></svg>