<svg viewBox="0 0 24 24" fill="none" xmlns="http://www.w3.org/2000/svg"><path fill-rule="evenodd" clip-rule="evenodd" d="M10.762 4.176c.03-.06.06-.118.087-.176h2.302l.087.176c.208.412.489.897.85 1.349.35.439.86.953 1.556 1.282 1.016.482 2.188.442 2.864.38l1.074 1.718-.017.026C19.17 9.55 18.5 10.724 18.5 12s.67 2.45 1.065 3.069l.017.026-1.074 1.718c-.675-.062-1.848-.102-2.864.38-.696.33-1.206.843-1.556 1.282A7.85 7.85 0 0 0 13.15 20h-2.302a7.85 7.85 0 0 0-.937-1.525c-.35-.439-.86-.953-1.556-1.283-1.016-.48-2.189-.441-2.864-.379l-1.074-1.718.017-.026C4.83 14.45 5.5 13.276 5.5 12s-.67-2.45-1.065-3.069l-.017-.026 1.074-1.718c.675.062 1.848.102 2.864-.38.696-.33 1.206-.843 1.556-1.282.361-.452.642-.937.85-1.349ZM16.5 5c-1.273-.603-2-3-2-3h-5s-.727 2.397-2 3c-1.059.502-3 0-3 0L2 9s1.5 1.69 1.5 3S2 15 2 15l2.5 4s1.941-.502 3 0c1.273.603 2 3 2 3h5s.727-2.397 2-3c1.059-.502 3 0 3 0l2.5-4s-1.5-1.69-1.5-3S22 9 22 9l-2.5-4s-1.941.502-3 0ZM14 12a2 2 0 1 1-4 0 2 2 0 0 1 4 0Zm2 0a4 4 0 1 1-8 0 4 4 0 0 1 8 0Z" fill="var(--icon-primary)"/></svg>