<svg viewBox="0 0 24 24" fill="none" xmlns="http://www.w3.org/2000/svg"><path fill-rule="evenodd" clip-rule="evenodd" d="M20 4c-4 0-5 0-8-2-3 2-4 2-8 2v2h2v-.013c1.03-.024 1.942-.092 2.809-.285C9.926 5.454 10.907 5.02 12 4.368c1.093.651 2.074 1.086 3.191 1.334.867.193 1.778.261 2.809.285V14c0 1.42-1.198 2.896-3.133 4.227A18.792 18.792 0 0 1 12 19.829a18.795 18.795 0 0 1-2.867-1.602C7.198 16.897 6 15.42 6 14V8H4v6c0 5 8 8 8 8s8-3 8-8V4Zm-9 11.414 4.707-4.707-1.414-1.414L11 12.586l-1.293-1.293-1.414 1.414L11 15.414Z" fill="var(--icon-primary)"/></svg>