<svg width="25" height="25" viewBox="0 0 25 25" fill="none" xmlns="http://www.w3.org/2000/svg">
<path d="M12.5 6.40503C14.329 7.62503 14.939 7.62503 17.377 7.62503V13.719C17.377 16.767 12.501 18.596 12.501 18.596C12.501 18.596 7.62402 16.766 7.62402 13.719V7.62403C10.062 7.62403 10.672 7.62403 12.501 6.40503H12.5Z" fill="var(--accent-green-secondary)"/>
<path fill-rule="evenodd" clip-rule="evenodd" d="M18.108 6.893V13.719C18.108 15.638 16.596 17.049 15.353 17.903C14.5468 18.4521 13.683 18.9114 12.777 19.273L12.764 19.278L12.76 19.279H12.758L12.5 18.595C12.5 18.595 17.377 16.767 17.377 13.719V7.624C14.939 7.624 14.329 7.624 12.5 6.404C10.672 7.624 10.062 7.624 7.62401 7.624V13.719C7.62401 16.767 12.5 18.595 12.5 18.595L12.243 19.28H12.241L12.237 19.278L12.224 19.273C12.1513 19.2456 12.0792 19.2162 12.008 19.185C11.1804 18.8378 10.3898 18.4083 9.64801 17.903C8.405 17.049 6.89301 15.638 6.89301 13.719V6.893H7.62401C8.87201 6.893 9.54201 6.889 10.132 6.758C10.688 6.634 11.209 6.387 12.095 5.796L12.5 5.526L12.906 5.796C13.791 6.386 14.313 6.634 14.869 6.758C15.459 6.888 16.129 6.893 17.377 6.893H18.108ZM12.5 18.595L12.757 19.28L12.5 19.376L12.243 19.28L12.5 18.595Z" fill="var(--accent-green-primary)"/>
<path d="M12.5 6.40503C14.33 7.62503 14.939 7.62503 17.377 7.62503V13.719C17.377 16.767 12.501 18.596 12.501 18.596V6.40503H12.5Z" fill="var(--accent-green-secondary)"/>
<path fill-rule="evenodd" clip-rule="evenodd" d="M14.802 10.261L15.836 11.296L11.769 15.363L9.16504 12.759L10.199 11.724L11.769 13.294L14.802 10.261Z" fill="var(--accent-green-primary)"/>
</svg>
