<svg viewBox="0 0 24 24" fill="none" xmlns="http://www.w3.org/2000/svg"><path fill-rule="evenodd" clip-rule="evenodd" d="M10 2H9v4H6v5.384l-2.73.643-1.088.256.376 1.053 1.567 4.387c.178-.157.399-.37.668-.66l.882-.947-.857-2.399 2.41-.567L11 12.263V18h2v-5.737l3.77.887 2.412.567-.857 2.4.881.946c.27.29.49.503.669.66l1.567-4.387.376-1.053-1.09-.256L18 11.384V6h-3V2h-5Zm3 4h-2V4h2v2Zm-1.23 4.027L8 10.914V8h8v2.914l-3.771-.887-.23-.054-.228.054Zm-4.063 8.266L7 17.586l-.707.707c-.946.946-1.567 1.327-2.11 1.508C3.616 19.991 3.036 20 2 20v2h.081c.935 0 1.83 0 2.735-.301.736-.246 1.426-.668 2.184-1.328.758.66 1.448 1.082 2.184 1.328.905.301 1.8.301 2.735.3h.162c.935.001 1.83.001 2.735-.3.736-.246 1.426-.668 2.184-1.328.758.66 1.448 1.082 2.184 1.328.905.301 1.8.301 2.735.3H22v-2c-1.035 0-1.616-.008-2.184-.198-.542-.18-1.163-.562-2.109-1.508L17 17.586l-.707.707c-.946.946-1.567 1.327-2.11 1.508-.567.19-1.148.199-2.183.199s-1.616-.01-2.184-.199c-.542-.18-1.163-.562-2.109-1.508Z" fill="var(--icon-primary)"/></svg>