<svg viewBox="0 0 24 24" fill="none" xmlns="http://www.w3.org/2000/svg"><path fill-rule="evenodd" clip-rule="evenodd" d="M16.84 3.129A6.228 6.228 0 0 0 15 2.884c-3.429-.077-6.406 2.768-6.221 6.403a6.003 6.003 0 0 0 3.396 5.081l.123.056c.05.022.102.045.132.06l.051.02.21.082.139.047c.048.016.095.031.126.043.237.072.479.133.723.174a5.38 5.38 0 0 0 .92.086l.102.006h.005a5.822 5.822 0 0 1-3.57 5.336 6.033 6.033 0 0 1-2.134.461 5.72 5.72 0 0 1-1.288-.153l-.093-.022a2.287 2.287 0 0 1-.139-.037 2.713 2.713 0 0 0-.115-.032l-.041-.012-.042-.014a5.855 5.855 0 0 1-1.043-.443l-.065-.036a6.83 6.83 0 0 1-.454-.284 4.8 4.8 0 0 1-.279-.206l-.068-.053-.035-.027-.033-.028-.131-.114-.026-.023c-.014-.01-.027-.022-.04-.034l-.063-.06a2.332 2.332 0 0 0-.07-.067 1.694 1.694 0 0 1-.116-.116l-.142-.15a20.942 20.942 0 0 0-.16-.17 17.757 17.757 0 0 1-.206-.24 20.675 20.675 0 0 0-.138-.162l-.124-.16a9.602 9.602 0 0 1-.197-.259 14.98 14.98 0 0 1-.11-.157l-.091-.131a4.156 4.156 0 0 1-.18-.279 5.841 5.841 0 0 1-.27-.456 9.46 9.46 0 0 0-.093-.167 10.078 10.078 0 0 1-.152-.305l-.082-.167c-.013-.033-.047-.11-.082-.19a13.316 13.316 0 0 1-.092-.211 3.66 3.66 0 0 1-.096-.245c-.01-.031-.03-.081-.049-.13a11.498 11.498 0 0 1-.043-.117l-.083-.255a47.364 47.364 0 0 0-.065-.203 74.81 74.81 0 0 1-.125-.465 9.93 9.93 0 0 1 2.046-8.73c.106-.125.245-.288.335-.38l.114-.12.128-.135c.046-.046.118-.114.191-.182l.192-.183.4-.345c.05-.038.105-.08.161-.125.088-.069.18-.14.259-.198l.087-.062c.115-.08.28-.197.349-.24a10.305 10.305 0 0 1 1.43-.777l.129-.057c.153-.068.419-.168.577-.228l.122-.04c.05-.017.1-.034.131-.043l.025-.008a10.127 10.127 0 0 1 2.058-.445c.945-.101 1.91-.078 2.848.08 1.06.173 2.085.517 3.035 1.006l-.014-.005-.043-.013ZM6.38 17.216c.196.2.417.4.643.566 1.578 1.2 3.882 1.41 5.584.353-1.863.818-4.105.401-5.542-1.023a6.964 6.964 0 0 1-.279-.295l-.125-.137a15.342 15.342 0 0 1-.149-.18l-.134-.163a16.489 16.489 0 0 1-.265-.356 8.785 8.785 0 0 1-.982-1.81A8.65 8.65 0 0 1 6 6.184l.09-.133c.041-.062.242-.33.292-.397l.065-.08c.1-.121.25-.304.32-.373a8.794 8.794 0 0 1 .584-.592l.119-.11a2.487 2.487 0 0 1 .15-.13c.119-.105.257-.212.387-.313l.08-.062.327-.231.126-.082c.063-.04.128-.083.168-.11.043-.024.106-.062.167-.098a9.469 9.469 0 0 1 3.085-1.15l.203-.04c-.48.014-.971.069-1.44.165-5.258 1.11-8.2 6.618-6.387 11.585a8.776 8.776 0 0 0 2.045 3.183Zm2.694-2.094a7.321 7.321 0 0 1-1.895-3.362c-.971-3.92 1.423-7.783 5.325-8.867a9.03 9.03 0 0 1 .912-.203l.09-.015a7.928 7.928 0 0 0-.69.024c-2.127.184-4.083 1.374-5.285 3.118-1.226 1.76-1.605 4.06-1.037 6.119a7.276 7.276 0 0 0 1.96 3.325c.251.252.538.485.843.67 1.19.744 2.791.93 4.056.28-1.487.472-3.191-.004-4.28-1.09Zm4.966 6.644c-.337.077-.707.13-1.053.173-.946.1-1.91.078-2.849-.078a10.278 10.278 0 0 1-3.035-1.006l.033.01.024.007a6.229 6.229 0 0 0 1.841.245c3.429.078 6.406-2.767 6.222-6.403a6.004 6.004 0 0 0-3.52-5.136l-.132-.06-.051-.02-.21-.082c-.033-.013-.086-.03-.138-.047a5.743 5.743 0 0 0-.85-.217 5.379 5.379 0 0 0-1.027-.09 5.822 5.822 0 0 1 3.569-5.338 6.031 6.031 0 0 1 2.134-.461 5.723 5.723 0 0 1 1.288.153l.094.021c.044.01.091.024.138.038.04.012.078.023.115.032l.042.011.041.014c.359.113.714.263 1.043.443l.065.037.087.049c.087.05.21.129.295.184l.13.091.084.059c.038.028.08.06.121.093l.085.066c.062.05.142.12.21.18l.054.046c.027.027.06.058.095.09.055.052.112.106.154.152l.142.15.16.17c.044.049.129.149.206.24l.138.162c.031.042.076.1.124.161.073.093.151.194.197.258l.11.158c.035.05.068.099.091.13.043.056.115.174.18.28.041.067.079.128.104.165.053.085.11.19.165.29.032.059.064.117.094.168.034.062.097.192.152.304.032.068.062.13.082.167.013.033.047.11.082.19.039.087.078.177.092.212a3.64 3.64 0 0 1 .096.245 12.59 12.59 0 0 0 .092.246l.06.183.088.276a92.758 92.758 0 0 1 .125.465 9.928 9.928 0 0 1-1.974 8.646l-.071.084c-.106.124-.245.287-.335.378-.03.03-.072.075-.114.12a9.62 9.62 0 0 1-.129.136 8.616 8.616 0 0 1-.191.182 9.778 9.778 0 0 0-.191.183l-.401.345c-.05.038-.105.08-.16.124-.089.07-.18.141-.26.2l-.085.059a10.307 10.307 0 0 1-1.427.853 5.358 5.358 0 0 1-.355.166l-.127.056c-.153.069-.419.17-.577.229l-.114.037a5.173 5.173 0 0 1-.14.046l-.024.008a10.141 10.141 0 0 1-1.004.272Zm3.582-14.982c-.197-.2-.418-.4-.644-.566-1.578-1.2-3.882-1.41-5.582-.353 1.863-.818 4.104-.401 5.542 1.023.087.085.185.193.278.295l.125.137c.045.052.097.116.149.18l.135.163.117.158.148.198c.394.564.73 1.172.981 1.81a8.65 8.65 0 0 1-.868 7.988l-.09.132c-.04.063-.242.33-.293.398l-.064.078c-.1.123-.25.306-.32.374a8.703 8.703 0 0 1-.728.725l-.012.01-.136.116-.13.11-.201.158-.114.088-.326.231-.126.082-.169.11-.166.098-.136.08a9.467 9.467 0 0 1-2.95 1.07l-.202.039c.479-.014.97-.068 1.44-.164 5.257-1.11 8.2-6.618 6.387-11.586a8.775 8.775 0 0 0-1.61-2.72l-.067-.073a7.655 7.655 0 0 0-.368-.389Zm-6.125 14.323a7.81 7.81 0 0 1-.496.123c-.097.024-.308.06-.443.084a9.7 9.7 0 0 0-.063.01 7.75 7.75 0 0 0 .69-.024c2.127-.184 4.083-1.373 5.285-3.118 1.226-1.759 1.605-4.059 1.037-6.118a7.281 7.281 0 0 0-1.96-3.326 4.577 4.577 0 0 0-.843-.67c-1.19-.744-2.792-.93-4.056-.279 1.487-.473 3.191.004 4.279 1.089a7.32 7.32 0 0 1 1.895 3.361c.971 3.921-1.423 7.784-5.325 8.868Z" fill="var(--icon-primary)"/></svg>