<svg viewBox="0 0 24 24" fill="none" xmlns="http://www.w3.org/2000/svg"><path fill-rule="evenodd" clip-rule="evenodd" d="M12 20a8 8 0 0 0 7.748-10H21.8c.131.646.2 1.315.2 2 0 5.523-4.477 10-10 10S2 17.523 2 12 6.477 2 12 2c.685 0 1.354.069 2 .2v2.052A8 8 0 1 0 12 20ZM9 8.5A1.25 1.25 0 1 0 9 11a1.25 1.25 0 0 0 0-2.5ZM18 2h2v2h2v2h-2v2h-2V6h-2V4h2V2Zm-6 15.042c-1.696 0-3.27-.862-4.71-2.318l1.42-1.407c1.226 1.239 2.32 1.725 3.29 1.725.97 0 2.064-.486 3.29-1.725l1.42 1.407c-1.44 1.456-3.014 2.318-4.71 2.318ZM15 8.5a1.25 1.25 0 1 0 0 2.5 1.25 1.25 0 0 0 0-2.5Z" fill="var(--icon-primary)"/></svg>