<svg viewBox="0 0 24 24" fill="none" xmlns="http://www.w3.org/2000/svg"><path fill-rule="evenodd" clip-rule="evenodd" d="M11 4.586 9.707 3.293 8.293 4.707 11 7.414v2.854L8.53 8.84l-.991-3.698-1.932.518.473 1.766-2.24-1.293-1 1.732 2.24 1.293-1.766.473.518 1.932 3.698-.99L10 12 7.53 13.427l-3.698-.991-.518 1.932 1.766.473-2.24 1.293 1 1.732 2.24-1.293-.473 1.766 1.932.518.99-3.698L11 13.732v2.854l-2.707 2.707 1.414 1.414L11 19.414V22h2v-2.586l1.293 1.293 1.414-1.414L13 16.586v-2.854l2.472 1.427.99 3.698 1.932-.518-.473-1.766 2.24 1.293 1-1.732-2.24-1.293 1.766-.473-.518-1.932-3.698.99L14.001 12l2.47-1.427 3.698.991.518-1.932-1.766-.473 2.24-1.293-1-1.732-2.24 1.293.473-1.766-1.932-.518-.99 3.698L13 10.268V7.414l2.707-2.707-1.414-1.414L13 4.586V2h-2v2.586Z" fill="var(--icon-primary)"/></svg>