<svg viewBox="0 0 24 24" fill="none" xmlns="http://www.w3.org/2000/svg"><path fill-rule="evenodd" clip-rule="evenodd" d="m5.403 4.097-3.34 3.34A.33.33 0 0 0 2.297 8h16.066a.33.33 0 0 0 .234-.097l3.34-3.34A.33.33 0 0 0 21.703 4H5.637a.33.33 0 0 0-.234.097Zm0 12-3.34 3.34a.33.33 0 0 0 .234.563h16.066a.33.33 0 0 0 .234-.097l3.34-3.34a.33.33 0 0 0-.234-.563H5.637a.33.33 0 0 0-.234.097Zm16.534-2.66-3.34-3.34a.33.33 0 0 0-.234-.097H2.297a.33.33 0 0 0-.234.563l3.34 3.34a.33.33 0 0 0 .234.097h16.066a.33.33 0 0 0 .234-.563Z" fill="var(--icon-primary)"/></svg>