<svg width="24" height="24" viewBox="0 0 24 24" fill="none" xmlns="http://www.w3.org/2000/svg">
<path fill-rule="evenodd" clip-rule="evenodd" d="M5.79583 8L3.79297 5.99609L5.20312 4.58984L20.207 19.5859L18.7891 21L17.1456 19.3556C17.1176 19.3676 17.0896 19.3794 17.0615 19.391C16.0909 19.7931 15.0506 20 14 20V18C14.5346 18 15.0656 17.9286 15.5792 17.7885L12 14.2074V20L7 16H4C2.89543 16 2 15.1046 2 14V10C2 8.89543 2.89543 8 4 8H5.79583ZM10 12.2064V15.8387L7.70156 14H4L4 10H7.70156L7.75337 9.95856L10 12.2064ZM15.9338 12.5103L17.4495 14.0252C17.5426 13.8666 17.6248 13.7014 17.6955 13.5307C17.8965 13.0454 18 12.5253 18 12C18 11.4747 17.8965 10.9546 17.6955 10.4693C17.4945 9.98396 17.1999 9.54301 16.8284 9.17157C16.457 8.80014 16.016 8.5055 15.5307 8.30448C15.0454 8.10346 14.5253 8 14 8L14 10C14.2626 10 14.5227 10.0517 14.7654 10.1522C15.008 10.2528 15.2285 10.4001 15.4142 10.5858C15.5999 10.7715 15.7473 10.992 15.8478 11.2346C15.9483 11.4773 16 11.7374 16 12C16 12.1726 15.9777 12.3441 15.9338 12.5103ZM18.8949 15.4699L20.3246 16.8989C20.7593 16.3377 21.1183 15.72 21.391 15.0615C21.7931 14.0909 22 13.0506 22 12C22 10.9494 21.7931 9.90914 21.391 8.93853C20.989 7.96793 20.3997 7.08601 19.6569 6.34314C18.914 5.60028 18.0321 5.011 17.0615 4.60896C16.0909 4.20693 15.0506 4 14 4V6C14.7879 6 15.5681 6.15519 16.2961 6.45672C17.0241 6.75825 17.6855 7.20021 18.2426 7.75736C18.7998 8.31451 19.2418 8.97594 19.5433 9.7039C19.8448 10.4319 20 11.2121 20 12C20 12.7879 19.8448 13.5681 19.5433 14.2961C19.3713 14.7113 19.1536 15.1049 18.8949 15.4699ZM9.45562 6.0355L12 8.57855V4L9.45562 6.0355Z" fill="var(--icon-primary)"/>
</svg>
