<svg viewBox="0 0 24 24" fill="none" xmlns="http://www.w3.org/2000/svg"><path fill-rule="evenodd" clip-rule="evenodd" d="M11.883 4.41c-1.465 0-2.735.413-3.644 1.165-.913.755-1.446 1.841-1.446 3.145v.032L6.796 9H9.28l-.02-.268a1.926 1.926 0 0 1 .71-1.68c.456-.375 1.111-.602 1.895-.602.86 0 1.58.294 2.095.796.514.503.837 1.23.875 2.125l.01.254 2.437-.15-.008-.242c-.084-2.856-2.356-4.823-5.39-4.823ZM13.607 11H22v2h-4.949c.418.617.623 1.351.623 2.2 0 1.311-.584 2.418-1.58 3.19-.99.769-2.378 1.2-3.99 1.2-3.3 0-5.75-2.016-5.77-4.968l-.002-.234 2.413-.176.008.26c.028.926.391 1.685.978 2.215.588.53 1.416.843 2.393.843.94 0 1.72-.236 2.257-.627.532-.387.832-.93.832-1.583 0-.568-.176-.97-.536-1.284-.375-.326-.969-.574-1.844-.771L11.415 13H2v-2h11.607Z" fill="var(--icon-primary)"/></svg>