<svg viewBox="0 0 24 24" fill="none" xmlns="http://www.w3.org/2000/svg"><path fill-rule="evenodd" clip-rule="evenodd" d="M13 2v3h-2V2h2Zm-1 13a3 3 0 1 0 0-6 3 3 0 0 0 0 6Zm0 2a5 5 0 1 0 0-10 5 5 0 0 0 0 10Zm-7-6H2v2h3v-2Zm14 0h3v2h-3v-2Zm-1.343-3.242 2.05-2.05-1.414-1.415-2.05 2.05 1.414 1.415ZM5.707 4.293l2.05 2.05-1.413 1.415-2.051-2.05 1.414-1.415ZM13 19v3h-2v-3h2Zm5.293.707-2.05-2.05 1.413-1.415 2.051 2.05-1.414 1.415Zm-11.95-3.465-2.05 2.05 1.414 1.415 2.05-2.05-1.414-1.415Z" fill="var(--icon-primary)"/></svg>