<svg viewBox="0 0 24 24" fill="none" xmlns="http://www.w3.org/2000/svg"><path fill-rule="evenodd" clip-rule="evenodd" d="m14.707 3.621 5.657 5.657 1.414-1.414-5.657-5.657-1.414 1.414Zm-8.333 13.99-.207-2.621 7.126-7.126 2.828 2.829-1.414 1.414-1.414-1.415-1.414 1.415 1.414 1.414-1.414 1.414-1.415-1.414-1.414 1.414 1.414 1.414-1.469 1.47-2.62-.208Zm11.162-5.504-7.779 7.778-3.932-.31-2.189 2.189-1.414-1.415 2.19-2.189-.311-3.932 7.778-7.778-1.415-1.414L11.88 3.62l1.414 1.415 5.657 5.657 1.414 1.414-1.414 1.414-1.414-1.414Z" fill="var(--icon-primary)"/></svg>