<svg viewBox="0 0 24 24" fill="none" xmlns="http://www.w3.org/2000/svg"><path d="m20.71 16.1-1.64-1.64a.94.94 0 0 1-.22-1.07 5.778 5.778 0 0 0 .54-2.39.356.356 0 0 0 0-.1 5.74 5.74 0 0 0-1.06-3.34 14.17 14.17 0 0 0-5.17-4.42 7 7 0 0 0-8 1.31l-.67.67a7 7 0 0 0-1.31 8.05l.1.17a3 3 0 0 0-.84 2.06A3 3 0 0 0 7 17.94c.18.14.34.29.52.42.378.263.788.478 1.22.64h.09c.18.07.37.13.57.19h.15c.311.08.63.13.95.15h.62c.21 0 .41 0 .62-.06h.17c.492-.085.97-.236 1.42-.45a1.001 1.001 0 0 1 1.07.21l1.46 1.46a3.4 3.4 0 0 0 2.39 1 2.85 2.85 0 0 0 2-.85l.38-.38a3 3 0 0 0 .08-4.17Zm-15.3.32a1 1 0 1 1 0-2 1 1 0 0 1 0 2Zm3.1.14-.26-.2a2.94 2.94 0 0 0 .16-.94 3 3 0 0 0-3-3h-.38l-.09-.16a5 5 0 0 1 .93-5.75l.67-.67A5 5 0 0 1 12.28 5c1.68.84 3.139 2.063 4.26 3.57l-8.03 7.99Zm10.78 2.37-.37.38c-.42.42-1.07.34-1.61-.2l-1.46-1.45a3 3 0 0 0-3.34-.61c-.315.154-.653.259-1 .31a2.835 2.835 0 0 1-.58.05H10.49l6.87-6.87a3.8 3.8 0 0 1-.34 2 3 3 0 0 0 .61 3.34l1.64 1.65a1 1 0 0 1 .02 1.4Z" fill="var(--icon-primary)"/></svg>