<svg viewBox="0 0 24 24" fill="none" xmlns="http://www.w3.org/2000/svg"><path d="M1.718 18.75h1.73l1.215-3.952h4.712l1.216 3.952h1.805L8.14 5.45H5.955l-4.237 13.3ZM5.1 13.354l1.444-4.731c.133-.399.304-.931.475-1.596l.323 1.102c.057.171.095.342.152.494l1.444 4.731H5.1ZM15.429 18.275c.589.513 1.368.76 2.318.76 1.387 0 2.546-.589 2.983-1.52v1.235h1.558v-6.08c0-2.128-1.235-3.382-3.667-3.382-2.261 0-3.743 1.482-3.819 3.173h1.634c.057-1.159.836-1.881 2.28-1.881 1.216 0 1.976.57 1.976 1.558 0 .551-.266.874-.95.969l-2.109.304c-1.881.285-3.116 1.14-3.116 2.831 0 .855.304 1.52.912 2.033Zm1.33-3.135c.361-.247.855-.437 1.482-.551l1.33-.247c.646-.114 1.026-.247 1.121-.399v1.349c0 .741-.266 1.33-.779 1.786-.513.456-1.178.684-1.957.684-1.045 0-1.748-.589-1.748-1.52 0-.475.19-.836.551-1.102Z" fill="var(--icon-primary)"/></svg>