<svg viewBox="0 0 24 24" fill="none" xmlns="http://www.w3.org/2000/svg"><path d="M1.093 18.5H3.36l1.206-3.258h5.31l1.188 3.258h2.412L8.76 5.9H5.809L1.093 18.5Zm4.14-5.094L7.23 7.97l1.98 5.436H5.233ZM17.32 18.698c1.35 0 2.502-.684 2.988-1.728 0 .72.054 1.134.144 1.53h2.178c-.126-.666-.216-1.71-.216-2.682v-3.006c0-2.16-1.566-3.636-3.798-3.636s-3.852 1.404-3.96 3.402l2.16.054c.09-1.062.774-1.656 1.728-1.656 1.044 0 1.656.684 1.656 1.782v.27l-1.674.18c-2.682.306-4.14 1.26-4.14 2.952 0 1.566 1.224 2.538 2.934 2.538Zm-.702-2.736c0-.882.756-1.242 2.07-1.404l1.548-.18v.45c0 1.368-.972 2.322-2.214 2.322-.792 0-1.404-.396-1.404-1.188Z" fill="var(--icon-primary)"/></svg>