<svg viewBox="0 0 24 24" fill="none" xmlns="http://www.w3.org/2000/svg"><path d="M12.438 16.337c.228.595.482 1.02.76 1.273.28.253.608.405.988.456v.684H8.353v-.703c.583-.013 1.001-.082 1.254-.21.266-.138.4-.373.4-.702 0-.253-.077-.576-.229-.97l-.76-2.09h-4.92l-.723 2.015c-.152.393-.228.722-.228.988 0 .342.12.589.361.74.254.14.634.216 1.14.229v.703H.202v-.684c.494-.05.874-.21 1.14-.475.28-.279.539-.741.78-1.387L5.996 5.83l2.28-.817 4.161 11.324ZM4.401 13.22h4.313l-.912-2.527a67.934 67.934 0 0 1-.874-2.508c-.202-.633-.31-1.083-.323-1.35H6.51c0 .267-.1.704-.304 1.312-.19.595-.487 1.45-.893 2.565l-.912 2.508ZM23.742 17.344c-.177.532-.456.937-.835 1.216a2.23 2.23 0 0 1-1.311.399c-.52 0-.944-.146-1.273-.437-.317-.291-.507-.722-.57-1.292h-.134c-.151.52-.462.944-.93 1.273-.456.317-1.014.475-1.672.475-.799 0-1.444-.21-1.938-.627-.482-.418-.723-1.026-.723-1.824 0-1.533 1.166-2.527 3.496-2.983l1.805-.361v-.513c0-.671-.17-1.178-.512-1.52-.33-.355-.83-.532-1.502-.532-1.165 0-1.97.5-2.413 1.5l-.627-.246c.19-.81.602-1.482 1.236-2.014.646-.532 1.507-.798 2.583-.798 1.128 0 1.99.317 2.584.95.608.62.913 1.545.913 2.774v3.78c0 .292.056.52.17.685.114.152.286.228.514.228.303 0 .538-.146.702-.437l.438.304Zm-5.585.323c.721 0 1.222-.4 1.5-1.197v-2.546l-.873.17c-1.368.292-2.052.964-2.052 2.015 0 .481.126.861.38 1.14.253.279.601.418 1.045.418Z" fill="var(--icon-primary)"/></svg>