<svg viewBox="0 0 24 24" fill="none" xmlns="http://www.w3.org/2000/svg"><path fill-rule="evenodd" clip-rule="evenodd" d="M11 2.05a10.118 10.118 0 0 1 2 0 9.935 9.935 0 0 1 3.396.965l.01.006a9.986 9.986 0 0 1 1.69 1.052 10.054 10.054 0 0 1 2.96 3.678C21.66 9.041 22 10.482 22 12c0 5.185-3.947 9.449-9 9.95a10.106 10.106 0 0 1-2 0V2.05Zm-2 .408C4.943 3.732 2 7.522 2 12s2.943 8.268 7 9.542V19.42A8.003 8.003 0 0 1 9 4.582V2.458ZM20 12a8.003 8.003 0 0 1-6.106 7.774l5.845-9.812c.17.65.261 1.333.261 2.038Zm-2.888-6.154a8.053 8.053 0 0 1 1.641 1.862L13 17.367v-4.108l4.112-7.413ZM13 4.062v5.074l2.424-4.369A7.932 7.932 0 0 0 13 4.062Z" fill="var(--icon-primary)"/></svg>