<svg viewBox="0 0 24 24" fill="none" xmlns="http://www.w3.org/2000/svg"><path fill-rule="evenodd" clip-rule="evenodd" d="M8 2v3h2V2H8Zm6.828 2.929a3 3 0 1 1 4.243 4.243l-4.243 4.242 1.415 1.414 4.242-4.242a5 5 0 1 0-7.07-7.071L9.171 7.757l1.414 1.415 4.242-4.243Zm-9.9 9.9a3 3 0 0 0 4.244 4.242l4.242-4.243 1.414 1.415-4.242 4.242a5 5 0 0 1-7.071-7.07l4.242-4.243 1.415 1.414-4.243 4.242Zm.365-8.122-2.5-2.5 1.414-1.414 2.5 2.5-1.414 1.414Zm12 12 2.5 2.5 1.414-1.414-2.5-2.5-1.414 1.414ZM14 22v-3h2v3h-2Zm8-6h-3v-2h3v2ZM2 10h3V8H2v2Z" fill="var(--icon-primary)"/></svg>