<svg width="24" height="24" viewBox="0 0 24 24" fill="none" xmlns="http://www.w3.org/2000/svg">
<path fill-rule="evenodd" clip-rule="evenodd" d="M6.69122 9.52515H8.69122H11.3076H15.3088V6.83392C15.3088 5.00654 13.8274 3.52515 12 3.52515C10.6378 3.52515 9.46783 4.34834 8.96047 5.5244L7.17855 4.609C8.0201 2.78838 9.86253 1.52515 12 1.52515C14.932 1.52515 17.3088 3.90197 17.3088 6.83392V9.52515H18C19.1046 9.52515 20 10.4206 20 11.5251V20.5251V21.5251H19H5H4V20.5251V11.5251C4 10.4206 4.89543 9.52515 6 9.52515H6.30536H6.69122ZM6 19.5251V11.5251H18V19.5251H6Z" fill="black"/>
</svg>
