<svg width="20" height="20" fill="none" xmlns="http://www.w3.org/2000/svg"><path d="M12.81 10.28a3.73 3.73 0 0 0 1-2.5 3.78 3.78 0 1 0-7.56 0 3.73 3.73 0 0 0 1 2.5A5.94 5.94 0 0 0 4 14.89a1.006 1.006 0 1 0 2 .22 4 4 0 0 1 7.94 0A1 1 0 0 0 15 16h.11a1 1 0 0 0 .88-1.1 5.94 5.94 0 0 0-3.18-4.62ZM10 9.56A1.78 1.78 0 1 1 10 6a1.78 1.78 0 0 1 0 3.56ZM17 0H3a3 3 0 0 0-3 3v14a3 3 0 0 0 3 3h14a3 3 0 0 0 3-3V3a3 3 0 0 0-3-3Zm1 17a1 1 0 0 1-1 1H3a1 1 0 0 1-1-1V3a1 1 0 0 1 1-1h14a1 1 0 0 1 1 1v14Z" fill="var(--icon-primary)"/></svg>