<svg width="24" height="24" viewBox="0 0 24 24" fill="none" xmlns="http://www.w3.org/2000/svg">
<path d="M20 12C20 10.8839 19.3132 9.9161 18.2907 9.39317C18.6498 8.30829 18.4468 7.12976 17.6585 6.34146C16.8702 5.55317 15.6917 5.35024 14.6068 5.70927C14.0917 4.68683 13.1161 4 12 4C10.8839 4 9.9161 4.68683 9.40098 5.70927C8.30829 5.35024 7.12976 5.55317 6.34146 6.34146C5.55317 7.12976 5.35805 8.30829 5.71707 9.39317C4.69463 9.9161 4 10.8839 4 12C4 13.1161 4.69463 14.0839 5.71707 14.6068C5.35805 15.6917 5.55317 16.8702 6.34146 17.6585C7.12976 18.4468 8.30829 18.642 9.39317 18.2907C9.9161 19.3132 10.8839 20 12 20C13.1161 20 14.0917 19.3132 14.6068 18.2907C15.6917 18.642 16.8702 18.4468 17.6585 17.6585C18.4468 16.8702 18.6498 15.6917 18.2907 14.6068C19.3132 14.0839 20 13.1161 20 12ZM10.8605 15.278L7.94146 12.359L9.04195 11.2507L10.8059 13.0146L14.5522 8.93268L15.6995 9.99415L10.8605 15.278Z" fill="var(--icon-primary)"/>
</svg>
