<svg viewBox="0 0 24 24" fill="none" xmlns="http://www.w3.org/2000/svg"><path fill-rule="evenodd" clip-rule="evenodd" d="m12.625 14.04 5.668 5.667 1.414-1.414-15-15-1.414 1.414 1.268 1.268a14.996 14.996 0 0 0-3.656 2.93l1.416 1.416A13.032 13.032 0 0 1 6.035 7.45l1.499 1.499a10.998 10.998 0 0 0-3.796 2.79l1.418 1.418a9.02 9.02 0 0 1 3.919-2.667l1.631 1.632a7 7 0 0 0-4.13 2.455L8 16a5.002 5.002 0 0 1 4.625-1.96Zm5.74-1.404a9 9 0 0 0-3.732-2.242l-2.391-2.391a11 11 0 0 1 8.02 3.735l-1.418 1.418a9.043 9.043 0 0 0-.48-.52ZM12 6a13 13 0 0 0-1.655.106l-1.72-1.721a14.996 14.996 0 0 1 14.47 4.52l-1.416 1.416A13 13 0 0 0 12 6Zm2.562 11.438A2.998 2.998 0 0 0 12 16a2.998 2.998 0 0 0-2.562 1.438L12 20l2.562-2.562Z" fill="var(--icon-primary)"/></svg>