<?xml version="1.0" standalone="no"?>
<!DOCTYPE svg PUBLIC "-//W3C//DTD SVG 20010904//EN"
 "http://www.w3.org/TR/2001/REC-SVG-20010904/DTD/svg10.dtd">
<svg version="1.0" xmlns="http://www.w3.org/2000/svg"
 width="256.000000pt" height="256.000000pt" viewBox="0 0 256.000000 256.000000"
 preserveAspectRatio="xMidYMid meet">
<metadata>
Created by potrace 1.14, written by Peter Selinger 2001-2017
</metadata>
<g transform="translate(0.000000,256.000000) scale(0.100000,-0.100000)"
fill="#000000" stroke="none">
<path d="M361 2544 c-152 -41 -271 -149 -333 -302 l-23 -57 0 -900 c0 -858 1
-903 19 -955 39 -114 125 -215 227 -270 114 -60 84 -59 1030 -59 951 -1 909
-3 1029 60 101 54 187 156 226 269 18 52 19 97 19 950 l0 895 -24 65 c-56 153
-176 262 -332 304 -81 22 -1758 22 -1838 0z"/>
</g>
</svg>
