<svg width="140" height="140" viewBox="0 0 140 140" fill="none" xmlns="http://www.w3.org/2000/svg">
<path fill-rule="evenodd" clip-rule="evenodd" d="M17.2225 1C13.2336 1 10 4.23365 10 8.22255L10 120.497C10 124.486 13.2337 127.72 17.2226 127.72L100.457 127.72C104.446 127.72 107.68 124.486 107.68 120.497L107.68 28.3172L80.4412 1.00015L100.505 1.00015C100.489 1.00005 100.473 1 100.457 1L17.2225 1Z" fill="var(--bg-l3-solid)"/>
<path fill-rule="evenodd" clip-rule="evenodd" d="M17.2225 1C13.2336 1 10 4.23365 10 8.22255L10 120.497C10 124.486 13.2337 127.72 17.2226 127.72L100.457 127.72C104.446 127.72 107.68 124.486 107.68 120.497L107.68 28.3172L80.4412 1.00015L100.505 1.00015C100.489 1.00005 100.473 1 100.457 1L17.2225 1Z" fill="var(--bg-overlay-tertiary)"/>
<path fill-rule="evenodd" clip-rule="evenodd" d="M17.2225 1C13.2336 1 10 4.23365 10 8.22255L10 120.497C10 124.486 13.2337 127.72 17.2226 127.72L100.457 127.72C104.446 127.72 107.68 124.486 107.68 120.497L107.68 28.3172L81.4384 2.00015L80.4412 1.00015L100.505 1.00015L100.457 1.00015L17.2225 1ZM80.026 2L17.2225 2C13.7859 2 11 4.78593 11 8.22255L11 120.497C11 123.934 13.7859 126.72 17.2226 126.72L100.457 126.72C103.894 126.72 106.68 123.934 106.68 120.497L106.68 28.7306L80.026 2Z" fill="var(--bg-overlay-tertiary)"/>
<path d="M106.986 28.7204L80.5864 2.32043L80.5864 21.4979C80.5864 25.4868 83.8201 28.7204 87.809 28.7204L106.986 28.7204Z" fill="var(--bg-overlay-tertiary)"/>
<path d="M19.2422 14.8398C19.2422 13.183 20.5853 11.8398 22.2422 11.8398H49.3766C51.0335 11.8398 52.3766 13.183 52.3766 14.8398V14.8398C52.3766 16.4967 51.0335 17.8398 49.3766 17.8398H22.2422C20.5853 17.8398 19.2422 16.4967 19.2422 14.8398V14.8398Z" fill="var(--bg-overlay-tertiary)"/>
<path d="M22.2422 12.3398H49.3766C50.7573 12.3398 51.8766 13.4591 51.8766 14.8398C51.8766 16.2206 50.7573 17.3398 49.3766 17.3398H22.2422C20.8615 17.3398 19.7422 16.2206 19.7422 14.8398C19.7422 13.4591 20.8615 12.3398 22.2422 12.3398Z" stroke="var(--icon-primary)" stroke-opacity="0.04"/>
<path d="M19.2422 24.8398C19.2422 23.183 20.5853 21.8398 22.2422 21.8398H42.5411C44.198 21.8398 45.5411 23.183 45.5411 24.8398V24.8398C45.5411 26.4967 44.198 27.8398 42.5411 27.8398H22.2422C20.5853 27.8398 19.2422 26.4967 19.2422 24.8398V24.8398Z" fill="var(--bg-overlay-tertiary)"/>
<path d="M22.2422 22.3398H42.5411C43.9218 22.3398 45.0411 23.4591 45.0411 24.8398C45.0411 26.2206 43.9218 27.3398 42.5411 27.3398H22.2422C20.8615 27.3398 19.7422 26.2206 19.7422 24.8398C19.7422 23.4591 20.8615 22.3398 22.2422 22.3398Z" stroke="var(--icon-primary)" stroke-opacity="0.04"/>
<path d="M19.2422 36.0409C19.2422 34.9085 20.1008 33.9906 21.1599 33.9906H92.3245C93.3836 33.9906 94.2422 34.9085 94.2422 36.0409V75.5983C94.2422 76.7306 93.3836 77.6485 92.3245 77.6485H21.1599C20.1008 77.6485 19.2422 76.7306 19.2422 75.5983V36.0409Z" fill="var(--bg-overlay-tertiary)"/>
<rect x="19.7548" y="34.5032" width="73.9749" height="42.6328" stroke="var(--icon-primary)" stroke-opacity="0.04" stroke-width="1.02513"/>
<path d="M19.2422 86.7993C19.2422 85.1425 20.5853 83.7993 22.2422 83.7993H91.5C93.1569 83.7993 94.5 85.1425 94.5 86.7993C94.5 88.4562 93.1569 89.7993 91.5 89.7993H22.2422C20.5853 89.7993 19.2422 88.4562 19.2422 86.7993Z" fill="var(--bg-overlay-tertiary)"/>
<path d="M22.2422 84.2993H91.5C92.8807 84.2993 94 85.4186 94 86.7993C94 88.18 92.8807 89.2993 91.5 89.2993H22.2422C20.8615 89.2993 19.7422 88.18 19.7422 86.7993C19.7422 85.4186 20.8615 84.2993 22.2422 84.2993Z" stroke="var(--icon-primary)" stroke-opacity="0.04"/>
<path d="M19.2422 98.9501C19.2422 97.2932 20.5853 95.9501 22.2422 95.9501H91.5C93.1569 95.9501 94.5 97.2932 94.5 98.9501C94.5 100.607 93.1569 101.95 91.5 101.95H22.2422C20.5853 101.95 19.2422 100.607 19.2422 98.9501Z" fill="var(--bg-overlay-tertiary)"/>
<path d="M22.2422 96.4501H91.5C92.8807 96.4501 94 97.5694 94 98.9501C94 100.331 92.8807 101.45 91.5 101.45H22.2422C20.8615 101.45 19.7422 100.331 19.7422 98.9501C19.7422 97.5694 20.8615 96.4501 22.2422 96.4501Z" stroke="var(--icon-primary)" stroke-opacity="0.04"/>
<path d="M19.2422 111.101C19.2422 109.444 20.5853 108.101 22.2422 108.101H54.5C56.1569 108.101 57.5 109.444 57.5 111.101C57.5 112.758 56.1569 114.101 54.5 114.101H22.2422C20.5853 114.101 19.2422 112.758 19.2422 111.101Z" fill="var(--bg-overlay-tertiary)"/>
<path d="M22.2422 108.601H54.5C55.8807 108.601 57 109.72 57 111.101C57 112.482 55.8807 113.601 54.5 113.601H22.2422C20.8615 113.601 19.7422 112.482 19.7422 111.101C19.7422 109.72 20.8615 108.601 22.2422 108.601Z" stroke="var(--icon-primary)" stroke-opacity="0.04"/>
<path d="M129 116C129 128.15 119.15 138 107 138C94.8497 138 85 128.15 85 116C85 103.85 94.8497 94 107 94C119.15 94 129 103.85 129 116Z" fill="var(--icon-inverse)" />
<path d="M129 116C129 128.15 119.15 138 107 138C94.8497 138 85 128.15 85 116C85 103.85 94.8497 94 107 94C119.15 94 129 103.85 129 116Z" fill="var(--icon-tertiary)"/>
<path fill-rule="evenodd" clip-rule="evenodd" d="M107 137C118.598 137 128 127.598 128 116C128 104.402 118.598 95 107 95C95.402 95 86 104.402 86 116C86 127.598 95.402 137 107 137ZM107 138C119.15 138 129 128.15 129 116C129 103.85 119.15 94 107 94C94.8497 94 85 103.85 85 116C85 128.15 94.8497 138 107 138Z" fill="var(--border-tertiary)"/>
<path fill-rule="evenodd" clip-rule="evenodd" d="M108.43 101.771L105.427 101.771L105.427 104.353C103.569 104.559 101.98 105.228 100.832 106.289C99.6069 107.42 98.9051 108.978 98.9051 110.825C98.9051 112.484 99.4885 113.895 100.6 114.986C101.703 116.069 103.303 116.814 105.305 117.203L105.427 117.229L105.427 124.002C103.35 123.45 101.956 121.81 101.878 119.548L101.864 119.155L98.2047 119.421L98.2075 119.777C98.2388 123.785 101.209 126.656 105.427 127.21L105.427 130.133L108.43 130.133L108.43 127.216C112.525 126.765 115.406 124.243 115.406 120.653C115.406 118.892 114.825 117.46 113.639 116.363C112.466 115.28 110.735 114.555 108.486 114.123L108.43 114.114L108.43 107.712C109.99 108.338 111.022 109.82 111.099 111.811L111.114 112.198L114.812 111.97L114.8 111.601C114.675 107.871 112.093 105.114 108.43 104.438L108.43 101.771ZM102.636 110.613C102.636 109.066 103.717 107.884 105.427 107.514L105.427 113.533C104.558 113.297 103.886 112.947 103.422 112.501C102.913 112.012 102.636 111.391 102.636 110.613ZM108.43 124.057L108.43 117.805C109.56 118.09 110.347 118.441 110.862 118.888C111.408 119.364 111.675 119.974 111.675 120.835C111.675 122.432 110.467 123.645 108.43 124.057Z" fill="white"/>
</svg>
