<svg width="132" height="132" viewBox="0 0 132 132" fill="none" xmlns="http://www.w3.org/2000/svg">
<path fill-rule="evenodd" clip-rule="evenodd" d="M40 10C41 6 44 3 48 3H84C88 3 91 6 92 10L94 31H111L104 124C103 128 100 131 96 131H36C32 131 29 128 28 124L21 31H38L40 10ZM81 31H52L53 13L54 12H78L79 13L81 31Z" fill="var(--bg-overlay-tertiary)"/>
<path fill-rule="evenodd" clip-rule="evenodd" d="M40 10C41 6 44 3 48 3H84C88 3 91 6 92 10L94 31H111L104 124C103 128 100 131 96 131H36C32 131 29 128 28 124L21 31H38L40 10ZM81 31H52L53 13L54 12H78L79 13L81 31Z" fill="var(--bg-overlay-tertiary)"/>
<path fill-rule="evenodd" clip-rule="evenodd" d="M26 16C24 16 23 17 22 19L21 23H20C18 23 16 25 16 27V31C16 33 18 35 20 35H112C114 35 116 33 116 31V27C116 25 114 23 112 23H111L110 19C109 17 108 16 106 16H26Z" fill="var(--illustration-fill)"/>
<path fill-rule="evenodd" clip-rule="evenodd" d="M26 16C24 16 23 17 22 19L21 23H20C18 23 16 25 16 27V31C16 33 18 35 20 35H112C114 35 116 33 116 31V27C116 25 114 23 112 23H111L110 19C109 17 108 16 106 16H26Z" fill="var(--bg-overlay-tertiary)"/>
<mask id="mask0_3711_124761" style="mask-type:luminance" maskUnits="userSpaceOnUse" x="16" y="16" width="100" height="19">
<path fill-rule="evenodd" clip-rule="evenodd" d="M26 16C24 16 23 17 22 19L21 23H20C18 23 16 25 16 27V31C16 33 18 35 20 35H112C114 35 116 33 116 31V27C116 25 114 23 112 23H111L110 19C109 17 108 16 106 16H26Z" fill="var(--bg-overlay-tertiary)"/>
</mask>
<g mask="url(#mask0_3711_124761)">
<path d="M21 23V24H22V23H21ZM111 23H110V24H111V23ZM23 19L26 17V15C24 15 22 16 21 19H23ZM22 23L23 19H21L20 23H22ZM20 24H21V22H20V24ZM17 27C17 25 18 24 20 24V22C17 22 15 24 15 27H17ZM17 31V27H15V31H17ZM20 34C18 34 17 33 17 31H15C15 34 17 36 20 36V34ZM112 34H20V36H112V34ZM115 31C115 33 114 34 112 34V36C115 36 117 34 117 31H115ZM115 27V31H117V27H115ZM112 24C114 24 115 25 115 27H117C117 24 115 22 112 22V24ZM111 24H112V22H111V24ZM109 19L110 23H112L111 19H109ZM106 17L109 19H111C110 16 108 15 106 15V17ZM26 17H106V15H26V17Z" fill="var(--bg-overlay-tertiary)"/>
</g>
<path fill-rule="evenodd" clip-rule="evenodd" d="M26 16C24 16 23 17 22 19V23H20C18 23 16 25 16 27V31C16 33 18 35 20 35H112C114 35 116 33 116 31V27C116 25 114 23 112 23H110V19C109 17 108 16 106 16H26Z" fill="var(--bg-overlay-tertiary)"/>
</svg>
