<svg width="404" height="217" viewBox="0 0 404 217" fill="none" xmlns="http://www.w3.org/2000/svg">
<g clip-path="url(#clip0_2467_37194)">
<rect x="0.921875" y="0.373047" width="402.154" height="216.254" rx="8" fill="white"/>
<rect x="0.921875" y="0.373047" width="402.154" height="216.254" rx="8" fill="black" fill-opacity="0.02"/>
<rect x="45.3008" y="36.2539" width="361.109" height="232.808" rx="12" fill="white"/>
<rect x="45.8008" y="36.7539" width="360.109" height="231.808" rx="11.5" stroke="black" stroke-opacity="0.08"/>
<g filter="url(#filter0_d_2467_37194)">
<rect x="55.127" y="77" width="279" height="90" rx="8" fill="black"/>
<rect x="55.127" y="77" width="279" height="90" rx="8" fill="white" fill-opacity="0.16"/>
<rect opacity="0.2" x="67.127" y="89" width="132.836" height="16" rx="8" fill="white"/>
<rect opacity="0.1" x="67.127" y="107" width="206.502" height="16" rx="8" fill="white"/>
<rect x="190.127" y="139" width="54" height="16" rx="4" fill="white" fill-opacity="0.04"/>
<rect x="190.627" y="139.5" width="53" height="15" rx="3.5" stroke="white" stroke-opacity="0.08"/>
<g clip-path="url(#clip1_2467_37194)">
<rect x="252.127" y="139" width="70" height="16" rx="4" fill="white" fill-opacity="0.04"/>
</g>
<rect x="252.627" y="139.5" width="69" height="15" rx="3.5" stroke="white" stroke-opacity="0.08"/>
<rect x="55.627" y="77.5" width="278" height="89" rx="7.5" stroke="white" stroke-opacity="0.08"/>
</g>
<circle cx="62.0605" cy="53.2466" r="6.93359" fill="#EB6C5F"/>
<circle cx="82.0664" cy="53.2466" r="6.93359" fill="#F7BC52"/>
<circle cx="102.072" cy="53.2466" r="6.93359" fill="#5DC25A"/>
</g>
<rect x="1.42188" y="0.873047" width="401.154" height="215.254" rx="7.5" stroke="black" stroke-opacity="0.08"/>
<defs>
<filter id="filter0_d_2467_37194" x="17.127" y="64" width="355" height="166" filterUnits="userSpaceOnUse" color-interpolation-filters="sRGB">
<feFlood flood-opacity="0" result="BackgroundImageFix"/>
<feColorMatrix in="SourceAlpha" type="matrix" values="0 0 0 0 0 0 0 0 0 0 0 0 0 0 0 0 0 0 127 0" result="hardAlpha"/>
<feMorphology radius="12" operator="erode" in="SourceAlpha" result="effect1_dropShadow_2467_37194"/>
<feOffset dy="25"/>
<feGaussianBlur stdDeviation="25"/>
<feColorMatrix type="matrix" values="0 0 0 0 0 0 0 0 0 0 0 0 0 0 0 0 0 0 0.25 0"/>
<feBlend mode="normal" in2="BackgroundImageFix" result="effect1_dropShadow_2467_37194"/>
<feBlend mode="normal" in="SourceGraphic" in2="effect1_dropShadow_2467_37194" result="shape"/>
</filter>
<clipPath id="clip0_2467_37194">
<rect x="0.921875" y="0.373047" width="402.154" height="216.254" rx="8" fill="white"/>
</clipPath>
<clipPath id="clip1_2467_37194">
<rect x="252.127" y="139" width="70" height="16" rx="4" fill="white"/>
</clipPath>
</defs>
</svg>
