<svg xmlns="http://www.w3.org/2000/svg" width="336" height="200" fill="none"><g clip-path="url(#a)"><rect width="336" height="200" fill="#fff" rx="12"/><rect width="336" height="200" fill="#000" fill-opacity=".02" rx="12"/><g filter="url(#b)" opacity=".2" shape-rendering="crispEdges"><rect width="35.162" height="17.581" x="199.042" y="-22" fill="#D9D9D9" fill-opacity=".1" rx="7.032"/><rect width="34.283" height="16.702" x="199.482" y="-21.561" stroke="#000" stroke-opacity=".12" stroke-width=".879" rx="6.593"/></g><g opacity=".3"><rect width="87.906" height="17.581" x="-71.268" y="6.13" fill="#000" fill-opacity=".04" rx="8.791"/><rect width="87.027" height="16.702" x="-70.828" y="6.569" stroke="#000" stroke-opacity=".12" stroke-width=".879" rx="8.351"/><g filter="url(#c)" shape-rendering="crispEdges"><rect width="67.687" height="17.581" x="27.186" y="6.13" fill="#000" fill-opacity=".04" rx="8.791"/><rect width="66.808" height="16.702" x="27.626" y="6.569" stroke="#000" stroke-opacity=".12" stroke-width=".879" rx="8.351"/></g><rect width="66.808" height="17.581" x="105.423" y="6.13" fill="#000" fill-opacity=".04" rx="8.791"/><rect width="65.929" height="16.702" x="105.862" y="6.569" stroke="#000" stroke-opacity=".12" stroke-width=".879" rx="8.351"/><rect width="67.687" height="17.581" x="182.779" y="6.13" fill="#000" fill-opacity=".04" rx="8.791"/><rect width="66.808" height="16.702" x="183.219" y="6.569" stroke="#000" stroke-opacity=".12" stroke-width=".879" rx="8.351"/><rect width="66.808" height="17.581" x="261.016" y="6.13" fill="#000" fill-opacity=".04" rx="8.791"/><rect width="65.929" height="16.702" x="261.455" y="6.569" stroke="#000" stroke-opacity=".12" stroke-width=".879" rx="8.351"/></g><g opacity=".4"><g filter="url(#d)" shape-rendering="crispEdges"><rect width="67.687" height="17.581" x="-11.932" y="34.26" fill="#000" fill-opacity=".04" rx="8.791"/><rect width="66.618" height="16.512" x="-11.397" y="34.794" stroke="#000" stroke-opacity=".12" stroke-width="1.069" rx="8.256"/></g><rect width="76.478" height="17.581" x="66.305" y="34.26" fill="#000" fill-opacity=".04" rx="8.791"/><rect width="75.409" height="16.512" x="66.839" y="34.794" stroke="#000" stroke-opacity=".12" stroke-width="1.069" rx="8.256"/><rect width="35.162" height="17.581" x="153.332" y="34.26" fill="#000" fill-opacity=".04" rx="8.791"/><rect width="34.093" height="16.512" x="153.867" y="34.794" stroke="#000" stroke-opacity=".12" stroke-width="1.069" rx="8.256"/><g filter="url(#e)" shape-rendering="crispEdges"><rect width="67.687" height="17.581" x="199.043" y="34.26" fill="#000" fill-opacity=".04" rx="8.791"/><rect width="66.618" height="16.512" x="199.578" y="34.794" stroke="#000" stroke-opacity=".12" stroke-width="1.069" rx="8.256"/></g><rect width="35.162" height="17.581" x="277.278" y="34.26" fill="#000" fill-opacity=".04" rx="8.791"/><rect width="34.093" height="16.512" x="277.813" y="34.794" stroke="#000" stroke-opacity=".12" stroke-width="1.069" rx="8.256"/><rect width="67.687" height="17.581" x="322.99" y="34.26" fill="#000" fill-opacity=".04" rx="8.791"/><rect width="66.618" height="16.512" x="323.525" y="34.794" stroke="#000" stroke-opacity=".12" stroke-width="1.069" rx="8.256"/></g><g opacity=".5"><rect width="66.808" height="17.581" x="-1.383" y="62.39" fill="#000" fill-opacity=".04" rx="8.791"/><rect width="65.929" height="16.702" x="-.943" y="62.829" stroke="#000" stroke-opacity=".12" stroke-width=".879" rx="8.351"/><g filter="url(#f)" shape-rendering="crispEdges"><rect width="58.018" height="17.581" x="75.974" y="62.39" fill="#000" fill-opacity=".04" rx="8.791"/><rect width="57.139" height="16.702" x="76.413" y="62.829" stroke="#000" stroke-opacity=".12" stroke-width=".879" rx="8.351"/></g><rect width="93.18" height="17.581" x="144.541" y="62.39" fill="#000" fill-opacity=".04" rx="8.791"/><rect width="92.301" height="16.702" x="144.981" y="62.829" stroke="#000" stroke-opacity=".12" stroke-width=".879" rx="8.351"/><rect width="87.906" height="17.581" x="248.27" y="62.39" fill="#000" fill-opacity=".04" rx="8.791"/><rect width="87.027" height="16.702" x="248.709" y="62.829" stroke="#000" stroke-opacity=".12" stroke-width=".879" rx="8.351"/></g><rect width="66.097" height="22.032" x="-65.147" y="90.519" fill="#fff" rx="11.016"/><rect width="65.218" height="21.153" x="-64.707" y="90.959" stroke="#000" stroke-opacity=".12" stroke-width=".879" rx="10.577"/><rect width="108.097" height="22.032" x="11.5" y="90.519" fill="#fff" rx="11.016"/><path fill="#000" fill-opacity=".57" d="M23.009 105.036v-5.508h.982v.742c.286-.48.949-.925 1.738-.925 1.29 0 2.057.822 2.057 2.239v3.452h-.983v-3.326c0-1.04-.343-1.588-1.246-1.588-.994 0-1.566.743-1.566 1.622v3.292h-.982Zm6.412 0v-.812h1.315v-3.885H29.66v-.811h2.057v4.696h1.132v.812H29.42Zm1.155-6.514v-1.246h1.188v1.246h-1.188Zm6.09 9.062c-1.45 0-2.4-.811-2.4-2.023h.972c0 .743.549 1.257 1.44 1.257 1.04 0 1.657-.537 1.657-1.714v-1.04c-.286.56-.994.915-1.806.915-1.52 0-2.502-1.098-2.502-2.8 0-1.692 1.097-2.834 2.537-2.834.914 0 1.485.468 1.771.925v-.742h.983v5.233c0 1.886-.892 2.823-2.651 2.823Zm-1.622-5.405c0 1.234.685 2.034 1.68 2.034.994 0 1.68-.812 1.68-2.034 0-1.2-.686-2.057-1.68-2.057-.995 0-1.68.834-1.68 2.057Zm6.157 2.857v-8h.972v3.234c.297-.502.96-.925 1.737-.925 1.302 0 2.068.822 2.068 2.239v3.452h-.983v-3.326c0-1.04-.354-1.588-1.268-1.588-.983 0-1.554.743-1.554 1.622v3.292H41.2Zm9.487.091c-1.268 0-2.09-.537-2.09-1.977v-2.811h-1.555v-.811h1.554V97.71h.983v1.818h1.794v.811H49.58v2.697c0 .857.343 1.2 1.314 1.2.183 0 .355-.023.572-.057v.868c-.229.046-.503.08-.778.08Zm3.073-.091-1.44-5.508h1.017l.914 3.999c.034.172.069.309.092.434a3.88 3.88 0 0 0 .125-.434l.995-3.36h1.108l1.006 3.36c.045.149.08.286.125.412.035-.138.069-.286.092-.423l.937-3.989h.937l-1.44 5.509h-1.086l-1.028-3.509c-.046-.137-.069-.263-.114-.411-.046.137-.08.274-.126.411l-1.04 3.509h-1.074Zm8.873.171c-1.086 0-1.92-.64-1.92-1.68 0-1.074.857-1.565 1.851-1.714l1.223-.183c.434-.057.572-.24.572-.56 0-.605-.469-.948-1.155-.948-.868 0-1.314.445-1.337 1.131h-.983c.035-1.006.869-1.908 2.252-1.908 1.428 0 2.183.788 2.183 2.057v3.634h-.938V104.293c-.274.571-.914.914-1.748.914Zm-.903-1.68c0 .572.457.914 1.04.914.903 0 1.588-.594 1.588-1.485v-.812c-.068.103-.285.172-.64.24l-.8.149c-.674.126-1.188.4-1.188.994Zm8.465 1.6c-1.268 0-2.091-.537-2.091-1.977v-2.811H66.55v-.811h1.554V97.71h.983v1.818h1.794v.811h-1.794v2.697c0 .857.342 1.2 1.314 1.2.183 0 .354-.023.571-.057v.868c-.228.046-.503.08-.777.08Zm4.764.08c-1.485 0-2.73-.983-2.73-2.937 0-1.737 1.21-2.925 2.788-2.925 1.29 0 2.274.788 2.388 2.034H76.4c-.091-.72-.594-1.257-1.405-1.257-1.052 0-1.749.925-1.749 2.148 0 1.314.709 2.171 1.772 2.171.811 0 1.348-.468 1.45-1.257h.972c-.103 1.2-.971 2.023-2.48 2.023Zm4.096-.171v-8h.971v3.234c.297-.502.96-.925 1.737-.925 1.303 0 2.069.822 2.069 2.239v3.452h-.983v-3.326c0-1.04-.354-1.588-1.269-1.588-.983 0-1.554.743-1.554 1.622v3.292h-.971Zm7.27 0v-1.406h1.382v1.406h-1.383Zm6.41.171c-1.59 0-2.71-1.177-2.71-2.937 0-1.714 1.12-2.925 2.71-2.925 1.576 0 2.708 1.211 2.708 2.925 0 1.76-1.132 2.937-2.709 2.937Zm-1.692-2.937c0 1.291.64 2.171 1.691 2.171 1.052 0 1.692-.88 1.692-2.171s-.663-2.148-1.692-2.148c-1.028 0-1.691.857-1.691 2.148Zm6.309 2.766v-5.508h.983V100.567c.285-.628.914-1.21 2.068-1.21.137 0 .263.01.412.033v.96c-.138-.011-.298-.034-.492-.034-1.325 0-1.988.674-1.988 1.908v2.812h-.983Zm7.311 2.548c-1.451 0-2.4-.811-2.4-2.023h.971c0 .743.549 1.257 1.44 1.257 1.04 0 1.657-.537 1.657-1.714v-1.04c-.285.56-.994.915-1.805.915-1.52 0-2.503-1.098-2.503-2.8 0-1.692 1.097-2.834 2.537-2.834.914 0 1.486.468 1.771.925v-.742h.983v5.233c0 1.886-.891 2.823-2.651 2.823Zm-1.623-5.405c0 1.234.686 2.034 1.68 2.034.994 0 1.68-.812 1.68-2.034 0-1.2-.686-2.057-1.68-2.057-.994 0-1.68.834-1.68 2.057Z"/><rect width="107.218" height="21.153" x="11.94" y="90.959" stroke="#000" stroke-opacity=".12" stroke-width=".879" rx="10.577"/><rect width="106.097" height="22.032" x="130.146" y="90.519" fill="#EF5A3C" rx="11.016"/><path fill="#fff" d="M141.415 105.036v-5.508h.937v.742c.263-.571.766-.925 1.395-.925.605 0 1.131.331 1.382 1.04.309-.618.835-1.04 1.566-1.04.96 0 1.6.674 1.6 2.057v3.634h-.937v-3.486c0-.903-.24-1.428-.926-1.428-.754 0-1.108.72-1.108 1.531v3.383h-.938v-3.429c0-.937-.251-1.485-.937-1.485-.731 0-1.097.731-1.097 1.577v3.337h-.937Zm9.152 2.377 1.006-2.572-2.206-5.313h1.086l1.371 3.519.263.674c.08-.228.16-.457.24-.674l1.211-3.52h1.029l-2.96 7.886h-1.04Zm6.194-2.377-1.44-5.508h1.017l.915 3.999c.034.172.068.309.091.434a4.01 4.01 0 0 0 .126-.434l.994-3.36h1.108l1.006 3.36c.046.149.08.286.126.412a5.92 5.92 0 0 0 .091-.423l.937-3.989h.937l-1.44 5.509h-1.085l-1.029-3.509c-.045-.137-.068-.263-.114-.411-.046.137-.08.274-.126.411l-1.04 3.509h-1.074Zm9.536.171c-1.646 0-2.685-1.04-2.685-2.948 0-1.692 1.119-2.914 2.616-2.914 1.646 0 2.56 1.154 2.56 2.925v.194h-4.182c.023 1.257.754 1.977 1.702 1.977.675 0 1.315-.262 1.44-1.108h.983c-.114.971-.88 1.874-2.434 1.874Zm-1.657-3.44h3.097c0-.982-.537-1.645-1.509-1.645-.914 0-1.519.72-1.588 1.645Zm8.494 3.44c-.765 0-1.451-.377-1.805-.937v.766h-.972v-8h.972v3.234a2.248 2.248 0 0 1 1.828-.925c1.589 0 2.537 1.257 2.537 2.937 0 1.725-1.005 2.925-2.56 2.925Zm-1.851-2.937c0 1.291.697 2.171 1.691 2.171 1.017 0 1.692-.88 1.692-2.159 0-1.269-.663-2.16-1.692-2.16-.994 0-1.691.811-1.691 2.148Zm8.054 2.937c-1.485 0-2.342-.811-2.365-1.988h.96c.034.742.537 1.222 1.417 1.222.754 0 1.268-.342 1.268-.902 0-.435-.297-.72-.96-.846l-.834-.16c-1.028-.194-1.68-.72-1.68-1.566 0-.937.892-1.622 2.137-1.622 1.326 0 2.126.651 2.194 1.771h-.971c-.08-.663-.549-.994-1.291-.994-.663 0-1.086.32-1.086.788 0 .446.32.663.937.777l.857.16c.994.183 1.669.675 1.669 1.589 0 .983-.846 1.771-2.252 1.771Zm3.84-.171v-.812h1.314v-3.885h-1.074v-.811h2.057v4.696h1.131v.812h-3.428Zm1.154-6.514v-1.246h1.189v1.246h-1.189Zm6.788 6.605c-1.268 0-2.091-.537-2.091-1.977v-2.811h-1.554v-.811h1.554V97.71h.983v1.818h1.794v.811h-1.794v2.697c0 .857.343 1.2 1.314 1.2.183 0 .354-.023.571-.057v.868c-.228.046-.503.08-.777.08Zm4.696.08c-1.646 0-2.686-1.04-2.686-2.948 0-1.692 1.12-2.914 2.617-2.914 1.646 0 2.56 1.154 2.56 2.925v.194h-4.182c.023 1.257.754 1.977 1.702 1.977.675 0 1.315-.262 1.44-1.108h.983c-.114.971-.88 1.874-2.434 1.874Zm-1.657-3.44h3.097c0-.982-.537-1.645-1.509-1.645-.914 0-1.519.72-1.588 1.645Zm6.517 3.269v-1.406h1.383v1.406h-1.383Zm6.536.171c-1.486 0-2.731-.983-2.731-2.937 0-1.737 1.211-2.925 2.788-2.925 1.291 0 2.274.788 2.388 2.034h-1.005c-.092-.72-.594-1.257-1.406-1.257-1.051 0-1.748.925-1.748 2.148 0 1.314.708 2.171 1.771 2.171.811 0 1.348-.468 1.451-1.257h.972c-.103 1.2-.972 2.023-2.48 2.023Zm6.369 0c-1.588 0-2.708-1.177-2.708-2.937 0-1.714 1.12-2.925 2.708-2.925 1.577 0 2.709 1.211 2.709 2.925 0 1.76-1.132 2.937-2.709 2.937Zm-1.691-2.937c0 1.291.64 2.171 1.691 2.171 1.052 0 1.692-.88 1.692-2.171s-.663-2.148-1.692-2.148c-1.028 0-1.691.857-1.691 2.148Zm5.726 2.766v-5.508h.937v.742c.263-.571.766-.925 1.394-.925.606 0 1.132.331 1.383 1.04.309-.618.834-1.04 1.566-1.04.96 0 1.6.674 1.6 2.057v3.634h-.937v-3.486c0-.903-.24-1.428-.926-1.428-.754 0-1.109.72-1.109 1.531v3.383h-.937v-3.429c0-.937-.251-1.485-.937-1.485-.731 0-1.097.731-1.097 1.577v3.337h-.937Z"/><rect width="105.218" height="21.153" x="130.586" y="90.959" stroke="#000" stroke-opacity=".12" stroke-width=".879" rx="10.577"/><rect width="66.097" height="22.032" x="246.792" y="90.519" fill="#fff" rx="11.016"/><path fill="#000" fill-opacity=".57" d="M258.061 105.036v-5.508h.937v.742c.263-.571.766-.925 1.394-.925.606 0 1.131.331 1.383 1.04.308-.618.834-1.04 1.565-1.04.96 0 1.6.674 1.6 2.057v3.634h-.937v-3.486c0-.903-.24-1.428-.925-1.428-.755 0-1.109.72-1.109 1.531v3.383h-.937v-3.429c0-.937-.251-1.485-.937-1.485-.731 0-1.097.731-1.097 1.577v3.337h-.937Zm10.819.171c-1.589 0-2.709-1.177-2.709-2.937 0-1.714 1.12-2.925 2.709-2.925 1.577 0 2.708 1.211 2.708 2.925 0 1.76-1.131 2.937-2.708 2.937Zm-1.692-2.937c0 1.291.64 2.171 1.692 2.171 1.051 0 1.691-.88 1.691-2.171s-.663-2.148-1.691-2.148c-1.029 0-1.692.857-1.692 2.148Zm8.081 2.937c-1.44 0-2.549-1.051-2.549-2.925 0-1.669 1.006-2.937 2.56-2.937.926 0 1.531.502 1.771.925v-3.234h.983v8h-.983v-.766c-.297.514-.959.937-1.782.937Zm-1.52-2.925c0 1.291.685 2.159 1.68 2.159.994 0 1.691-.845 1.691-2.171 0-1.314-.686-2.148-1.691-2.148-.983 0-1.68.868-1.68 2.16Zm6.912 2.754v-1.406h1.382v1.406h-1.382Zm4.055 0v-5.508h.983v.742c.286-.48.949-.925 1.737-.925 1.291 0 2.057.822 2.057 2.239v3.452h-.983v-3.326c0-1.04-.343-1.588-1.245-1.588-.995 0-1.566.743-1.566 1.622v3.292h-.983Zm9.007.171c-1.646 0-2.686-1.04-2.686-2.948 0-1.692 1.12-2.914 2.617-2.914 1.646 0 2.56 1.154 2.56 2.925v.194h-4.182c.023 1.257.754 1.977 1.702 1.977.675 0 1.315-.262 1.44-1.108h.983c-.114.971-.88 1.874-2.434 1.874Zm-1.657-3.44h3.097c0-.982-.537-1.645-1.509-1.645-.914 0-1.519.72-1.588 1.645Zm8.724 3.36c-1.269 0-2.092-.537-2.092-1.977v-2.811h-1.554v-.811h1.554V97.71h.983v1.818h1.794v.811h-1.794v2.697c0 .857.343 1.2 1.314 1.2.183 0 .355-.023.572-.057v.868c-.229.046-.503.08-.777.08Z"/><rect width="65.218" height="21.153" x="247.232" y="90.959" stroke="#000" stroke-opacity=".12" stroke-width=".879" rx="10.577"/><rect width="75.097" height="22.032" x="323.438" y="90.519" fill="#fff" rx="11.016"/><path fill="#000" fill-opacity=".57" d="M334.764 105.036v-.812h1.315v-3.885h-1.075v-.811h2.057v4.696h1.132v.812h-3.429Zm1.155-6.514v-1.246h1.188v1.246h-1.188Zm5.908 6.685c-1.44 0-2.549-1.051-2.549-2.925 0-1.669 1.006-2.937 2.56-2.937.926 0 1.531.502 1.771.925v-3.234h.983v8h-.983v-.766c-.297.514-.96.937-1.782.937Zm-1.52-2.925c0 1.291.685 2.159 1.68 2.159.994 0 1.691-.845 1.691-2.171 0-1.314-.686-2.148-1.691-2.148-.983 0-1.68.868-1.68 2.16Zm8.569 2.925c-1.646 0-2.686-1.04-2.686-2.948 0-1.692 1.12-2.914 2.617-2.914 1.646 0 2.56 1.154 2.56 2.925v.194h-4.183c.023 1.257.754 1.977 1.703 1.977.674 0 1.314-.262 1.44-1.108h.983c-.115.971-.88 1.874-2.434 1.874Zm-1.658-3.44h3.097c0-.982-.537-1.645-1.508-1.645-.914 0-1.52.72-1.589 1.645Zm7.512 3.44c-1.086 0-1.92-.64-1.92-1.68 0-1.074.857-1.565 1.852-1.714l1.222-.183c.435-.057.572-.24.572-.56 0-.605-.469-.948-1.155-.948-.868 0-1.314.445-1.337 1.131h-.982c.034-1.006.868-1.908 2.251-1.908 1.428 0 2.183.788 2.183 2.057v3.634h-.937V104.293c-.275.571-.915.914-1.749.914Zm-.903-1.68c0 .572.457.914 1.04.914.903 0 1.589-.594 1.589-1.485v-.812c-.069.103-.286.172-.64.24l-.8.149c-.674.126-1.189.4-1.189.994Zm7.665 1.68c-1.486 0-2.343-.811-2.366-1.988h.96c.034.742.537 1.222 1.417 1.222.754 0 1.269-.342 1.269-.902 0-.435-.297-.72-.96-.846l-.834-.16c-1.029-.194-1.68-.72-1.68-1.566 0-.937.891-1.622 2.137-1.622 1.325 0 2.125.651 2.194 1.771h-.972c-.08-.663-.548-.994-1.291-.994-.663 0-1.086.32-1.086.788 0 .446.32.663.937.777l.858.16c.994.183 1.668.675 1.668 1.589 0 .983-.846 1.771-2.251 1.771Zm4.776-.171v-1.406h1.383v1.406h-1.383Zm3.576 0 2.069-2.823-1.955-2.685h1.2l1.075 1.588c.102.148.205.286.297.423l.274-.412 1.097-1.6h1.143l-2 2.686 2.08 2.823h-1.189l-1.165-1.703a5.428 5.428 0 0 0-.309-.446c-.103.149-.206.297-.297.446l-1.177 1.703h-1.143Zm7.45 2.377 1.006-2.572-2.206-5.313h1.086l1.371 3.519.263.674c.08-.228.16-.457.24-.674l1.211-3.52h1.029l-2.96 7.886h-1.04Zm5.291-2.377v-.812l3.063-3.622c.08-.103.16-.217.24-.309H382.7v-.766h4.262v.812l-3.028 3.588c-.092.114-.183.229-.286.343h3.394v.766h-4.457Z"/><rect width="74.218" height="21.153" x="323.878" y="90.959" stroke="#000" stroke-opacity=".12" stroke-width=".879" rx="10.577"/><g opacity=".5"><g filter="url(#g)"><rect width="87.906" height="17.581" x="-22.48" y="123.101" fill="#000" fill-opacity=".04" rx="8.791"/><rect width="86.842" height="16.517" x="-21.949" y="123.632" stroke="#000" stroke-opacity=".12" stroke-width="1.064" rx="8.259"/></g><g filter="url(#h)"><rect width="87.906" height="17.581" x="75.975" y="123.101" fill="#000" fill-opacity=".04" rx="8.791"/><rect width="86.842" height="16.517" x="76.506" y="123.632" stroke="#000" stroke-opacity=".12" stroke-width="1.064" rx="8.259"/></g><g filter="url(#i)"><rect width="87.906" height="17.581" x="174.429" y="123.101" fill="#000" fill-opacity=".04" rx="8.791"/><rect width="86.842" height="16.517" x="174.961" y="123.632" stroke="#000" stroke-opacity=".12" stroke-width="1.064" rx="8.259"/></g><g filter="url(#j)"><rect width="87.906" height="17.581" x="272.883" y="123.101" fill="#000" fill-opacity=".04" rx="8.791"/><rect width="86.842" height="16.517" x="273.415" y="123.632" stroke="#000" stroke-opacity=".12" stroke-width="1.064" rx="8.259"/></g></g><g opacity=".4"><g filter="url(#k)"><rect width="76.478" height="17.581" x="-4.46" y="151.23" fill="#000" fill-opacity=".04" rx="8.791"/><rect width="75.414" height="16.517" x="-3.928" y="151.762" stroke="#000" stroke-opacity=".12" stroke-width="1.064" rx="8.259"/></g><g filter="url(#l)"><rect width="35.162" height="17.581" x="82.567" y="151.23" fill="#000" fill-opacity=".04" rx="8.791"/><rect width="34.099" height="16.517" x="83.099" y="151.762" stroke="#000" stroke-opacity=".12" stroke-width="1.064" rx="8.259"/></g><g filter="url(#m)"><rect width="76.478" height="17.581" x="128.278" y="151.23" fill="#000" fill-opacity=".04" rx="8.791"/><rect width="75.414" height="16.517" x="128.81" y="151.762" stroke="#000" stroke-opacity=".12" stroke-width="1.064" rx="8.259"/></g><g filter="url(#n)"><rect width="35.162" height="17.581" x="215.305" y="151.23" fill="#000" fill-opacity=".04" rx="8.791"/><rect width="34.099" height="16.517" x="215.837" y="151.762" stroke="#000" stroke-opacity=".12" stroke-width="1.064" rx="8.259"/></g><g filter="url(#o)"><rect width="76.478" height="17.581" x="261.016" y="151.23" fill="#000" fill-opacity=".04" rx="8.791"/><rect width="75.414" height="16.517" x="261.547" y="151.762" stroke="#000" stroke-opacity=".12" stroke-width="1.064" rx="8.259"/></g></g><g opacity=".3"><rect width="66.808" height="17.581" x="-40.501" y="179.36" fill="#000" fill-opacity=".04" rx="8.791"/><rect width="65.745" height="16.517" x="-39.969" y="179.892" stroke="#000" stroke-opacity=".12" stroke-width="1.064" rx="8.259"/><g filter="url(#p)" shape-rendering="crispEdges"><rect width="58.018" height="17.581" x="36.856" y="179.36" fill="#000" fill-opacity=".04" rx="8.791"/><rect width="56.954" height="16.517" x="37.388" y="179.892" stroke="#000" stroke-opacity=".12" stroke-width="1.064" rx="8.259"/></g><rect width="93.18" height="17.581" x="105.423" y="179.36" fill="#000" fill-opacity=".04" rx="8.791"/><rect width="92.116" height="16.517" x="105.955" y="179.892" stroke="#000" stroke-opacity=".12" stroke-width="1.064" rx="8.259"/><rect width="87.906" height="17.581" x="209.152" y="179.36" fill="#000" fill-opacity=".04" rx="8.791"/><rect width="86.842" height="16.517" x="209.684" y="179.892" stroke="#000" stroke-opacity=".12" stroke-width="1.064" rx="8.259"/><rect width="67.687" height="17.581" x="307.606" y="179.36" fill="#000" fill-opacity=".04" rx="8.791"/><rect width="66.624" height="16.517" x="308.138" y="179.892" stroke="#000" stroke-opacity=".12" stroke-width="1.064" rx="8.259"/></g><g filter="url(#q)" opacity=".2" shape-rendering="crispEdges"><rect width="53.623" height="17.581" x="-46.654" y="207.49" fill="#000" fill-opacity=".04" rx="8.791"/><rect width="52.743" height="16.702" x="-46.215" y="207.93" stroke="#000" stroke-opacity=".08" stroke-width=".879" rx="8.351"/></g><g opacity=".1" shape-rendering="crispEdges"><g filter="url(#r)"><rect width="35.162" height="17.581" x="32.9" y="235.62" fill="#D9D9D9" fill-opacity=".1" rx="7.032"/><rect width="34.283" height="16.702" x="33.34" y="236.06" stroke="#000" stroke-opacity=".08" stroke-width=".879" rx="6.593"/></g><g filter="url(#s)"><rect width="35.162" height="17.581" x="78.611" y="235.62" fill="#D9D9D9" fill-opacity=".1" rx="7.032"/><rect width="34.283" height="16.702" x="79.051" y="236.06" stroke="#000" stroke-opacity=".08" stroke-width=".879" rx="6.593"/></g></g></g><defs><filter id="b" width="123.068" height="105.487" x="155.089" y="-65.953" color-interpolation-filters="sRGB" filterUnits="userSpaceOnUse"><feFlood flood-opacity="0" result="BackgroundImageFix"/><feColorMatrix in="SourceAlpha" result="hardAlpha" values="0 0 0 0 0 0 0 0 0 0 0 0 0 0 0 0 0 0 127 0"/><feOffset/><feGaussianBlur stdDeviation="21.976"/><feComposite in2="hardAlpha" operator="out"/><feColorMatrix values="0 0 0 0 0 0 0 0 0 0 0 0 0 0 0 0 0 0 0.1 0"/><feBlend in2="BackgroundImageFix" result="effect1_dropShadow_996_7801"/><feBlend in="SourceGraphic" in2="effect1_dropShadow_996_7801" result="shape"/></filter><filter id="c" width="155.593" height="105.487" x="-16.766" y="-37.823" color-interpolation-filters="sRGB" filterUnits="userSpaceOnUse"><feFlood flood-opacity="0" result="BackgroundImageFix"/><feColorMatrix in="SourceAlpha" result="hardAlpha" values="0 0 0 0 0 0 0 0 0 0 0 0 0 0 0 0 0 0 127 0"/><feOffset/><feGaussianBlur stdDeviation="21.976"/><feComposite in2="hardAlpha" operator="out"/><feColorMatrix values="0 0 0 0 0 0 0 0 0 0 0 0 0 0 0 0 0 0 0.1 0"/><feBlend in2="BackgroundImageFix" result="effect1_dropShadow_996_7801"/><feBlend in="SourceGraphic" in2="effect1_dropShadow_996_7801" result="shape"/></filter><filter id="d" width="155.593" height="105.487" x="-55.885" y="-9.693" color-interpolation-filters="sRGB" filterUnits="userSpaceOnUse"><feFlood flood-opacity="0" result="BackgroundImageFix"/><feColorMatrix in="SourceAlpha" result="hardAlpha" values="0 0 0 0 0 0 0 0 0 0 0 0 0 0 0 0 0 0 127 0"/><feOffset/><feGaussianBlur stdDeviation="21.976"/><feComposite in2="hardAlpha" operator="out"/><feColorMatrix values="0 0 0 0 0 0 0 0 0 0 0 0 0 0 0 0 0 0 0.1 0"/><feBlend in2="BackgroundImageFix" result="effect1_dropShadow_996_7801"/><feBlend in="SourceGraphic" in2="effect1_dropShadow_996_7801" result="shape"/></filter><filter id="e" width="155.593" height="105.487" x="155.09" y="-9.693" color-interpolation-filters="sRGB" filterUnits="userSpaceOnUse"><feFlood flood-opacity="0" result="BackgroundImageFix"/><feColorMatrix in="SourceAlpha" result="hardAlpha" values="0 0 0 0 0 0 0 0 0 0 0 0 0 0 0 0 0 0 127 0"/><feOffset/><feGaussianBlur stdDeviation="21.976"/><feComposite in2="hardAlpha" operator="out"/><feColorMatrix values="0 0 0 0 0 0 0 0 0 0 0 0 0 0 0 0 0 0 0.1 0"/><feBlend in2="BackgroundImageFix" result="effect1_dropShadow_996_7801"/><feBlend in="SourceGraphic" in2="effect1_dropShadow_996_7801" result="shape"/></filter><filter id="f" width="145.923" height="105.487" x="32.021" y="18.437" color-interpolation-filters="sRGB" filterUnits="userSpaceOnUse"><feFlood flood-opacity="0" result="BackgroundImageFix"/><feColorMatrix in="SourceAlpha" result="hardAlpha" values="0 0 0 0 0 0 0 0 0 0 0 0 0 0 0 0 0 0 127 0"/><feOffset/><feGaussianBlur stdDeviation="21.976"/><feComposite in2="hardAlpha" operator="out"/><feColorMatrix values="0 0 0 0 0 0 0 0 0 0 0 0 0 0 0 0 0 0 0.1 0"/><feBlend in2="BackgroundImageFix" result="effect1_dropShadow_996_7801"/><feBlend in="SourceGraphic" in2="effect1_dropShadow_996_7801" result="shape"/></filter><filter id="g" width="154.714" height="84.389" x="-55.885" y="111.673" color-interpolation-filters="sRGB" filterUnits="userSpaceOnUse"><feFlood flood-opacity="0" result="BackgroundImageFix"/><feColorMatrix in="SourceAlpha" result="hardAlpha" values="0 0 0 0 0 0 0 0 0 0 0 0 0 0 0 0 0 0 127 0"/><feMorphology in="SourceAlpha" radius="10.549" result="effect1_dropShadow_996_7801"/><feOffset dy="21.976"/><feGaussianBlur stdDeviation="21.976"/><feColorMatrix values="0 0 0 0 0 0 0 0 0 0 0 0 0 0 0 0 0 0 0.25 0"/><feBlend in2="BackgroundImageFix" result="effect1_dropShadow_996_7801"/><feBlend in="SourceGraphic" in2="effect1_dropShadow_996_7801" result="shape"/></filter><filter id="h" width="154.714" height="84.389" x="42.57" y="111.673" color-interpolation-filters="sRGB" filterUnits="userSpaceOnUse"><feFlood flood-opacity="0" result="BackgroundImageFix"/><feColorMatrix in="SourceAlpha" result="hardAlpha" values="0 0 0 0 0 0 0 0 0 0 0 0 0 0 0 0 0 0 127 0"/><feMorphology in="SourceAlpha" radius="10.549" result="effect1_dropShadow_996_7801"/><feOffset dy="21.976"/><feGaussianBlur stdDeviation="21.976"/><feColorMatrix values="0 0 0 0 0 0 0 0 0 0 0 0 0 0 0 0 0 0 0.25 0"/><feBlend in2="BackgroundImageFix" result="effect1_dropShadow_996_7801"/><feBlend in="SourceGraphic" in2="effect1_dropShadow_996_7801" result="shape"/></filter><filter id="i" width="154.714" height="84.389" x="141.025" y="111.673" color-interpolation-filters="sRGB" filterUnits="userSpaceOnUse"><feFlood flood-opacity="0" result="BackgroundImageFix"/><feColorMatrix in="SourceAlpha" result="hardAlpha" values="0 0 0 0 0 0 0 0 0 0 0 0 0 0 0 0 0 0 127 0"/><feMorphology in="SourceAlpha" radius="10.549" result="effect1_dropShadow_996_7801"/><feOffset dy="21.976"/><feGaussianBlur stdDeviation="21.976"/><feColorMatrix values="0 0 0 0 0 0 0 0 0 0 0 0 0 0 0 0 0 0 0.25 0"/><feBlend in2="BackgroundImageFix" result="effect1_dropShadow_996_7801"/><feBlend in="SourceGraphic" in2="effect1_dropShadow_996_7801" result="shape"/></filter><filter id="j" width="154.714" height="84.389" x="239.479" y="111.673" color-interpolation-filters="sRGB" filterUnits="userSpaceOnUse"><feFlood flood-opacity="0" result="BackgroundImageFix"/><feColorMatrix in="SourceAlpha" result="hardAlpha" values="0 0 0 0 0 0 0 0 0 0 0 0 0 0 0 0 0 0 127 0"/><feMorphology in="SourceAlpha" radius="10.549" result="effect1_dropShadow_996_7801"/><feOffset dy="21.976"/><feGaussianBlur stdDeviation="21.976"/><feColorMatrix values="0 0 0 0 0 0 0 0 0 0 0 0 0 0 0 0 0 0 0.25 0"/><feBlend in2="BackgroundImageFix" result="effect1_dropShadow_996_7801"/><feBlend in="SourceGraphic" in2="effect1_dropShadow_996_7801" result="shape"/></filter><filter id="k" width="143.286" height="84.389" x="-37.864" y="139.803" color-interpolation-filters="sRGB" filterUnits="userSpaceOnUse"><feFlood flood-opacity="0" result="BackgroundImageFix"/><feColorMatrix in="SourceAlpha" result="hardAlpha" values="0 0 0 0 0 0 0 0 0 0 0 0 0 0 0 0 0 0 127 0"/><feMorphology in="SourceAlpha" radius="10.549" result="effect1_dropShadow_996_7801"/><feOffset dy="21.976"/><feGaussianBlur stdDeviation="21.976"/><feColorMatrix values="0 0 0 0 0 0 0 0 0 0 0 0 0 0 0 0 0 0 0.25 0"/><feBlend in2="BackgroundImageFix" result="effect1_dropShadow_996_7801"/><feBlend in="SourceGraphic" in2="effect1_dropShadow_996_7801" result="shape"/></filter><filter id="l" width="101.97" height="84.389" x="49.163" y="139.803" color-interpolation-filters="sRGB" filterUnits="userSpaceOnUse"><feFlood flood-opacity="0" result="BackgroundImageFix"/><feColorMatrix in="SourceAlpha" result="hardAlpha" values="0 0 0 0 0 0 0 0 0 0 0 0 0 0 0 0 0 0 127 0"/><feMorphology in="SourceAlpha" radius="10.549" result="effect1_dropShadow_996_7801"/><feOffset dy="21.976"/><feGaussianBlur stdDeviation="21.976"/><feColorMatrix values="0 0 0 0 0 0 0 0 0 0 0 0 0 0 0 0 0 0 0.25 0"/><feBlend in2="BackgroundImageFix" result="effect1_dropShadow_996_7801"/><feBlend in="SourceGraphic" in2="effect1_dropShadow_996_7801" result="shape"/></filter><filter id="m" width="143.286" height="84.389" x="94.874" y="139.803" color-interpolation-filters="sRGB" filterUnits="userSpaceOnUse"><feFlood flood-opacity="0" result="BackgroundImageFix"/><feColorMatrix in="SourceAlpha" result="hardAlpha" values="0 0 0 0 0 0 0 0 0 0 0 0 0 0 0 0 0 0 127 0"/><feMorphology in="SourceAlpha" radius="10.549" result="effect1_dropShadow_996_7801"/><feOffset dy="21.976"/><feGaussianBlur stdDeviation="21.976"/><feColorMatrix values="0 0 0 0 0 0 0 0 0 0 0 0 0 0 0 0 0 0 0.25 0"/><feBlend in2="BackgroundImageFix" result="effect1_dropShadow_996_7801"/><feBlend in="SourceGraphic" in2="effect1_dropShadow_996_7801" result="shape"/></filter><filter id="n" width="101.97" height="84.389" x="181.901" y="139.803" color-interpolation-filters="sRGB" filterUnits="userSpaceOnUse"><feFlood flood-opacity="0" result="BackgroundImageFix"/><feColorMatrix in="SourceAlpha" result="hardAlpha" values="0 0 0 0 0 0 0 0 0 0 0 0 0 0 0 0 0 0 127 0"/><feMorphology in="SourceAlpha" radius="10.549" result="effect1_dropShadow_996_7801"/><feOffset dy="21.976"/><feGaussianBlur stdDeviation="21.976"/><feColorMatrix values="0 0 0 0 0 0 0 0 0 0 0 0 0 0 0 0 0 0 0.25 0"/><feBlend in2="BackgroundImageFix" result="effect1_dropShadow_996_7801"/><feBlend in="SourceGraphic" in2="effect1_dropShadow_996_7801" result="shape"/></filter><filter id="o" width="143.286" height="84.389" x="227.611" y="139.803" color-interpolation-filters="sRGB" filterUnits="userSpaceOnUse"><feFlood flood-opacity="0" result="BackgroundImageFix"/><feColorMatrix in="SourceAlpha" result="hardAlpha" values="0 0 0 0 0 0 0 0 0 0 0 0 0 0 0 0 0 0 127 0"/><feMorphology in="SourceAlpha" radius="10.549" result="effect1_dropShadow_996_7801"/><feOffset dy="21.976"/><feGaussianBlur stdDeviation="21.976"/><feColorMatrix values="0 0 0 0 0 0 0 0 0 0 0 0 0 0 0 0 0 0 0.25 0"/><feBlend in2="BackgroundImageFix" result="effect1_dropShadow_996_7801"/><feBlend in="SourceGraphic" in2="effect1_dropShadow_996_7801" result="shape"/></filter><filter id="p" width="145.923" height="105.487" x="-7.096" y="135.407" color-interpolation-filters="sRGB" filterUnits="userSpaceOnUse"><feFlood flood-opacity="0" result="BackgroundImageFix"/><feColorMatrix in="SourceAlpha" result="hardAlpha" values="0 0 0 0 0 0 0 0 0 0 0 0 0 0 0 0 0 0 127 0"/><feOffset/><feGaussianBlur stdDeviation="21.976"/><feComposite in2="hardAlpha" operator="out"/><feColorMatrix values="0 0 0 0 0 0 0 0 0 0 0 0 0 0 0 0 0 0 0.1 0"/><feBlend in2="BackgroundImageFix" result="effect1_dropShadow_996_7801"/><feBlend in="SourceGraphic" in2="effect1_dropShadow_996_7801" result="shape"/></filter><filter id="q" width="141.528" height="105.487" x="-90.607" y="163.537" color-interpolation-filters="sRGB" filterUnits="userSpaceOnUse"><feFlood flood-opacity="0" result="BackgroundImageFix"/><feColorMatrix in="SourceAlpha" result="hardAlpha" values="0 0 0 0 0 0 0 0 0 0 0 0 0 0 0 0 0 0 127 0"/><feOffset/><feGaussianBlur stdDeviation="21.976"/><feComposite in2="hardAlpha" operator="out"/><feColorMatrix values="0 0 0 0 0 0 0 0 0 0 0 0 0 0 0 0 0 0 0.1 0"/><feBlend in2="BackgroundImageFix" result="effect1_dropShadow_996_7801"/><feBlend in="SourceGraphic" in2="effect1_dropShadow_996_7801" result="shape"/></filter><filter id="r" width="123.068" height="105.487" x="-11.053" y="191.667" color-interpolation-filters="sRGB" filterUnits="userSpaceOnUse"><feFlood flood-opacity="0" result="BackgroundImageFix"/><feColorMatrix in="SourceAlpha" result="hardAlpha" values="0 0 0 0 0 0 0 0 0 0 0 0 0 0 0 0 0 0 127 0"/><feOffset/><feGaussianBlur stdDeviation="21.976"/><feComposite in2="hardAlpha" operator="out"/><feColorMatrix values="0 0 0 0 0 0 0 0 0 0 0 0 0 0 0 0 0 0 0.1 0"/><feBlend in2="BackgroundImageFix" result="effect1_dropShadow_996_7801"/><feBlend in="SourceGraphic" in2="effect1_dropShadow_996_7801" result="shape"/></filter><filter id="s" width="123.068" height="105.487" x="34.658" y="191.667" color-interpolation-filters="sRGB" filterUnits="userSpaceOnUse"><feFlood flood-opacity="0" result="BackgroundImageFix"/><feColorMatrix in="SourceAlpha" result="hardAlpha" values="0 0 0 0 0 0 0 0 0 0 0 0 0 0 0 0 0 0 127 0"/><feOffset/><feGaussianBlur stdDeviation="21.976"/><feComposite in2="hardAlpha" operator="out"/><feColorMatrix values="0 0 0 0 0 0 0 0 0 0 0 0 0 0 0 0 0 0 0.1 0"/><feBlend in2="BackgroundImageFix" result="effect1_dropShadow_996_7801"/><feBlend in="SourceGraphic" in2="effect1_dropShadow_996_7801" result="shape"/></filter><clipPath id="a"><rect width="336" height="200" fill="#fff" rx="12"/></clipPath></defs></svg>