<svg height="100%" width="350" viewBox="0 0 270 120" xmlns="http://www.w3.org/2000/svg" xmlns:xlink="http://www.w3.org/1999/xlink" fill="none">
  <g clip-path="url(#a)">
    <path fill="#fff" d="M181 58.3v-2.1h.5v.4a.7.7 0 0 1 .2-.3l.4-.1h.1v.4a.6.6 0 0 0-.1 0 .6.6 0 0 0-.3.1.5.5 0 0 0-.2.2.6.6 0 0 0-.1.3v1h-.5Zm1.9-2.4a.3.3 0 0 1-.3-.1.3.3 0 0 1 0-.2v-.1a.3.3 0 0 1 .3-.2h.1a.3.3 0 0 1 .2.3.3.3 0 0 1-.2.3.3.3 0 0 1-.1 0Zm-.3 2.4v-2.1h.5v2h-.5Zm2 0h-.5a1 1 0 0 1-.4-.5 1.1 1.1 0 0 1-.1-.6l.1-.6a1 1 0 0 1 .4-.3 1 1 0 0 1 1 0 .9.9 0 0 1 .3.2l.2.5h-.5a.7.7 0 0 0 0-.2.5.5 0 0 0-.2-.2.5.5 0 0 0-.5 0 .6.6 0 0 0-.2.3.9.9 0 0 0-.1.3.8.8 0 0 0 0 .4.5.5 0 0 0 .5.3.5.5 0 0 0 .3 0 .5.5 0 0 0 .1-.2.6.6 0 0 0 .1-.2h.5c0 .2 0 .3-.2.4a.9.9 0 0 1-.3.3 1 1 0 0 1-.5.1Z"/>
    <circle cx="241.9" cy="96" r="1.6" fill="#fff" fill-opacity=".6"/>
    <circle cx="182" cy="60.2" r="1.6" fill="#fff" fill-opacity=".6"/>
    <path stroke="#fff" stroke-opacity=".6" stroke-width=".3" d="m55 149.3 45-66.8m25 42.6 32.6 41.1m17.2-60 20.3 22.3m-13-68.3L241.7 96m34.2 52.7-79.6-20.2m-14-68.6-8 45.7m-74-23.3 24.5 43m50.1-19.3-17.2 60m-58-83.8 82.6-22M71.4 45.5l110.9 14.7m-7.8 45.6-49.7 19m49.7-18.6L242 96m-.1 0 33.8 52.7m-80.5-20.3L242 96m0 0 62.3 17.9m-232.8-69L100 82.3M71.4 44.4 55.3 149.3M242 96l18.6-45.5M181.9 60l48-26.6m31 17.1-31.2-17.2m0 .1L242 96.1"/>
    <path fill="#303030" d="M220 87h41.4a4.3 4.3 0 0 1 4.2 4.3v9.1h-41.3a4.3 4.3 0 0 1-4.3-4.3V87Z"/>
    <path fill="#fff" fill-rule="evenodd" d="M229.6 93.7a2.1 2.1 0 1 1-4.3 0 2.1 2.1 0 0 1 4.3 0Zm.6 0a2.7 2.7 0 1 1-5.4 0 2.7 2.7 0 0 1 5.4 0Zm-2.7 1.6a1.6 1.6 0 1 0 0-3.2 1.6 1.6 0 0 0 0 3.2Z" clip-rule="evenodd"/>
    <path fill="#fff" d="M233.8 95.2V92h.6v2.7h1.3v.5h-2Zm3.4 0-.7-.1a1 1 0 0 1-.4-.4 1.4 1.4 0 0 1-.1-.7l.1-.6.4-.5.7-.1.5.1.4.4a1.3 1.3 0 0 1 .2.8h-1.8a.8.8 0 0 0 .1.4.5.5 0 0 0 .3.2.7.7 0 0 0 .3.1.7.7 0 0 0 .3 0 .5.5 0 0 0 .2-.3l.5.1a.8.8 0 0 1-.2.3 1 1 0 0 1-.3.3h-.5Zm.5-1.4a.8.8 0 0 0 0-.3.5.5 0 0 0-.3-.2.6.6 0 0 0-.3-.1.7.7 0 0 0-.2 0 .5.5 0 0 0-.2.2.8.8 0 0 0-.2.4h1.2Zm1.7 1.4a1 1 0 0 1-.4 0 .6.6 0 0 1-.3-.3.7.7 0 0 1 0-.4v-.4a.7.7 0 0 1 .4-.2 2 2 0 0 1 .5-.1h.5v-.2a.3.3 0 0 0-.2-.3.6.6 0 0 0-.2 0 .6.6 0 0 0-.2 0 .4.4 0 0 0-.3.2h-.5a.8.8 0 0 1 .5-.7h1a.8.8 0 0 1 .4.4v1.4a3.4 3.4 0 0 0 .1.6h-.5a1 1 0 0 1 0-.2 1.9 1.9 0 0 1 0-.2.7.7 0 0 1-.4.3.9.9 0 0 1-.4.1Zm.2-.4a.6.6 0 0 0 .3 0 .5.5 0 0 0 .2-.3.7.7 0 0 0 0-.3h-.5a.7.7 0 0 0-.3 0 .3.3 0 0 0-.1.3v.2a.3.3 0 0 0 .2 0 .5.5 0 0 0 .2.1Zm2.6.5a1 1 0 0 1-.5-.2 1 1 0 0 1-.4-.4 1.6 1.6 0 0 1-.1-.7l.1-.6.4-.5a1 1 0 0 1 .5-.1h.3a.9.9 0 0 1 .5.4v-1.3h.6v3.3h-.6V95a.8.8 0 0 1-.5.3 1 1 0 0 1-.3 0Zm.2-.5.3-.1a.6.6 0 0 0 .2-.3 1 1 0 0 0 .1-.4 1 1 0 0 0 0-.4.6.6 0 0 0-.6-.3.6.6 0 0 0-.6.3 1 1 0 0 0 0 .4v.4a.6.6 0 0 0 .3.3.6.6 0 0 0 .3 0Zm2.9.5c-.3 0-.5 0-.7-.2a1 1 0 0 1-.4-.4 1.4 1.4 0 0 1-.1-.7l.1-.6a1 1 0 0 1 .4-.5l.7-.1.5.1.4.4a1.4 1.4 0 0 1 .2.8h-1.8a.8.8 0 0 0 .1.4.5.5 0 0 0 .3.2.7.7 0 0 0 .3.1.7.7 0 0 0 .3 0 .5.5 0 0 0 .2-.3l.5.1a.8.8 0 0 1-.2.3 1 1 0 0 1-.3.3h-.5Zm.5-1.5a.7.7 0 0 0 0-.3.5.5 0 0 0-.3-.2.6.6 0 0 0-.3-.1.7.7 0 0 0-.2 0 .5.5 0 0 0-.2.2.8.8 0 0 0-.2.4h1.2Zm1 1.4v-2.4h.7v.5a.8.8 0 0 1 .2-.4.7.7 0 0 1 .4-.1h.2v.5a.7.7 0 0 0-.5.1.6.6 0 0 0-.3.3.7.7 0 0 0 0 .3v1.2h-.6Zm3.1 0V92h.6l1.3 2a2 2 0 0 1 .1.3V92h.6v3.2h-.6l-1.3-2a2.3 2.3 0 0 1-.1-.2v2.2h-.6Zm4.4 0-.6-.1a1.1 1.1 0 0 1-.5-.4 1.3 1.3 0 0 1-.1-.7l.1-.6.5-.5.6-.1.6.1.5.5.1.6c0 .2 0 .5-.2.7 0 .2-.2.3-.4.4a1.2 1.2 0 0 1-.6.2Zm0-.4.3-.1a.6.6 0 0 0 .2-.3 1 1 0 0 0 .1-.4 1 1 0 0 0 0-.4.6.6 0 0 0-.3-.3.6.6 0 0 0-.3 0 .6.6 0 0 0-.3 0 .6.6 0 0 0-.3.3 1 1 0 0 0 0 .4.9.9 0 0 0 0 .4.7.7 0 0 0 .3.3.6.6 0 0 0 .3 0Zm2.6.5a1 1 0 0 1-.9-.6 1.6 1.6 0 0 1-.1-.7l.1-.6.4-.5a1 1 0 0 1 .5-.1h.3a.9.9 0 0 1 .3.2l.2.2v-1.3h.6v3.3h-.6V95a.9.9 0 0 1-.5.3 1 1 0 0 1-.3 0Zm.2-.5a.6.6 0 0 0 .5-.4 1 1 0 0 0 .1-.4v-.4a.6.6 0 0 0-.6-.3.6.6 0 0 0-.6.3 1 1 0 0 0 0 .4v.4a.6.6 0 0 0 .3.3h.3Zm2.9.5c-.3 0-.5 0-.7-.2a1 1 0 0 1-.4-.4 1.4 1.4 0 0 1-.1-.7l.1-.6a1 1 0 0 1 .4-.5l.7-.1.6.1.3.4a1.4 1.4 0 0 1 .2.8h-1.8a.8.8 0 0 0 .2.4.5.5 0 0 0 .2.2.7.7 0 0 0 .3.1.7.7 0 0 0 .3 0 .5.5 0 0 0 .2-.3l.5.1a.7.7 0 0 1-.2.3 1 1 0 0 1-.3.3h-.5Zm.5-1.5a.7.7 0 0 0 0-.3.5.5 0 0 0-.3-.2.6.6 0 0 0-.2-.1.7.7 0 0 0-.3 0 .5.5 0 0 0-.2.2.8.8 0 0 0-.2.4h1.2Z"/>
    <path stroke="#fff" stroke-opacity=".1" stroke-width=".3" d="M220.1 87.1h41.3a4.1 4.1 0 0 1 4.1 4.2v9h-41.2A4.1 4.1 0 0 1 220 96v-9Z"/>
    <g filter="url(#b)">
      <path fill="#303030" d="M143 52.7h88.4a4.3 4.3 0 0 1 4.2 4.3v9h-88.3a4.3 4.3 0 0 1-4.3-4.2v-9.1Z"/>
      <path fill="url(#c)" d="M147.3 56.2h6.4v6.4h-6.4z"/>
      <path fill="#fff" d="M156.8 60.9v-3.2h1c.3 0 .6 0 .9.2l.6.5.1.9-.1.8-.6.6a1.9 1.9 0 0 1-.9.2h-1Zm1-.5.6-.1a1 1 0 0 0 .3-.4l.2-.6a1.3 1.3 0 0 0-.2-.6.9.9 0 0 0-.3-.4 1.1 1.1 0 0 0-.6-.1h-.4v2.2h.4Zm2.3.5v-3.2h2v.5h-1.4v.8h1.2v.5h-1.2v.9h1.4v.5h-2Zm4.1 0c-.3 0-.6 0-.8-.2a1.5 1.5 0 0 1-.6-.6l-.2-.8c0-.3 0-.6.2-.9l.6-.6.8-.2c.2 0 .5 0 .7.2.2 0 .3.2.4.4.2.1.3.3.3.5l-.6.1a1 1 0 0 0-.1-.3.8.8 0 0 0-.3-.3.9.9 0 0 0-.4 0 1 1 0 0 0-.5.1 1 1 0 0 0-.4.4 1.3 1.3 0 0 0 0 .6v.6a1 1 0 0 0 .4.4 1 1 0 0 0 .5.1.8.8 0 0 0 .7-.3 1 1 0 0 0 .1-.4l.6.1a1.3 1.3 0 0 1-.2.6 1.3 1.3 0 0 1-.5.4l-.7.1Zm2 0v-3.2h2v.5h-1.4v.8h1.3v.5h-1.3v.9h1.4v.5h-2Zm2.7 0v-3.2h.6l1.2 2a2 2 0 0 1 .2.2v-2.2h.6v3.2h-.6l-1.3-2a3.3 3.3 0 0 1-.1-.3V61h-.6Zm4 0v-2.7h-.8v-.5h2.4v.5h-1v2.7h-.5Zm2.2 0v-3.2h1.9a.8.8 0 0 1 .3.4l.2.5a.8.8 0 0 1-.1.3.7.7 0 0 1-.2.3.8.8 0 0 1-.3.1.6.6 0 0 1 .4.3l.1.5v.5l.1.2h-.6a1 1 0 0 1 0-.1 3.5 3.5 0 0 1 0-.4v-.1a.8.8 0 0 0-.2-.4.3.3 0 0 0-.1-.1.8.8 0 0 0-.3 0h-.6v1.2h-.6Zm1.2-1.8a.7.7 0 0 0 .3 0 .4.4 0 0 0 .2-.2.5.5 0 0 0 0-.3.5.5 0 0 0 0-.2.4.4 0 0 0-.2-.2.7.7 0 0 0-.3 0h-.6v1h.6ZM178 61l1.1-3.2h.8L181 61h-.6l-.3-.8h-1.2l-.3.8h-.6Zm1-1.2h1l-.4-1a5.7 5.7 0 0 1 0-.5l-.2.4-.4 1Zm2.6 1.2v-3.2h.6v2.7h1.3v.5h-2Zm2.5 0v-3.2h.6V61h-.6Zm1.2 0v-.5l1.4-1.9a6.2 6.2 0 0 1 .3-.3h-1.7v-.5h2.4v.5l-1.4 1.8a5.3 5.3 0 0 1-.2.2v.2h1.6v.5h-2.4Zm3 0v-3.2h2v.5h-1.4v.8h1.3v.5h-1.3v.9h1.5v.5h-2Zm2.7 0v-3.2h1c.4 0 .7 0 1 .2l.5.5.2.9c0 .3 0 .6-.2.8-.1.3-.3.5-.6.6a1.9 1.9 0 0 1-.9.2h-1Zm1-.5.6-.1a1 1 0 0 0 .3-.4l.2-.6a1.3 1.3 0 0 0-.2-.6.9.9 0 0 0-.3-.4 1.1 1.1 0 0 0-.6-.1h-.4v2.2h.4Zm4.5.5h-.7a1 1 0 0 1-.4-.4 1.1 1.1 0 0 1-.2-.5l.6-.1a.7.7 0 0 0 .1.3.6.6 0 0 0 .2.2h.7a.4.4 0 0 0 .2-.2.4.4 0 0 0 0-.2.4.4 0 0 0 0-.2.4.4 0 0 0-.2-.2 1.8 1.8 0 0 0-.4 0 3 3 0 0 1-.6-.2.9.9 0 0 1-.3-.3.8.8 0 0 1-.2-.5c0-.2 0-.4.2-.5a.9.9 0 0 1 .4-.4h1.1a.9.9 0 0 1 .4.4l.2.4-.6.1a.6.6 0 0 0 0-.2.5.5 0 0 0-.3-.2.7.7 0 0 0-.3 0 .7.7 0 0 0-.2 0 .4.4 0 0 0-.2.1.4.4 0 0 0 0 .3v.2a.4.4 0 0 0 .2 0l.3.2.6.2c.2 0 .3.1.4.3l.1.5a1 1 0 0 1 0 .5.9.9 0 0 1-.5.3l-.6.1Zm2.4 0v-2.7h-1v-.5h2.5v.5h-.9V61h-.6Zm3.5 0c-.3 0-.6 0-.9-.2a1.5 1.5 0 0 1-.6-.5 1.7 1.7 0 0 1-.2-1c0-.2 0-.5.2-.8l.6-.6.9-.2.8.2.6.6.2.9c0 .3 0 .6-.2.9a1.5 1.5 0 0 1-.6.5 1.7 1.7 0 0 1-.8.2Zm0-.5.5-.1a1 1 0 0 0 .3-.4l.2-.6-.1-.6a1 1 0 0 0-.4-.4 1 1 0 0 0-.5-.1 1 1 0 0 0-.6.1 1 1 0 0 0-.3.4l-.2.6c0 .2 0 .4.2.6a1 1 0 0 0 .9.5Zm2.2.5v-3.2h1.9a.8.8 0 0 1 .4.4l.1.5a.8.8 0 0 1 0 .3.7.7 0 0 1-.2.3.8.8 0 0 1-.4.1c.2 0 .3.2.4.3l.2.5v.7h-.5a1 1 0 0 1 0-.1 3.8 3.8 0 0 1-.1-.4v-.1a.8.8 0 0 0-.1-.4.3.3 0 0 0-.2-.1.8.8 0 0 0-.3 0h-.6V61h-.6Zm1.3-1.8a.7.7 0 0 0 .3 0 .4.4 0 0 0 .2-.2.5.5 0 0 0 0-.3.5.5 0 0 0 0-.2.4.4 0 0 0-.2-.2.7.7 0 0 0-.3 0h-.7v1h.7Zm1.6 1.8 1.1-3.2h.7l1.2 3.2h-.6l-.3-.8h-1.3l-.2.8h-.6Zm1-1.2h1l-.4-1a5.7 5.7 0 0 1-.1-.5 6.8 6.8 0 0 1-.2.4l-.3 1Zm3.9 1.2c-.3 0-.6 0-.9-.2a1.4 1.4 0 0 1-.5-.6 1.8 1.8 0 0 1-.2-.8c0-.3 0-.6.2-.9l.5-.6.9-.2c.2 0 .4 0 .6.2.2 0 .4.2.5.3l.3.6h-.6a1 1 0 0 0-.2-.3.7.7 0 0 0-.2-.2.9.9 0 0 0-.4 0 1 1 0 0 0-.5.1 1 1 0 0 0-.4.4 1.4 1.4 0 0 0-.1.6l.1.6.4.4.5.1h.4a.7.7 0 0 0 .3-.3 1 1 0 0 0 .2-.5h-1v-.4h1.5v.2c0 .3 0 .6-.2.8a1.2 1.2 0 0 1-.5.5 1.6 1.6 0 0 1-.7.2Zm2 0v-3.2h2v.5H215v.8h1.3v.5H215v.9h1.5v.5h-2Zm4.4.6a3.4 3.4 0 0 1-.4-1 3.6 3.6 0 0 1 0-2c0-.4.2-.7.4-1h.5l-.4 1a4 4 0 0 0-.1 1 4 4 0 0 0 .5 2h-.5Zm1-.6v-3.2h.7V61h-.6Zm1.5 0v-3.2h1.2l.6.1c.2 0 .3.2.4.3a1 1 0 0 1 0 .6v.5a.8.8 0 0 1-.4.3 1.4 1.4 0 0 1-.6.1h-.7V61h-.5Zm1.1-1.7.3-.1a.5.5 0 0 0 .2-.2.5.5 0 0 0 .1-.2.5.5 0 0 0 0-.3.4.4 0 0 0-.3-.2.8.8 0 0 0-.3 0h-.6v1h.6Zm1.8 1.7v-3.2h2v.5h-1.4v1h1.3v.4h-1.3V61h-.6Zm3.7 0h-.7a1 1 0 0 1-.4-.4 1.2 1.2 0 0 1-.2-.5l.6-.1a.7.7 0 0 0 .1.3.6.6 0 0 0 .2.2h.7a.4.4 0 0 0 .2-.2.4.4 0 0 0 0-.2.4.4 0 0 0 0-.2.4.4 0 0 0-.2-.2 1.8 1.8 0 0 0-.4 0 3 3 0 0 1-.6-.2.9.9 0 0 1-.3-.3.8.8 0 0 1-.2-.5 1 1 0 0 1 .2-.5.9.9 0 0 1 .4-.4h1.1a.9.9 0 0 1 .4.4l.2.4-.6.1a.6.6 0 0 0 0-.2.5.5 0 0 0-.3-.2.7.7 0 0 0-.3 0 .7.7 0 0 0-.2 0 .4.4 0 0 0-.2.1.4.4 0 0 0 0 .3v.2h.2l.3.2.6.2c.2 0 .3.1.4.3l.1.5a1 1 0 0 1-.1.5.9.9 0 0 1-.4.3l-.6.1Zm2 .6.5-1a3.6 3.6 0 0 0 0-2 3.4 3.4 0 0 0-.5-1h-.4l.4 1a4 4 0 0 1 0 2 3.5 3.5 0 0 1-.4 1h.4Z"/>
      <path stroke="#fff" stroke-opacity=".1" stroke-width=".3" d="M143.1 52.8h88.3a4.1 4.1 0 0 1 4.1 4.2v9h-88.2a4.1 4.1 0 0 1-4.2-4.2v-9Z"/>
    </g>
    <g filter="url(#c)">
        <circle cx="174.5" cy="105.8" r="4.1" fill="#fff" fill-opacity=".3"/>
        <circle cx="174.5" cy="105.8" r="2.4" fill="#fff" fill-opacity=".8"/>
        <circle cx="174.5" cy="105.8" r="2.3" stroke="#fff" stroke-opacity=".5" stroke-width=".3"/>
        <circle cx="71.1" cy="45.1" r="4.1" fill="#fff" fill-opacity=".3"/>
        <circle cx="71.1" cy="45.1" r="2.4" fill="#fff" fill-opacity=".8"/>
        <circle cx="71.1" cy="45.1" r="2.3" stroke="#fff" stroke-opacity=".5" stroke-width=".3"/>
        <circle cx="99.9" cy="82.2" r="4.1" fill="#fff" fill-opacity=".3"/>
        <circle cx="99.9" cy="82.2" r="2.4" fill="#fff" fill-opacity=".8"/>
        <circle cx="99.9" cy="82.2" r="2.3" stroke="#fff" stroke-opacity=".5" stroke-width=".3"/>
        <circle cx="229.8" cy="33.6" r="4.1" fill="#fff" fill-opacity=".3"/>
        <circle cx="229.8" cy="33.6" r="2.4" fill="#fff" fill-opacity=".8"/>
        <circle cx="229.8" cy="33.6" r="2.3" stroke="#fff" stroke-opacity=".5" stroke-width=".3"/>
        <circle cx="260" cy="50.2" r="4.1" fill="#fff" fill-opacity=".3"/>
        <circle cx="260" cy="50.2" r="2.4" fill="#fff" fill-opacity=".8"/>
        <circle cx="260" cy="50.2" r="2.3" stroke="#fff" stroke-opacity=".5" stroke-width=".3"/>
    </g>
  </g>
  <defs>
    <filter id="b" width="131.1" height="51.9" x="123.8" y="33.4" color-interpolation-filters="sRGB" filterUnits="userSpaceOnUse">
      <feFlood flood-opacity="0" result="BackgroundImageFix"/>
      <feGaussianBlur in="BackgroundImageFix" stdDeviation="9.6"/>
      <feComposite in2="SourceAlpha" operator="in" result="effect1_backgroundBlur_1105_37188"/>
      <feBlend in="SourceGraphic" in2="effect1_backgroundBlur_1105_37188" result="shape"/>
    </filter>
    <filter id="d" width="36.1" height="36.1" x="156.5" y="87.7" color-interpolation-filters="sRGB" filterUnits="userSpaceOnUse">
      <feFlood flood-opacity="0" result="BackgroundImageFix"/>
      <feColorMatrix in="SourceAlpha" result="hardAlpha" values="0 0 0 0 0 0 0 0 0 0 0 0 0 0 0 0 0 0 127 0"/>
      <feOffset/>
      <feGaussianBlur stdDeviation="6.7"/>
      <feComposite in2="hardAlpha" operator="out"/>
      <feColorMatrix values="0 0 0 0 1 0 0 0 0 1 0 0 0 0 1 0 0 0 0.2 0"/>
      <feBlend in2="BackgroundImageFix" result="effect1_dropShadow_1105_37188"/>
      <feBlend in="SourceGraphic" in2="effect1_dropShadow_1105_37188" result="shape"/>
    </filter>
    <filter id="e" width="11.6" height="11.6" x="168.7" y="101.4" color-interpolation-filters="sRGB" filterUnits="userSpaceOnUse">
      <feFlood flood-opacity="0" result="BackgroundImageFix"/>
      <feColorMatrix in="SourceAlpha" result="hardAlpha" values="0 0 0 0 0 0 0 0 0 0 0 0 0 0 0 0 0 0 127 0"/>
      <feMorphology in="SourceAlpha" radius=".3" result="effect1_dropShadow_1105_37188"/>
      <feOffset dy=".7"/>
      <feGaussianBlur stdDeviation=".7"/>
      <feColorMatrix values="0 0 0 0 0 0 0 0 0 0 0 0 0 0 0 0 0 0 0.06 0"/>
      <feBlend in2="BackgroundImageFix" result="effect1_dropShadow_1105_37188"/>
      <feColorMatrix in="SourceAlpha" result="hardAlpha" values="0 0 0 0 0 0 0 0 0 0 0 0 0 0 0 0 0 0 127 0"/>
      <feMorphology in="SourceAlpha" radius=".3" result="effect2_dropShadow_1105_37188"/>
      <feOffset dy="1.4"/>
      <feGaussianBlur stdDeviation="1"/>
      <feColorMatrix values="0 0 0 0 0 0 0 0 0 0 0 0 0 0 0 0 0 0 0.1 0"/>
      <feBlend in2="effect1_dropShadow_1105_37188" result="effect2_dropShadow_1105_37188"/>
      <feBlend in="SourceGraphic" in2="effect2_dropShadow_1105_37188" result="shape"/>
    </filter>
    <filter id="f" width="8.3" height="8.3" x="170.3" y="103" color-interpolation-filters="sRGB" filterUnits="userSpaceOnUse">
      <feFlood flood-opacity="0" result="BackgroundImageFix"/>
      <feColorMatrix in="SourceAlpha" result="hardAlpha" values="0 0 0 0 0 0 0 0 0 0 0 0 0 0 0 0 0 0 127 0"/>
      <feMorphology in="SourceAlpha" radius=".3" result="effect1_dropShadow_1105_37188"/>
      <feOffset dy=".7"/>
      <feGaussianBlur stdDeviation=".7"/>
      <feColorMatrix values="0 0 0 0 0 0 0 0 0 0 0 0 0 0 0 0 0 0 0.06 0"/>
      <feBlend in2="BackgroundImageFix" result="effect1_dropShadow_1105_37188"/>
      <feColorMatrix in="SourceAlpha" result="hardAlpha" values="0 0 0 0 0 0 0 0 0 0 0 0 0 0 0 0 0 0 127 0"/>
      <feMorphology in="SourceAlpha" radius=".3" result="effect2_dropShadow_1105_37188"/>
      <feOffset dy="1.4"/>
      <feGaussianBlur stdDeviation="1"/>
      <feColorMatrix values="0 0 0 0 0 0 0 0 0 0 0 0 0 0 0 0 0 0 0.1 0"/>
      <feBlend in2="effect1_dropShadow_1105_37188" result="effect2_dropShadow_1105_37188"/>
      <feBlend in="SourceGraphic" in2="effect2_dropShadow_1105_37188" result="shape"/>
    </filter>
    <filter id="g" width="36.1" height="36.1" x="53.1" y="27.1" color-interpolation-filters="sRGB" filterUnits="userSpaceOnUse">
      <feFlood flood-opacity="0" result="BackgroundImageFix"/>
      <feColorMatrix in="SourceAlpha" result="hardAlpha" values="0 0 0 0 0 0 0 0 0 0 0 0 0 0 0 0 0 0 127 0"/>
      <feOffset/>
      <feGaussianBlur stdDeviation="6.7"/>
      <feComposite in2="hardAlpha" operator="out"/>
      <feColorMatrix values="0 0 0 0 1 0 0 0 0 1 0 0 0 0 1 0 0 0 0.2 0"/>
      <feBlend in2="BackgroundImageFix" result="effect1_dropShadow_1105_37188"/>
      <feBlend in="SourceGraphic" in2="effect1_dropShadow_1105_37188" result="shape"/>
    </filter>
    <filter id="h" width="11.6" height="11.6" x="65.3" y="40.7" color-interpolation-filters="sRGB" filterUnits="userSpaceOnUse">
      <feFlood flood-opacity="0" result="BackgroundImageFix"/>
      <feColorMatrix in="SourceAlpha" result="hardAlpha" values="0 0 0 0 0 0 0 0 0 0 0 0 0 0 0 0 0 0 127 0"/>
      <feMorphology in="SourceAlpha" radius=".3" result="effect1_dropShadow_1105_37188"/>
      <feOffset dy=".7"/>
      <feGaussianBlur stdDeviation=".7"/>
      <feColorMatrix values="0 0 0 0 0 0 0 0 0 0 0 0 0 0 0 0 0 0 0.06 0"/>
      <feBlend in2="BackgroundImageFix" result="effect1_dropShadow_1105_37188"/>
      <feColorMatrix in="SourceAlpha" result="hardAlpha" values="0 0 0 0 0 0 0 0 0 0 0 0 0 0 0 0 0 0 127 0"/>
      <feMorphology in="SourceAlpha" radius=".3" result="effect2_dropShadow_1105_37188"/>
      <feOffset dy="1.4"/>
      <feGaussianBlur stdDeviation="1"/>
      <feColorMatrix values="0 0 0 0 0 0 0 0 0 0 0 0 0 0 0 0 0 0 0.1 0"/>
      <feBlend in2="effect1_dropShadow_1105_37188" result="effect2_dropShadow_1105_37188"/>
      <feBlend in="SourceGraphic" in2="effect2_dropShadow_1105_37188" result="shape"/>
    </filter>
    <filter id="i" width="8.3" height="8.3" x="67" y="42.4" color-interpolation-filters="sRGB" filterUnits="userSpaceOnUse">
      <feFlood flood-opacity="0" result="BackgroundImageFix"/>
      <feColorMatrix in="SourceAlpha" result="hardAlpha" values="0 0 0 0 0 0 0 0 0 0 0 0 0 0 0 0 0 0 127 0"/>
      <feMorphology in="SourceAlpha" radius=".3" result="effect1_dropShadow_1105_37188"/>
      <feOffset dy=".7"/>
      <feGaussianBlur stdDeviation=".7"/>
      <feColorMatrix values="0 0 0 0 0 0 0 0 0 0 0 0 0 0 0 0 0 0 0.06 0"/>
      <feBlend in2="BackgroundImageFix" result="effect1_dropShadow_1105_37188"/>
      <feColorMatrix in="SourceAlpha" result="hardAlpha" values="0 0 0 0 0 0 0 0 0 0 0 0 0 0 0 0 0 0 127 0"/>
      <feMorphology in="SourceAlpha" radius=".3" result="effect2_dropShadow_1105_37188"/>
      <feOffset dy="1.4"/>
      <feGaussianBlur stdDeviation="1"/>
      <feColorMatrix values="0 0 0 0 0 0 0 0 0 0 0 0 0 0 0 0 0 0 0.1 0"/>
      <feBlend in2="effect1_dropShadow_1105_37188" result="effect2_dropShadow_1105_37188"/>
      <feBlend in="SourceGraphic" in2="effect2_dropShadow_1105_37188" result="shape"/>
    </filter>
    <filter id="j" width="36.1" height="36.1" x="81.8" y="64.2" color-interpolation-filters="sRGB" filterUnits="userSpaceOnUse">
      <feFlood flood-opacity="0" result="BackgroundImageFix"/>
      <feColorMatrix in="SourceAlpha" result="hardAlpha" values="0 0 0 0 0 0 0 0 0 0 0 0 0 0 0 0 0 0 127 0"/>
      <feOffset/>
      <feGaussianBlur stdDeviation="6.7"/>
      <feComposite in2="hardAlpha" operator="out"/>
      <feColorMatrix values="0 0 0 0 1 0 0 0 0 1 0 0 0 0 1 0 0 0 0.2 0"/>
      <feBlend in2="BackgroundImageFix" result="effect1_dropShadow_1105_37188"/>
      <feBlend in="SourceGraphic" in2="effect1_dropShadow_1105_37188" result="shape"/>
    </filter>
    <filter id="k" width="11.6" height="11.6" x="94.1" y="77.8" color-interpolation-filters="sRGB" filterUnits="userSpaceOnUse">
      <feFlood flood-opacity="0" result="BackgroundImageFix"/>
      <feColorMatrix in="SourceAlpha" result="hardAlpha" values="0 0 0 0 0 0 0 0 0 0 0 0 0 0 0 0 0 0 127 0"/>
      <feMorphology in="SourceAlpha" radius=".3" result="effect1_dropShadow_1105_37188"/>
      <feOffset dy=".7"/>
      <feGaussianBlur stdDeviation=".7"/>
      <feColorMatrix values="0 0 0 0 0 0 0 0 0 0 0 0 0 0 0 0 0 0 0.06 0"/>
      <feBlend in2="BackgroundImageFix" result="effect1_dropShadow_1105_37188"/>
      <feColorMatrix in="SourceAlpha" result="hardAlpha" values="0 0 0 0 0 0 0 0 0 0 0 0 0 0 0 0 0 0 127 0"/>
      <feMorphology in="SourceAlpha" radius=".3" result="effect2_dropShadow_1105_37188"/>
      <feOffset dy="1.4"/>
      <feGaussianBlur stdDeviation="1"/>
      <feColorMatrix values="0 0 0 0 0 0 0 0 0 0 0 0 0 0 0 0 0 0 0.1 0"/>
      <feBlend in2="effect1_dropShadow_1105_37188" result="effect2_dropShadow_1105_37188"/>
      <feBlend in="SourceGraphic" in2="effect2_dropShadow_1105_37188" result="shape"/>
    </filter>
    <filter id="l" width="8.3" height="8.3" x="95.7" y="79.4" color-interpolation-filters="sRGB" filterUnits="userSpaceOnUse">
      <feFlood flood-opacity="0" result="BackgroundImageFix"/>
      <feColorMatrix in="SourceAlpha" result="hardAlpha" values="0 0 0 0 0 0 0 0 0 0 0 0 0 0 0 0 0 0 127 0"/>
      <feMorphology in="SourceAlpha" radius=".3" result="effect1_dropShadow_1105_37188"/>
      <feOffset dy=".7"/>
      <feGaussianBlur stdDeviation=".7"/>
      <feColorMatrix values="0 0 0 0 0 0 0 0 0 0 0 0 0 0 0 0 0 0 0.06 0"/>
      <feBlend in2="BackgroundImageFix" result="effect1_dropShadow_1105_37188"/>
      <feColorMatrix in="SourceAlpha" result="hardAlpha" values="0 0 0 0 0 0 0 0 0 0 0 0 0 0 0 0 0 0 127 0"/>
      <feMorphology in="SourceAlpha" radius=".3" result="effect2_dropShadow_1105_37188"/>
      <feOffset dy="1.4"/>
      <feGaussianBlur stdDeviation="1"/>
      <feColorMatrix values="0 0 0 0 0 0 0 0 0 0 0 0 0 0 0 0 0 0 0.1 0"/>
      <feBlend in2="effect1_dropShadow_1105_37188" result="effect2_dropShadow_1105_37188"/>
      <feBlend in="SourceGraphic" in2="effect2_dropShadow_1105_37188" result="shape"/>
    </filter>
    <filter id="m" width="36.1" height="36.1" x="106.5" y="106.4" color-interpolation-filters="sRGB" filterUnits="userSpaceOnUse">
      <feFlood flood-opacity="0" result="BackgroundImageFix"/>
      <feColorMatrix in="SourceAlpha" result="hardAlpha" values="0 0 0 0 0 0 0 0 0 0 0 0 0 0 0 0 0 0 127 0"/>
      <feOffset/>
      <feGaussianBlur stdDeviation="6.7"/>
      <feComposite in2="hardAlpha" operator="out"/>
      <feColorMatrix values="0 0 0 0 1 0 0 0 0 1 0 0 0 0 1 0 0 0 0.2 0"/>
      <feBlend in2="BackgroundImageFix" result="effect1_dropShadow_1105_37188"/>
      <feBlend in="SourceGraphic" in2="effect1_dropShadow_1105_37188" result="shape"/>
    </filter>
    <filter id="n" width="36.1" height="36.1" x="177.3" y="111" color-interpolation-filters="sRGB" filterUnits="userSpaceOnUse">
      <feFlood flood-opacity="0" result="BackgroundImageFix"/>
      <feColorMatrix in="SourceAlpha" result="hardAlpha" values="0 0 0 0 0 0 0 0 0 0 0 0 0 0 0 0 0 0 127 0"/>
      <feOffset/>
      <feGaussianBlur stdDeviation="6.7"/>
      <feComposite in2="hardAlpha" operator="out"/>
      <feColorMatrix values="0 0 0 0 1 0 0 0 0 1 0 0 0 0 1 0 0 0 0.2 0"/>
      <feBlend in2="BackgroundImageFix" result="effect1_dropShadow_1105_37188"/>
      <feBlend in="SourceGraphic" in2="effect1_dropShadow_1105_37188" result="shape"/>
    </filter>
    <filter id="o" width="36.1" height="36.1" x="211.8" y="15.6" color-interpolation-filters="sRGB" filterUnits="userSpaceOnUse">
      <feFlood flood-opacity="0" result="BackgroundImageFix"/>
      <feColorMatrix in="SourceAlpha" result="hardAlpha" values="0 0 0 0 0 0 0 0 0 0 0 0 0 0 0 0 0 0 127 0"/>
      <feOffset/>
      <feGaussianBlur stdDeviation="6.7"/>
      <feComposite in2="hardAlpha" operator="out"/>
      <feColorMatrix values="0 0 0 0 1 0 0 0 0 1 0 0 0 0 1 0 0 0 0.2 0"/>
      <feBlend in2="BackgroundImageFix" result="effect1_dropShadow_1105_37188"/>
      <feBlend in="SourceGraphic" in2="effect1_dropShadow_1105_37188" result="shape"/>
    </filter>
    <filter id="p" width="11.6" height="11.6" x="224" y="29.2" color-interpolation-filters="sRGB" filterUnits="userSpaceOnUse">
      <feFlood flood-opacity="0" result="BackgroundImageFix"/>
      <feColorMatrix in="SourceAlpha" result="hardAlpha" values="0 0 0 0 0 0 0 0 0 0 0 0 0 0 0 0 0 0 127 0"/>
      <feMorphology in="SourceAlpha" radius=".3" result="effect1_dropShadow_1105_37188"/>
      <feOffset dy=".7"/>
      <feGaussianBlur stdDeviation=".7"/>
      <feColorMatrix values="0 0 0 0 0 0 0 0 0 0 0 0 0 0 0 0 0 0 0.06 0"/>
      <feBlend in2="BackgroundImageFix" result="effect1_dropShadow_1105_37188"/>
      <feColorMatrix in="SourceAlpha" result="hardAlpha" values="0 0 0 0 0 0 0 0 0 0 0 0 0 0 0 0 0 0 127 0"/>
      <feMorphology in="SourceAlpha" radius=".3" result="effect2_dropShadow_1105_37188"/>
      <feOffset dy="1.4"/>
      <feGaussianBlur stdDeviation="1"/>
      <feColorMatrix values="0 0 0 0 0 0 0 0 0 0 0 0 0 0 0 0 0 0 0.1 0"/>
      <feBlend in2="effect1_dropShadow_1105_37188" result="effect2_dropShadow_1105_37188"/>
      <feBlend in="SourceGraphic" in2="effect2_dropShadow_1105_37188" result="shape"/>
    </filter>
    <filter id="q" width="8.3" height="8.3" x="225.6" y="30.9" color-interpolation-filters="sRGB" filterUnits="userSpaceOnUse">
      <feFlood flood-opacity="0" result="BackgroundImageFix"/>
      <feColorMatrix in="SourceAlpha" result="hardAlpha" values="0 0 0 0 0 0 0 0 0 0 0 0 0 0 0 0 0 0 127 0"/>
      <feMorphology in="SourceAlpha" radius=".3" result="effect1_dropShadow_1105_37188"/>
      <feOffset dy=".7"/>
      <feGaussianBlur stdDeviation=".7"/>
      <feColorMatrix values="0 0 0 0 0 0 0 0 0 0 0 0 0 0 0 0 0 0 0.06 0"/>
      <feBlend in2="BackgroundImageFix" result="effect1_dropShadow_1105_37188"/>
      <feColorMatrix in="SourceAlpha" result="hardAlpha" values="0 0 0 0 0 0 0 0 0 0 0 0 0 0 0 0 0 0 127 0"/>
      <feMorphology in="SourceAlpha" radius=".3" result="effect2_dropShadow_1105_37188"/>
      <feOffset dy="1.4"/>
      <feGaussianBlur stdDeviation="1"/>
      <feColorMatrix values="0 0 0 0 0 0 0 0 0 0 0 0 0 0 0 0 0 0 0.1 0"/>
      <feBlend in2="effect1_dropShadow_1105_37188" result="effect2_dropShadow_1105_37188"/>
      <feBlend in="SourceGraphic" in2="effect2_dropShadow_1105_37188" result="shape"/>
    </filter>
    <filter id="r" width="36.1" height="36.1" x="242" y="32.2" color-interpolation-filters="sRGB" filterUnits="userSpaceOnUse">
      <feFlood flood-opacity="0" result="BackgroundImageFix"/>
      <feColorMatrix in="SourceAlpha" result="hardAlpha" values="0 0 0 0 0 0 0 0 0 0 0 0 0 0 0 0 0 0 127 0"/>
      <feOffset/>
      <feGaussianBlur stdDeviation="6.7"/>
      <feComposite in2="hardAlpha" operator="out"/>
      <feColorMatrix values="0 0 0 0 1 0 0 0 0 1 0 0 0 0 1 0 0 0 0.2 0"/>
      <feBlend in2="BackgroundImageFix" result="effect1_dropShadow_1105_37188"/>
      <feBlend in="SourceGraphic" in2="effect1_dropShadow_1105_37188" result="shape"/>
    </filter>
    <filter id="s" width="11.6" height="11.6" x="254.2" y="45.8" color-interpolation-filters="sRGB" filterUnits="userSpaceOnUse">
      <feFlood flood-opacity="0" result="BackgroundImageFix"/>
      <feColorMatrix in="SourceAlpha" result="hardAlpha" values="0 0 0 0 0 0 0 0 0 0 0 0 0 0 0 0 0 0 127 0"/>
      <feMorphology in="SourceAlpha" radius=".3" result="effect1_dropShadow_1105_37188"/>
      <feOffset dy=".7"/>
      <feGaussianBlur stdDeviation=".7"/>
      <feColorMatrix values="0 0 0 0 0 0 0 0 0 0 0 0 0 0 0 0 0 0 0.06 0"/>
      <feBlend in2="BackgroundImageFix" result="effect1_dropShadow_1105_37188"/>
      <feColorMatrix in="SourceAlpha" result="hardAlpha" values="0 0 0 0 0 0 0 0 0 0 0 0 0 0 0 0 0 0 127 0"/>
      <feMorphology in="SourceAlpha" radius=".3" result="effect2_dropShadow_1105_37188"/>
      <feOffset dy="1.4"/>
      <feGaussianBlur stdDeviation="1"/>
      <feColorMatrix values="0 0 0 0 0 0 0 0 0 0 0 0 0 0 0 0 0 0 0.1 0"/>
      <feBlend in2="effect1_dropShadow_1105_37188" result="effect2_dropShadow_1105_37188"/>
      <feBlend in="SourceGraphic" in2="effect2_dropShadow_1105_37188" result="shape"/>
    </filter>
    <filter id="t" width="8.3" height="8.3" x="255.8" y="47.4" color-interpolation-filters="sRGB" filterUnits="userSpaceOnUse">
      <feFlood flood-opacity="0" result="BackgroundImageFix"/>
      <feColorMatrix in="SourceAlpha" result="hardAlpha" values="0 0 0 0 0 0 0 0 0 0 0 0 0 0 0 0 0 0 127 0"/>
      <feMorphology in="SourceAlpha" radius=".3" result="effect1_dropShadow_1105_37188"/>
      <feOffset dy=".7"/>
      <feGaussianBlur stdDeviation=".7"/>
      <feColorMatrix values="0 0 0 0 0 0 0 0 0 0 0 0 0 0 0 0 0 0 0.06 0"/>
      <feBlend in2="BackgroundImageFix" result="effect1_dropShadow_1105_37188"/>
      <feColorMatrix in="SourceAlpha" result="hardAlpha" values="0 0 0 0 0 0 0 0 0 0 0 0 0 0 0 0 0 0 127 0"/>
      <feMorphology in="SourceAlpha" radius=".3" result="effect2_dropShadow_1105_37188"/>
      <feOffset dy="1.4"/>
      <feGaussianBlur stdDeviation="1"/>
      <feColorMatrix values="0 0 0 0 0 0 0 0 0 0 0 0 0 0 0 0 0 0 0.1 0"/>
      <feBlend in2="effect1_dropShadow_1105_37188" result="effect2_dropShadow_1105_37188"/>
      <feBlend in="SourceGraphic" in2="effect2_dropShadow_1105_37188" result="shape"/>
    </filter>
    <clipPath id="a">
      <path fill="#fff" d="M0 0h270.3v116H0z"/>
    </clipPath>
    <pattern id="c" width="1" height="1" patternContentUnits="objectBoundingBox">
      <use xlink:href="#u" transform="scale(0)"/>
    </pattern>
  </defs>
</svg>
