<svg width="463" height="253" fill="none" xmlns="http://www.w3.org/2000/svg"><g filter="url(#a)"><rect x="263.749" y="103.377" width="96.097" height="80.721" rx="22.522" fill="#FBDFEC"/><g clip-path="url(#b)" filter="url(#c)"><g clip-path="url(#d)"><rect x="281.137" y="113.076" width="61.321" height="61.321" rx="15.33" fill="#fff"/><g clip-path="url(#e)"><path fill="#EF95C2" d="M281.137 113.076h61.321v61.321h-61.321z"/><g filter="url(#f)"><path d="m268.362 177.589 86.871-48.546v48.546h-86.871Z" fill="url(#g)"/></g><g filter="url(#h)"><path d="m355.234 178.866-85.595-49.823v49.823h85.595Z" fill="url(#i)" shape-rendering="crispEdges"/></g><g filter="url(#j)" shape-rendering="crispEdges"><path d="m311.798 145.652-30.661-18.697v-25.377c0-.353.286-.639.639-.639h57.976a2.554 2.554 0 0 1 2.555 2.52l.151 10.894-.186 12.602-30.474 18.697Z" fill="url(#k)"/><path d="M281.776 101.099h57.976a2.395 2.395 0 0 1 2.395 2.362l.152 10.892-.185 12.512-30.316 18.6-30.501-18.599v-25.288c0-.265.214-.479.479-.479Z" stroke="#fff" stroke-opacity=".3" stroke-width=".319"/></g></g></g></g><rect x="264.031" y="103.658" width="95.534" height="80.158" rx="22.24" stroke="url(#l)" stroke-width=".563"/></g><g filter="url(#m)"><rect x="103" y="103.588" width="90.434" height="80.375" rx="22.522" fill="url(#n)" fill-opacity=".6"/><g clip-path="url(#o)"><path d="M124.175 164.653h8.858v-21.511l-12.654-9.49v27.205a3.795 3.795 0 0 0 3.796 3.796Z" fill="#4285F4"/><path d="M163.401 164.653h8.858c2.1 0 3.796-1.702 3.796-3.796v-27.205l-12.654 9.49" fill="#34A853"/><path d="M163.401 126.694v16.449l12.654-9.49v-5.061c0-4.695-5.359-7.371-9.111-4.556" fill="#FBBC04"/><path d="M133.033 143.141v-16.45l15.184 11.389 15.184-11.389v16.45l-15.184 11.388" fill="#EA4335"/><path d="M120.379 128.592v5.061l12.654 9.49v-16.449l-3.543-2.658c-3.758-2.815-9.111-.139-9.111 4.556" fill="#C5221F"/></g><rect x="103.282" y="103.869" width="89.871" height="79.812" rx="22.24" stroke="url(#p)" stroke-width=".563"/></g><path d="m234.455 70.38-.222-1.138.222 1.138Zm56.051 13.643-5.555-12.188-7.777 10.905 13.332 1.283Zm-130.258 21.069c17.101-6.646 26.916-13.373 36.809-19.23 9.856-5.837 19.894-10.883 37.62-14.344l-.444-2.276c-18.052 3.524-28.339 8.69-38.358 14.623-9.981 5.91-19.591 12.506-36.467 19.065l.84 2.162Zm74.429-33.574c21.425-4.182 37.635 2.148 46.748 7.447l1.166-2.006c-9.452-5.495-26.235-12.037-48.358-7.717l.444 2.276Z" fill="url(#q)"/><defs><linearGradient id="g" x1="311.392" y1="146.439" x2="311.795" y2="177.589" gradientUnits="userSpaceOnUse"><stop stop-color="#fff" stop-opacity=".6"/><stop offset="1" stop-color="#fff" stop-opacity="0"/></linearGradient><linearGradient id="i" x1="312.436" y1="129.043" x2="312.436" y2="178.866" gradientUnits="userSpaceOnUse"><stop stop-color="#fff" stop-opacity=".6"/><stop offset=".922" stop-color="#fff" stop-opacity=".4"/></linearGradient><linearGradient id="k" x1="311.298" y1="114.164" x2="311.298" y2="145.652" gradientUnits="userSpaceOnUse"><stop stop-color="#fff" stop-opacity=".4"/><stop offset="1" stop-color="#fff" stop-opacity=".2"/></linearGradient><linearGradient id="l" x1="289.566" y1="99.618" x2="374.534" y2="132.938" gradientUnits="userSpaceOnUse"><stop stop-color="#fff" stop-opacity=".4"/><stop offset="1" stop-color="#F4B0FF" stop-opacity=".76"/></linearGradient><linearGradient id="n" x1="114.884" y1="94.167" x2="173.79" y2="148.765" gradientUnits="userSpaceOnUse"><stop stop-color="#DED9D9" stop-opacity=".13"/><stop offset="1" stop-color="#D6D4D4" stop-opacity=".71"/></linearGradient><linearGradient id="p" x1="127.296" y1="99.845" x2="208.411" y2="129.908" gradientUnits="userSpaceOnUse"><stop stop-color="#D6D6D6" stop-opacity=".4"/><stop offset="1" stop-color="#C1CBCF" stop-opacity=".76"/></linearGradient><linearGradient id="q" x1="169.451" y1="138.699" x2="288.427" y2="129.286" gradientUnits="userSpaceOnUse"><stop offset=".109" stop-color="#A4A4A4" stop-opacity="0"/><stop offset="1" stop-color="#A4A4A4"/></linearGradient><filter id="a" x="200.688" y="40.316" width="222.22" height="206.844" filterUnits="userSpaceOnUse" color-interpolation-filters="sRGB"><feFlood flood-opacity="0" result="BackgroundImageFix"/><feGaussianBlur in="BackgroundImageFix" stdDeviation="31.531"/><feComposite in2="SourceAlpha" operator="in" result="effect1_backgroundBlur_1468_96811"/><feBlend in="SourceGraphic" in2="effect1_backgroundBlur_1468_96811" result="shape"/></filter><filter id="c" x="271.737" y="107.704" width="80.122" height="80.121" filterUnits="userSpaceOnUse" color-interpolation-filters="sRGB"><feFlood flood-opacity="0" result="BackgroundImageFix"/><feColorMatrix in="SourceAlpha" values="0 0 0 0 0 0 0 0 0 0 0 0 0 0 0 0 0 0 127 0" result="hardAlpha"/><feOffset dy="1.343"/><feGaussianBlur stdDeviation=".671"/><feColorMatrix values="0 0 0 0 0 0 0 0 0 0 0 0 0 0 0 0 0 0 0.17 0"/><feBlend in2="BackgroundImageFix" result="effect1_dropShadow_1468_96811"/><feColorMatrix in="SourceAlpha" values="0 0 0 0 0 0 0 0 0 0 0 0 0 0 0 0 0 0 127 0" result="hardAlpha"/><feOffset dy="4.029"/><feGaussianBlur stdDeviation="4.7"/><feColorMatrix values="0 0 0 0 0 0 0 0 0 0 0 0 0 0 0 0 0 0 0.1 0"/><feBlend in2="effect1_dropShadow_1468_96811" result="effect2_dropShadow_1468_96811"/><feBlend in="SourceGraphic" in2="effect2_dropShadow_1468_96811" result="shape"/></filter><filter id="f" x="250.706" y="111.387" width="122.184" height="83.857" filterUnits="userSpaceOnUse" color-interpolation-filters="sRGB"><feFlood flood-opacity="0" result="BackgroundImageFix"/><feGaussianBlur in="BackgroundImageFix" stdDeviation="8.828"/><feComposite in2="SourceAlpha" operator="in" result="effect1_backgroundBlur_1468_96811"/><feBlend in="SourceGraphic" in2="effect1_backgroundBlur_1468_96811" result="shape"/></filter><filter id="h" x="265.627" y="124.572" width="100.466" height="58.767" filterUnits="userSpaceOnUse" color-interpolation-filters="sRGB"><feFlood flood-opacity="0" result="BackgroundImageFix"/><feGaussianBlur in="BackgroundImageFix" stdDeviation="2.006"/><feComposite in2="SourceAlpha" operator="in" result="effect1_backgroundBlur_1468_96811"/><feColorMatrix in="SourceAlpha" values="0 0 0 0 0 0 0 0 0 0 0 0 0 0 0 0 0 0 127 0" result="hardAlpha"/><feOffset dx="6.388"/><feGaussianBlur stdDeviation="2.236"/><feComposite in2="hardAlpha" operator="out"/><feColorMatrix values="0 0 0 0 0 0 0 0 0 0 0 0 0 0 0 0 0 0 0.05 0"/><feBlend in2="effect1_backgroundBlur_1468_96811" result="effect2_dropShadow_1468_96811"/><feBlend in="SourceGraphic" in2="effect2_dropShadow_1468_96811" result="shape"/><feColorMatrix in="SourceAlpha" values="0 0 0 0 0 0 0 0 0 0 0 0 0 0 0 0 0 0 127 0" result="hardAlpha"/><feOffset dy=".639"/><feGaussianBlur stdDeviation=".639"/><feComposite in2="hardAlpha" operator="arithmetic" k2="-1" k3="1"/><feColorMatrix values="0 0 0 0 1 0 0 0 0 1 0 0 0 0 1 0 0 0 0.25 0"/><feBlend in2="shape" result="effect3_innerShadow_1468_96811"/></filter><filter id="j" x="274.75" y="94.552" width="74.096" height="57.488" filterUnits="userSpaceOnUse" color-interpolation-filters="sRGB"><feFlood flood-opacity="0" result="BackgroundImageFix"/><feGaussianBlur in="BackgroundImageFix" stdDeviation="3.194"/><feComposite in2="SourceAlpha" operator="in" result="effect1_backgroundBlur_1468_96811"/><feColorMatrix in="SourceAlpha" values="0 0 0 0 0 0 0 0 0 0 0 0 0 0 0 0 0 0 127 0" result="hardAlpha"/><feOffset dy="1.916"/><feGaussianBlur stdDeviation="1.278"/><feComposite in2="hardAlpha" operator="out"/><feColorMatrix values="0 0 0 0 0 0 0 0 0 0 0 0 0 0 0 0 0 0 0.25 0"/><feBlend in2="effect1_backgroundBlur_1468_96811" result="effect2_dropShadow_1468_96811"/><feBlend in="SourceGraphic" in2="effect2_dropShadow_1468_96811" result="shape"/><feColorMatrix in="SourceAlpha" values="0 0 0 0 0 0 0 0 0 0 0 0 0 0 0 0 0 0 127 0" result="hardAlpha"/><feOffset dy="-.639"/><feGaussianBlur stdDeviation=".307"/><feComposite in2="hardAlpha" operator="arithmetic" k2="-1" k3="1"/><feColorMatrix values="0 0 0 0 1 0 0 0 0 1 0 0 0 0 1 0 0 0 0.25 0"/><feBlend in2="shape" result="effect3_innerShadow_1468_96811"/></filter><filter id="m" x="39.938" y="40.526" width="216.557" height="206.498" filterUnits="userSpaceOnUse" color-interpolation-filters="sRGB"><feFlood flood-opacity="0" result="BackgroundImageFix"/><feGaussianBlur in="BackgroundImageFix" stdDeviation="31.531"/><feComposite in2="SourceAlpha" operator="in" result="effect1_backgroundBlur_1468_96811"/><feBlend in="SourceGraphic" in2="effect1_backgroundBlur_1468_96811" result="shape"/></filter><clipPath id="b"><path fill="#fff" transform="translate(281.137 113.076)" d="M0 0h61.321v61.321H0z"/></clipPath><clipPath id="d"><rect x="281.137" y="113.076" width="61.321" height="61.321" rx="15.33" fill="#fff"/></clipPath><clipPath id="e"><path fill="#fff" transform="translate(281.137 113.076)" d="M0 0h61.321v61.321H0z"/></clipPath><clipPath id="o"><path fill="#fff" transform="translate(120.379 122.896)" d="M0 0h55.675v41.756H0z"/></clipPath></defs></svg>