<svg width="292" height="149" fill="none" xmlns="http://www.w3.org/2000/svg"><g clip-path="url(#a)"><g clip-path="url(#b)"><g clip-path="url(#c)"><path fill="#fff" d="M134.762 12h447.524v387.048H134.762z"/><path fill="#000" fill-opacity=".02" d="M134.762 12h447.524v387.048H134.762z"/><g clip-path="url(#d)"><rect x="152.905" y="64.917" width="139.095" height="84.667" rx="4.536" fill="#fff"/><rect x="152.905" y="64.917" width="139.095" height="84.667" rx="4.536" fill="#000" fill-opacity=".04"/><path fill="#fff" d="M152.905 64.917H292v29.655H152.905z"/><path fill="#000" fill-opacity=".02" d="M152.905 64.917H292v29.655H152.905z"/><path opacity=".1" d="M161.523 71.824v6.425h-2.571v-6.425h2.571Zm2.407 0v6.425h-2.571v-6.425h2.571Zm2.407 0v6.425h-2.571v-6.425h2.571Zm2.407 0v6.425h-2.571v-6.425h2.571Zm2.407 0v6.425h-2.57v-6.425h2.57Zm2.407 0v6.425h-2.57v-6.425h2.57Zm2.407 0v6.425h-2.57v-6.425h2.57Zm2.404 0v6.425h-2.57v-6.425h2.57Zm2.407 0v6.425h-2.57v-6.425h2.57Zm2.407 0v6.425h-2.57v-6.425h2.57Zm2.407 0v6.425h-2.57v-6.425h2.57Zm2.407 0v6.425h-2.57v-6.425h2.57Z" fill="#000"/><path opacity=".1" d="M160.918 82.545v4.914h-1.966v-4.914h1.966Zm1.842 0v4.914h-1.965v-4.914h1.965Zm1.843 0v4.914h-1.965v-4.914h1.965Zm1.843 0v4.914h-1.966v-4.914h1.966Zm1.842 0v4.914h-1.965v-4.914h1.965Zm1.843 0v4.914h-1.965v-4.914h1.965Zm1.843 0v4.914h-1.966v-4.914h1.966Zm1.842 0v4.914h-1.965v-4.914h1.965Zm1.843 0v4.914h-1.966v-4.914h1.966Zm1.843 0v4.914h-1.966v-4.914h1.966Zm1.842 0v4.914h-1.965v-4.914h1.965Zm1.843 0v4.914h-1.966v-4.914h1.966Zm1.842 0v4.914h-1.965v-4.914h1.965Zm1.843 0v4.914h-1.965v-4.914h1.965Zm1.843 0v4.914h-1.966v-4.914h1.966Zm1.842 0v4.914h-1.965v-4.914h1.965Zm1.843 0v4.914h-1.966v-4.914h1.966Zm1.843 0v4.914h-1.966v-4.914h1.966Zm1.842 0v4.914h-1.965v-4.914h1.965Zm1.843 0v4.914h-1.966v-4.914h1.966Zm1.842 0v4.914h-1.965v-4.914h1.965Zm1.843 0v4.914h-1.965v-4.914h1.965Zm1.843 0v4.914h-1.966v-4.914h1.966Zm1.842 0v4.914h-1.965v-4.914h1.965Zm1.843 0v4.914h-1.965v-4.914h1.965Zm1.843 0v4.914h-1.966v-4.914h1.966Zm1.842 0v4.914h-1.965v-4.914h1.965Zm1.843 0v4.914h-1.966v-4.914h1.966Zm1.843 0v4.914h-1.966v-4.914h1.966Zm1.842 0v4.914h-1.965v-4.914h1.965Zm1.843 0v4.914h-1.966v-4.914h1.966Zm1.842 0v4.914h-1.965v-4.914h1.965Zm1.843 0v4.914h-1.965v-4.914h1.965Zm1.843 0v4.914h-1.966v-4.914h1.966Zm1.842 0v4.914h-1.965v-4.914h1.965Zm1.843 0v4.914h-1.965v-4.914h1.965Zm1.843 0v4.914h-1.966v-4.914h1.966Zm1.842 0v4.914h-1.965v-4.914h1.965Zm1.843 0v4.914h-1.966v-4.914h1.966Zm1.843 0v4.914h-1.966v-4.914h1.966Zm1.842 0v4.914h-1.965v-4.914h1.965Zm1.843 0v4.914H234.5v-4.914h1.966Zm1.842 0v4.914h-1.965v-4.914h1.965Zm1.843 0v4.914h-1.965v-4.914h1.965Zm1.843 0v4.914h-1.966v-4.914h1.966Zm1.842 0v4.914h-1.965v-4.914h1.965Zm1.843 0v4.914h-1.965v-4.914h1.965Zm1.843 0v4.914h-1.966v-4.914h1.966Zm1.842 0v4.914h-1.965v-4.914h1.965Zm1.843 0v4.914h-1.966v-4.914h1.966Zm1.843 0v4.914h-1.966v-4.914h1.966Zm1.842 0v4.914h-1.965v-4.914h1.965Z" fill="#000" fill-opacity=".57"/></g><rect x="153.094" y="65.106" width="138.717" height="84.289" rx="4.347" stroke="#000" stroke-opacity=".08" stroke-width=".378"/><path opacity=".1" d="M156.231 46.61v8.315h-3.326v-8.316h3.326Zm3.2 0v8.315h-3.326v-8.316h3.326Zm3.2 0v8.315h-3.327v-8.316h3.327Zm3.199 0v8.315h-3.326v-8.316h3.326Zm3.2 0v8.315h-3.326v-8.316h3.326Zm3.2 0v8.315h-3.326v-8.316h3.326Zm3.2 0v8.315h-3.327v-8.316h3.327Zm3.199 0v8.315h-3.326v-8.316h3.326Zm3.282 0v8.315h-3.326v-8.316h3.326Zm3.2 0v8.315h-3.327v-8.316h3.327Zm3.199 0v8.315h-3.326v-8.316h3.326Zm3.2 0v8.315h-3.326v-8.316h3.326Zm3.2 0v8.315h-3.326v-8.316h3.326Zm3.2 0v8.315h-3.326v-8.316h3.326Z" fill="#000"/><g filter="url(#e)"><mask id="g" style="mask-type:alpha" maskUnits="userSpaceOnUse" x="149" y="18" width="422" height="10"><path fill="url(#f)" d="M149.881 18.048h420.31v9.071h-420.31z"/></mask><g mask="url(#g)"><path opacity=".1" d="M152.905 19.268v5.67h-2.268v-5.67h2.268Zm2.124 0v5.67h-2.268v-5.67h2.268Zm2.123 0v5.67h-2.267v-5.67h2.267Zm2.124 0v5.67h-2.268v-5.67h2.268Z" fill="#000" fill-opacity=".57"/><path fill-rule="evenodd" clip-rule="evenodd" d="m163.765 20.69 2.113 2.113-2.113 2.113-.445-.445 1.667-1.668-1.667-1.667.445-.445Z" fill="#000" fill-opacity=".34"/><path opacity=".1" d="M170.976 19.268v5.67h-2.268v-5.67h2.268Zm2.124 0v5.67h-2.268v-5.67h2.268Zm2.124 0v5.67h-2.268v-5.67h2.268Zm2.124 0v5.67h-2.268v-5.67h2.268Zm2.124 0v5.67h-2.268v-5.67h2.268Zm2.121 0v5.67h-2.268v-5.67h2.268Zm2.124 0v5.67h-2.268v-5.67h2.268Zm2.124 0v5.67h-2.268v-5.67h2.268Zm2.124 0v5.67h-2.268v-5.67h2.268Z" fill="#000" fill-opacity=".57"/><path fill-rule="evenodd" clip-rule="evenodd" d="m192.837 20.69 2.112 2.113-2.112 2.113-.446-.445 1.667-1.668-1.667-1.667.446-.445Z" fill="#000" fill-opacity=".34"/><path opacity=".1" d="M200.048 19.268v5.67h-2.268v-5.67h2.268Zm2.123 0v5.67h-2.267v-5.67h2.267Zm2.124 0v5.67h-2.268v-5.67h2.268Zm2.124 0v5.67h-2.268v-5.67h2.268Zm2.124 0v5.67h-2.268v-5.67h2.268Z" fill="#000" fill-opacity=".57"/><path fill-rule="evenodd" clip-rule="evenodd" d="m212.908 20.69 2.113 2.113-2.113 2.113-.445-.445 1.667-1.668-1.667-1.667.445-.445Z" fill="#000" fill-opacity=".34"/><rect opacity=".1" x="217.095" y="20.158" width="5.292" height="5.292" rx=".756" fill="#D9D9D9"/><path opacity=".1" d="M226.923 19.268v5.67h-2.268v-5.67h2.268Zm2.123 0v5.67h-2.267v-5.67h2.267Zm2.124 0v5.67h-2.268v-5.67h2.268Zm2.124 0v5.67h-2.268v-5.67h2.268Zm2.124 0v5.67h-2.268v-5.67h2.268Zm2.124 0v5.67h-2.268v-5.67h2.268Zm2.124 0v5.67h-2.268v-5.67h2.268Zm2.124 0v5.67h-2.268v-5.67h2.268Z" fill="#000"/><rect opacity=".1" x="248.458" y="20.158" width="5.292" height="5.292" rx=".756" fill="#D9D9D9"/></g></g></g><path fill="#fff" d="M38 12h96.762v151.568H38z"/><path fill="#000" fill-opacity=".04" d="M38 12h96.762v151.568H38z"/><path opacity=".2" d="M46.013 80.385v4.913h-1.965v-4.913h1.965Zm1.843 0v4.913H45.89v-4.913h1.966Zm1.842 0v4.913h-1.965v-4.913h1.965Zm1.843 0v4.913h-1.965v-4.913h1.965Zm1.843 0v4.913h-1.966v-4.913h1.966Z" fill="#000" fill-opacity=".57"/><rect x="45.559" y="92.485" width="5.292" height="5.292" rx=".756" fill="#D9D9D9" fill-opacity=".1"/><path opacity=".1" d="M56.143 91.816v5.67h-2.268v-5.67h2.268Zm2.124 0v5.67h-2.268v-5.67h2.268Zm2.124 0v5.67h-2.268v-5.67h2.268Zm2.123 0v5.67h-2.268v-5.67h2.268Zm2.124 0v5.67H62.37v-5.67h2.268Zm2.124 0v5.67h-2.268v-5.67h2.268Zm2.124 0v5.67h-2.268v-5.67h2.268Zm2.124 0v5.67h-2.268v-5.67h2.268Z" fill="#000" fill-opacity=".57"/><rect x="51.607" y="106.045" width="5.292" height="5.292" rx=".756" fill="#D9D9D9" fill-opacity=".1"/><path opacity=".1" d="M62.19 105.375v5.67h-2.267v-5.67h2.267Zm2.124 0v5.67h-2.267v-5.67h2.267Zm2.124 0v5.67H64.17v-5.67h2.268Zm2.124 0v5.67h-2.268v-5.67h2.268Zm2.124 0v5.67h-2.268v-5.67h2.268Zm2.124 0v5.67h-2.268v-5.67h2.268Zm2.124 0v5.67h-2.268v-5.67h2.268Zm2.121 0v5.67h-2.268v-5.67h2.268Zm2.124 0v5.67h-2.268v-5.67h2.268Zm2.124 0v5.67h-2.268v-5.67h2.268Zm2.124 0v5.67h-2.268v-5.67h2.268Zm2.123 0v5.67h-2.267v-5.67h2.267Zm2.124 0v5.67h-2.268v-5.67h2.268Zm2.124 0v5.67H87.53v-5.67h2.268Zm2.122 0v5.67h-2.268v-5.67h2.268Zm2.124 0v5.67h-2.268v-5.67h2.268Zm2.124 0v5.67H93.9v-5.67h2.267Zm2.123 0v5.67h-2.267v-5.67h2.267Zm2.122 0v5.67h-2.268v-5.67h2.268Zm2.124 0v5.67h-2.268v-5.67h2.268Zm2.124 0v5.67h-2.268v-5.67h2.268Zm2.123 0v5.67h-2.267v-5.67h2.267Zm2.124 0v5.67h-2.268v-5.67h2.268Z" fill="#000" fill-opacity=".57"/><rect x="51.607" y="119.604" width="5.292" height="5.292" rx=".756" fill="#D9D9D9" fill-opacity=".1"/><path opacity=".1" d="M62.19 118.935v5.669h-2.267v-5.669h2.267Zm2.124 0v5.669h-2.267v-5.669h2.267Zm2.124 0v5.669H64.17v-5.669h2.268Zm2.124 0v5.669h-2.268v-5.669h2.268Zm2.124 0v5.669h-2.268v-5.669h2.268Zm2.124 0v5.669h-2.268v-5.669h2.268Zm2.124 0v5.669h-2.268v-5.669h2.268Zm2.121 0v5.669h-2.268v-5.669h2.268Zm2.124 0v5.669h-2.268v-5.669h2.268Zm2.124 0v5.669h-2.268v-5.669h2.268Zm2.121 0v5.669h-2.267v-5.669h2.267Zm2.124 0v5.669H83.28v-5.669h2.268Zm2.124 0v5.669h-2.268v-5.669h2.268Zm2.124 0v5.669h-2.268v-5.669h2.268Zm2.124 0v5.669h-2.268v-5.669h2.268Zm2.124 0v5.669h-2.268v-5.669h2.268Zm2.124 0v5.669H93.9v-5.669h2.267Zm2.123 0v5.669h-2.267v-5.669h2.267Zm2.124 0v5.669h-2.268v-5.669h2.268Zm2.124 0v5.669h-2.268v-5.669h2.268Zm2.124 0v5.669h-2.268v-5.669h2.268Zm2.124 0v5.669h-2.268v-5.669h2.268Zm2.124 0v5.669h-2.268v-5.669h2.268Zm2.123 0v5.669h-2.267v-5.669h2.267Z" fill="#000" fill-opacity=".57"/><rect x="51.607" y="133.164" width="5.292" height="5.292" rx=".756" fill="#D9D9D9" fill-opacity=".1"/><path opacity=".1" d="M62.19 132.494v5.67h-2.267v-5.67h2.267Zm2.124 0v5.67h-2.267v-5.67h2.267Zm2.124 0v5.67H64.17v-5.67h2.268Zm2.122 0v5.67h-2.268v-5.67h2.268Zm2.124 0v5.67h-2.268v-5.67h2.268Zm2.123 0v5.67H70.54v-5.67h2.267Zm2.124 0v5.67h-2.268v-5.67h2.268Zm2.124 0v5.67h-2.268v-5.67h2.268Zm2.124 0v5.67h-2.268v-5.67h2.268Zm2.124 0v5.67h-2.268v-5.67h2.268Zm2.124 0v5.67h-2.268v-5.67h2.268Zm2.123 0v5.67h-2.267v-5.67h2.267Z" fill="#000" fill-opacity=".57"/><rect x="42.536" y="143.345" width="87.691" height="12.048" rx="2.268" fill="#fff" fill-opacity=".08"/><rect x="51.607" y="146.723" width="5.292" height="5.292" rx=".756" fill="#D9D9D9" fill-opacity=".1"/><path opacity=".1" d="M62.19 146.054v5.669h-2.267v-5.669h2.267Zm2.124 0v5.669h-2.267v-5.669h2.267Zm2.124 0v5.669H64.17v-5.669h2.268Zm2.122 0v5.669h-2.268v-5.669h2.268Zm2.124 0v5.669h-2.268v-5.669h2.268Zm2.123 0v5.669H70.54v-5.669h2.267Zm2.124 0v5.669h-2.268v-5.669h2.268Zm2.122 0v5.669h-2.268v-5.669h2.268Zm2.121 0v5.669h-2.267v-5.669h2.267Zm2.124 0v5.669H79.03v-5.669h2.268Zm2.124 0v5.669h-2.268v-5.669h2.268Zm2.124 0v5.669h-2.268v-5.669h2.268Zm2.124 0v5.669h-2.268v-5.669h2.268Zm2.124 0v5.669h-2.268v-5.669h2.268Zm2.124 0v5.669H89.65v-5.669h2.267Zm2.123 0v5.669h-2.267v-5.669h2.267Zm2.124 0v5.669h-2.268v-5.669h2.268Zm2.124 0v5.669h-2.268v-5.669h2.268Z" fill="#000" fill-opacity=".57"/><g filter="url(#h)"><rect x="42.536" y="42.238" width="87.691" height="13.607" rx="2.268" fill="#fff"/><rect x="42.536" y="42.238" width="87.691" height="13.607" rx="2.268" fill="#000" fill-opacity=".02"/><rect x="45.559" y="46.396" width="5.292" height="5.292" rx=".756" fill="#D9D9D9" fill-opacity=".1"/><path opacity=".1" d="M56.143 45.726v5.67h-2.268v-5.67h2.268Zm2.124 0v5.67h-2.268v-5.67h2.268Zm2.124 0v5.67h-2.268v-5.67h2.268Zm2.121 0v5.67h-2.268v-5.67h2.268Zm2.124 0v5.67h-2.268v-5.67h2.268Zm2.124 0v5.67h-2.268v-5.67h2.268Zm2.124 0v5.67h-2.268v-5.67h2.268Z" fill="#000" fill-opacity=".57"/></g><g filter="url(#i)"><rect x="45.559" y="60.735" width="5.292" height="5.292" rx=".756" fill="#D9D9D9" fill-opacity=".1"/><path opacity=".1" d="M56.143 60.065v5.67h-2.268v-5.67h2.268Zm2.124 0v5.67h-2.268v-5.67h2.268Zm2.124 0v5.67h-2.268v-5.67h2.268Zm2.123 0v5.67h-2.268v-5.67h2.268Zm2.124 0v5.67H62.37v-5.67h2.268Zm2.124 0v5.67h-2.268v-5.67h2.268Zm2.124 0v5.67h-2.268v-5.67h2.268Zm2.124 0v5.67h-2.268v-5.67h2.268Z" fill="#000" fill-opacity=".57"/></g><g filter="url(#j)"><rect x="42.536" y="18.744" width="13.607" height="13.607" rx="4.536" fill="#DDD"/></g><g clip-path="url(#k)"><rect x="53.119" y="26.304" width="6.048" height="6.048" rx="2.268" fill="#E6E6E6"/><g clip-path="url(#l)"><rect x="53.119" y="26.304" width="6.048" height="6.048" rx="2.268" fill="#E6E6E6"/></g><rect x="52.93" y="26.115" width="6.426" height="6.426" rx="2.457" stroke="#fff" stroke-width=".378"/></g><path opacity=".1" d="M62.946 18.512v5.67H60.68v-5.67h2.267Zm2.124 0v5.67h-2.268v-5.67h2.268Zm2.124 0v5.67h-2.268v-5.67h2.268Zm2.124 0v5.67H67.05v-5.67h2.268Zm2.124 0v5.67h-2.268v-5.67h2.268Zm2.121 0v5.67h-2.267v-5.67h2.267Zm2.124 0v5.67H73.42v-5.67h2.268Zm2.124 0v5.67h-2.268v-5.67h2.268Zm2.124 0v5.67h-2.268v-5.67h2.268Z" fill="#000"/><path opacity=".1" d="M62.644 26.117v4.913h-1.965v-4.913h1.965Zm1.843 0v4.913H62.52v-4.913h1.966Zm1.842 0v4.913h-1.965v-4.913h1.965Zm1.843 0v4.913h-1.966v-4.913h1.966Zm1.843 0v4.913h-1.966v-4.913h1.965Zm1.842 0v4.913h-1.965v-4.913h1.965Zm1.843 0v4.913h-1.966v-4.913H73.7Zm1.842 0v4.913h-1.965v-4.913h1.965Zm1.843 0v4.913H75.42v-4.913h1.965Zm1.843 0v4.913h-1.966v-4.913h1.966Zm1.842 0v4.913h-1.965v-4.913h1.965Zm1.843 0v4.913h-1.965v-4.913h1.965Zm1.843 0v4.913H82.79v-4.913h1.966Z" fill="#000" fill-opacity=".34"/><g clip-path="url(#m)"><path fill-rule="evenodd" clip-rule="evenodd" d="M120.147 23.028h1.008v1.008h-1.008v-1.008Zm2.016 0h1.008v1.008h-1.008v-1.008Zm3.023 0h-1.007v1.008h1.007v-1.008Zm-5.039 4.031h1.008v1.008h-1.008V27.06Zm3.024 0h-1.008v1.008h1.008V27.06Zm1.008 0h1.007v1.008h-1.007V27.06Zm-3.024-2.015h-1.008v1.007h1.008v-1.007Zm1.008 0h1.008v1.007h-1.008v-1.007Zm3.023 0h-1.007v1.007h1.007v-1.007Z" fill="#000" fill-opacity=".34"/></g></g><rect x="38.189" y="12.189" width="253.622" height="151.19" rx="4.347" stroke="#000" stroke-opacity=".08" stroke-width=".378"/></g><defs><clipPath id="a"><path fill="#fff" d="M0 0h292v149H0z"/></clipPath><clipPath id="b"><rect x="38" y="12" width="254" height="151.568" rx="4.536" fill="#fff"/></clipPath><clipPath id="c"><path fill="#fff" transform="translate(38 12)" d="M0 0h544.286v387.048H0z"/></clipPath><clipPath id="d"><rect x="152.905" y="64.917" width="139.095" height="84.667" rx="4.536" fill="#fff"/></clipPath><clipPath id="k"><rect x="53.119" y="26.304" width="6.048" height="6.048" rx="2.268" fill="#fff"/></clipPath><clipPath id="l"><rect x="53.119" y="26.304" width="6.048" height="6.048" rx="2.268" fill="#fff"/></clipPath><clipPath id="m"><path fill="#fff" transform="translate(119.643 22.524)" d="M0 0h6.048v6.048H0z"/></clipPath><filter id="e" x="110.571" y="-15.214" width="498.929" height="75.595" filterUnits="userSpaceOnUse" color-interpolation-filters="sRGB"><feFlood flood-opacity="0" result="BackgroundImageFix"/><feGaussianBlur in="BackgroundImageFix" stdDeviation="13.607"/><feComposite in2="SourceAlpha" operator="in" result="effect1_backgroundBlur_1950_46845"/><feBlend in="SourceGraphic" in2="effect1_backgroundBlur_1950_46845" result="shape"/></filter><filter id="h" x="41.402" y="41.482" width="89.958" height="15.875" filterUnits="userSpaceOnUse" color-interpolation-filters="sRGB"><feFlood flood-opacity="0" result="BackgroundImageFix"/><feColorMatrix in="SourceAlpha" values="0 0 0 0 0 0 0 0 0 0 0 0 0 0 0 0 0 0 127 0" result="hardAlpha"/><feOffset dy=".378"/><feGaussianBlur stdDeviation=".378"/><feColorMatrix values="0 0 0 0 0 0 0 0 0 0 0 0 0 0 0 0 0 0 0.06 0"/><feBlend in2="BackgroundImageFix" result="effect1_dropShadow_1950_46845"/><feColorMatrix in="SourceAlpha" values="0 0 0 0 0 0 0 0 0 0 0 0 0 0 0 0 0 0 127 0" result="hardAlpha"/><feOffset dy=".378"/><feGaussianBlur stdDeviation=".567"/><feColorMatrix values="0 0 0 0 0 0 0 0 0 0 0 0 0 0 0 0 0 0 0.1 0"/><feBlend in2="effect1_dropShadow_1950_46845" result="effect2_dropShadow_1950_46845"/><feBlend in="SourceGraphic" in2="effect2_dropShadow_1950_46845" result="shape"/></filter><filter id="i" x="38.756" y="52.821" width="95.25" height="21.119" filterUnits="userSpaceOnUse" color-interpolation-filters="sRGB"><feFlood flood-opacity="0" result="BackgroundImageFix"/><feGaussianBlur in="BackgroundImageFix" stdDeviation="1.89"/><feComposite in2="SourceAlpha" operator="in" result="effect1_backgroundBlur_1950_46845"/><feColorMatrix in="SourceAlpha" values="0 0 0 0 0 0 0 0 0 0 0 0 0 0 0 0 0 0 127 0" result="hardAlpha"/><feOffset dy=".378"/><feGaussianBlur stdDeviation=".378"/><feColorMatrix values="0 0 0 0 0 0 0 0 0 0 0 0 0 0 0 0 0 0 0.05 0"/><feBlend in2="effect1_backgroundBlur_1950_46845" result="effect2_dropShadow_1950_46845"/><feBlend in="SourceGraphic" in2="effect2_dropShadow_1950_46845" result="shape"/></filter><filter id="j" x="41.402" y="17.988" width="15.875" height="15.875" filterUnits="userSpaceOnUse" color-interpolation-filters="sRGB"><feFlood flood-opacity="0" result="BackgroundImageFix"/><feColorMatrix in="SourceAlpha" values="0 0 0 0 0 0 0 0 0 0 0 0 0 0 0 0 0 0 127 0" result="hardAlpha"/><feOffset dy=".378"/><feGaussianBlur stdDeviation=".378"/><feColorMatrix values="0 0 0 0 0 0 0 0 0 0 0 0 0 0 0 0 0 0 0.06 0"/><feBlend in2="BackgroundImageFix" result="effect1_dropShadow_1950_46845"/><feColorMatrix in="SourceAlpha" values="0 0 0 0 0 0 0 0 0 0 0 0 0 0 0 0 0 0 127 0" result="hardAlpha"/><feOffset dy=".378"/><feGaussianBlur stdDeviation=".567"/><feColorMatrix values="0 0 0 0 0 0 0 0 0 0 0 0 0 0 0 0 0 0 0.1 0"/><feBlend in2="effect1_dropShadow_1950_46845" result="effect2_dropShadow_1950_46845"/><feBlend in="SourceGraphic" in2="effect2_dropShadow_1950_46845" result="shape"/></filter><linearGradient id="f" x1="570.19" y1="22.583" x2="149.881" y2="22.583" gradientUnits="userSpaceOnUse"><stop stop-color="#C4C4C4" stop-opacity="0"/><stop offset=".021" stop-color="#C4C4C4"/></linearGradient></defs></svg>
