<svg width="96" height="96" fill="none" xmlns="http://www.w3.org/2000/svg"><g clip-path="url(#a)" fill="#fff" fill-opacity=".08"><path d="M62.17 5.02c1.12 0 2.24.08 3.44.16l.88.08.88.16c.48.08 1.2.24 1.68.32.48.08.96.24 1.44.4.88.24 1.76.56 2.64.96.48.24 1.12.48 1.6.72 0 0 .08.08.16.08-18.8-12.32-44.24-10.24-60.72 6.32-.4.48-1.04 1.12-1.44 1.52-.4.4-1.28 1.52-1.68 1.92-.4.48-.96 1.2-1.28 1.68-.48.64-1.28 1.76-1.68 2.4-.4.56-.88 1.36-1.2 2-.16.32-.96 1.68-1.12 2-.24.56-.88 1.76-1.12 2.24-.24.56-.56 1.36-.8 1.92-.08.16-.64 1.76-.72 2l-.8 2.4c-.24.8-.48 1.68-.64 2.48-.08.32-.4 1.76-.48 2.08-.08.56-.24 1.52-.32 2.08-.64 3.76-.8 7.6-.48 11.36.08.8.24 1.76.32 2.48.08.48.32 1.84.4 2.32.08.4.24 1.04.32 1.44l.16.8c.16.64.4 1.6.64 2.24.16.4.56 1.76.72 2.24.24.56.56 1.44.72 2 .24.56.8 1.76.96 2.32l.72 1.52.16.4.08.16.16.16.4.72c.24.4.56 1.12.8 1.44.32.48 1.04 1.68 1.36 2.16.24.32.72 1.04.96 1.36.4.48 1.12 1.52 1.52 2 .64.72 1.52 1.84 2.24 2.56l1.2 1.2.64.56.32.32c.32.32.8.72 1.12.96.4.32.8.64 1.12.88.16.08.88.64 1.04.72.56.32 1.2.8 1.76 1.12.56.32 1.28.64 1.84.96.4.16.8.32 1.12.48 1.04.4 2.08.8 3.2 1.12 1.04.32 2.24.56 3.28.72.96.16 2 .24 2.96.32h1.76c8.96-.32 17.36-4.96 22.48-12.64.16-.24.48-.88.64-1.04.24-.4.56-1.04.8-1.52l.56-1.12c.16-.48.48-1.12.64-1.52l.32-.8.24-.8c.08-.24.16-.56.24-.8.4-1.36.64-2.72.8-4.16.16-1.2.24-2.4.24-3.6-1.12 0-2.32-.16-3.44-.32-5.04-.64-9.76-2.64-13.76-5.84-8.32-6.56-12.24-17.28-10.24-27.68 2.64-13.76 14.8-23.2 28.24-23.12ZM20.73 78.3c-.56-.4-1.12-.96-1.6-1.44-4.4-4.32-7.84-9.6-10.16-15.28-.16-.4-.48-1.28-.64-1.68-.16-.72-.56-1.68-.72-2.32-.16-.56-.32-1.2-.48-1.76l-.24-1.2c-1.36-6.32-1.36-12.96.08-19.28 5.12-23.44 28.56-38.8 52-33.84-3.12-.48-6.32-.72-9.52-.56-26.8 1.28-46.48 25.84-41.6 52.24 1.6 8.64 5.84 16.72 12 22.96.48.48.96.96 1.52 1.36 9.84 8.56 25.2 8.24 34.32-1.28-8.96 10.16-24.88 10.72-34.96 2.08Zm3.28-7.92c-.4-.4-1.04-1.12-1.44-1.6-.4-.48-1.04-1.2-1.36-1.68C2.17 42.3 16.97 6.22 47.93 2.06c4.24-.48 8.64-.32 12.88.48-5.68-.88-11.44-.56-16.96.96-8.24 2.16-15.68 7.12-20.96 13.76-11.44 13.92-11.84 34.8-.8 49.12.32.48.96 1.2 1.36 1.68.4.48.96 1.2 1.44 1.6 8.16 9.36 23.12 10.48 32.16 1.52-8.88 9.68-24.4 8.64-33.04-.8Zm8.8-2.96c-.64-.48-1.28-.96-1.84-1.52-4.08-3.84-7.2-8.64-9.12-13.92-8-21.84 6.24-45.76 29.44-48.72 3.76-.48 7.6-.32 11.36.4-2.48-.32-5.04-.48-7.52-.32C26.97 5.1 11.37 36.46 27.21 59.82l.56.8.56.72c.56.72 1.2 1.52 1.76 2.16 6.8 8.08 19.04 10.4 27.6 3.76-6.96 6.08-17.6 5.6-24.88.16Zm4.96-7.6.56.56c.48.4 1.04.88 1.52 1.2.24.16.8.48.96.64.48.24.88.56 1.36.8.24.08.8.48 1.04.56 4.56 2.08 9.76 2.4 14.48.72-1.76.72-3.6 1.2-5.52 1.36-.32 0-.96.08-1.2.08h-1.2c-3.28-.16-6.48-1.12-9.36-2.8-.24-.16-.8-.48-1.04-.64-.24-.16-.8-.56-1.04-.72-.4-.24-.8-.64-1.12-.88-13.44-11.84-14.4-32.96-2.24-46.08 4.24-4.64 9.84-8 16-9.52 4.24-1.04 8.64-1.2 12.88-.48-6.4-.72-12.96.48-18.72 3.44-19.52 10.24-23.36 36.48-7.36 51.76Z"/><path d="M37.45 34.38c-.88-.16-1.84-.24-2.8-.32v.08c.96 0 1.92.08 2.8.24.08 0 .08 0 0 0Z"/><path d="M81.85 81.74c.4-.48 1.04-1.12 1.44-1.52.4-.4 1.28-1.52 1.68-1.92.4-.48.96-1.2 1.28-1.68.48-.64 1.28-1.76 1.68-2.4.4-.56.88-1.36 1.2-2 .16-.32.96-1.68 1.12-2 .24-.56.88-1.76 1.12-2.24.24-.56.56-1.36.8-1.92.08-.16.64-1.76.72-2l.8-2.4c.24-.8.48-1.68.64-2.48.08-.32.4-1.76.48-2.08.08-.56.24-1.52.32-2.08.56-3.76.64-7.6.32-11.36-.08-.8-.24-1.76-.32-2.48-.08-.48-.32-1.84-.4-2.32-.08-.4-.24-1.04-.32-1.44l-.16-.8c-.16-.64-.4-1.6-.64-2.24-.16-.4-.56-1.76-.72-2.24-.24-.56-.56-1.44-.72-2-.24-.56-.8-1.76-.96-2.32l-.72-1.52-.16-.4-.08-.16-.08-.16-.4-.72c-.24-.4-.56-1.12-.8-1.44-.32-.48-1.04-1.68-1.36-2.16-.24-.32-.72-1.04-.96-1.36-.4-.48-1.12-1.52-1.52-2-.64-.72-1.52-1.84-2.24-2.56l-1.2-1.2-.64-.56-.32-.32c-.32-.32-.8-.72-1.12-.96-.4-.32-.8-.64-1.12-.88-.16-.08-.88-.64-1.04-.72-.56-.32-1.2-.8-1.76-1.12-.56-.32-1.28-.64-1.84-.96-.4-.16-.8-.32-1.12-.48-.88-.4-1.84-.72-2.8-.96-.4-.08-.8-.24-1.2-.32-.24-.08-.96-.24-1.2-.24-.4-.24-.88-.32-1.2-.4-.96-.16-2-.24-2.96-.32h-1.76c-8.96.32-17.36 4.96-22.4 12.64-.16.24-.48.88-.64 1.04-.24.4-.56 1.04-.8 1.52l-.56 1.12c-.16.48-.48 1.12-.64 1.52l-.32.8-.24.8c-.08.24-.16.56-.24.8-.4 1.36-.64 2.72-.8 4.16-.24 1.28-.32 2.48-.32 3.68 6.24 0 12.24 2.16 17.2 6 8.32 6.56 12.24 17.28 10.24 27.68-2.64 13.92-14.8 23.36-28.24 23.28-1.12 0-2.24-.08-3.44-.16l-.88-.08-.88-.16c-.48-.08-1.2-.24-1.68-.32-.48-.08-.96-.24-1.44-.4-.88-.24-1.76-.56-2.64-.96-.48-.24-1.12-.48-1.6-.72 0 0-.08-.08-.16-.08 18.8 12.319 44.24 10.24 60.72-6.32ZM50.81 87.9c19.6-10.24 23.52-36.48 7.52-51.76l-.56-.56c-.48-.4-1.04-.88-1.52-1.2-.24-.16-.8-.48-.96-.64-.48-.24-.88-.56-1.36-.8-.24-.08-.8-.4-1.04-.56-4.56-2.08-9.76-2.4-14.48-.72 1.76-.72 3.6-1.2 5.52-1.36.32 0 .96-.08 1.2-.08h1.2c3.28.16 6.48 1.12 9.36 2.8.24.16.8.48 1.04.64.24.16.8.56 1.04.72.4.24.8.64 1.12.88 13.44 11.84 14.4 32.96 2.24 46.08-4.24 4.64-9.84 8-16 9.52-4.24 1.04-8.64 1.2-12.88.48 6.24.72 12.8-.48 18.56-3.44Zm-9.84 4.72c28.08-1.76 43.68-33.12 27.84-56.48l-.56-.8-.56-.72c-.56-.72-1.2-1.52-1.76-2.16-6.8-8.08-19.04-10.4-27.6-3.76 6.96-6.08 17.6-5.6 24.88-.16.64.48 1.28.96 1.84 1.52 4.08 3.84 7.2 8.64 9.12 13.92 8 21.84-6.32 45.68-29.44 48.72-3.76.48-7.6.32-11.36-.4 2.56.4 5.12.48 7.6.32Zm11.28-.16c8.24-2.16 15.68-7.12 20.96-13.76 11.36-13.92 11.76-34.8.72-49.12-.32-.48-.96-1.2-1.36-1.68-.4-.48-.96-1.2-1.44-1.6-8.16-9.36-23.12-10.48-32.16-1.52 8.8-9.68 24.4-8.64 32.96.8.4.4 1.04 1.12 1.44 1.6.4.48 1.04 1.2 1.36 1.68 19.04 24.72 4.24 60.88-26.72 64.96-4.32.56-8.64.4-12.88-.48 5.76.96 11.6.64 17.12-.88Zm-15.2 2c3.12.48 6.32.72 9.52.56 26.88-1.2 46.48-25.76 41.6-52.24-1.6-8.64-5.84-16.72-12-22.96-.48-.48-.96-.96-1.52-1.36-9.84-8.56-25.2-8.24-34.32 1.28 8.96-10.16 24.88-10.72 34.96-2.08.56.4 1.12.96 1.6 1.44 4.4 4.32 7.84 9.6 10.16 15.28.16.4.48 1.28.64 1.68.24.64.56 1.68.72 2.32.16.56.32 1.2.48 1.76l.24 1.2c1.36 6.32 1.36 12.96-.08 19.28-5.12 23.44-28.56 38.8-52 33.84Z"/></g><defs><clipPath id="a"><path fill="#fff" transform="translate(.25)" d="M0 0h95.5v96H0z"/></clipPath></defs></svg>