<svg xmlns="http://www.w3.org/2000/svg" fill="none" viewBox="0 0 148 148"><g clip-path="url(#a)"><g filter="url(#b)"><rect width="118.8" height="79.2" fill="url(#c)" rx="6.6" transform="matrix(1 .2 .2 -1 7.5 100.5)"/><rect width="119.7" height="80.1" x="-.5" y=".3" stroke="url(#d)" stroke-width=".8" rx="7" transform="matrix(1 .2 .2 -1 7.5 101.2)"/></g><mask id="e" width="131" height="100" x="8" y="24" maskUnits="userSpaceOnUse" style="mask-type:alpha"><rect width="118.8" height="79.2" x="24" y="23" fill="#000" rx="6.6" transform="rotate(12 24 23)"/></mask><g mask="url(#e)"><g opacity=".4"><g filter="url(#f)"><path fill="#334155" fill-opacity=".4" d="m10 101 111.4 23.7-39.5-54.2c-2-2.7-3-4-4.3-4.8a6.6 6.6 0 0 0-3.7-.8c-1.5.1-3 1-5.8 2.6L9.9 101Z"/></g><g filter="url(#g)"><path fill="#334155" fill-opacity=".2" d="m16.4 102.4 98.5 21-31.7-55.2c-2-3.6-3-5.3-4.5-6.2-1.3-.8-2.8-1.1-4.3-1-1.7.3-3.3 1.5-6.6 3.9l-51.4 37.5Z"/></g><g filter="url(#h)"><path fill="#334155" fill-opacity=".1" d="m10 101 111.4 23.7-37.2-61.9c-2-3.3-3-5-4.5-5.9-1.2-.7-2.7-1-4.1-.9-1.7.2-3.3 1.4-6.5 3.6L9.9 101Z"/></g></g><g filter="url(#i)"><path fill="url(#j)" d="m7.5 100.5 116.3 24.7-42-55.2c-2-2.5-3-3.8-4.2-4.5a6.6 6.6 0 0 0-3.6-.8c-1.4.1-2.9 1-5.7 2.5L7.5 100.5Z"/></g><path stroke="#475569" stroke-opacity=".1" stroke-width=".8" d="m9 99.1 59.4-32.4c2.8-1.5 4.2-2.3 5.7-2.4 1.2 0 2.5.2 3.6.8 1.2.7 2.2 2 4.2 4.5l41.6 54.7"/><g opacity=".7" style="mix-blend-mode:multiply"><g filter="url(#k)"><path fill="#334155" fill-opacity=".4" d="m26.4 23.5 111.4 23.7-58 33.5c-3 1.6-4.5 2.5-6 2.6-1.2.1-2.5-.2-3.6-.8-1.3-.7-2.3-2-4.3-4.8L26.4 23.5Z"/></g><g filter="url(#l)"><path fill="#334155" fill-opacity=".2" d="m32.9 24.9 98.5 21L80 83.2c-3.3 2.4-5 3.6-6.7 3.8-1.4.2-3-.1-4.2-.9-1.5-.9-2.5-2.6-4.5-6.2L32.9 25Z"/></g><g filter="url(#m)"><path fill="#334155" fill-opacity=".1" d="m26.4 23.5 111.4 23.7-59 41.4c-3.3 2.3-5 3.4-6.6 3.6-1.4.2-2.9-.2-4.1-1-1.5-.8-2.5-2.4-4.5-5.8L26.4 23.5Z"/></g><g filter="url(#n)"><path fill="#334155" fill-opacity=".1" d="m30.5 24.4 103.3 22-59.3 42.3a5 5 0 0 1-7.1-1.5l-37-62.8Z"/></g><g filter="url(#o)"><path fill="#334155" fill-opacity=".1" d="m25.8 22.5 113 24-63.7 38.2a5 5 0 0 1-6.6-1.4L25.8 22.5Z"/></g></g><path stroke="#475569" stroke-opacity=".1" stroke-width=".8" d="m24.9 24.9 41 53.7c2 2.6 3 3.8 4.2 4.5 1 .6 2.3.9 3.6.8 1.4-.1 2.8-.9 5.7-2.4l60.3-33"/><g filter="url(#p)"><path fill="url(#q)" d="m24 23 116.2 24.7L79.5 81c-2.9 1.6-4.3 2.4-5.7 2.5-1.3 0-2.5-.2-3.6-.8-1.3-.7-2.3-2-4.2-4.5L24 23Z"/></g><g filter="url(#r)"><path stroke="url(#s)" stroke-width="16" d="M24 23h144v96H24z" transform="rotate(12 24 23)"/></g><rect width="143" height="95" x="24.4" y="23.6" stroke="#fff" stroke-opacity=".4" rx="7.5" transform="rotate(12 24.4 23.6)"/></g></g><defs><filter id="b" width="151.6" height="137.6" x="-1.9" y="21.8" color-interpolation-filters="sRGB" filterUnits="userSpaceOnUse"><feFlood flood-opacity="0" result="BackgroundImageFix"/><feColorMatrix in="SourceAlpha" result="hardAlpha" values="0 0 0 0 0 0 0 0 0 0 0 0 0 0 0 0 0 0 127 0"/><feOffset dy="1.7"/><feGaussianBlur stdDeviation="1.7"/><feColorMatrix values="0 0 0 0 0.117647 0 0 0 0 0.160784 0 0 0 0 0.231373 0 0 0 0.08 0"/><feBlend in2="BackgroundImageFix" result="effect1_dropShadow_2209_173251"/><feColorMatrix in="SourceAlpha" result="hardAlpha" values="0 0 0 0 0 0 0 0 0 0 0 0 0 0 0 0 0 0 127 0"/><feOffset dy="6.6"/><feGaussianBlur stdDeviation="3.3"/><feColorMatrix values="0 0 0 0 0.117647 0 0 0 0 0.160784 0 0 0 0 0.231373 0 0 0 0.07 0"/><feBlend in2="effect1_dropShadow_2209_173251" result="effect2_dropShadow_2209_173251"/><feColorMatrix in="SourceAlpha" result="hardAlpha" values="0 0 0 0 0 0 0 0 0 0 0 0 0 0 0 0 0 0 127 0"/><feOffset dy="14"/><feGaussianBlur stdDeviation="4.1"/><feColorMatrix values="0 0 0 0 0.117647 0 0 0 0 0.160784 0 0 0 0 0.231373 0 0 0 0.04 0"/><feBlend in2="effect2_dropShadow_2209_173251" result="effect3_dropShadow_2209_173251"/><feColorMatrix in="SourceAlpha" result="hardAlpha" values="0 0 0 0 0 0 0 0 0 0 0 0 0 0 0 0 0 0 127 0"/><feOffset dy="24.8"/><feGaussianBlur stdDeviation="5"/><feColorMatrix values="0 0 0 0 0.117647 0 0 0 0 0.160784 0 0 0 0 0.231373 0 0 0 0.01 0"/><feBlend in2="effect3_dropShadow_2209_173251" result="effect4_dropShadow_2209_173251"/><feBlend in="SourceGraphic" in2="effect4_dropShadow_2209_173251" result="shape"/></filter><filter id="f" width="118" height="66.4" x="6.6" y="61.6" color-interpolation-filters="sRGB" filterUnits="userSpaceOnUse"><feFlood flood-opacity="0" result="BackgroundImageFix"/><feBlend in="SourceGraphic" in2="BackgroundImageFix" result="shape"/><feGaussianBlur result="effect1_foregroundBlur_2209_173251" stdDeviation="1.7"/></filter><filter id="g" width="118.3" height="82.1" x="6.5" y="51.1" color-interpolation-filters="sRGB" filterUnits="userSpaceOnUse"><feFlood flood-opacity="0" result="BackgroundImageFix"/><feBlend in="SourceGraphic" in2="BackgroundImageFix" result="shape"/><feGaussianBlur result="effect1_foregroundBlur_2209_173251" stdDeviation="5"/></filter><filter id="h" width="151" height="108.3" x="-9.9" y="36.2" color-interpolation-filters="sRGB" filterUnits="userSpaceOnUse"><feFlood flood-opacity="0" result="BackgroundImageFix"/><feBlend in="SourceGraphic" in2="BackgroundImageFix" result="shape"/><feGaussianBlur result="effect1_foregroundBlur_2209_173251" stdDeviation="9.9"/></filter><filter id="i" width="116.2" height="60.5" x="7.5" y="64.7" color-interpolation-filters="sRGB" filterUnits="userSpaceOnUse"><feFlood flood-opacity="0" result="BackgroundImageFix"/><feBlend in="SourceGraphic" in2="BackgroundImageFix" result="shape"/><feColorMatrix in="SourceAlpha" result="hardAlpha" values="0 0 0 0 0 0 0 0 0 0 0 0 0 0 0 0 0 0 127 0"/><feOffset dy=".8"/><feComposite in2="hardAlpha" k2="-1" k3="1" operator="arithmetic"/><feColorMatrix values="0 0 0 0 1 0 0 0 0 1 0 0 0 0 1 0 0 0 0.6 0"/><feBlend in2="shape" result="effect1_innerShadow_2209_173251"/></filter><filter id="k" width="118" height="66.4" x="23.1" y="20.2" color-interpolation-filters="sRGB" filterUnits="userSpaceOnUse"><feFlood flood-opacity="0" result="BackgroundImageFix"/><feBlend in="SourceGraphic" in2="BackgroundImageFix" result="shape"/><feGaussianBlur result="effect1_foregroundBlur_2209_173251" stdDeviation="1.7"/></filter><filter id="l" width="118.3" height="82.1" x="23" y="15" color-interpolation-filters="sRGB" filterUnits="userSpaceOnUse"><feFlood flood-opacity="0" result="BackgroundImageFix"/><feBlend in="SourceGraphic" in2="BackgroundImageFix" result="shape"/><feGaussianBlur result="effect1_foregroundBlur_2209_173251" stdDeviation="5"/></filter><filter id="m" width="151" height="108.3" x="6.6" y="3.7" color-interpolation-filters="sRGB" filterUnits="userSpaceOnUse"><feFlood flood-opacity="0" result="BackgroundImageFix"/><feBlend in="SourceGraphic" in2="BackgroundImageFix" result="shape"/><feGaussianBlur result="effect1_foregroundBlur_2209_173251" stdDeviation="9.9"/></filter><filter id="n" width="119.8" height="81.8" x="22.2" y="16.1" color-interpolation-filters="sRGB" filterUnits="userSpaceOnUse"><feFlood flood-opacity="0" result="BackgroundImageFix"/><feBlend in="SourceGraphic" in2="BackgroundImageFix" result="shape"/><feGaussianBlur result="effect1_foregroundBlur_2209_173251" stdDeviation="4.1"/></filter><filter id="o" width="119.6" height="69.4" x="22.5" y="19.2" color-interpolation-filters="sRGB" filterUnits="userSpaceOnUse"><feFlood flood-opacity="0" result="BackgroundImageFix"/><feBlend in="SourceGraphic" in2="BackgroundImageFix" result="shape"/><feGaussianBlur result="effect1_foregroundBlur_2209_173251" stdDeviation="1.7"/></filter><filter id="p" width="116.2" height="60.5" x="24" y="23" color-interpolation-filters="sRGB" filterUnits="userSpaceOnUse"><feFlood flood-opacity="0" result="BackgroundImageFix"/><feBlend in="SourceGraphic" in2="BackgroundImageFix" result="shape"/><feColorMatrix in="SourceAlpha" result="hardAlpha" values="0 0 0 0 0 0 0 0 0 0 0 0 0 0 0 0 0 0 127 0"/><feOffset dy="-.8"/><feComposite in2="hardAlpha" k2="-1" k3="1" operator="arithmetic"/><feColorMatrix values="0 0 0 0 1 0 0 0 0 1 0 0 0 0 1 0 0 0 0.5 0"/><feBlend in2="shape" result="effect1_innerShadow_2209_173251"/></filter><filter id="r" width="195.8" height="158.8" x="-13.4" y="5.5" color-interpolation-filters="sRGB" filterUnits="userSpaceOnUse"><feFlood flood-opacity="0" result="BackgroundImageFix"/><feBlend in="SourceGraphic" in2="BackgroundImageFix" result="shape"/><feGaussianBlur result="effect1_foregroundBlur_2209_173251" stdDeviation="4"/></filter><linearGradient id="c" x1="59.4" x2="59.4" y1="0" y2="79.2" gradientUnits="userSpaceOnUse"><stop offset=".1" stop-color="#EEF0F1"/><stop offset=".8" stop-color="#F9FAFA"/></linearGradient><linearGradient id="d" x1="59.4" x2="59.4" y1="0" y2="79.2" gradientUnits="userSpaceOnUse"><stop stop-color="#475569" stop-opacity=".1"/><stop offset="1" stop-color="#475569" stop-opacity="0"/></linearGradient><linearGradient id="j" x1="76.3" x2="65.7" y1="62.8" y2="112.9" gradientUnits="userSpaceOnUse"><stop offset=".5" stop-color="#F4F5F6"/><stop offset="1" stop-color="#EEF0F1"/></linearGradient><linearGradient id="q" x1="82.1" x2="71.5" y1="35.4" y2="85.4" gradientUnits="userSpaceOnUse"><stop offset=".3" stop-color="#FAFAFB"/><stop offset="1" stop-color="#F4F5F6"/></linearGradient><linearGradient id="s" x1="96" x2="96" y1="23.9" y2="119" gradientUnits="userSpaceOnUse"><stop stop-color="#F9FAFA"/><stop offset=".7" stop-color="#EEF0F1"/></linearGradient><clipPath id="a"><path fill="#fff" d="M0 0h148v148H0z"/></clipPath></defs></svg>
