<svg xmlns="http://www.w3.org/2000/svg" width="127" height="139" fill="none"><rect width="126.004" height="86.403" y="52.299" fill="var(--illustration-fill)" rx="8.356"/><rect width="125.004" height="85.403" x=".5" y="52.799" stroke="var(--border-secondary)" rx="7.856"/><path stroke="var(--border-secondary)" d="m60.692 82.69 64.003 51.003M.692 132.911l64.002-51.002"/><mask id="a" fill="white"><path fill-rule="evenodd" d="m125.781 57.726-51.869 45.756c-6.317 5.572-15.794 5.572-22.11 0L.167 57.934a7.203 7.203 0 0 1 7.03-5.635H118.8a7.204 7.204 0 0 1 6.98 5.427Z" clip-rule="evenodd"/></mask><path fill="var(--illustration-fill)" fill-rule="evenodd" d="m125.781 57.726-51.869 45.756c-6.317 5.572-15.794 5.572-22.11 0L.167 57.934a7.203 7.203 0 0 1 7.03-5.635H118.8a7.204 7.204 0 0 1 6.98 5.427Z" clip-rule="evenodd"/><path fill="var(--border-primary)" d="m125.781 57.726.662.75.457-.404-.15-.592-.969.246Zm-51.869 45.756-.661-.75.661.75Zm-22.11 0 .66-.75-.66.75ZM.167 57.934l-.976-.217-.128.576.442.39.662-.75Zm124.951-.958-51.868 45.756 1.323 1.5 51.869-45.756-1.324-1.5Zm-51.868 45.756a15.712 15.712 0 0 1-20.788 0l-1.323 1.5c6.695 5.906 16.739 5.906 23.434 0l-1.323-1.5Zm-20.788 0L.83 57.184l-1.324 1.5 51.634 45.548 1.323-1.5ZM1.144 58.15a6.203 6.203 0 0 1 6.054-4.851v-2a8.203 8.203 0 0 0-8.006 6.418l1.952.433Zm6.054-4.851H118.8v-2H7.198v2Zm111.603 0a6.204 6.204 0 0 1 6.011 4.672l1.938-.49a8.202 8.202 0 0 0-7.949-6.182v2Z" mask="url(#a)"/><path fill="var(--illustration-fill)" d="M68.83 20.63a1.198 1.198 0 0 1 .733 1.3l-2.324 14.49 7.886-1.109a1.199 1.199 0 0 1 1.145 1.88L60.118 60.03a1.198 1.198 0 0 1-2.162-.883l2.323-14.491-7.886 1.108a1.199 1.199 0 0 1-1.145-1.88l16.153-22.84a1.198 1.198 0 0 1 1.43-.418v.003Z"/><path fill="var(--illustration-fill)" d="M68.83 20.63a1.198 1.198 0 0 1 .733 1.3l-2.324 14.49 7.886-1.109a1.199 1.199 0 0 1 1.145 1.88L60.118 60.03a1.198 1.198 0 0 1-2.162-.883l2.323-14.491-7.886 1.108a1.199 1.199 0 0 1-1.145-1.88l16.153-22.84a1.198 1.198 0 0 1 1.43-.418v.003Z"/><path stroke="var(--border-secondary)" d="m68.592 21.072.05.02c.147.06.269.168.346.305l.436-.245-.436.245a.698.698 0 0 1 .081.454L66.746 36.34l-.108.668.67-.094 7.887-1.107a.698.698 0 0 1 .667 1.095L59.71 59.742a.698.698 0 0 1-.834.243l-.189.463.19-.463a.698.698 0 0 1-.426-.758l2.323-14.491.107-.668-.67.094-7.887 1.107a.699.699 0 0 1-.667-1.095l16.153-22.84a.698.698 0 0 1 .783-.262Z"/><path fill="var(--illustration-fill)" d="M39.481 65.276a.758.758 0 0 0 .419-.844l-1.943-9.058 5.008.438a.757.757 0 0 0 .66-1.223L32.688 40.722a.756.756 0 0 0-1.334.628l1.943 9.06-5.009-.439a.758.758 0 0 0-.66 1.223l10.938 13.867a.757.757 0 0 0 .915.217v-.002Z"/><path fill="var(--border-tertiary)" d="M39.481 65.276a.758.758 0 0 0 .419-.844l-1.943-9.058 5.008.438a.757.757 0 0 0 .66-1.223L32.688 40.722a.756.756 0 0 0-1.334.628l1.943 9.06-5.009-.439a.758.758 0 0 0-.66 1.223l10.938 13.867a.757.757 0 0 0 .915.217v-.002Z"/><path stroke="var(--border-secondary)" d="M39.1 64.843a.256.256 0 0 0 .145-.008l.024-.011a.256.256 0 0 0 .142-.287l-1.943-9.058-.142-.662.674.059 5.01.438a.256.256 0 0 0 .248-.134l.44.238-.44-.238a.256.256 0 0 0-.025-.28L32.295 41.031a.257.257 0 0 0-.452.213l1.943 9.06.142.662-.675-.06-5.009-.438a.257.257 0 0 0-.224.415l10.938 13.868a.256.256 0 0 0 .143.09Z"/><path fill="var(--illustration-fill)" d="M95.56 38.776a.927.927 0 0 1 .325 1.107l-4.27 10.511 6.134.537a.926.926 0 0 1 .536 1.614L82.146 66.944a.926.926 0 0 1-1.475-1.04l4.27-10.513-6.134-.537a.926.926 0 0 1-.536-1.615L94.41 38.841a.927.927 0 0 1 1.15-.066v.001Z"/><path fill="var(--border-tertiary)" d="M95.56 38.776a.927.927 0 0 1 .325 1.107l-4.27 10.511 6.134.537a.926.926 0 0 1 .536 1.614L82.146 66.944a.926.926 0 0 1-1.475-1.04l4.27-10.513-6.134-.537a.926.926 0 0 1-.536-1.615L94.41 38.841a.927.927 0 0 1 1.15-.066v.001Z"/><path stroke="var(--border-secondary)" d="m95.241 39.164.031.021a.426.426 0 0 1 .15.51l-4.27 10.51-.254.628.674.06 6.134.536a.426.426 0 0 1 .246.743L81.813 66.57a.426.426 0 0 1-.679-.48l4.27-10.512.255-.627-.675-.06-6.133-.536a.426.426 0 0 1-.247-.743l16.139-14.398a.427.427 0 0 1 .498-.05Z"/></svg>
