<svg height="100%" width="350" viewBox="0 0 270 120" fill="none" xmlns="http://www.w3.org/2000/svg"><g filter="url(#b)" clip-path="url(#a)"><g clip-path="url(#c)"><rect x="78" y="28" width="261.016" height="136.531" rx="4" fill="url(#d)"/><g filter="url(#e)"><path d="M78 55h260" stroke="#C2C2C2" stroke-width="2" stroke-linecap="round"/></g><g filter="url(#f)"><rect x="92" y="72" width="4" height="33" rx="2" fill="#A1A1A1"/></g><rect x="91.287" y="71.287" width="5.426" height="34.425" rx="2.713" stroke="#DDD" stroke-width="1.426"/><g filter="url(#g)"><rect x="123" y="72" width="4" height="33" rx="2" fill="#A1A1A1"/></g><rect x="122.287" y="71.287" width="5.426" height="34.425" rx="2.713" stroke="#DDD" stroke-width="1.426"/><g filter="url(#h)"><rect x="100" y="72" width="4" height="33" rx="2" fill="#A1A1A1"/></g><rect x="99.287" y="71.287" width="5.426" height="34.425" rx="2.713" stroke="#DDD" stroke-width="1.426"/><g filter="url(#i)"><rect x="131" y="72" width="4" height="33" rx="2" fill="#A1A1A1"/></g><rect x="130.287" y="71.287" width="5.426" height="34.425" rx="2.713" stroke="#DDD" stroke-width="1.426"/><g filter="url(#j)"><rect x="107" y="72" width="4" height="33" rx="2" fill="#A1A1A1"/></g><rect x="106.287" y="71.287" width="5.426" height="34.425" rx="2.713" stroke="#DDD" stroke-width="1.426"/><g filter="url(#k)"><rect x="138" y="72" width="4" height="33" rx="2" fill="#A1A1A1"/></g><rect x="137.287" y="71.287" width="5.426" height="34.425" rx="2.713" stroke="#DDD" stroke-width="1.426"/><g filter="url(#l)"><rect x="115" y="72" width="4" height="33" rx="2" fill="#A1A1A1"/></g><rect x="114.287" y="71.287" width="5.426" height="34.425" rx="2.713" stroke="#DDD" stroke-width="1.426"/><g filter="url(#m)"><rect x="146" y="72" width="4" height="33" rx="2" fill="#A1A1A1"/></g><rect x="145.287" y="71.287" width="5.426" height="34.425" rx="2.713" stroke="#DDD" stroke-width="1.426"/><g filter="url(#n)"><rect x="258" y="84" width="8.2" height="8.2" rx="4.1" fill="#A1A1A1"/></g><rect x="256.539" y="82.539" width="11.122" height="11.122" rx="5.561" stroke="#DDD" stroke-width="2.922"/><g filter="url(#o)"><rect x="240" y="84" width="8.2" height="8.2" rx="4.1" fill="#A1A1A1"/></g><rect x="238.539" y="82.539" width="11.122" height="11.122" rx="5.561" stroke="#DDD" stroke-width="2.922"/><g filter="url(#p)"><rect x="222" y="84" width="8.2" height="8.2" rx="4.1" fill="#A1A1A1"/></g><rect x="220.539" y="82.539" width="11.122" height="11.122" rx="5.561" stroke="#DDD" stroke-width="2.922"/><g filter="url(#q)"><circle cx="289.616" cy="87.297" r="6" fill="#D7D4D4"/><circle cx="289.616" cy="87.297" r="5.5" stroke="#fff" stroke-opacity=".65"/></g><g opacity=".6" filter="url(#r)"><g filter="url(#s)"><rect x="88" y="37" width="182" height="8.58" rx="1.32" fill="#292929"/></g><path d="M98.03 40.744h-.225v-.225h-.677v.225h-.226v.677h.226v.226h.677v-.226h.225v-.677Zm-1.353 1.128v.902h-.451v-2.707h.45v.226h.226v-.226h1.128v.226h.226v.226h.225v1.128h-.225v.225h-.226v.226h-1.128v-.226h-.225Zm2.527.451h-.225v-.45h.451v.225h.226v.225h.902v-.45h-.451v-.226h-.451v-.226h-.452v-.226h-.225v-.45h.225v-.226h.226v-.226h1.354v.226h.225v.225h.226v.451h-.451v-.225h-.226v-.226h-.902v.451h.676v.226h.452v.226h.225v.225h.226v.451h-.226v.226h-.225v.225H99.43v-.225h-.226v-.226Zm2.979-1.579v.677h.226v.226h.677v-.226h.225v-.677h-.225v-.225h-.677v.225h-.226Zm1.354-.451v-.226h.451v2.707h-.451v-.676h-.226v-.226h-.225v.226h-.903v-.226h-.225v-.225h-.226v-1.128h.226v-.226h.225v-.226h1.128v.226h.226Zm2.302-.677v3.158h-.451v-3.158h.451Zm3.43 1.354v.45h-1.805v-.45h1.805Zm1.4.45v-.225h.225v-.225h.226v-.226h.225v-.225h.451v-.226h-.225v-.226h-.902v.226h-.226v1.128h.226Zm-.226.452v.226h.226v.225h.902v-.225h.225V40.97h-.225v.225h-.226v.226h-.225v.226h-.226v.225h-.451Zm0-2.03v-.226h1.353v.226h.226v.225h.226v2.256h-.226v.226h-.226v.225h-1.353v-.225h-.226v-.226h-.225v-2.256h.225v-.225h.226Zm3.43 2.481v.451h-.451v-.45h.451Zm2.979-2.481v-.226h.451v1.805h.451v.451h-.451v.902h-.451v-.902h-1.354v-.902h.226v-.226h.225v-.225h.226v-.226h.226v-.226h.225v-.225h.226Zm0 1.579v-.902h-.226v.225h-.225v.226h-.226v.225h-.226v.226h.903Zm2.527.902v.451h-.451v-.45h.451Zm2.979 0h.451v.451h-1.353v-.45h.451v-1.805h-.451v-.452h.225v-.225h.226v-.226h.451v2.707Zm2.528 0v.451h-.451v-.45h.451Zm2.076 0h1.805v.451h-2.256v-1.353h.226v-.226h.225v-.225h1.128v-.226h.226v-.451h-.226v-.226h-.902v.226h-.226v.226h-.451v-.452h.226v-.225h.225v-.226h1.354v.226h.225v.225h.226v.903h-.226v.225h-.225v.226h-1.128v.226h-.226v.676Zm2.979-.902v-.226h.226v-.225h.225v-.226h.226v-.225h.451v-.226h-.226v-.226h-.902v.226h-.225v1.128h.225Zm-.225.451v.226h.225v.225h.902v-.225h.226V40.97h-.226v.225h-.225v.226h-.226v.226h-.225v.225h-.451Zm0-2.03v-.226h1.353v.226h.226v.225h.225v2.256h-.225v.226h-.226v.225h-1.353v-.225h-.226v-.226h-.226v-2.256h.226v-.225h.226Zm6.408-.677v3.61h-.451v-3.61h.451Zm4.83 2.256v-.226h.226v-.225h.225v-.226h.226v-.225h.451v-.226h-.226v-.226h-.902v.226h-.226v1.128h.226Zm-.226.451v.226h.226v.225h.902v-.225h.226V40.97h-.226v.225h-.225v.226h-.226v.226h-.225v.225h-.452Zm0-2.03v-.226h1.354v.226h.226v.225h.225v2.256h-.225v.226h-.226v.225h-1.354v-.225h-.225v-.226h-.226v-2.256h.226v-.225h.225Zm2.754 2.256v.676h-.451v-.902h.225v-.225h.226v-.226h.225v-.451h-.225v-.226h-.226v-.225h-.225v-.903h.451v.677h.225v.226h.226v.225h.451v-.225h.226v-.226h.225v-.677h.451v.903h-.225v.225h-.226v.226h-.225v.45h.225v.227h.226v.225h.225v.902h-.451v-.676h-.225v-.226h-.226v-.225h-.451v.225h-.226v.226h-.225Zm2.753-2.03v2.255h1.128v-.225h.225v-1.805h-.225v-.226h-1.128Zm-.451 2.706v-3.158h1.804v.226h.226v.225h.226v2.256h-.226v.226h-.226v.225h-1.804Zm5.009-3.158v.451h-1.805v.903h1.354v.45h-1.354v.903h1.805v.451h-2.256v-3.158h2.256Zm.948 1.805h1.354v-.677h-.226v-.225h-.225v-.226h-.451v.226h-.226v.225h-.226v.677Zm0 1.353h-.451V40.52h.226v-.226h.225v-.226h.226v-.225h.226v-.226h.451v.226h.225v.225h.226v.226h.225v.226h.226v2.255h-.451v-.902h-1.354v.902Zm2.754-2.707v2.256h1.128v-.225h.225v-1.805h-.225v-.226h-1.128Zm-.452 2.707v-3.158h1.805v.226h.226v.225h.225v2.256h-.225v.226h-.226v.225h-1.805Zm3.205-1.804h1.128v-.226h.225v-.451h-.225v-.226h-1.128v.903Zm-.451 1.804v-3.158h1.804v.226h.226v.225h.226v.903h-.226v.45h.226v.903h-.226v.226h-.226v.225h-1.804Zm.451-.45h1.128v-.226h.225v-.451h-.225v-.226h-1.128v.902Zm4.558-2.708v.451h-1.805v.903h1.354v.45h-1.354v.903h1.805v.451h-2.256v-3.158h2.256Zm2.753 0v.451h-1.805v.903h1.354v.45h-1.354v.903h1.805v.451h-2.256v-3.158h2.256Zm2.753 0v.451h-1.804v.903h1.353v.45h-1.353v1.354h-.452v-3.158h2.256Zm4.604-.451v3.61h-.451v-3.61h.451Zm6.409.451v.451h-1.805v.903h1.354v.45h-1.354v1.354h-.451v-3.158h2.256Zm.723 2.707h-.225v-.45h.451v.225h.225v.225h.903v-.225h.225v-.677h-1.353v-.226h-.226v-.225h-.225v-.903h.225v-.225h.226v-.226h1.353v.226h.226v.225h.225v2.256h-.225v.226h-.226v.225h-1.353v-.225h-.226v-.226Zm1.579-1.353v-.677h-.225v-.226h-.903v.226h-.225v.453h.225v.224h1.128Zm4.153 0h1.128v-.226h.226v-.451h-.226v-.226h-1.128v.903Zm-.451 1.804v-3.158h1.805v.226h.225v.225h.226v.903h-.226v.45h.226v.903h-.226v.226h-.225v.225h-1.805Zm.451-.45h1.128v-.226h.226v-.451h-.226v-.226h-1.128v.902Zm4.558-2.708v.451h-1.805v.903h1.354v.45h-1.354v.903h1.805v.451h-2.256v-3.158h2.256Zm3.702 1.354h1.128v-.226h.225v-.451h-.225v-.226h-1.128v.903Zm-.451 1.804v-3.158h1.804v.226h.226v.225h.226v.903h-.226v.45h.226v.903h-.226v.226h-.226v.225h-1.804Zm.451-.45h1.128v-.226h.225v-.451h-.225v-.226h-1.128v.902Zm3.655-2.482v-.226h.452v1.805h.451v.451h-.451v.902h-.452v-.902h-1.353v-.902h.226v-.226h.225v-.225h.226v-.226h.225v-.226h.226v-.225h.225Zm0 1.579v-.902h-.225v.225h-.226v.226h-.225v.225h-.226v.226h.902Zm4.605-1.354v2.256h1.127v-.225h.226v-1.805h-.226v-.226H201.3Zm-.452 2.707v-3.158h1.805v.226h.226v.225h.225v2.256h-.225v.226h-.226v.225h-1.805Zm2.979-.45h-.225v-.452h.451v.226h.225v.225h.903v-.225h.225v-.677h-1.353v-.226h-.226v-.225h-.225v-.903h.225v-.225h.226v-.226h1.353v.226h.226v.225h.225v2.256h-.225v.226h-.226v.225h-1.353v-.225h-.226v-.226Zm1.579-1.354v-.677h-.225v-.226h-.903v.226h-.225v.453h.225v.224h1.128Zm5.056 1.353h.451v.451h-1.354v-.45h.451v-1.805h-.451v-.452h.226v-.225h.225v-.226h.452v2.707Zm1.85-2.256v2.256h1.128v-.225h.226v-1.805h-.226v-.226h-1.128Zm-.451 2.707v-3.158h1.805v.226h.226v.225h.225v2.256h-.225v.226h-.226v.225h-1.805Zm6.184-1.353v-.226h.225v-.225h.226v-.226h.225v-.225h.451v-.226h-.225v-.226h-.902v.226h-.226v1.128h.226Zm-.226.451v.226h.226v.225h.902v-.225h.225V40.97h-.225v.225h-.226v.226h-.225v.226h-.226v.225h-.451Zm0-2.03v-.226h1.353v.226h.226v.225h.226v2.256h-.226v.226h-.226v.225h-1.353v-.225h-.226v-.226h-.225v-2.256h.225v-.225h.226Zm3.656 2.481h.451v.451h-1.354v-.45h.451v-1.805h-.451v-.452h.226v-.225h.225v-.226h.452v2.707Zm4.829-.902v-.226h.226v-.225h.225v-.226h.226v-.225h.451v-.226h-.225v-.226h-.903v.226h-.225v1.128h.225Zm-.225.451v.226h.225v.225h.903v-.225h.225V40.97h-.225v.225h-.226v.226h-.226v.226h-.225v.225h-.451Zm0-2.03v-.226h1.353v.226h.226v.225h.225v2.256h-.225v.226h-.226v.225h-1.353v-.225h-.226v-.226h-.226v-2.256h.226v-.225h.226Zm3.655 2.481h.451v.451h-1.353v-.45h.451v-1.805h-.451v-.452h.225v-.225h.226v-.226h.451v2.707Zm4.153-2.707h2.256v.451h-1.805v.452h1.354v.225h.225v.226h.226v1.353h-.226v.226h-.225v.225h-1.354v-.225h-.225v-.226h-.226v-.45h.451v.225h.226v.225h.902v-.225h.226v-.903h-.226v-.225h-1.579v-1.354Zm3.43 2.707h.902v-.225h.226v-.226h.451v.451h-.225v.226h-.226v.225h-1.353v-.225h-.226v-.226h-.226v-2.256h.226v-.225h.226v-.226h1.353v.226h.226v.225h.225v.452h-.451v-.226h-.226v-.226h-.902v.226h-.225v1.805h.225v.225Zm6.635.226v.225h-1.354v-.225h-.226v-.226h-.225v-2.256h.225v-.225h.226v-.226h1.354v.226h.225v.225h.226v.452h-.451v-.226h-.226v-.226h-.902v.226h-.226v.677h1.354v.225h.225v.226h.226v.902h-.226v.226h-.225Zm-1.128-.226h.902v-.225h.226v-.451h-.226v-.226h-1.128v.677h.226v.225Zm3.881-2.256H244.9v-.45h2.256v1.127h-.226v.226h-.225v.225h-.226v.226h-.225v1.353h-.452v-1.579h.226v-.225h.226v-.226h.225v-.225h.226v-.452Zm4.378 2.256h.903v-.225h.225v-.451h-.225v-.226h-.903v.226h-.225v.45h.225v.226Zm1.128.226v.225h-1.353v-.225h-.226v-.226h-.225v-.902h.225v-.451h-.225v-.903h.225v-.225h.226v-.226h1.353v.226h.226v.225h.225v.903h-.225v.45h.225v.903h-.225v.226h-.226Zm-.225-2.482h-.903v.226h-.225v.451h.225v.226h.903v-.226h.225v-.451h-.225v-.226Zm1.625 1.354h1.353v-.677h-.225v-.225h-.226v-.226h-.451v.226h-.225v.225h-.226v.677Zm0 1.353h-.451V40.52h.225v-.226h.226v-.226h.226v-.225h.225v-.226h.451v.226h.226v.225h.225v.226h.226v.226h.226v2.255h-.452v-.902h-1.353v.902Zm7.311-3.158v.451h-1.805v.903h1.354v.45h-1.354v1.354h-.451v-3.158h2.256Zm.949.451v2.256h1.128v-.225h.225v-1.805h-.225v-.226h-1.128Zm-.452 2.707v-3.158h1.805v.226h.226v.225h.225v2.256h-.225v.226h-.226v.225h-1.805Z" fill="#FF8E78" fill-opacity=".87"/><path d="M90 40.75v-2.5a.5.5 0 0 1 .5-.5H159M268 40.25v-2a.5.5 0 0 0-.5-.5h-25.339M90 41.75v2.5a.5.5 0 0 0 .5.5H159M268 41.75v2a.5.5 0 0 1-.5.5h-25.339" stroke="#FFBAAC" stroke-opacity=".23" stroke-width=".5" stroke-linecap="round"/></g></g></g><defs><filter id="b" x="40" y="15" width="337.016" height="212.531" filterUnits="userSpaceOnUse" color-interpolation-filters="sRGB"><feFlood flood-opacity="0" result="BackgroundImageFix"/><feColorMatrix in="SourceAlpha" values="0 0 0 0 0 0 0 0 0 0 0 0 0 0 0 0 0 0 127 0" result="hardAlpha"/><feMorphology radius="12" in="SourceAlpha" result="effect1_dropShadow_1171_39659"/><feOffset dy="25"/><feGaussianBlur stdDeviation="25"/><feColorMatrix values="0 0 0 0 0 0 0 0 0 0 0 0 0 0 0 0 0 0 0.25 0"/><feBlend in2="BackgroundImageFix" result="effect1_dropShadow_1171_39659"/><feBlend in="SourceGraphic" in2="effect1_dropShadow_1171_39659" result="shape"/></filter><filter id="e" x="77" y="54" width="262" height="4" filterUnits="userSpaceOnUse" color-interpolation-filters="sRGB"><feFlood flood-opacity="0" result="BackgroundImageFix"/><feColorMatrix in="SourceAlpha" values="0 0 0 0 0 0 0 0 0 0 0 0 0 0 0 0 0 0 127 0" result="hardAlpha"/><feOffset dy="2"/><feComposite in2="hardAlpha" operator="out"/><feColorMatrix values="0 0 0 0 0.866667 0 0 0 0 0.866667 0 0 0 0 0.866667 0 0 0 1 0"/><feBlend in2="BackgroundImageFix" result="effect1_dropShadow_1171_39659"/><feBlend in="SourceGraphic" in2="effect1_dropShadow_1171_39659" result="shape"/></filter><filter id="f" x="90.575" y="70.574" width="6.851" height="35.852" filterUnits="userSpaceOnUse" color-interpolation-filters="sRGB"><feFlood flood-opacity="0" result="BackgroundImageFix"/><feBlend in="SourceGraphic" in2="BackgroundImageFix" result="shape"/><feColorMatrix in="SourceAlpha" values="0 0 0 0 0 0 0 0 0 0 0 0 0 0 0 0 0 0 127 0" result="hardAlpha"/><feMorphology radius="1.426" operator="dilate" in="SourceAlpha" result="effect1_innerShadow_1171_39659"/><feOffset dx="2.851" dy="-2.851"/><feComposite in2="hardAlpha" operator="arithmetic" k2="-1" k3="1"/><feColorMatrix values="0 0 0 0 0 0 0 0 0 0 0 0 0 0 0 0 0 0 0.21 0"/><feBlend in2="shape" result="effect1_innerShadow_1171_39659"/></filter><filter id="g" x="121.574" y="70.574" width="6.851" height="35.852" filterUnits="userSpaceOnUse" color-interpolation-filters="sRGB"><feFlood flood-opacity="0" result="BackgroundImageFix"/><feBlend in="SourceGraphic" in2="BackgroundImageFix" result="shape"/><feColorMatrix in="SourceAlpha" values="0 0 0 0 0 0 0 0 0 0 0 0 0 0 0 0 0 0 127 0" result="hardAlpha"/><feMorphology radius="1.426" operator="dilate" in="SourceAlpha" result="effect1_innerShadow_1171_39659"/><feOffset dx="2.851" dy="-2.851"/><feComposite in2="hardAlpha" operator="arithmetic" k2="-1" k3="1"/><feColorMatrix values="0 0 0 0 0 0 0 0 0 0 0 0 0 0 0 0 0 0 0.21 0"/><feBlend in2="shape" result="effect1_innerShadow_1171_39659"/></filter><filter id="h" x="98.575" y="70.574" width="6.851" height="35.852" filterUnits="userSpaceOnUse" color-interpolation-filters="sRGB"><feFlood flood-opacity="0" result="BackgroundImageFix"/><feBlend in="SourceGraphic" in2="BackgroundImageFix" result="shape"/><feColorMatrix in="SourceAlpha" values="0 0 0 0 0 0 0 0 0 0 0 0 0 0 0 0 0 0 127 0" result="hardAlpha"/><feMorphology radius="1.426" operator="dilate" in="SourceAlpha" result="effect1_innerShadow_1171_39659"/><feOffset dx="2.851" dy="-2.851"/><feComposite in2="hardAlpha" operator="arithmetic" k2="-1" k3="1"/><feColorMatrix values="0 0 0 0 0 0 0 0 0 0 0 0 0 0 0 0 0 0 0.21 0"/><feBlend in2="shape" result="effect1_innerShadow_1171_39659"/></filter><filter id="i" x="129.574" y="70.574" width="6.851" height="35.852" filterUnits="userSpaceOnUse" color-interpolation-filters="sRGB"><feFlood flood-opacity="0" result="BackgroundImageFix"/><feBlend in="SourceGraphic" in2="BackgroundImageFix" result="shape"/><feColorMatrix in="SourceAlpha" values="0 0 0 0 0 0 0 0 0 0 0 0 0 0 0 0 0 0 127 0" result="hardAlpha"/><feMorphology radius="1.426" operator="dilate" in="SourceAlpha" result="effect1_innerShadow_1171_39659"/><feOffset dx="2.851" dy="-2.851"/><feComposite in2="hardAlpha" operator="arithmetic" k2="-1" k3="1"/><feColorMatrix values="0 0 0 0 0 0 0 0 0 0 0 0 0 0 0 0 0 0 0.21 0"/><feBlend in2="shape" result="effect1_innerShadow_1171_39659"/></filter><filter id="j" x="105.574" y="70.574" width="6.851" height="35.852" filterUnits="userSpaceOnUse" color-interpolation-filters="sRGB"><feFlood flood-opacity="0" result="BackgroundImageFix"/><feBlend in="SourceGraphic" in2="BackgroundImageFix" result="shape"/><feColorMatrix in="SourceAlpha" values="0 0 0 0 0 0 0 0 0 0 0 0 0 0 0 0 0 0 127 0" result="hardAlpha"/><feMorphology radius="1.426" operator="dilate" in="SourceAlpha" result="effect1_innerShadow_1171_39659"/><feOffset dx="2.851" dy="-2.851"/><feComposite in2="hardAlpha" operator="arithmetic" k2="-1" k3="1"/><feColorMatrix values="0 0 0 0 0 0 0 0 0 0 0 0 0 0 0 0 0 0 0.21 0"/><feBlend in2="shape" result="effect1_innerShadow_1171_39659"/></filter><filter id="k" x="136.574" y="70.574" width="6.851" height="35.852" filterUnits="userSpaceOnUse" color-interpolation-filters="sRGB"><feFlood flood-opacity="0" result="BackgroundImageFix"/><feBlend in="SourceGraphic" in2="BackgroundImageFix" result="shape"/><feColorMatrix in="SourceAlpha" values="0 0 0 0 0 0 0 0 0 0 0 0 0 0 0 0 0 0 127 0" result="hardAlpha"/><feMorphology radius="1.426" operator="dilate" in="SourceAlpha" result="effect1_innerShadow_1171_39659"/><feOffset dx="2.851" dy="-2.851"/><feComposite in2="hardAlpha" operator="arithmetic" k2="-1" k3="1"/><feColorMatrix values="0 0 0 0 0 0 0 0 0 0 0 0 0 0 0 0 0 0 0.21 0"/><feBlend in2="shape" result="effect1_innerShadow_1171_39659"/></filter><filter id="l" x="113.574" y="70.574" width="6.851" height="35.852" filterUnits="userSpaceOnUse" color-interpolation-filters="sRGB"><feFlood flood-opacity="0" result="BackgroundImageFix"/><feBlend in="SourceGraphic" in2="BackgroundImageFix" result="shape"/><feColorMatrix in="SourceAlpha" values="0 0 0 0 0 0 0 0 0 0 0 0 0 0 0 0 0 0 127 0" result="hardAlpha"/><feMorphology radius="1.426" operator="dilate" in="SourceAlpha" result="effect1_innerShadow_1171_39659"/><feOffset dx="2.851" dy="-2.851"/><feComposite in2="hardAlpha" operator="arithmetic" k2="-1" k3="1"/><feColorMatrix values="0 0 0 0 0 0 0 0 0 0 0 0 0 0 0 0 0 0 0.21 0"/><feBlend in2="shape" result="effect1_innerShadow_1171_39659"/></filter><filter id="m" x="144.574" y="70.574" width="6.851" height="35.852" filterUnits="userSpaceOnUse" color-interpolation-filters="sRGB"><feFlood flood-opacity="0" result="BackgroundImageFix"/><feBlend in="SourceGraphic" in2="BackgroundImageFix" result="shape"/><feColorMatrix in="SourceAlpha" values="0 0 0 0 0 0 0 0 0 0 0 0 0 0 0 0 0 0 127 0" result="hardAlpha"/><feMorphology radius="1.426" operator="dilate" in="SourceAlpha" result="effect1_innerShadow_1171_39659"/><feOffset dx="2.851" dy="-2.851"/><feComposite in2="hardAlpha" operator="arithmetic" k2="-1" k3="1"/><feColorMatrix values="0 0 0 0 0 0 0 0 0 0 0 0 0 0 0 0 0 0 0.21 0"/><feBlend in2="shape" result="effect1_innerShadow_1171_39659"/></filter><filter id="n" x="255.078" y="81.078" width="14.045" height="14.045" filterUnits="userSpaceOnUse" color-interpolation-filters="sRGB"><feFlood flood-opacity="0" result="BackgroundImageFix"/><feBlend in="SourceGraphic" in2="BackgroundImageFix" result="shape"/><feColorMatrix in="SourceAlpha" values="0 0 0 0 0 0 0 0 0 0 0 0 0 0 0 0 0 0 127 0" result="hardAlpha"/><feMorphology radius="2.922" operator="dilate" in="SourceAlpha" result="effect1_innerShadow_1171_39659"/><feOffset dx="5.845" dy="-5.845"/><feComposite in2="hardAlpha" operator="arithmetic" k2="-1" k3="1"/><feColorMatrix values="0 0 0 0 0 0 0 0 0 0 0 0 0 0 0 0 0 0 0.21 0"/><feBlend in2="shape" result="effect1_innerShadow_1171_39659"/></filter><filter id="o" x="237.078" y="81.078" width="14.045" height="14.045" filterUnits="userSpaceOnUse" color-interpolation-filters="sRGB"><feFlood flood-opacity="0" result="BackgroundImageFix"/><feBlend in="SourceGraphic" in2="BackgroundImageFix" result="shape"/><feColorMatrix in="SourceAlpha" values="0 0 0 0 0 0 0 0 0 0 0 0 0 0 0 0 0 0 127 0" result="hardAlpha"/><feMorphology radius="2.922" operator="dilate" in="SourceAlpha" result="effect1_innerShadow_1171_39659"/><feOffset dx="5.845" dy="-5.845"/><feComposite in2="hardAlpha" operator="arithmetic" k2="-1" k3="1"/><feColorMatrix values="0 0 0 0 0 0 0 0 0 0 0 0 0 0 0 0 0 0 0.21 0"/><feBlend in2="shape" result="effect1_innerShadow_1171_39659"/></filter><filter id="p" x="219.078" y="81.078" width="14.045" height="14.045" filterUnits="userSpaceOnUse" color-interpolation-filters="sRGB"><feFlood flood-opacity="0" result="BackgroundImageFix"/><feBlend in="SourceGraphic" in2="BackgroundImageFix" result="shape"/><feColorMatrix in="SourceAlpha" values="0 0 0 0 0 0 0 0 0 0 0 0 0 0 0 0 0 0 127 0" result="hardAlpha"/><feMorphology radius="2.922" operator="dilate" in="SourceAlpha" result="effect1_innerShadow_1171_39659"/><feOffset dx="5.845" dy="-5.845"/><feComposite in2="hardAlpha" operator="arithmetic" k2="-1" k3="1"/><feColorMatrix values="0 0 0 0 0 0 0 0 0 0 0 0 0 0 0 0 0 0 0.21 0"/><feBlend in2="shape" result="effect1_innerShadow_1171_39659"/></filter><filter id="q" x="265.616" y="78.297" width="48" height="48" filterUnits="userSpaceOnUse" color-interpolation-filters="sRGB"><feFlood flood-opacity="0" result="BackgroundImageFix"/><feColorMatrix in="SourceAlpha" values="0 0 0 0 0 0 0 0 0 0 0 0 0 0 0 0 0 0 127 0" result="hardAlpha"/><feMorphology radius="4.5" in="SourceAlpha" result="effect1_dropShadow_1171_39659"/><feOffset dy="15"/><feGaussianBlur stdDeviation="11.25"/><feColorMatrix values="0 0 0 0 0 0 0 0 0 0 0 0 0 0 0 0 0 0 0.1 0"/><feBlend in2="BackgroundImageFix" result="effect1_dropShadow_1171_39659"/><feBlend in="SourceGraphic" in2="effect1_dropShadow_1171_39659" result="shape"/></filter><filter id="r" x="85" y="35" width="188" height="14.58" filterUnits="userSpaceOnUse" color-interpolation-filters="sRGB"><feFlood flood-opacity="0" result="BackgroundImageFix"/><feColorMatrix in="SourceAlpha" values="0 0 0 0 0 0 0 0 0 0 0 0 0 0 0 0 0 0 127 0" result="hardAlpha"/><feOffset dy="1"/><feGaussianBlur stdDeviation="1"/><feColorMatrix values="0 0 0 0 0 0 0 0 0 0 0 0 0 0 0 0 0 0 0.06 0"/><feBlend in2="BackgroundImageFix" result="effect1_dropShadow_1171_39659"/><feColorMatrix in="SourceAlpha" values="0 0 0 0 0 0 0 0 0 0 0 0 0 0 0 0 0 0 127 0" result="hardAlpha"/><feOffset dy="1"/><feGaussianBlur stdDeviation="1.5"/><feColorMatrix values="0 0 0 0 0 0 0 0 0 0 0 0 0 0 0 0 0 0 0.1 0"/><feBlend in2="effect1_dropShadow_1171_39659" result="effect2_dropShadow_1171_39659"/><feBlend in="SourceGraphic" in2="effect2_dropShadow_1171_39659" result="shape"/></filter><filter id="s" x="88" y="37" width="182" height="8.58" filterUnits="userSpaceOnUse" color-interpolation-filters="sRGB"><feFlood flood-opacity="0" result="BackgroundImageFix"/><feBlend in="SourceGraphic" in2="BackgroundImageFix" result="shape"/><feColorMatrix in="SourceAlpha" values="0 0 0 0 0 0 0 0 0 0 0 0 0 0 0 0 0 0 127 0" result="hardAlpha"/><feOffset dy="-4"/><feComposite in2="hardAlpha" operator="arithmetic" k2="-1" k3="1"/><feColorMatrix values="0 0 0 0 1 0 0 0 0 0.162393 0 0 0 0 0 0 0 0 0.12 0"/><feBlend in2="shape" result="effect1_innerShadow_1171_39659"/></filter><clipPath id="a"><path fill="#fff" d="M0 0h270.333v116H0z"/></clipPath><clipPath id="c"><rect x="78" y="28" width="261.016" height="136.531" rx="4" fill="#fff"/></clipPath><linearGradient id="d" x1="88.5" y1="28" x2="385.5" y2="177.5" gradientUnits="userSpaceOnUse"><stop stop-color="#fff"/><stop offset="1" stop-color="#D5D5D5"/></linearGradient></defs></svg>
