<svg xmlns="http://www.w3.org/2000/svg" fill="none" viewBox="0 0 29 44"><g filter="url(#a)"><path fill="url(#b)" fill-opacity=".7" d="M19.67.26a1.3 1.3 0 0 1 .8 1.42l-2.54 15.8 8.6-1.21a1.3 1.3 0 0 1 1.25 2.04l-17.61 24.9a1.3 1.3 0 0 1-2.36-.96l2.53-15.8-8.6 1.21A1.3 1.3 0 0 1 .5 25.61L18.1.71a1.3 1.3 0 0 1 1.57-.45Z"/></g><path stroke="url(#c)" stroke-opacity=".1" d="m19.42.7.06.02a.8.8 0 0 1 .5.88l-2.54 15.8-.11.66.67-.1 8.6-1.2a.8.8 0 0 1 .77 1.27L9.76 42.93a.8.8 0 0 1-1.46-.6l2.54-15.8.1-.67-.67.1-8.6 1.2a.8.8 0 0 1-.76-1.26L18.5 1a.8.8 0 0 1 .91-.3Z"/><defs><linearGradient id="b" x1="1.76" x2="21.27" y1="7.13" y2="41.51" gradientUnits="userSpaceOnUse"><stop stop-color="#fff" stop-opacity="0"/><stop offset=".52" stop-color="#fff" stop-opacity=".45"/><stop offset="1" stop-color="#fff" stop-opacity=".1"/></linearGradient><linearGradient id="c" x1="11.23" x2="17.04" y1="1.26" y2="42.66" gradientUnits="userSpaceOnUse"><stop stop-color="#fff" stop-opacity=".5"/><stop offset="1" stop-color="#fff" stop-opacity=".03"/></linearGradient><filter id="a" width="27.76" height="47.6" x=".26" y=".16" color-interpolation-filters="sRGB" filterUnits="userSpaceOnUse"><feFlood flood-opacity="0" result="BackgroundImageFix"/><feBlend in="SourceGraphic" in2="BackgroundImageFix" result="shape"/><feColorMatrix in="SourceAlpha" result="hardAlpha" values="0 0 0 0 0 0 0 0 0 0 0 0 0 0 0 0 0 0 127 0"/><feOffset dy="4"/><feGaussianBlur stdDeviation="2"/><feComposite in2="hardAlpha" k2="-1" k3="1" operator="arithmetic"/><feColorMatrix values="0 0 0 0 0 0 0 0 0 0 0 0 0 0 0 0 0 0 0.25 0"/><feBlend in2="shape" result="effect1_innerShadow_1492_136204"/></filter></defs></svg>