<svg width="292" height="149" fill="none" xmlns="ht tp://www.w3.org/2000/svg">
<g clip-path="url(#clip0_1137_28447)">
<rect width="146" height="149" fill="#E5E5E5"/>
<path d="M29 16C29 13.7909 30.7909 12 33 12H145C147.209 12 149 13.7909 149 16V160C149 162.209 147.209 164 145 164H33C30.7909 164 29 162.209 29 160V16Z" fill="#F5F5F5"/>
<path d="M33 12.12H145C147.143 12.12 148.88 13.8571 148.88 16V160C148.88 162.143 147.143 163.88 145 163.88H33C30.8571 163.88 29.12 162.143 29.12 160V16C29.12 13.8571 30.8571 12.12 33 12.12Z" stroke="black" stroke-opacity="0.12" stroke-width="0.24"/>
<rect x="39" y="80" width="12" height="5" rx="1" fill="#E7E7E7"/>
<g filter="url(#filter0_d_1137_28447)">
<path d="M48.0708 92H43.2861C42.7575 92 42.3291 92.3385 42.3291 92.756V96.536C42.3291 96.9535 42.7575 97.292 43.2861 97.292H48.0708C48.5993 97.292 49.0278 96.9535 49.0278 96.536V92.756C49.0278 92.3385 48.5993 92 48.0708 92Z" fill="#D9D9D9" fill-opacity="0.1"/>
<rect x="53.0137" y="92" width="18.9871" height="5" rx="1" fill="#E7E7E7"/>
<rect x="53.0137" y="92" width="18.9871" height="5" rx="1" fill="#E7E7E7"/>
</g>
<path d="M54.3999 119H49.6152C49.0866 119 48.6582 119.338 48.6582 119.756V123.536C48.6582 123.954 49.0866 124.292 49.6152 124.292H54.3999C54.9284 124.292 55.3569 123.954 55.3569 123.536V119.756C55.3569 119.338 54.9284 119 54.3999 119Z" fill="#D9D9D9" fill-opacity="0.1"/>
<rect x="58.7847" y="119" width="60.7589" height="5" rx="1" fill="#E7E7E7"/>
<g filter="url(#filter1_d_1137_28447)">
<path d="M54.3999 133H49.6152C49.0866 133 48.6582 133.338 48.6582 133.756V137.536C48.6582 137.954 49.0866 138.292 49.6152 138.292H54.3999C54.9284 138.292 55.3569 137.954 55.3569 137.536V133.756C55.3569 133.338 54.9284 133 54.3999 133Z" fill="#D9D9D9" fill-opacity="0.1"/>
<rect x="58.7847" y="133" width="24.0504" height="5" rx="1" fill="#E7E7E7"/>
</g>
<path d="M53 147H48C47.4477 147 47 147.32 47 147.714V151.286C47 151.68 47.4477 152 48 152H53C53.5523 152 54 151.68 54 151.286V147.714C54 147.32 53.5523 147 53 147Z" fill="#D9D9D9" fill-opacity="0.1"/>
<g filter="url(#filter2_dd_1137_28447)">
<path d="M144.129 42.238H38.8709C37.2853 42.238 36 43.2535 36 44.506V53.577C36 54.8296 37.2853 55.845 38.8709 55.845H144.129C145.715 55.845 147 54.8296 147 53.577V44.506C147 43.2535 145.715 42.238 144.129 42.238Z" fill="#F5F5F5"/>
<path d="M144.129 42.238H38.8709C37.2853 42.238 36 43.2535 36 44.506V53.577C36 54.8296 37.2853 55.845 38.8709 55.845H144.129C145.715 55.845 147 54.8296 147 53.577V44.506C147 43.2535 145.715 42.238 144.129 42.238Z" fill="white" fill-opacity="0.1"/>
<path d="M45.5684 46H40.7836C40.2551 46 39.8267 46.3385 39.8267 46.756V50.536C39.8267 50.9535 40.2551 51.292 40.7836 51.292H45.5684C46.0969 51.292 46.5253 50.9535 46.5253 50.536V46.756C46.5253 46.3385 46.0969 46 45.5684 46Z" fill="#A2A2A2" fill-opacity="0.1"/>
<rect x="50.5112" y="46" width="18.9871" height="5" rx="1" fill="#E7E7E7"/>
</g>
<g filter="url(#filter3_d_1137_28447)">
<path d="M46.8052 61H42.0204C41.4919 61 41.0635 61.3385 41.0635 61.756V65.536C41.0635 65.9535 41.4919 66.292 42.0204 66.292H46.8052C47.3337 66.292 47.7621 65.9535 47.7621 65.536V61.756C47.7621 61.3385 47.3337 61 46.8052 61Z" fill="#D9D9D9" fill-opacity="0.1"/>
<rect x="51.748" y="61" width="18.9871" height="5" rx="1" fill="#E7E7E7"/>
</g>
<path d="M45.071 18.744H40.536C38.0308 18.744 36 20.7749 36 23.28V27.815C36 30.3202 38.0308 32.351 40.536 32.351H45.071C47.5762 32.351 49.607 30.3202 49.607 27.815V23.28C49.607 20.7749 47.5762 18.744 45.071 18.744Z" fill="#DDDDDD"/>
<mask id="mask0_1137_28447" style="mask-type:luminance" maskUnits="userSpaceOnUse" x="47" y="26" width="7" height="7">
<path d="M50.78 26.304H49.268C48.0154 26.304 47 27.3194 47 28.572V30.084C47 31.3365 48.0154 32.352 49.268 32.352H50.78C52.0326 32.352 53.048 31.3365 53.048 30.084V28.572C53.048 27.3194 52.0326 26.304 50.78 26.304Z" fill="white"/>
</mask>
<g mask="url(#mask0_1137_28447)">
<path d="M50.78 26.304H49.268C48.0154 26.304 47 27.3194 47 28.572V30.084C47 31.3365 48.0154 32.352 49.268 32.352H50.78C52.0326 32.352 53.048 31.3365 53.048 30.084V28.572C53.048 27.3194 52.0326 26.304 50.78 26.304Z" fill="white"/>
<mask id="mask1_1137_28447" style="mask-type:luminance" maskUnits="userSpaceOnUse" x="47" y="26" width="7" height="7">
<path d="M50.78 26.304H49.268C48.0154 26.304 47 27.3194 47 28.572V30.084C47 31.3365 48.0154 32.352 49.268 32.352H50.78C52.0326 32.352 53.048 31.3365 53.048 30.084V28.572C53.048 27.3194 52.0326 26.304 50.78 26.304Z" fill="white"/>
</mask>
<g mask="url(#mask1_1137_28447)">
<path d="M50.78 26.304H49.268C48.0154 26.304 47 27.3194 47 28.572V30.084C47 31.3365 48.0154 32.352 49.268 32.352H50.78C52.0326 32.352 53.048 31.3365 53.048 30.084V28.572C53.048 27.3194 52.0326 26.304 50.78 26.304Z" fill="white"/>
<path d="M50.78 26.304H49.268C48.0154 26.304 47 27.3194 47 28.572V30.084C47 31.3365 48.0154 32.352 49.268 32.352H50.78C52.0326 32.352 53.048 31.3365 53.048 30.084V28.572C53.048 27.3194 52.0326 26.304 50.78 26.304Z" fill="#E6E6E6"/>
</g>
<path d="M50.78 26.115H49.268C47.9111 26.115 46.811 27.215 46.811 28.572V30.084C46.811 31.441 47.9111 32.541 49.268 32.541H50.78C52.137 32.541 53.237 31.441 53.237 30.084V28.572C53.237 27.215 52.137 26.115 50.78 26.115Z" stroke="#F5F5F5" stroke-width="0.378"/>
<path d="M50.78 26.115H49.268C47.9111 26.115 46.811 27.215 46.811 28.572V30.084C46.811 31.441 47.9111 32.541 49.268 32.541H50.78C52.137 32.541 53.237 31.441 53.237 30.084V28.572C53.237 27.215 52.137 26.115 50.78 26.115Z" stroke="white" stroke-opacity="0.12" stroke-width="0.378"/>
</g>
<rect x="60" y="19" width="25" height="6" rx="1" fill="#DDDDDD"/>
<rect x="60" y="26" width="29" height="5" rx="1" fill="#E7E7E7"/>
<rect x="146" width="146" height="149" fill="#292929"/>
<path d="M176 16C176 13.7909 177.791 12 180 12H292C294.209 12 296 13.7909 296 16V160C296 162.209 294.209 164 292 164H180C177.791 164 176 162.209 176 160V16Z" fill="#141414"/>
<path d="M180 12.12H292C294.143 12.12 295.88 13.8571 295.88 16V160C295.88 162.143 294.143 163.88 292 163.88H180C177.857 163.88 176.12 162.143 176.12 160V16C176.12 13.8571 177.857 12.12 180 12.12Z" stroke="black" stroke-opacity="0.12" stroke-width="0.24"/>
<rect x="186" y="80" width="12" height="5" rx="1" fill="#222222"/>
<g filter="url(#filter4_d_1137_28447)">
<path d="M195.071 92H190.286C189.758 92 189.329 92.3385 189.329 92.756V96.536C189.329 96.9535 189.758 97.292 190.286 97.292H195.071C195.599 97.292 196.028 96.9535 196.028 96.536V92.756C196.028 92.3385 195.599 92 195.071 92Z" fill="#D9D9D9" fill-opacity="0.1"/>
<rect x="200.014" y="92" width="18.9871" height="5" rx="1" fill="#222222"/>
<rect x="200.014" y="92" width="18.9871" height="5" rx="1" fill="#222222"/>
</g>
<path d="M201.4 119H196.615C196.087 119 195.658 119.338 195.658 119.756V123.536C195.658 123.954 196.087 124.292 196.615 124.292H201.4C201.928 124.292 202.357 123.954 202.357 123.536V119.756C202.357 119.338 201.928 119 201.4 119Z" fill="#D9D9D9" fill-opacity="0.1"/>
<rect x="205.785" y="119" width="60.7589" height="5" rx="1" fill="#222222"/>
<g filter="url(#filter5_d_1137_28447)">
<path d="M201.4 133H196.615C196.087 133 195.658 133.338 195.658 133.756V137.536C195.658 137.954 196.087 138.292 196.615 138.292H201.4C201.928 138.292 202.357 137.954 202.357 137.536V133.756C202.357 133.338 201.928 133 201.4 133Z" fill="#D9D9D9" fill-opacity="0.1"/>
<rect x="205.785" y="133" width="24.0504" height="5" rx="1" fill="#222222"/>
</g>
<path d="M200 147H195C194.448 147 194 147.32 194 147.714V151.286C194 151.68 194.448 152 195 152H200C200.552 152 201 151.68 201 151.286V147.714C201 147.32 200.552 147 200 147Z" fill="#D9D9D9" fill-opacity="0.1"/>
<g filter="url(#filter6_dd_1137_28447)">
<path d="M291.129 42.238H185.871C184.285 42.238 183 43.2535 183 44.506V53.577C183 54.8296 184.285 55.845 185.871 55.845H291.129C292.715 55.845 294 54.8296 294 53.577V44.506C294 43.2535 292.715 42.238 291.129 42.238Z" fill="#F5F5F5"/>
<path d="M291.129 42.238H185.871C184.285 42.238 183 43.2535 183 44.506V53.577C183 54.8296 184.285 55.845 185.871 55.845H291.129C292.715 55.845 294 54.8296 294 53.577V44.506C294 43.2535 292.715 42.238 291.129 42.238Z" fill="#1A1A1A"/>
<path d="M192.568 46H187.784C187.255 46 186.827 46.3385 186.827 46.756V50.536C186.827 50.9535 187.255 51.292 187.784 51.292H192.568C193.097 51.292 193.525 50.9535 193.525 50.536V46.756C193.525 46.3385 193.097 46 192.568 46Z" fill="#A2A2A2" fill-opacity="0.1"/>
<rect x="197.511" y="46" width="18.9871" height="5" rx="1" fill="#222222"/>
</g>
<g filter="url(#filter7_d_1137_28447)">
<path d="M193.805 61H189.02C188.492 61 188.063 61.3385 188.063 61.756V65.536C188.063 65.9535 188.492 66.292 189.02 66.292H193.805C194.334 66.292 194.762 65.9535 194.762 65.536V61.756C194.762 61.3385 194.334 61 193.805 61Z" fill="#D9D9D9" fill-opacity="0.1"/>
<rect x="198.748" y="61" width="18.9871" height="5" rx="1" fill="#222222"/>
</g>
<path d="M192.071 18.744H187.536C185.031 18.744 183 20.7749 183 23.28V27.815C183 30.3202 185.031 32.351 187.536 32.351H192.071C194.576 32.351 196.607 30.3202 196.607 27.815V23.28C196.607 20.7749 194.576 18.744 192.071 18.744Z" fill="#2D2D2D"/>
<mask id="mask2_1137_28447" style="mask-type:luminance" maskUnits="userSpaceOnUse" x="194" y="26" width="7" height="7">
<path d="M197.78 26.304H196.268C195.015 26.304 194 27.3194 194 28.572V30.084C194 31.3365 195.015 32.352 196.268 32.352H197.78C199.033 32.352 200.048 31.3365 200.048 30.084V28.572C200.048 27.3194 199.033 26.304 197.78 26.304Z" fill="white"/>
</mask>
<g mask="url(#mask2_1137_28447)">
<path d="M197.78 26.304H196.268C195.015 26.304 194 27.3194 194 28.572V30.084C194 31.3365 195.015 32.352 196.268 32.352H197.78C199.033 32.352 200.048 31.3365 200.048 30.084V28.572C200.048 27.3194 199.033 26.304 197.78 26.304Z" fill="white"/>
<mask id="mask3_1137_28447" style="mask-type:luminance" maskUnits="userSpaceOnUse" x="194" y="26" width="7" height="7">
<path d="M197.78 26.304H196.268C195.015 26.304 194 27.3194 194 28.572V30.084C194 31.3365 195.015 32.352 196.268 32.352H197.78C199.033 32.352 200.048 31.3365 200.048 30.084V28.572C200.048 27.3194 199.033 26.304 197.78 26.304Z" fill="white"/>
</mask>
<g mask="url(#mask3_1137_28447)">
<path d="M197.78 26.304H196.268C195.015 26.304 194 27.3194 194 28.572V30.084C194 31.3365 195.015 32.352 196.268 32.352H197.78C199.033 32.352 200.048 31.3365 200.048 30.084V28.572C200.048 27.3194 199.033 26.304 197.78 26.304Z" fill="white"/>
<path d="M197.78 26.304H196.268C195.015 26.304 194 27.3194 194 28.572V30.084C194 31.3365 195.015 32.352 196.268 32.352H197.78C199.033 32.352 200.048 31.3365 200.048 30.084V28.572C200.048 27.3194 199.033 26.304 197.78 26.304Z" fill="#222222"/>
</g>
<path d="M197.78 26.115H196.268C194.911 26.115 193.811 27.215 193.811 28.572V30.084C193.811 31.441 194.911 32.541 196.268 32.541H197.78C199.137 32.541 200.237 31.441 200.237 30.084V28.572C200.237 27.215 199.137 26.115 197.78 26.115Z" stroke="#F5F5F5" stroke-width="0.378"/>
<path d="M197.78 26.115H196.268C194.911 26.115 193.811 27.215 193.811 28.572V30.084C193.811 31.441 194.911 32.541 196.268 32.541H197.78C199.137 32.541 200.237 31.441 200.237 30.084V28.572C200.237 27.215 199.137 26.115 197.78 26.115Z" stroke="white" stroke-opacity="0.12" stroke-width="0.378"/>
</g>
<rect x="207" y="19" width="25" height="6" rx="1" fill="#2C2C2C"/>
<rect x="207" y="26" width="29" height="5" rx="1" fill="#222222"/>
</g>
<defs>
<filter id="filter0_d_1137_28447" x="41.5731" y="91.622" width="31.1839" height="6.80399" filterUnits="userSpaceOnUse" color-interpolation-filters="sRGB">
<feFlood flood-opacity="0" result="BackgroundImageFix"/>
<feColorMatrix in="SourceAlpha" type="matrix" values="0 0 0 0 0 0 0 0 0 0 0 0 0 0 0 0 0 0 127 0" result="hardAlpha"/>
<feOffset dy="0.378"/>
<feGaussianBlur stdDeviation="0.378"/>
<feColorMatrix type="matrix" values="0 0 0 0 0 0 0 0 0 0 0 0 0 0 0 0 0 0 0.05 0"/>
<feBlend mode="normal" in2="BackgroundImageFix" result="effect1_dropShadow_1137_28447"/>
<feBlend mode="normal" in="SourceGraphic" in2="effect1_dropShadow_1137_28447" result="shape"/>
</filter>
<filter id="filter1_d_1137_28447" x="47.9022" y="132.622" width="35.6888" height="6.80399" filterUnits="userSpaceOnUse" color-interpolation-filters="sRGB">
<feFlood flood-opacity="0" result="BackgroundImageFix"/>
<feColorMatrix in="SourceAlpha" type="matrix" values="0 0 0 0 0 0 0 0 0 0 0 0 0 0 0 0 0 0 127 0" result="hardAlpha"/>
<feOffset dy="0.378"/>
<feGaussianBlur stdDeviation="0.378"/>
<feColorMatrix type="matrix" values="0 0 0 0 0 0 0 0 0 0 0 0 0 0 0 0 0 0 0.05 0"/>
<feBlend mode="normal" in2="BackgroundImageFix" result="effect1_dropShadow_1137_28447"/>
<feBlend mode="normal" in="SourceGraphic" in2="effect1_dropShadow_1137_28447" result="shape"/>
</filter>
<filter id="filter2_dd_1137_28447" x="34.866" y="41.482" width="113.268" height="15.8751" filterUnits="userSpaceOnUse" color-interpolation-filters="sRGB">
<feFlood flood-opacity="0" result="BackgroundImageFix"/>
<feColorMatrix in="SourceAlpha" type="matrix" values="0 0 0 0 0 0 0 0 0 0 0 0 0 0 0 0 0 0 127 0" result="hardAlpha"/>
<feOffset dy="0.378"/>
<feGaussianBlur stdDeviation="0.378"/>
<feColorMatrix type="matrix" values="0 0 0 0 0 0 0 0 0 0 0 0 0 0 0 0 0 0 0.06 0"/>
<feBlend mode="normal" in2="BackgroundImageFix" result="effect1_dropShadow_1137_28447"/>
<feColorMatrix in="SourceAlpha" type="matrix" values="0 0 0 0 0 0 0 0 0 0 0 0 0 0 0 0 0 0 127 0" result="hardAlpha"/>
<feOffset dy="0.378"/>
<feGaussianBlur stdDeviation="0.567"/>
<feColorMatrix type="matrix" values="0 0 0 0 0 0 0 0 0 0 0 0 0 0 0 0 0 0 0.1 0"/>
<feBlend mode="normal" in2="effect1_dropShadow_1137_28447" result="effect2_dropShadow_1137_28447"/>
<feBlend mode="normal" in="SourceGraphic" in2="effect2_dropShadow_1137_28447" result="shape"/>
</filter>
<filter id="filter3_d_1137_28447" x="40.3075" y="60.622" width="31.1839" height="6.80399" filterUnits="userSpaceOnUse" color-interpolation-filters="sRGB">
<feFlood flood-opacity="0" result="BackgroundImageFix"/>
<feColorMatrix in="SourceAlpha" type="matrix" values="0 0 0 0 0 0 0 0 0 0 0 0 0 0 0 0 0 0 127 0" result="hardAlpha"/>
<feOffset dy="0.378"/>
<feGaussianBlur stdDeviation="0.378"/>
<feColorMatrix type="matrix" values="0 0 0 0 0 0 0 0 0 0 0 0 0 0 0 0 0 0 0.05 0"/>
<feBlend mode="normal" in2="BackgroundImageFix" result="effect1_dropShadow_1137_28447"/>
<feBlend mode="normal" in="SourceGraphic" in2="effect1_dropShadow_1137_28447" result="shape"/>
</filter>
<filter id="filter4_d_1137_28447" x="188.573" y="91.622" width="31.1839" height="6.80399" filterUnits="userSpaceOnUse" color-interpolation-filters="sRGB">
<feFlood flood-opacity="0" result="BackgroundImageFix"/>
<feColorMatrix in="SourceAlpha" type="matrix" values="0 0 0 0 0 0 0 0 0 0 0 0 0 0 0 0 0 0 127 0" result="hardAlpha"/>
<feOffset dy="0.378"/>
<feGaussianBlur stdDeviation="0.378"/>
<feColorMatrix type="matrix" values="0 0 0 0 0 0 0 0 0 0 0 0 0 0 0 0 0 0 0.05 0"/>
<feBlend mode="normal" in2="BackgroundImageFix" result="effect1_dropShadow_1137_28447"/>
<feBlend mode="normal" in="SourceGraphic" in2="effect1_dropShadow_1137_28447" result="shape"/>
</filter>
<filter id="filter5_d_1137_28447" x="194.902" y="132.622" width="35.6888" height="6.80399" filterUnits="userSpaceOnUse" color-interpolation-filters="sRGB">
<feFlood flood-opacity="0" result="BackgroundImageFix"/>
<feColorMatrix in="SourceAlpha" type="matrix" values="0 0 0 0 0 0 0 0 0 0 0 0 0 0 0 0 0 0 127 0" result="hardAlpha"/>
<feOffset dy="0.378"/>
<feGaussianBlur stdDeviation="0.378"/>
<feColorMatrix type="matrix" values="0 0 0 0 0 0 0 0 0 0 0 0 0 0 0 0 0 0 0.05 0"/>
<feBlend mode="normal" in2="BackgroundImageFix" result="effect1_dropShadow_1137_28447"/>
<feBlend mode="normal" in="SourceGraphic" in2="effect1_dropShadow_1137_28447" result="shape"/>
</filter>
<filter id="filter6_dd_1137_28447" x="181.866" y="41.482" width="113.268" height="15.8751" filterUnits="userSpaceOnUse" color-interpolation-filters="sRGB">
<feFlood flood-opacity="0" result="BackgroundImageFix"/>
<feColorMatrix in="SourceAlpha" type="matrix" values="0 0 0 0 0 0 0 0 0 0 0 0 0 0 0 0 0 0 127 0" result="hardAlpha"/>
<feOffset dy="0.378"/>
<feGaussianBlur stdDeviation="0.378"/>
<feColorMatrix type="matrix" values="0 0 0 0 0 0 0 0 0 0 0 0 0 0 0 0 0 0 0.06 0"/>
<feBlend mode="normal" in2="BackgroundImageFix" result="effect1_dropShadow_1137_28447"/>
<feColorMatrix in="SourceAlpha" type="matrix" values="0 0 0 0 0 0 0 0 0 0 0 0 0 0 0 0 0 0 127 0" result="hardAlpha"/>
<feOffset dy="0.378"/>
<feGaussianBlur stdDeviation="0.567"/>
<feColorMatrix type="matrix" values="0 0 0 0 0 0 0 0 0 0 0 0 0 0 0 0 0 0 0.1 0"/>
<feBlend mode="normal" in2="effect1_dropShadow_1137_28447" result="effect2_dropShadow_1137_28447"/>
<feBlend mode="normal" in="SourceGraphic" in2="effect2_dropShadow_1137_28447" result="shape"/>
</filter>
<filter id="filter7_d_1137_28447" x="187.307" y="60.622" width="31.1839" height="6.80399" filterUnits="userSpaceOnUse" color-interpolation-filters="sRGB">
<feFlood flood-opacity="0" result="BackgroundImageFix"/>
<feColorMatrix in="SourceAlpha" type="matrix" values="0 0 0 0 0 0 0 0 0 0 0 0 0 0 0 0 0 0 127 0" result="hardAlpha"/>
<feOffset dy="0.378"/>
<feGaussianBlur stdDeviation="0.378"/>
<feColorMatrix type="matrix" values="0 0 0 0 0 0 0 0 0 0 0 0 0 0 0 0 0 0 0.05 0"/>
<feBlend mode="normal" in2="BackgroundImageFix" result="effect1_dropShadow_1137_28447"/>
<feBlend mode="normal" in="SourceGraphic" in2="effect1_dropShadow_1137_28447" result="shape"/>
</filter>
<clipPath id="clip0_1137_28447">
<rect width="292" height="149" fill="white"/>
</clipPath>
</defs>
</svg>
