<svg width="68" height="66" viewBox="0 0 68 66" fill="none" xmlns="http://www.w3.org/2000/svg">
<g filter="url(#filter0_di_925_31494)">
<g clip-path="url(#clip0_925_31494)">
<mask id="mask0_925_31494" style="mask-type:alpha" maskUnits="userSpaceOnUse" x="4" y="4" width="60" height="54">
<path d="M6.4641 37C4.32051 33.2872 4.32051 28.7128 6.4641 25L15.0359 10.1532C17.1795 6.4404 21.141 4.15321 25.4282 4.15321L42.5718 4.15321C46.859 4.15321 50.8205 6.4404 52.9641 10.1532L61.5359 25C63.6795 28.7128 63.6795 33.2872 61.5359 37L52.9641 51.8468C50.8205 55.5596 46.859 57.8468 42.5718 57.8468L25.4282 57.8468C21.141 57.8468 17.1795 55.5596 15.0359 51.8468L6.4641 37Z" fill="#D9D9D9"/>
</mask>
<g mask="url(#mask0_925_31494)">
<rect x="3" y="1" width="64" height="64" fill="url(#paint0_linear_925_31494)"/>
<path d="M39.5 34.1666C39.5 31.25 37.75 30.25 34.25 29.8334C31.75 29.5 31.25 28.8334 31.25 27.6666C31.25 26.4998 32.0834 25.75 33.75 25.75C35.25 25.75 36.0834 26.25 36.5 27.5C36.5834 27.75 36.8334 27.9166 37.0834 27.9166H38.4166C38.75 27.9166 39 27.6666 39 27.3334V27.25C38.6666 25.4166 37.1666 24 35.25 23.8334V21.8334C35.25 21.5 35 21.25 34.5834 21.1666H33.3334C33 21.1666 32.75 21.4166 32.6666 21.8334V23.75C30.1666 24.0834 28.5834 25.75 28.5834 27.8334C28.5834 30.5834 30.25 31.6666 33.75 32.0834C36.0834 32.5 36.8334 33 36.8334 34.3334C36.8334 35.6668 35.6666 36.5834 34.0834 36.5834C31.9166 36.5834 31.1666 35.6666 30.9166 34.4166C30.8334 34.0834 30.5834 33.9166 30.3334 33.9166H28.9166C28.5834 33.9166 28.3334 34.1666 28.3334 34.5V34.5834C28.6666 36.6666 30 38.1666 32.75 38.5834V40.5834C32.75 40.9166 33 41.1666 33.4166 41.25H34.6666C35 41.25 35.25 41 35.3334 40.5834V38.5834C37.8334 38.1666 39.5 36.4166 39.5 34.1666Z" fill="white"/>
<path d="M29.75 42.9166C23.25 40.5834 19.9166 33.3334 22.3334 26.9166C23.5834 23.4166 26.3334 20.75 29.75 19.5C30.0834 19.3334 30.25 19.0834 30.25 18.6666V17.5C30.25 17.1666 30.0834 16.9166 29.75 16.8334C29.6666 16.8334 29.5 16.8334 29.4166 16.9166C21.5 19.4166 17.1666 27.8334 19.6666 35.75C21.1666 40.4166 24.75 44 29.4166 45.5C29.75 45.6666 30.0834 45.5 30.1666 45.1666C30.25 45.0834 30.25 45 30.25 44.8334V43.6666C30.25 43.4166 30 43.0834 29.75 42.9166ZM38.5834 16.9166C38.25 16.75 37.9166 16.9166 37.8334 17.25C37.75 17.3334 37.75 17.4166 37.75 17.5834V18.75C37.75 19.0834 38 19.4166 38.25 19.5834C44.75 21.9166 48.0834 29.1666 45.6666 35.5834C44.4166 39.0834 41.6666 41.75 38.25 43C37.9166 43.1666 37.75 43.4166 37.75 43.8334V45C37.75 45.3334 37.9166 45.5834 38.25 45.6666C38.3334 45.6666 38.5 45.6666 38.5834 45.5834C46.5 43.0834 50.8334 34.6666 48.3334 26.75C46.8334 22 43.1666 18.4166 38.5834 16.9166Z" fill="white"/>
</g>
</g>
</g>
<defs>
<filter id="filter0_di_925_31494" x="-1" y="0" width="70" height="70" filterUnits="userSpaceOnUse" color-interpolation-filters="sRGB">
<feFlood flood-opacity="0" result="BackgroundImageFix"/>
<feColorMatrix in="SourceAlpha" type="matrix" values="0 0 0 0 0 0 0 0 0 0 0 0 0 0 0 0 0 0 127 0" result="hardAlpha"/>
<feOffset dy="4"/>
<feGaussianBlur stdDeviation="2"/>
<feComposite in2="hardAlpha" operator="out"/>
<feColorMatrix type="matrix" values="0 0 0 0 0 0 0 0 0 0 0 0 0 0 0 0 0 0 0.25 0"/>
<feBlend mode="normal" in2="BackgroundImageFix" result="effect1_dropShadow_925_31494"/>
<feBlend mode="normal" in="SourceGraphic" in2="effect1_dropShadow_925_31494" result="shape"/>
<feColorMatrix in="SourceAlpha" type="matrix" values="0 0 0 0 0 0 0 0 0 0 0 0 0 0 0 0 0 0 127 0" result="hardAlpha"/>
<feOffset dx="1" dy="1"/>
<feGaussianBlur stdDeviation="0.5"/>
<feComposite in2="hardAlpha" operator="arithmetic" k2="-1" k3="1"/>
<feColorMatrix type="matrix" values="0 0 0 0 1 0 0 0 0 1 0 0 0 0 1 0 0 0 0.25 0"/>
<feBlend mode="normal" in2="shape" result="effect2_innerShadow_925_31494"/>
</filter>
<linearGradient id="paint0_linear_925_31494" x1="35" y1="1" x2="35" y2="65" gradientUnits="userSpaceOnUse">
<stop stop-color="#2775CA"/>
<stop offset="1" stop-color="#3D48AA"/>
</linearGradient>
<clipPath id="clip0_925_31494">
<rect x="3" width="62" height="62" rx="16" fill="white"/>
</clipPath>
</defs>
</svg>
