<svg width="25" height="24" viewBox="0 0 25 24" fill="none" xmlns="http://www.w3.org/2000/svg">
<g clip-path="url(#clip0_2123_175505)">
<path d="M20.692 10.3229C17.8878 10.4043 14.1578 10.7583 10.0471 11.466C5.93631 12.1735 5.05448 11.0288 4.65684 9.75136C4.20657 8.30506 4.67379 7.57551 4.67379 7.57551C7.33407 7.14323 7.56656 5.44835 7.49994 4.48375C7.23418 4.81686 6.82709 5.03551 6.48951 5.04823C6.24766 5.05703 5.50531 4.30076 4.30822 5.51466C4.37492 4.84973 4.05685 4.41057 3.2482 4.18456C2.41844 3.95158 1.78222 5.07206 0.517863 3.9519C0.25186 7.47633 3.04466 7.57551 3.04466 7.57551C1.90698 13.8344 6.64435 17.0199 6.72584 17.4012C6.8075 17.7819 5.44629 18.1629 5.6911 18.5448C5.93623 18.9255 7.59695 18.8444 8.57731 18.653C13.3412 19.9051 14.3729 20.1493 20.0658 20.0151C24.6468 19.9056 24.5955 15.875 24.46 14.4568C24.194 11.6691 23.4962 10.2411 20.692 10.3229Z" fill="#F4BB45"/>
</g>
<defs>
<clipPath id="clip0_2123_175505">
<rect width="24" height="24" fill="white" transform="translate(0.5)"/>
</clipPath>
</defs>
</svg>
