<?xml version="1.0" standalone="no"?>
<!DOCTYPE svg PUBLIC "-//W3C//DTD SVG 20010904//EN"
 "http://www.w3.org/TR/2001/REC-SVG-20010904/DTD/svg10.dtd">
<svg version="1.0" xmlns="http://www.w3.org/2000/svg"
 width="700.000000pt" height="700.000000pt" viewBox="0 0 700.000000 700.000000"
 preserveAspectRatio="xMidYMid meet">
<metadata>
Created by potrace 1.14, written by Peter Selinger 2001-2017
</metadata>
<g transform="translate(0.000000,700.000000) scale(0.100000,-0.100000)"
fill="#000000" stroke="none">
<path d="M3300 6543 c-345 -33 -608 -94 -887 -207 -468 -190 -853 -463 -1162
-826 -146 -172 -168 -199 -252 -325 -41 -60 -89 -130 -107 -154 -35 -49 -165
-308 -207 -416 -132 -337 -195 -699 -196 -1125 0 -293 26 -499 96 -765 121
-464 334 -867 650 -1235 180 -209 360 -353 575 -460 101 -51 236 -100 274
-100 19 0 74 -10 123 -21 76 -19 121 -22 333 -23 220 -1 257 1 359 22 603 122
1092 523 1314 1077 72 179 127 423 127 563 l0 52 -57 0 c-135 1 -336 39 -508
96 -108 36 -288 122 -353 170 -30 21 -90 65 -134 97 -219 160 -411 392 -539
652 -290 593 -244 1278 122 1825 241 358 581 610 993 734 200 61 281 71 561
71 233 -1 258 -2 375 -27 69 -15 158 -38 198 -52 39 -14 72 -23 72 -20 0 12
-357 177 -475 219 -236 85 -536 151 -790 175 -101 9 -422 11 -505 3z m170
-105 c-173 -39 -293 -70 -345 -91 -33 -13 -103 -39 -155 -58 -140 -50 -408
-186 -545 -276 -605 -399 -1017 -1021 -1149 -1733 -60 -324 -60 -632 -1 -956
89 -483 319 -946 654 -1312 233 -256 502 -411 841 -483 88 -19 136 -23 295
-23 205 0 307 15 464 69 41 14 76 23 78 21 3 -2 -43 -22 -100 -45 -472 -184
-983 -130 -1406 150 -180 119 -419 373 -587 626 -93 138 -222 392 -279 547
-198 539 -216 1142 -50 1690 211 695 683 1265 1326 1600 216 113 487 208 702
246 166 30 362 51 257 28z m280 -164 c-599 -141 -1066 -456 -1393 -941 -501
-742 -510 -1713 -21 -2453 259 -393 559 -615 944 -697 117 -25 382 -25 494 0
44 9 81 16 83 14 5 -5 -126 -44 -217 -64 -105 -23 -355 -23 -472 0 -194 39
-381 121 -529 231 -107 81 -278 257 -375 388 -593 796 -592 1881 2 2679 87
117 242 281 354 374 317 263 672 424 1100 498 14 2 59 5 100 5 l75 1 -145 -35z"/>
<path d="M4265 6153 c-217 -26 -406 -82 -600 -178 -194 -96 -310 -180 -465
-335 -152 -152 -238 -270 -330 -455 -114 -227 -174 -449 -187 -682 l-6 -111
44 -6 c24 -3 84 -8 134 -11 190 -12 440 -85 635 -186 484 -251 830 -717 942
-1270 20 -100 23 -142 23 -349 -1 -216 -3 -245 -28 -361 -81 -380 -255 -692
-536 -962 -243 -232 -563 -399 -896 -466 -297 -60 -671 -47 -945 33 -47 13
-87 23 -89 20 -2 -2 70 -39 160 -83 266 -128 517 -211 814 -267 127 -24 168
-27 440 -31 266 -4 319 -2 465 17 374 48 647 130 985 295 824 402 1409 1138
1624 2045 61 256 75 386 75 700 0 246 -3 305 -22 430 -86 549 -284 1016 -613
1440 -127 163 -325 362 -380 383 -25 8 -139 97 -139 107 0 13 -134 94 -215
131 -97 44 -248 98 -323 115 -153 36 -430 54 -567 37z m50 -618 c251 -39 506
-154 711 -319 138 -111 341 -339 463 -519 380 -564 534 -1260 425 -1922 -120
-730 -527 -1368 -1139 -1784 -336 -228 -716 -374 -1108 -426 -164 -21 -181
-18 -52 10 254 54 298 66 416 110 163 62 410 188 551 281 652 433 1066 1087
1185 1871 23 155 23 536 -1 698 -61 419 -197 779 -421 1115 -107 161 -153 220
-276 352 -277 297 -629 464 -1044 494 -161 11 -423 -28 -575 -85 -83 -32 -70
-17 17 19 283 118 551 151 848 105z m-474 -670 c325 -54 619 -244 879 -570
540 -677 641 -1605 261 -2380 -118 -240 -256 -429 -452 -621 -338 -329 -761
-539 -1226 -609 -117 -17 -220 -20 -123 -3 90 16 338 87 435 125 683 269 1189
840 1365 1542 51 207 64 316 64 546 0 253 -21 405 -89 640 -131 454 -458 911
-797 1116 -241 146 -546 211 -818 175 -69 -9 -136 -18 -150 -21 -58 -12 62 28
140 47 162 38 328 43 511 13z"/>
</g>
</svg>
