<svg width="180" height="130" viewBox="0 0 180 130" fill="none" xmlns="http://www.w3.org/2000/svg">
<path fill-rule="evenodd" clip-rule="evenodd" d="M35.087 65.9128L41.9259 51.6343L52.1517 57.8851L35.087 65.9128Z" fill="#5290E4" stroke="#0B1E37" stroke-width="0.549479" stroke-linejoin="round"/>
<path fill-rule="evenodd" clip-rule="evenodd" d="M41.926 51.634L53.5008 47.1454L52.1517 57.8848L41.926 51.634Z" fill="#6BAAF2" stroke="#0B1E37" stroke-width="0.549479" stroke-linejoin="round"/>
<path fill-rule="evenodd" clip-rule="evenodd" d="M52.1515 57.8848L53.5006 47.1454L68.0471 53.0142L57.0395 61.0242L52.1515 57.8848Z" fill="#4A94F0" stroke="#0B1E37" stroke-width="0.549479" stroke-linejoin="round"/>
<path fill-rule="evenodd" clip-rule="evenodd" d="M52.1517 57.8851L57.0397 61.0245L50.9479 71.7572L35.087 65.9128L52.1517 57.8851Z" fill="#264781" stroke="#0B1E37" stroke-width="0.549479" stroke-linejoin="round"/>
<path fill-rule="evenodd" clip-rule="evenodd" d="M50.9477 71.7566L57.0395 61.0239L68.0471 53.0139L61.2995 65.7439L50.9477 71.7566Z" fill="#041423" stroke="#0B1E37" stroke-width="0.549479" stroke-linejoin="round"/>
<path fill-rule="evenodd" clip-rule="evenodd" d="M16.5487 90.1786L23.1023 79.9115L42.2675 77.8442L42.5643 88.1151L16.5487 90.1786Z" fill="#0D2D55" stroke="#0B1E37" stroke-width="0.549479" stroke-linecap="round" stroke-linejoin="round"/>
<path fill-rule="evenodd" clip-rule="evenodd" d="M7.90111 79.598L6.91817 61.3623L23.9362 64.6708L7.90111 79.598Z" fill="#2663BB" stroke="#0B1E37" stroke-width="0.549479" stroke-linejoin="round"/>
<path fill-rule="evenodd" clip-rule="evenodd" d="M6.91817 61.362L17.027 44.8624L23.9362 64.6706L6.91817 61.362Z" fill="#4A94F0" stroke="#0B1E37" stroke-width="0.549479" stroke-linejoin="round"/>
<path fill-rule="evenodd" clip-rule="evenodd" d="M17.0268 44.8624L34.7557 54.2101L23.9908 64.6646L17.0268 44.8624Z" fill="#6BAAF2" stroke="#0B1E37" stroke-width="0.549479" stroke-linejoin="round"/>
<path fill-rule="evenodd" clip-rule="evenodd" d="M34.7558 54.21L31.4201 74.6471L23.9361 64.6704L34.7558 54.21Z" fill="#608AD2" stroke="#0B1E37" stroke-width="0.549479" stroke-linejoin="round"/>
<path fill-rule="evenodd" clip-rule="evenodd" d="M7.90104 79.5973L23.9362 64.6702L31.4201 74.6468L7.90104 79.5973Z" fill="#0D2D55" stroke="#0B1E37" stroke-width="0.549479" stroke-linejoin="round"/>
<path fill-rule="evenodd" clip-rule="evenodd" d="M7.90106 79.5975L0.376114 71.2383L1.8278 59.6821L6.91812 61.3618L7.90106 79.5975Z" fill="#0B1324" stroke="#0B1E37" stroke-width="0.549479" stroke-linejoin="round"/>
<path fill-rule="evenodd" clip-rule="evenodd" d="M1.82792 59.6823L17.027 44.8624L6.91823 61.362L1.82792 59.6823Z" fill="#2663BB" stroke="#0B1E37" stroke-width="0.549479" stroke-linejoin="round"/>
<path fill-rule="evenodd" clip-rule="evenodd" d="M14.0356 75.774L32.223 67.2041L23.0254 79.7426L14.0356 75.774Z" fill="#2663BB" stroke="#0B1E37" stroke-width="0.549479" stroke-linecap="round" stroke-linejoin="round"/>
<path fill-rule="evenodd" clip-rule="evenodd" d="M47.4268 69.4727L48.5943 80.2615L42.5084 88.1221L42.2408 77.7881" fill="#4A94F0"/>
<path d="M47.4268 69.4727L48.5943 80.2615L42.5084 88.1221L42.2408 77.7881" stroke="#0B1E37" stroke-width="0.549479" stroke-linecap="round" stroke-linejoin="round"/>
<path fill-rule="evenodd" clip-rule="evenodd" d="M32.3909 67.3025L36.6122 64.7769L47.4243 69.5028L42.1687 77.8555" fill="#6BAAF2"/>
<path d="M32.3909 67.3025L36.6122 64.7769L47.4243 69.5028L42.1687 77.8555" stroke="#0B1E37" stroke-width="0.549479" stroke-linecap="round" stroke-linejoin="round"/>
<path fill-rule="evenodd" clip-rule="evenodd" d="M23.0838 79.7366L32.2758 67.1987L42.2557 77.6686L23.0838 79.7366Z" fill="#4A94F0" stroke="#0B1E37" stroke-width="0.549479" stroke-linecap="round" stroke-linejoin="round"/>
<path fill-rule="evenodd" clip-rule="evenodd" d="M16.4653 90.22L12.8685 85.0647L14.0175 75.9178L23.0647 79.8891L16.4653 90.22Z" fill="#041423" stroke="#0B1E37" stroke-width="0.549479" stroke-linecap="round" stroke-linejoin="round"/>
<path fill-rule="evenodd" clip-rule="evenodd" d="M56.5209 75.5497L53.9512 64.8608L68.9158 74.7776L66.6628 80.1875L56.5209 75.5497Z" fill="#041423" stroke="#0B1E37" stroke-width="0.549479" stroke-linejoin="round"/>
<path fill-rule="evenodd" clip-rule="evenodd" d="M53.9527 64.849L60.7206 53.2948L77.2672 67.0824L68.9212 74.7924L53.9527 64.849Z" fill="#6BAAF2" stroke="#0B1E37" stroke-width="0.549479" stroke-linejoin="round"/>
<path fill-rule="evenodd" clip-rule="evenodd" d="M66.482 80.4003L68.7656 74.9772L77.2454 67.2559L73.697 75.7475L66.482 80.4003Z" fill="#564664" stroke="#0B1E37" stroke-width="0.549479" stroke-linejoin="round"/>
<path fill-rule="evenodd" clip-rule="evenodd" d="M86.9104 57.9725L86.1854 13.8611L96.8463 55.0457L86.9104 57.9725Z" fill="#4A94F0" stroke="#0B1E37" stroke-width="0.549479"/>
<path fill-rule="evenodd" clip-rule="evenodd" d="M100.868 70.7231L86.9041 57.8773L96.9336 54.9844L100.868 70.7231Z" fill="#121915" stroke="#0B1E37" stroke-width="0.549479"/>
<path fill-rule="evenodd" clip-rule="evenodd" d="M86.248 14.0572L101.521 71.1957L147.537 56.3362L134.218 0.606445L86.248 14.0572Z" fill="#DAEBEF" stroke="#0B1E37" stroke-width="0.549479"/>
<path d="M137.479 90.988C137.748 91.1065 138.06 91.1217 138.416 91.0342L146.826 88.9006C147.198 88.8042 147.483 88.6543 147.68 88.4516C147.878 88.2494 147.946 88.0382 147.882 87.8176L147.664 84.4124L154.928 83.1415C155.27 83.0752 155.552 82.95 155.774 82.7662C155.997 82.583 156.09 82.3794 156.052 82.1548L155.774 77.8338C159.287 78.0741 162.619 77.5868 165.616 76.9195C168.63 76.266 171.202 75.2902 173.347 74.0145C174.758 73.2096 175.822 72.3845 176.537 71.5339C176.904 71.0931 177.113 70.6676 177.095 69.8574C177.076 69.0467 176.983 68.1165 176.884 66.5821C176.097 65.8394 174.432 65.3493 172.848 64.757C171.248 64.1464 169.456 63.6894 167.475 63.3921C165.48 63.0847 163.431 62.9427 161.335 62.9749C159.234 63.0088 157.222 63.2268 155.308 63.6372C153.401 64.0602 151.729 64.6817 150.298 65.5061C148.884 66.349 146.58 67.2191 145.999 68.2641C146.084 69.5862 146.137 70.398 146.207 71.4892C146.473 72.5742 147.797 73.659 148.859 74.5966L135.756 83.7916C135.601 83.9628 135.5 84.1391 135.449 84.3203C135.4 84.5018 135.41 84.6975 135.481 84.9073L136.976 90.5161C137.041 90.7115 137.209 90.869 137.479 90.988ZM163.361 69.0781C162.497 68.7881 162.025 68.3835 161.947 67.8678C161.87 67.3517 162.237 66.8824 163.054 66.4638C163.863 66.0564 164.874 65.8224 166.083 65.7582C167.291 65.6945 168.334 65.8128 169.208 66.1092C170.089 66.4048 170.541 66.792 170.567 67.2746C170.593 67.7571 170.207 68.1962 169.412 68.5957C168.598 69.0122 167.609 69.2714 166.439 69.3692C165.27 69.4674 164.245 69.3717 163.361 69.0781Z" fill="#F9B047" stroke="#0B1E37" stroke-width="0.549479"/>
<path d="M136.735 88.4854C137.004 88.6039 137.316 88.6191 137.672 88.5316L146.606 86.3565C146.978 86.26 147.263 86.1102 147.46 85.9074C147.658 85.7052 147.726 85.4941 147.662 85.2734L146.834 81.9005L154.706 80.363C155.048 80.2968 155.33 80.1715 155.553 79.9877C155.776 79.8045 155.868 79.6009 155.83 79.3764L155.125 75.0779C158.639 75.3182 161.875 75.0842 164.872 74.4169C167.885 73.7634 170.458 72.7875 172.603 71.5118C174.014 70.707 175.078 69.8819 175.792 69.0312C176.514 68.1922 176.869 67.3721 176.85 66.5619C176.832 65.7513 176.436 64.985 175.657 64.2543C174.87 63.5117 173.687 62.8466 172.104 62.2544C170.504 61.6437 168.712 61.1867 166.731 60.8895C164.735 60.5821 162.686 60.4401 160.591 60.4723C158.49 60.5062 156.478 60.7242 154.564 61.1346C152.657 61.5576 150.984 62.1791 149.553 63.0035C148.14 63.8464 147.144 64.793 146.563 65.838C145.995 66.8944 145.849 67.9699 146.116 69.0555C146.382 70.1405 147.052 71.1564 148.115 72.094L135.348 83.5515C135.194 83.7227 135.092 83.899 135.042 84.0802C134.993 84.2617 135.003 84.4574 135.073 84.6671L136.232 88.0135C136.297 88.2089 136.465 88.3664 136.735 88.4854ZM162.617 66.5755C161.753 66.2855 161.281 65.8809 161.203 65.3652C161.125 64.8491 161.493 64.3797 162.309 63.9612C163.118 63.5538 164.129 63.3198 165.339 63.2556C166.547 63.1919 167.589 63.3102 168.463 63.6066C169.345 63.9022 169.797 64.2894 169.823 64.772C169.849 65.2545 169.463 65.6936 168.668 66.0931C167.854 66.5096 166.864 66.7687 165.695 66.8666C164.526 66.9647 163.501 66.8691 162.617 66.5755Z" fill="#FED27F" stroke="#0B1E37" stroke-width="0.549479"/>
<path fill-rule="evenodd" clip-rule="evenodd" d="M41.8742 113.918V108.756L116.906 124.921L155.749 98.0052V102.478L116.906 129.394L41.8742 113.918Z" fill="#BFC4BF"/>
<path d="M41.8742 108.756V113.918L116.906 129.394L155.749 102.478V98.0052M41.8742 108.756L79.8268 82.5933M41.8742 108.756L116.906 124.921M41.8742 108.756L82.3341 97.6949M79.8268 82.5933L155.749 98.0052M79.8268 82.5933L82.5097 98.7521L84.1705 108.756L155.749 98.0052M155.749 98.0052L116.906 124.921M116.906 124.921L113.054 104.418" stroke="#0B1E37" stroke-width="0.549479"/>
<path fill-rule="evenodd" clip-rule="evenodd" d="M41.8742 108.756L116.906 124.921L155.749 98.0052L113.054 104.418L84.1705 108.756L82.5097 98.7521L82.3341 97.6949L79.8268 82.5933L41.8742 108.756Z" fill="#F9F8F7"/>
<path d="M41.8742 108.756V113.918L116.906 129.394L155.749 102.478V98.0052M41.8742 108.756L79.8268 82.5933M41.8742 108.756L116.906 124.921M41.8742 108.756L82.3341 97.6949M79.8268 82.5933L155.749 98.0052M79.8268 82.5933L82.5097 98.7521M79.8268 82.5933L82.3341 97.6949M155.749 98.0052L116.906 124.921M155.749 98.0052L84.1705 108.756M155.749 98.0052L113.054 104.418M116.906 124.921L113.054 104.418M113.054 104.418L84.1705 108.756M82.3341 97.6949L82.5097 98.7521M84.1705 108.756L82.5097 98.7521" stroke="#0B1E37" stroke-width="0.549479"/>
<path d="M155.749 98.0052L79.8268 82.5933L82.3341 97.6949L82.5097 98.7521L84.1705 108.756L113.054 104.418L155.749 98.0052Z" fill="white"/>
<path d="M41.8742 108.756V113.918L116.906 129.394L155.749 102.478V98.0052M41.8742 108.756L79.8268 82.5933M41.8742 108.756L116.906 124.921M41.8742 108.756L82.3341 97.6949M79.8268 82.5933L155.749 98.0052M79.8268 82.5933L82.5097 98.7521M79.8268 82.5933L82.3341 97.6949M155.749 98.0052L116.906 124.921M155.749 98.0052L84.1705 108.756M155.749 98.0052L113.054 104.418M116.906 124.921L113.054 104.418M113.054 104.418L84.1705 108.756M82.3341 97.6949L82.5097 98.7521M84.1705 108.756L82.5097 98.7521" stroke="#0B1E37" stroke-width="0.549479"/>
<path d="M104.066 26.8384L101.557 27.5103L102.037 29.2982C102.161 29.7625 102.138 30.1419 102.027 30.4703C101.893 30.8049 101.628 31.0251 101.256 31.1247L98.7008 31.809L99.286 33.9916L101.958 33.2761C102.399 33.1579 102.729 32.9949 102.924 32.7934L105.868 43.7759L108.424 43.0915L104.066 26.8384Z" fill="#2663BB"/>
<path d="M118.536 43.1397L113.712 50.1303L114.266 52.1968L125.79 49.1109L125.186 46.8587L117.333 48.9616L120.689 44.2055C121.573 42.9487 122.196 41.8362 122.552 40.8447C122.886 39.8596 122.933 38.8267 122.634 37.7122C122.229 36.203 121.394 35.1325 120.153 34.4945C118.888 33.8627 117.369 33.7716 115.557 34.2569C114.419 34.5617 113.482 35.0614 112.77 35.7498C112.035 36.4443 111.535 37.2749 111.282 38.1888C111.036 39.1258 111.046 40.0936 111.32 41.1152L111.438 41.5564L114.017 40.8658L113.936 40.564C113.675 39.5888 113.742 38.7247 114.138 37.9717C114.533 37.2187 115.219 36.7115 116.148 36.4627C117.101 36.2076 117.936 36.2577 118.631 36.6192C119.325 36.9807 119.797 37.6258 120.04 38.5313C120.233 39.2511 120.175 39.9634 119.918 40.6791C119.662 41.3948 119.186 42.2191 118.536 43.1397Z" fill="#2663BB"/>
<path d="M133.614 27.3318C132.766 26.8621 131.811 26.645 130.756 26.7035C131.653 26.2395 132.307 25.6162 132.697 24.84C133.086 24.0638 133.17 23.1702 132.909 22.1951C132.685 21.3592 132.247 20.6552 131.608 20.1295C130.969 19.6038 130.182 19.2672 129.223 19.1259C128.27 19.0078 127.198 19.0958 126.036 19.4068C124.317 19.8672 123.087 20.6692 122.296 21.8021C121.51 22.9581 121.293 24.2854 121.691 25.7714L124.224 25.0932C124 24.2574 124.127 23.5264 124.601 22.877C125.074 22.2277 125.772 21.7669 126.702 21.5181C127.584 21.2817 128.367 21.321 129.036 21.5896C129.706 21.8582 130.141 22.364 130.334 23.0838C130.545 23.8733 130.405 24.5578 129.972 25.1715C129.539 25.7852 128.788 26.2351 127.719 26.5213L126.395 26.876L126.968 29.0121L128.455 28.6139C129.57 28.3153 130.515 28.3111 131.237 28.5905C131.959 28.8699 132.447 29.3864 132.652 30.1527C132.876 30.9885 132.725 31.7258 132.229 32.3813C131.738 33.0601 131.011 33.5038 130.058 33.7589C128.966 34.0513 128.009 34.0091 127.202 33.6028C126.379 33.226 125.819 32.5299 125.552 31.5315L122.973 32.2221C123.421 33.8938 124.304 35.051 125.651 35.7105C126.998 36.3701 128.61 36.4363 130.468 35.9386C131.676 35.6151 132.695 35.1431 133.519 34.4996C134.348 33.8792 134.896 33.1353 135.22 32.3019C135.545 31.4684 135.576 30.5641 135.327 29.6354C135.041 28.5673 134.462 27.8015 133.614 27.3318Z" fill="#2663BB"/>
</svg>
