<svg width="1727" height="406" viewBox="0 0 1727 406" fill="none" xmlns="http://www.w3.org/2000/svg"><g filter="url(#a)"><rect x="17.1" width="1692.8" height="368" rx="16" fill="#3161C9"/></g><rect x="31" y="13" width="343" height="343" rx="10.514" fill="#fff"/><path d="M284.43 186.89c0-5.53-.49-10.78-1.33-15.89H204v31.57h45.29c-2.03 10.36-7.98 19.11-16.8 25.06v21h27.02c15.82-14.63 24.92-36.19 24.92-61.74Z" fill="#4285F4"/><path d="M204 269c22.68 0 41.65-7.56 55.51-20.37l-27.02-21c-7.56 5.04-17.15 8.12-28.49 8.12-21.91 0-40.46-14.77-47.11-34.72h-27.86v21.63C142.82 250.1 171.17 269 204 269Z" fill="#34A853"/><path d="M156.89 201.03c-1.75-5.04-2.66-10.43-2.66-16.03 0-5.6.98-10.99 2.66-16.03v-21.63h-27.86C123.29 158.68 120 171.42 120 185c0 13.58 3.29 26.32 9.03 37.66l27.86-21.63Z" fill="#FBBC05"/><path d="M204 134.25c12.39 0 23.45 4.27 32.2 12.6l23.94-23.94C245.65 109.33 226.68 101 204 101c-32.83 0-61.18 18.9-74.97 46.34l27.86 21.63c6.65-19.95 25.2-34.72 47.11-34.72Z" fill="#EA4335"/><path d="M530.52 205.443c0-1.675-.258-3.179-.774-4.511-.473-1.375-1.375-2.621-2.707-3.739-1.332-1.16-3.201-2.298-5.607-3.416-2.407-1.117-5.522-2.277-9.346-3.48a118.195 118.195 0 0 1-12.117-4.641c-3.781-1.718-7.133-3.717-10.055-5.994-2.879-2.32-5.156-5.006-6.832-8.057-1.633-3.05-2.449-6.595-2.449-10.634 0-3.91.859-7.455 2.578-10.635 1.719-3.223 4.125-5.973 7.219-8.25 3.093-2.32 6.746-4.104 10.957-5.35 4.254-1.246 8.916-1.869 13.986-1.869 6.918 0 12.955 1.246 18.111 3.738 5.157 2.493 9.153 5.909 11.989 10.249 2.879 4.339 4.318 9.302 4.318 14.888h-19.207c0-2.75-.58-5.156-1.74-7.219-1.117-2.105-2.836-3.759-5.156-4.962-2.278-1.204-5.157-1.805-8.637-1.805-3.352 0-6.145.515-8.379 1.547-2.234.988-3.91 2.342-5.027 4.06-1.118 1.676-1.676 3.567-1.676 5.672 0 1.59.386 3.029 1.16 4.319.816 1.289 2.019 2.492 3.609 3.609 1.59 1.117 3.545 2.17 5.866 3.158 2.32.988 5.005 1.955 8.056 2.9 5.113 1.547 9.604 3.288 13.471 5.221 3.91 1.934 7.176 4.104 9.797 6.51 2.621 2.406 4.597 5.135 5.929 8.186 1.332 3.05 1.998 6.509 1.998 10.376 0 4.082-.794 7.735-2.384 10.957-1.59 3.223-3.889 5.952-6.897 8.186-3.008 2.234-6.595 3.932-10.763 5.092-4.168 1.16-8.831 1.74-13.987 1.74-4.64 0-9.217-.601-13.728-1.805-4.512-1.246-8.616-3.115-12.311-5.607-3.652-2.492-6.574-5.672-8.765-9.539-2.192-3.867-3.288-8.443-3.288-13.729h19.401c0 2.922.451 5.393 1.353 7.412.903 2.02 2.17 3.653 3.803 4.899 1.676 1.246 3.652 2.148 5.93 2.707 2.32.559 4.855.838 7.605.838 3.352 0 6.102-.473 8.25-1.418 2.192-.945 3.803-2.256 4.834-3.932 1.074-1.676 1.612-3.566 1.612-5.672Zm50.918-45.181V230h-18.627v-69.738h18.627Zm-19.788-18.176c0-2.707.946-4.941 2.836-6.703 1.891-1.762 4.426-2.643 7.606-2.643 3.137 0 5.65.881 7.541 2.643 1.933 1.762 2.9 3.996 2.9 6.703 0 2.707-.967 4.941-2.9 6.703-1.891 1.762-4.404 2.643-7.541 2.643-3.18 0-5.715-.881-7.606-2.643-1.89-1.762-2.836-3.996-2.836-6.703Zm79.278 18.176h16.822v67.418c0 6.359-1.418 11.752-4.254 16.177-2.793 4.469-6.703 7.842-11.73 10.12-5.028 2.32-10.871 3.48-17.532 3.48-2.922 0-6.015-.387-9.281-1.16a37.174 37.174 0 0 1-9.281-3.609c-2.922-1.633-5.371-3.696-7.348-6.188l8.186-10.957c2.148 2.492 4.64 4.426 7.476 5.801 2.836 1.418 5.973 2.127 9.41 2.127 3.352 0 6.188-.623 8.508-1.869 2.321-1.204 4.104-2.987 5.35-5.35 1.246-2.32 1.869-5.135 1.869-8.443v-51.434l1.805-16.113Zm-46.922 35.707v-1.354c0-5.328.644-10.162 1.933-14.502 1.332-4.383 3.202-8.142 5.608-11.279 2.449-3.137 5.414-5.564 8.894-7.283 3.481-1.719 7.413-2.578 11.795-2.578 4.641 0 8.53.859 11.666 2.578 3.137 1.719 5.715 4.168 7.735 7.347 2.019 3.137 3.588 6.854 4.705 11.151 1.16 4.254 2.062 8.916 2.707 13.986V197c-.645 4.855-1.611 9.367-2.901 13.535-1.289 4.168-2.986 7.82-5.091 10.957-2.106 3.094-4.727 5.5-7.864 7.219-3.093 1.719-6.789 2.578-11.086 2.578-4.296 0-8.185-.881-11.666-2.643-3.437-1.761-6.38-4.232-8.83-7.412-2.449-3.179-4.34-6.918-5.672-11.214-1.289-4.297-1.933-8.981-1.933-14.051Zm18.562-1.354v1.354c0 2.879.28 5.564.838 8.056.559 2.493 1.418 4.705 2.578 6.639 1.204 1.891 2.686 3.373 4.448 4.447 1.804 1.032 3.931 1.547 6.38 1.547 3.395 0 6.167-.709 8.315-2.127 2.148-1.461 3.76-3.459 4.834-5.994 1.074-2.535 1.697-5.457 1.869-8.766v-8.443c-.086-2.707-.451-5.135-1.096-7.283-.644-2.191-1.546-4.061-2.707-5.607-1.16-1.547-2.664-2.75-4.511-3.61-1.848-.859-4.039-1.289-6.575-1.289-2.449 0-4.576.559-6.38 1.676-1.762 1.074-3.245 2.556-4.448 4.447-1.16 1.891-2.041 4.125-2.642 6.703-.602 2.535-.903 5.285-.903 8.25Zm77.795-19.465V230h-18.562v-69.738h17.402l1.16 14.888Zm-2.707 17.532h-5.027c0-5.157.666-9.797 1.998-13.922 1.332-4.168 3.201-7.713 5.607-10.635 2.407-2.965 5.264-5.221 8.573-6.768 3.351-1.589 7.089-2.384 11.214-2.384 3.266 0 6.252.472 8.959 1.418 2.708.945 5.028 2.449 6.961 4.511 1.977 2.063 3.481 4.791 4.512 8.186 1.074 3.394 1.611 7.541 1.611 12.439V230h-18.691v-44.537c0-3.094-.43-5.5-1.289-7.219-.859-1.719-2.127-2.922-3.803-3.609-1.633-.731-3.652-1.096-6.058-1.096-2.493 0-4.662.494-6.51 1.482-1.805.989-3.309 2.364-4.512 4.125-1.16 1.719-2.041 3.739-2.642 6.059-.602 2.32-.903 4.813-.903 7.477Zm110.989-32.42V230h-18.627v-69.738h18.627Zm-19.788-18.176c0-2.707.946-4.941 2.836-6.703 1.891-1.762 4.426-2.643 7.606-2.643 3.137 0 5.65.881 7.541 2.643 1.933 1.762 2.9 3.996 2.9 6.703 0 2.707-.967 4.941-2.9 6.703-1.891 1.762-4.404 2.643-7.541 2.643-3.18 0-5.715-.881-7.606-2.643-1.89-1.762-2.836-3.996-2.836-6.703Zm53.303 33.064V230h-18.562v-69.738H831l1.16 14.888Zm-2.707 17.532h-5.027c0-5.157.666-9.797 1.998-13.922 1.332-4.168 3.201-7.713 5.607-10.635 2.407-2.965 5.264-5.221 8.573-6.768 3.351-1.589 7.089-2.384 11.214-2.384 3.266 0 6.252.472 8.959 1.418 2.707.945 5.028 2.449 6.961 4.511 1.977 2.063 3.481 4.791 4.512 8.186 1.074 3.394 1.611 7.541 1.611 12.439V230H855.17v-44.537c0-3.094-.43-5.5-1.289-7.219-.86-1.719-2.127-2.922-3.803-3.609-1.633-.731-3.652-1.096-6.058-1.096-2.493 0-4.663.494-6.51 1.482-1.805.989-3.309 2.364-4.512 4.125-1.16 1.719-2.041 3.739-2.643 6.059-.601 2.32-.902 4.813-.902 7.477Zm111.311 19.271 14.502-51.691h11.795l-3.803 20.302L948.756 230h-9.861l1.869-18.047Zm-7.348-51.691 10.377 51.627.967 18.111h-11.602l-17.66-69.738h17.918Zm46.922 50.789 10.119-50.789h17.983L990.779 230h-11.537l1.096-18.949Zm-11.666-50.789 14.437 51.304L985.107 230h-9.925l-14.502-49.371-3.674-20.367h11.666Zm68.708 0V230h-18.63v-69.738h18.63Zm-19.79-18.176c0-2.707.95-4.941 2.84-6.703 1.89-1.762 4.42-2.643 7.6-2.643 3.14 0 5.65.881 7.54 2.643 1.94 1.762 2.9 3.996 2.9 6.703 0 2.707-.96 4.941-2.9 6.703-1.89 1.762-4.4 2.643-7.54 2.643-3.18 0-5.71-.881-7.6-2.643-1.89-1.762-2.84-3.996-2.84-6.703Zm69.29 18.176v13.148h-40.61v-13.148h40.61Zm-30.55-17.209h18.56v65.935c0 2.02.26 3.567.77 4.641.56 1.074 1.38 1.826 2.45 2.256 1.08.386 2.43.58 4.06.58 1.16 0 2.2-.043 3.1-.129.94-.129 1.74-.258 2.38-.387l.07 13.664c-1.59.516-3.31.924-5.16 1.225-1.85.301-3.89.451-6.12.451-4.08 0-7.65-.666-10.7-1.998-3.01-1.375-5.33-3.566-6.96-6.574-1.64-3.008-2.45-6.961-2.45-11.86v-67.804ZM1115.56 131v99H1097v-99h18.56Zm-2.64 61.682h-5.09c.04-4.856.68-9.325 1.93-13.407 1.25-4.125 3.03-7.691 5.35-10.699 2.32-3.051 5.09-5.414 8.31-7.09 3.27-1.675 6.88-2.513 10.83-2.513 3.44 0 6.55.494 9.35 1.482 2.83.945 5.26 2.492 7.28 4.641 2.06 2.105 3.65 4.877 4.77 8.314 1.12 3.438 1.68 7.606 1.68 12.504V230h-18.7v-44.215c0-3.094-.45-5.521-1.35-7.283-.86-1.805-2.13-3.072-3.8-3.803-1.63-.773-3.65-1.16-6.06-1.16-2.66 0-4.94.494-6.83 1.482a11.75 11.75 0 0 0-4.45 4.125c-1.12 1.719-1.93 3.739-2.45 6.059-.51 2.32-.77 4.813-.77 7.477Zm166.93-11.731v37.19c-1.46 1.761-3.72 3.673-6.77 5.736-3.05 2.019-6.98 3.76-11.79 5.221-4.81 1.461-10.64 2.191-17.47 2.191-6.06 0-11.58-.988-16.56-2.965-4.99-2.019-9.28-4.963-12.89-8.83-3.57-3.867-6.32-8.594-8.25-14.18-1.94-5.628-2.9-12.052-2.9-19.271v-5.865c0-7.219.92-13.643 2.77-19.272 1.89-5.629 4.57-10.377 8.05-14.244a34.596 34.596 0 0 1 12.44-8.83c4.82-2.02 10.17-3.029 16.05-3.029 8.17 0 14.87 1.332 20.11 3.996 5.24 2.621 9.24 6.273 11.99 10.957 2.79 4.64 4.51 9.969 5.16 15.984h-18.76c-.47-3.179-1.37-5.951-2.71-8.314-1.33-2.364-3.24-4.211-5.73-5.543-2.45-1.332-5.63-1.998-9.54-1.998-3.22 0-6.1.666-8.64 1.998-2.49 1.289-4.6 3.201-6.31 5.736-1.72 2.535-3.03 5.672-3.94 9.41-.9 3.739-1.35 8.078-1.35 13.02v5.994c0 4.898.47 9.238 1.42 13.019.94 3.739 2.34 6.897 4.19 9.475 1.89 2.535 4.21 4.447 6.96 5.736 2.75 1.289 5.95 1.934 9.6 1.934 3.05 0 5.59-.258 7.61-.773 2.06-.516 3.71-1.139 4.96-1.87 1.29-.773 2.28-1.503 2.97-2.191v-16.629h-17.66v-13.793h36.99Zm11.47 14.889v-1.354c0-5.113.73-9.818 2.2-14.115 1.46-4.34 3.58-8.1 6.38-11.279 2.79-3.18 6.23-5.651 10.31-7.412 4.08-1.805 8.76-2.707 14.05-2.707 5.28 0 9.99.902 14.12 2.707 4.12 1.761 7.58 4.232 10.37 7.412 2.84 3.179 4.99 6.939 6.45 11.279 1.46 4.297 2.19 9.002 2.19 14.115v1.354c0 5.07-.73 9.775-2.19 14.115-1.46 4.297-3.61 8.057-6.45 11.279-2.79 3.18-6.23 5.651-10.31 7.412-4.08 1.762-8.77 2.643-14.05 2.643-5.29 0-9.99-.881-14.12-2.643-4.08-1.761-7.54-4.232-10.37-7.412-2.8-3.222-4.92-6.982-6.38-11.279-1.47-4.34-2.2-9.045-2.2-14.115Zm18.57-1.354v1.354c0 2.922.25 5.65.77 8.185.52 2.536 1.33 4.77 2.45 6.704 1.16 1.89 2.66 3.373 4.51 4.447 1.85 1.074 4.1 1.611 6.77 1.611 2.58 0 4.79-.537 6.64-1.611 1.85-1.074 3.33-2.557 4.44-4.447 1.12-1.934 1.94-4.168 2.45-6.704.56-2.535.84-5.263.84-8.185v-1.354c0-2.836-.28-5.5-.84-7.992-.51-2.535-1.35-4.769-2.51-6.703-1.12-1.977-2.6-3.523-4.45-4.641-1.84-1.117-4.08-1.675-6.7-1.675s-4.86.558-6.7 1.675c-1.81 1.118-3.29 2.664-4.45 4.641-1.12 1.934-1.93 4.168-2.45 6.703-.52 2.492-.77 5.156-.77 7.992Zm55.94 1.354v-1.354c0-5.113.73-9.818 2.19-14.115 1.46-4.34 3.59-8.1 6.38-11.279 2.8-3.18 6.23-5.651 10.32-7.412 4.08-1.805 8.76-2.707 14.05-2.707 5.28 0 9.99.902 14.11 2.707 4.13 1.761 7.59 4.232 10.38 7.412 2.84 3.179 4.98 6.939 6.45 11.279 1.46 4.297 2.19 9.002 2.19 14.115v1.354c0 5.07-.73 9.775-2.19 14.115-1.47 4.297-3.61 8.057-6.45 11.279-2.79 3.18-6.23 5.651-10.31 7.412-4.08 1.762-8.77 2.643-14.05 2.643-5.29 0-9.99-.881-14.12-2.643-4.08-1.761-7.54-4.232-10.38-7.412-2.79-3.222-4.92-6.982-6.38-11.279-1.46-4.34-2.19-9.045-2.19-14.115Zm18.56-1.354v1.354c0 2.922.26 5.65.78 8.185.51 2.536 1.33 4.77 2.45 6.704 1.16 1.89 2.66 3.373 4.51 4.447 1.85 1.074 4.1 1.611 6.77 1.611 2.57 0 4.79-.537 6.64-1.611a12.246 12.246 0 0 0 4.44-4.447c1.12-1.934 1.94-4.168 2.45-6.704.56-2.535.84-5.263.84-8.185v-1.354c0-2.836-.28-5.5-.84-7.992-.51-2.535-1.35-4.769-2.51-6.703-1.12-1.977-2.6-3.523-4.45-4.641-1.85-1.117-4.08-1.675-6.7-1.675s-4.86.558-6.71 1.675c-1.8 1.118-3.28 2.664-4.44 4.641-1.12 1.934-1.94 4.168-2.45 6.703-.52 2.492-.78 5.156-.78 7.992Zm103.07-34.224h16.82v67.418c0 6.359-1.42 11.752-4.26 16.177-2.79 4.469-6.7 7.842-11.73 10.12-5.02 2.32-10.87 3.48-17.53 3.48-2.92 0-6.01-.387-9.28-1.16a37.137 37.137 0 0 1-9.28-3.609c-2.92-1.633-5.37-3.696-7.35-6.188l8.19-10.957c2.15 2.492 4.64 4.426 7.47 5.801 2.84 1.418 5.98 2.127 9.41 2.127 3.36 0 6.19-.623 8.51-1.869 2.32-1.204 4.11-2.987 5.35-5.35 1.25-2.32 1.87-5.135 1.87-8.443v-51.434l1.81-16.113Zm-46.93 35.707v-1.354c0-5.328.65-10.162 1.94-14.502 1.33-4.383 3.2-8.142 5.6-11.279 2.45-3.137 5.42-5.564 8.9-7.283 3.48-1.719 7.41-2.578 11.79-2.578 4.64 0 8.53.859 11.67 2.578 3.14 1.719 5.71 4.168 7.73 7.347 2.02 3.137 3.59 6.854 4.71 11.151 1.16 4.254 2.06 8.916 2.71 13.986V197c-.65 4.855-1.62 9.367-2.9 13.535-1.29 4.168-2.99 7.82-5.1 10.957-2.1 3.094-4.72 5.5-7.86 7.219-3.09 1.719-6.79 2.578-11.09 2.578-4.29 0-8.18-.881-11.66-2.643-3.44-1.761-6.38-4.232-8.83-7.412-2.45-3.179-4.34-6.918-5.67-11.214-1.29-4.297-1.94-8.981-1.94-14.051Zm18.57-1.354v1.354c0 2.879.28 5.564.83 8.056.56 2.493 1.42 4.705 2.58 6.639 1.2 1.891 2.69 3.373 4.45 4.447 1.8 1.032 3.93 1.547 6.38 1.547 3.39 0 6.17-.709 8.31-2.127 2.15-1.461 3.76-3.459 4.84-5.994 1.07-2.535 1.7-5.457 1.87-8.766v-8.443c-.09-2.707-.45-5.135-1.1-7.283-.64-2.191-1.55-4.061-2.71-5.607-1.16-1.547-2.66-2.75-4.51-3.61-1.84-.859-4.04-1.289-6.57-1.289-2.45 0-4.58.559-6.38 1.676-1.76 1.074-3.25 2.556-4.45 4.447-1.16 1.891-2.04 4.125-2.64 6.703-.6 2.535-.9 5.285-.9 8.25ZM1538.31 131v99h-18.63v-99h18.63Zm47.44 100.289c-5.42 0-10.27-.859-14.57-2.578-4.3-1.762-7.95-4.19-10.96-7.283-2.96-3.094-5.24-6.682-6.83-10.764-1.59-4.125-2.38-8.508-2.38-13.148v-2.578c0-5.286.75-10.12 2.25-14.502 1.51-4.383 3.65-8.186 6.45-11.409 2.83-3.222 6.27-5.693 10.31-7.412 4.04-1.761 8.59-2.642 13.66-2.642 4.94 0 9.33.816 13.15 2.449 3.83 1.633 7.03 3.953 9.61 6.961 2.62 3.008 4.59 6.617 5.93 10.828 1.33 4.168 1.99 8.809 1.99 13.922v7.734h-55.43v-12.375h37.19v-1.418c0-2.578-.47-4.877-1.41-6.896-.91-2.063-2.28-3.696-4.13-4.899-1.85-1.203-4.21-1.804-7.09-1.804-2.45 0-4.55.537-6.32 1.611-1.76 1.074-3.2 2.578-4.31 4.512-1.08 1.933-1.9 4.211-2.45 6.832-.52 2.578-.78 5.414-.78 8.508v2.578c0 2.793.39 5.371 1.16 7.734.82 2.363 1.96 4.404 3.42 6.123a15.585 15.585 0 0 0 5.41 3.996c2.15.945 4.58 1.418 7.29 1.418 3.35 0 6.46-.644 9.34-1.933 2.92-1.333 5.44-3.331 7.54-5.995l9.03 9.797c-1.46 2.106-3.46 4.125-6 6.059-2.49 1.933-5.5 3.523-9.02 4.769-3.52 1.204-7.54 1.805-12.05 1.805Z" fill="#fff"/><defs><filter id="a" x=".1" y="0" width="1726.8" height="406" filterUnits="userSpaceOnUse" color-interpolation-filters="sRGB"><feFlood flood-opacity="0" result="BackgroundImageFix"/><feColorMatrix in="SourceAlpha" values="0 0 0 0 0 0 0 0 0 0 0 0 0 0 0 0 0 0 127 0" result="hardAlpha"/><feOffset dy="21"/><feGaussianBlur stdDeviation="8.5"/><feComposite in2="hardAlpha" operator="out"/><feColorMatrix values="0 0 0 0 0 0 0 0 0 0 0 0 0 0 0 0 0 0 0.25 0"/><feBlend in2="BackgroundImageFix" result="effect1_dropShadow_2_23"/><feBlend in="SourceGraphic" in2="effect1_dropShadow_2_23" result="shape"/></filter></defs></svg>