<svg width="1187" height="463" fill="none" xmlns="http://www.w3.org/2000/svg"><g clip-path="url(#a)" fill="#000"><path shape-rendering="geometricPrecision" d="M632.964 362.109c-34.242 0-60.608-7.191-79.099-21.572a77.054 77.054 0 0 1-29.277-61.55h49.822a44.08 44.08 0 0 0 16.094 32.444 68.997 68.997 0 0 0 40.32 9.673 91.746 91.746 0 0 0 18.577-1.798 51.343 51.343 0 0 0 15.494-5.564 31.59 31.59 0 0 0 10.701-10.015 26.884 26.884 0 0 0 4.023-14.896 25.17 25.17 0 0 0-4.366-15.152 34.24 34.24 0 0 0-12.498-9.93 97.894 97.894 0 0 0-19.432-7.02c-7.619-1.969-16.18-4.023-25.682-6.163-11.3-2.569-22.086-5.479-32.53-8.561a98.172 98.172 0 0 1-27.308-12.841 61.028 61.028 0 0 1-18.919-20.716 64.55 64.55 0 0 1-7.19-32.273 70.974 70.974 0 0 1 7.19-32.616 65.834 65.834 0 0 1 19.946-23.455 89.814 89.814 0 0 1 30.39-14.211 146.483 146.483 0 0 1 38.522-4.794 107.952 107.952 0 0 1 68.485 20.032 77.045 77.045 0 0 1 28.592 58.211h-48.71a38.352 38.352 0 0 0-15.494-28.421 55.729 55.729 0 0 0-32.958-9.416 59.24 59.24 0 0 0-32.958 8.047 24.48 24.48 0 0 0-12.242 21.401 22.604 22.604 0 0 0 3.339 12.755 28.327 28.327 0 0 0 10.101 8.989 78.548 78.548 0 0 0 17.121 6.677c6.763 1.883 14.896 3.852 24.227 5.907 12.84 2.825 24.911 5.906 36.296 9.331a112.171 112.171 0 0 1 29.791 13.525 61.141 61.141 0 0 1 20.203 21.401 67.284 67.284 0 0 1 7.361 33.301 75.515 75.515 0 0 1-7.361 33.814 69.604 69.604 0 0 1-20.374 24.911 92.888 92.888 0 0 1-30.818 15.323 137.825 137.825 0 0 1-39.379 5.222Zm177.203-87.659-20.631 21.401v60.608h-47.425V105.722h47.425v138.852l63.776-68.485h56.927l-66.258 68.485 74.391 111.286h-57.955l-50.25-81.41Zm112.4-168.728h47.596v42.803h-47.682l.086-42.803Zm0 70.795h47.596v179.771h-47.682l.086-179.771Zm232.163-13.268v-20.974H1187v-36.21a131.699 131.699 0 0 0-31.93 0 66.552 66.552 0 0 0-25.68 8.56 46.184 46.184 0 0 0-16.7 17.72 59.298 59.298 0 0 0-5.56 27.907v16.094h-53.67v-34.242h30.47v-34.841a127.118 127.118 0 0 0-30.82 0 65.098 65.098 0 0 0-24.91 8.56 45.24 45.24 0 0 0-16.52 17.721 58.773 58.773 0 0 0-5.91 27.65v14.724h-24.565v33.044h24.565V355.86h47.69V209.561h53.67v146.898h47.68V209.561h32.28v-33.044h-32.28l-.08-13.268Zm-984.033 1.113-4.794-.428v.428c3.71 0 7.391.257 11.043.77l-6.249-.77Z"/><path d="M293.69 35.41a130.99 130.99 0 0 1 39.1 5.25c.4.12.8.25 1.21.38-20.17-10.48-41.92-17.86-64.45-21.59-19.93-3.37-40.41-3.87-60.49-1.71-7.35.93-15.21 2.07-22.38 3.71-4.53.97-10.3 2.46-14.64 3.75-2 .49-5.21 1.59-7.2 2.26-1.32.41-4.12 1.4-5.37 1.79-3.37 1.28-9.02 3.43-12.26 4.9-3.25 1.48-7.14 3.1-10.26 4.77-7.86 3.87-15.52 8.34-22.85 13.13-1.9 1.18-7.3 5.08-9.26 6.46-2.76 2.02-6.17 4.84-8.9 6.94-1.73 1.47-6.69 5.8-8.52 7.4-2.02 2.04-6.21 5.89-8.12 7.83-1.32 1.36-3.84 4.12-5.15 5.48-2.38 2.45-6.39 7.29-8.63 9.92C23.32 147.93 8 216.72 23.58 281.62c.8 2.98 1.86 7.01 2.66 9.98.61 1.88 2.54 8 3.14 9.83.45 1.24 1.52 4.03 1.97 5.28.43 1.12 1.52 4.17 2.02 5.26.58 1.44 3.1 7.13 3.71 8.62 1.1 2.19 3.82 7.98 4.97 10.11 1.7 2.99 3.69 6.92 5.5 9.83 1.35 2.02 4.55 7.61 6.02 9.53 1.06 1.51 3.2 4.68 4.27 6.19 1.62 2.29 5.14 6.73 6.82 8.99 1.54 1.79 5.73 6.85 7.29 8.62 1.83 1.92 4.6 4.94 6.43 6.87 1.32 1.5 2.68 2.62 3.96 3.92l1.34 1.29c.45.42.93.81 1.39 1.22l2.79 2.44.7.61.73.57 1.46 1.15c2.23 1.86 5.09 3.81 7.45 5.5 1.8 1.18 4.41 2.88 6.27 3.95.75.4 2.46 1.42 3.22 1.84 6.99 3.86 14.54 7.08 22.15 9.5l.88.3.89.25c1.7.42 3.66 1.1 5.38 1.49 1.99.44 5.24 1.28 7.27 1.58 7.28 1.41 14.67 2.12 22.06 2.17 15.46-.49 30.84-3.78 45.33-9.89 46.2-19.4 75.82-65.62 75.8-114.49-.75-.04-1.51-.08-2.26-.13-2.65-.04-5.32-.08-7.85-.3-3.89-.28-7.84-.85-11.69-1.54-5.19-.89-10.32-2.19-15.35-3.75-1.39-.51-4.3-1.42-5.63-1.92-1.09-.44-4.38-1.74-5.54-2.2-1.26-.6-4.23-1.9-5.43-2.47-2.76-1.39-6.15-3.1-8.78-4.72-1.95-1.1-4.88-2.97-6.77-4.24-33.49-22.51-54.39-59.79-56.57-100.06-3.92-78.01 59.3-139.05 132.11-137.39Zm-169.4 319.64c-4.8-3.56-9.49-7.83-13.66-12.14-3.05-2.93-6.41-6.78-9.23-9.91a188.718 188.718 0 0 1-34.2-58.37C28.69 168.04 91.18 49.86 202.84 26.05c9.97-2.06 20.41-3.23 30.58-3.52l-4.3.83c-4.12.73-8.73 1.77-12.77 2.82a199.896 199.896 0 0 0-49.86 20.13c-1.63.96-4.77 2.87-6.43 3.84-1.49 1.01-4.69 3.07-6.25 4.11l-6.94 4.96c-3.2 2.52-6.86 5.31-9.91 8.05-.99.86-2.28 1.91-3.2 2.79-1.89 1.83-4.41 3.97-6.19 5.82-2.81 2.79-6.13 6.25-8.73 9.24-1.86 1.85-6.41 7.57-8.17 9.71-1.08 1.44-5.34 7.19-6.21 8.53-.69 1-2.79 4.19-3.52 5.26-32.29 49.94-38.54 113.64-16.82 168.96 5.33 13.69 12.47 26.74 20.84 38.83 1.65 2.3 3.96 5.35 5.63 7.65 1.8 2.16 4.21 5.2 6.02 7.36 2.59 2.8 5.85 6.59 8.57 9.26 30.53 30.56 78.13 39.5 117.7 21.95-36.15 22.67-85.08 18.16-118.59-7.58Zm3.31-129.19c6.61 27.08 20.8 52.18 40.25 72.12 23.1 23.28 59.29 33.51 90.88 23.36-26.86 13.97-60.89 9.97-86.15-6-6.46-3.97-12.56-8.97-17.91-14.37-19.88-19.4-34.45-44.39-41.61-71.35-12.07-44.19-4.02-93.53 22.03-131.28 25.51-37.43 67.05-62.95 112.23-66.9 4.77-.38 9.87-.57 14.65-.52-2.59.47-8.31 1.44-10.73 2.04-3.39.72-7.2 1.68-10.54 2.63-82.88 23.27-133.72 106.14-113.1 190.27Z"/><path d="M250.94 444.26c7.35-.93 15.22-2.07 22.38-3.71 4.53-.97 10.3-2.46 14.64-3.75 2-.49 5.21-1.59 7.2-2.26 1.32-.4 4.12-1.4 5.37-1.79 3.37-1.28 9.02-3.43 12.26-4.9 3.25-1.48 7.14-3.1 10.25-4.77 7.86-3.87 15.52-8.34 22.85-13.13 1.9-1.19 7.3-5.08 9.26-6.46 2.76-2.02 6.17-4.84 8.9-6.94 1.73-1.47 6.69-5.8 8.52-7.4 2.02-2.04 6.21-5.89 8.12-7.83 1.32-1.36 3.84-4.12 5.15-5.48 2.38-2.45 6.39-7.29 8.63-9.92 42.19-51.83 57.51-120.62 41.93-185.52-.8-2.98-1.86-7.01-2.66-9.98-.61-1.87-2.55-8-3.14-9.83-.45-1.24-1.52-4.03-1.97-5.28-.43-1.12-1.52-4.17-2.02-5.26-.58-1.44-3.1-7.13-3.71-8.62-1.1-2.19-3.82-7.98-4.97-10.11-1.7-2.99-3.69-6.92-5.5-9.83-1.35-2.02-4.55-7.61-6.02-9.53-1.06-1.51-3.2-4.68-4.27-6.19-1.62-2.29-5.14-6.73-6.82-8.99-1.54-1.79-5.73-6.85-7.29-8.62-1.83-1.92-4.6-4.94-6.43-6.87-1.45-1.62-3.78-3.68-5.29-5.21-1.62-1.42-3.93-3.5-5.61-4.84-1.36-1.04-2.99-2.4-4.38-3.42-.82-.58-3.69-2.63-4.53-3.22-1.8-1.18-4.41-2.88-6.27-3.95-.75-.4-2.46-1.42-3.22-1.84-6.99-3.86-14.54-7.08-22.15-9.5l-.88-.29-.89-.25c-1.7-.42-3.66-1.1-5.38-1.49-1.99-.44-5.24-1.28-7.27-1.58-7.28-1.41-14.67-2.12-22.06-2.17-15.47.49-30.84 3.78-45.33 9.89-46.21 19.4-75.84 65.65-75.8 114.53 3.41-.01 6.86.11 10.12.39 3.89.28 7.84.85 11.7 1.54 5.19.89 10.32 2.19 15.35 3.75 1.39.51 4.3 1.42 5.63 1.92 1.09.44 4.38 1.74 5.54 2.2 1.26.6 4.23 1.9 5.43 2.47 2.76 1.39 6.15 3.1 8.78 4.72 1.95 1.1 4.88 2.97 6.77 4.24 33.49 22.51 54.39 59.79 56.57 100.06 3.91 78.01-59.31 139.05-132.12 137.38a130.99 130.99 0 0 1-39.1-5.25c-.4-.12-.8-.25-1.21-.37 20.17 10.48 41.92 17.86 64.45 21.59 19.93 3.33 40.41 3.83 60.49 1.67Zm84.77-337.31c4.8 3.56 9.49 7.83 13.67 12.14 3.04 2.93 6.41 6.78 9.23 9.91a188.718 188.718 0 0 1 34.2 58.37c38.51 106.59-23.99 224.77-135.64 248.58-9.97 2.06-20.41 3.23-30.58 3.52l4.3-.83c4.12-.73 8.73-1.77 12.77-2.82a199.896 199.896 0 0 0 49.86-20.13c1.63-.96 4.77-2.87 6.43-3.84 1.49-1.01 4.69-3.07 6.25-4.11l6.94-4.96c2.23-1.76 4.48-3.49 6.69-5.27 1.61-1.34 4.09-3.55 5.65-4.84 2.18-2 4.89-4.48 6.97-6.54 2.81-2.79 6.13-6.25 8.73-9.24 1.86-1.85 6.41-7.57 8.17-9.71 1.08-1.44 5.35-7.19 6.22-8.53.69-1 2.79-4.19 3.52-5.26 32.29-49.94 38.54-113.64 16.82-168.96-5.33-13.69-12.47-26.74-20.84-38.84-1.65-2.3-3.96-5.35-5.63-7.65-1.8-2.16-4.21-5.2-6.02-7.36-2.59-2.8-5.85-6.59-8.57-9.26-30.53-30.56-78.13-39.5-117.69-21.95 36.11-22.67 85.04-18.16 118.55 7.58ZM208.77 429.04c3.4-.72 7.2-1.68 10.54-2.63 82.87-23.27 133.71-106.15 113.09-190.28-6.61-27.08-20.8-52.18-40.25-72.12-23.1-23.28-59.29-33.51-90.88-23.36 26.86-13.97 60.89-9.97 86.15 6 6.46 3.97 12.55 8.97 17.9 14.37 19.88 19.4 34.45 44.39 41.62 71.35 12.07 44.19 4.02 93.54-22.03 131.28-25.51 37.43-67.05 62.95-112.23 66.9-4.77.38-9.87.58-14.65.52 2.6-.46 8.32-1.43 10.74-2.03Z"/></g><defs><clipPath id="a"><path fill="#fff" d="M0 0h1187v462.267H0z"/></clipPath></defs></svg>